<svg id="Warstwa_1" data-name="Warstwa 1" xmlns="http://www.w3.org/2000/svg" xmlns:xlink="http://www.w3.org/1999/xlink" viewBox="0 0 24.02 16.02"><defs><style>.cls-1{fill:none;}.cls-2{clip-path:url(#clip-path);}.cls-3{fill:#050806;}.cls-4{fill:#fefefe;}.cls-5{fill:#c31230;}.cls-6{fill:#050707;}.cls-7{fill:#d61e25;}.cls-8{fill:#d51e25;}</style><clipPath id="clip-path" transform="translate(-737.05 -531.25)"><rect class="cls-1" x="741.5" y="531.36" width="15.12" height="15.12"/></clipPath></defs><title>Albania</title><g class="cls-2"><path class="cls-3" d="M737.05,531.25h24v16h-24Zm.05,16H761V531.29H737.1Z" transform="translate(-737.05 -531.25)"/><path class="cls-4" d="M737.05,547.25h24v-16h0a.22.22,0,0,1,0,.08v15.93H737.14l-.09,0" transform="translate(-737.05 -531.25)"/><path class="cls-5" d="M737.1,531.29H761V547.2H737.1Zm14.58,11.56c0-.26,0-.33.26-.41a.36.36,0,0,0,.24-.25.71.71,0,0,1,.11-.21c.07-.09.15-.09.21,0s.08.18.14.27a.32.32,0,0,0,.14.16c.14.06.24.13.17.3.15,0,.19-.11.25-.2.24-.35.06-.58-.23-.78a1.09,1.09,0,0,1,.14,0c.07,0,.16.07.21.05s.17,0,.23.08l.09.12c0-.08,0-.12,0-.17a2.73,2.73,0,0,0,0-.4.26.26,0,0,0-.16-.23l-.27-.1c.16,0,.23-.25.45-.16a1.32,1.32,0,0,0-.18-.26c-.21-.19-.32-.26-.53-.15a1.36,1.36,0,0,0-.24.24,2,2,0,0,1-.35.36,1.21,1.21,0,0,1-.86,0c.07-.11.14-.2.2-.3l-.12,0a1.55,1.55,0,0,1-.77-.45.47.47,0,0,1-.1-.24c.39.19.52.2.61,0-.18-.12-.37-.25-.33-.52h0l0,.05a1.58,1.58,0,0,0,.7.53.53.53,0,0,0,.46-.07c-.45-.29-.75-.63-.74-.86l.11.12a2.22,2.22,0,0,0,1,.7.63.63,0,0,0,.87-.41,1,1,0,0,0,.06-.46,1.38,1.38,0,0,1-.85.24A.88.88,0,0,1,752,539l.09.07a1.17,1.17,0,0,0,.84.27.64.64,0,0,0,.62-.81l-.11.09a.79.79,0,0,1-.64.18,1.09,1.09,0,0,1-.54-.26,4.11,4.11,0,0,1-.3-.29l0,0,.41.24a1,1,0,0,0,.6.14c.34-.05.54-.44.52-.88a1.11,1.11,0,0,1-.69.22,1.13,1.13,0,0,1-.66-.28l.69.07a.68.68,0,0,0,.7-.39,1.09,1.09,0,0,0,.11-.49c-.21.11-.4.24-.61.33a1.13,1.13,0,0,1-.68.07l.1,0a7.26,7.26,0,0,0,.7-.27.78.78,0,0,0,.44-.58,1.47,1.47,0,0,0,0-.21h0a1.53,1.53,0,0,1-1.15.6.12.12,0,0,1,.05,0l.36-.2a1.87,1.87,0,0,0,.68-.54.69.69,0,0,0,0-.72,1.35,1.35,0,0,1-.63.64,2.09,2.09,0,0,1-.87.26l.09,0a2.83,2.83,0,0,0,1.21-.83,1.24,1.24,0,0,0,.33-.64.55.55,0,0,0-.23-.53.76.76,0,0,1,0,.11.56.56,0,0,1,0,.12,2.67,2.67,0,0,1-1.55,1.36.11.11,0,0,1-.08,0,.46.46,0,0,0-.54.13.92.92,0,0,0-.28.64,2.09,2.09,0,0,1-.07.36c0,.11-.09.21-.22.21a.29.29,0,0,1-.3-.18.94.94,0,0,1,0-.16,2.92,2.92,0,0,1,.15-.93.35.35,0,0,1,.31-.28.46.46,0,0,0,.35-.2,1.07,1.07,0,0,0,.27.12.22.22,0,0,0,.25-.12c-.15,0-.27,0-.28-.21a1.19,1.19,0,0,0,.29.12.6.6,0,0,0,.49,0,.19.19,0,0,0,0-.33c-.28.24-.54.25-.67,0,.13-.09.25,0,.38.05a.35.35,0,0,0,0-.12.37.37,0,0,0-.35-.21.34.34,0,0,1-.18,0,.45.45,0,0,0-.31-.12,1.39,1.39,0,0,0-.35,0,.94.94,0,0,1-.47,0c-.09,0-.13,0-.11.11l.06.16c.06.16,0,.22-.11.31l-.2.11-.28.19s0,.07,0,.08,0,.12,0,.16l-.3.32a.1.1,0,0,1,0,.17s-.07.09-.13,0a.14.14,0,0,1,0-.21l-.3-.33s-.08-.08,0-.14,0-.05,0-.07l-.09-.09-.41-.24c-.13-.08-.15-.13-.11-.27s.05-.14.07-.21,0-.12-.1-.1a1,1,0,0,1-.54,0,.66.66,0,0,0-.5,0,.7.7,0,0,1-.35.12.31.31,0,0,0-.3.31c.12,0,.24-.14.38,0a.38.38,0,0,1-.27.16.48.48,0,0,1-.42-.2c-.12.13-.11.28,0,.34a.57.57,0,0,0,.29,0,4.34,4.34,0,0,0,.48-.14c0,.12,0,.14-.28.22a.28.28,0,0,0,.09.07c.17.08.29,0,.39-.08s.21.16.3.16a.48.48,0,0,1,.44.41,2.53,2.53,0,0,1,.07.38,3.49,3.49,0,0,1,0,.56.29.29,0,0,1-.24.22.23.23,0,0,1-.27-.15.69.69,0,0,1-.05-.13c0-.17,0-.34-.08-.5a.75.75,0,0,0-.37-.53.48.48,0,0,0-.37-.05.29.29,0,0,1-.16,0,6.63,6.63,0,0,1-.59-.31,2.11,2.11,0,0,1-1-1.2.08.08,0,1,0-.15,0,.66.66,0,0,0,0,.77,2.72,2.72,0,0,0,1.39,1.13l.14.06v0a2.06,2.06,0,0,1-1.53-.94l-.05.11a.76.76,0,0,0,.23.78,3.94,3.94,0,0,0,.92.57l.05,0,0,0a1.76,1.76,0,0,1-1.17-.62.38.38,0,0,0,0,.21.77.77,0,0,0,.3.49,2.41,2.41,0,0,0,.82.36l.12,0v0a1.18,1.18,0,0,1-.67-.08c-.21-.09-.41-.22-.61-.33,0,.06,0,.13,0,.19a.75.75,0,0,0,.8.69,3.18,3.18,0,0,0,.69-.09,1,1,0,0,1-.66.29,1.18,1.18,0,0,1-.71-.21,1.33,1.33,0,0,0,.15.6.53.53,0,0,0,.57.28,1.87,1.87,0,0,0,.76-.34l0,0a1.39,1.39,0,0,1-.63.52.77.77,0,0,1-.66,0c-.09-.05-.18-.12-.28-.19v.22a.57.57,0,0,0,.41.54,1.11,1.11,0,0,0,1-.21l.11-.08a.85.85,0,0,1-.52.48,1.15,1.15,0,0,1-.92-.15l-.1-.05a1.3,1.3,0,0,0,.14.63.65.65,0,0,0,.8.24,2.35,2.35,0,0,0,1-.73l.07-.09,0,0a1.39,1.39,0,0,1-.76.84l.14.07a.71.71,0,0,0,.63-.16c.17-.13.31-.28.48-.42a.49.49,0,0,1,0,.12.47.47,0,0,1-.26.34c-.09.06-.09.09,0,.14a.34.34,0,0,0,.31,0l.21-.11,0,0c-.16.45-.58.56-1,.7l.2.3-.3,0a.79.79,0,0,1-.9-.42.43.43,0,0,0-.74-.14.63.63,0,0,0-.22.31c.08,0,.15,0,.2,0a2.85,2.85,0,0,1,.26.17l-.11,0a.39.39,0,0,0-.35.41s0,.06,0,.09a.53.53,0,0,0,0,.35l.12-.15a.11.11,0,0,1,.17,0s.1,0,.14,0a.75.75,0,0,0,.18-.08c-.07.08-.15.16-.22.25s0,.73.28.71c0-.18,0-.2.16-.28a.49.49,0,0,0,.17-.18s0-.1.06-.15.08-.19.17-.18a.32.32,0,0,1,.18.18.44.44,0,0,0,.39.36h0c.15.09.18.16.14.38a.29.29,0,0,0,.34-.29c0-.09,0-.17,0-.26a.33.33,0,0,0-.17-.33l-.21-.13-.06-.08s.06,0,.09,0l.47,0s.08,0,.1,0,.2.21.29.32.07.05.13,0a1.25,1.25,0,0,0,.68-.79l.06-.15,0,0a1.81,1.81,0,0,1-.38.94.5.5,0,0,1-.5.18l-.26-.06s0,.07,0,.1a.53.53,0,0,0,.66.53,1.06,1.06,0,0,0,.67-.5l.06-.09h0c-.12.55-.55.71-1,.78a.49.49,0,0,0,.26.27.69.69,0,0,0,.72-.19l.1-.11a.73.73,0,0,1-.85.48.46.46,0,0,0,.43.32.81.81,0,0,0,.74-.45l.08-.14a.91.91,0,0,1-.15.74l.33.37.34-.37a.9.9,0,0,1-.16-.73l.1.15a.75.75,0,0,0,.83.41.46.46,0,0,0,.33-.29,2,2,0,0,1-.36,0,.75.75,0,0,1-.3-.14.4.4,0,0,1-.18-.29.8.8,0,0,0,.55.31.46.46,0,0,0,.51-.3c-.72-.08-1-.46-1-.75a2.6,2.6,0,0,0,.32.35.71.71,0,0,0,.82.13.48.48,0,0,0,.22-.56l-.07,0a.57.57,0,0,1-.72-.19,1.58,1.58,0,0,1-.28-.62c0-.12,0-.23-.07-.34h0a1.42,1.42,0,0,0,0,.16,1.26,1.26,0,0,0,.7.83.09.09,0,0,0,.13,0l.29-.33s0-.05.07,0l.52,0s.06,0,.06,0,0,.06,0,.07a1.64,1.64,0,0,1-.22.14.32.32,0,0,0-.17.25,2,2,0,0,0,0,.35.28.28,0,0,0,.34.28" transform="translate(-737.05 -531.25)"/><path class="cls-6" d="M751.68,542.85a.28.28,0,0,1-.34-.28,2,2,0,0,1,0-.35.32.32,0,0,1,.17-.25,1.64,1.64,0,0,0,.22-.14s0-.05,0-.07,0,0-.06,0l-.52,0s-.05,0-.07,0l-.29.33a.09.09,0,0,1-.13,0,1.26,1.26,0,0,1-.7-.83,1.42,1.42,0,0,1,0-.16h0c0,.11.05.22.07.34a1.58,1.58,0,0,0,.28.62.57.57,0,0,0,.72.19l.07,0a.48.48,0,0,1-.22.56.71.71,0,0,1-.82-.13,2.6,2.6,0,0,1-.32-.35c0,.29.29.67,1,.75a.46.46,0,0,1-.51.3.8.8,0,0,1-.55-.31.4.4,0,0,0,.18.29.75.75,0,0,0,.3.14,2,2,0,0,0,.36,0,.46.46,0,0,1-.32.29.76.76,0,0,1-.84-.41l-.1-.15a.9.9,0,0,0,.16.73l-.34.37-.33-.37a.91.91,0,0,0,.15-.74l-.08.14a.81.81,0,0,1-.74.45.46.46,0,0,1-.43-.32.73.73,0,0,0,.85-.48l-.1.11a.69.69,0,0,1-.72.19.49.49,0,0,1-.26-.27c.5-.07.92-.23,1-.78h0l-.06.09a1.06,1.06,0,0,1-.67.5.53.53,0,0,1-.66-.53s0-.06,0-.1l.26.06a.5.5,0,0,0,.5-.18,1.81,1.81,0,0,0,.38-.94l0,0-.06.15a1.25,1.25,0,0,1-.68.79c-.06,0-.09,0-.13,0l-.28-.32s-.08-.06-.11,0l-.47,0s-.06,0-.09,0l.06.08.21.13a.33.33,0,0,1,.17.33c0,.09,0,.17,0,.26a.29.29,0,0,1-.34.29c0-.22,0-.29-.14-.38h0a.44.44,0,0,1-.39-.36.32.32,0,0,0-.18-.18c-.09,0-.13.1-.17.18s0,.11-.06.15a.49.49,0,0,1-.17.18c-.17.08-.19.1-.16.28-.24,0-.44-.49-.28-.71s.15-.17.22-.25a.75.75,0,0,1-.18.08s-.11,0-.14,0a.11.11,0,0,0-.17,0l-.12.15a.53.53,0,0,1,0-.35s0-.06,0-.09a.39.39,0,0,1,.35-.41l.11,0a2.85,2.85,0,0,0-.26-.17s-.12,0-.2,0a.63.63,0,0,1,.22-.31.43.43,0,0,1,.74.14.81.81,0,0,0,.9.42l.3-.06c-.07-.1-.14-.19-.2-.29.41-.14.83-.25,1-.7l0,0-.21.11a.34.34,0,0,1-.31,0c-.09,0-.09-.08,0-.14a.47.47,0,0,0,.26-.34.49.49,0,0,0,0-.12c-.17.14-.31.29-.48.42a.71.71,0,0,1-.63.16l-.14-.07a1.39,1.39,0,0,0,.76-.84l0,0-.07.09a2.3,2.3,0,0,1-1,.73.64.64,0,0,1-.8-.25,1.23,1.23,0,0,1-.14-.62l.1.05a1.15,1.15,0,0,0,.92.15.83.83,0,0,0,.52-.48l-.11.08a1.11,1.11,0,0,1-1,.21.57.57,0,0,1-.41-.54v-.22c.1.07.19.14.28.19a.77.77,0,0,0,.66,0,1.39,1.39,0,0,0,.63-.52l0,0a1.87,1.87,0,0,1-.76.34.53.53,0,0,1-.57-.28,1.33,1.33,0,0,1-.15-.6,1.18,1.18,0,0,0,.71.21,1,1,0,0,0,.66-.29,3.18,3.18,0,0,1-.69.09.75.75,0,0,1-.8-.69c0-.07,0-.13,0-.19.2.11.4.24.61.33a1.18,1.18,0,0,0,.67.08v0l-.12,0a2.41,2.41,0,0,1-.82-.36.77.77,0,0,1-.3-.49.38.38,0,0,1,0-.21,1.76,1.76,0,0,0,1.17.62l0,0-.05,0a3.94,3.94,0,0,1-.92-.57.76.76,0,0,1-.23-.78l.05-.11a2.06,2.06,0,0,0,1.53.94l0,0-.15-.06a2.72,2.72,0,0,1-1.39-1.13.66.66,0,0,1,0-.77.08.08,0,1,1,.15,0,2.11,2.11,0,0,0,1,1.2,6.63,6.63,0,0,0,.59.31.29.29,0,0,0,.16,0,.48.48,0,0,1,.37.05.75.75,0,0,1,.37.53c0,.16,0,.33.08.5a.69.69,0,0,0,.05.13.23.23,0,0,0,.27.15.29.29,0,0,0,.24-.22,3.49,3.49,0,0,0,0-.56,2.53,2.53,0,0,0-.07-.38.48.48,0,0,0-.44-.41c-.09,0-.18-.09-.3-.16s-.22.16-.39.08a.22.22,0,0,1-.09-.08c.26-.07.28-.09.28-.21a4.34,4.34,0,0,1-.48.14.57.57,0,0,1-.29,0c-.16-.06-.17-.21,0-.34a.48.48,0,0,0,.42.2.38.38,0,0,0,.27-.16c-.14-.1-.26,0-.38,0a.31.31,0,0,1,.3-.31.7.7,0,0,0,.35-.12.66.66,0,0,1,.5,0,1,1,0,0,0,.54,0c.07,0,.12,0,.1.1s-.05.14-.07.21,0,.19.11.27l.41.24.09.09s0,.06,0,.07,0,.1,0,.14l.3.33a.14.14,0,0,0,0,.21c.06.05.09,0,.13,0a.1.1,0,0,0,0-.17l.3-.32c.05,0,.1-.08,0-.16s0-.06,0-.08l.28-.19.2-.11c.15-.09.17-.15.11-.31l-.06-.16c0-.1,0-.14.11-.11a.94.94,0,0,0,.47,0,1.39,1.39,0,0,1,.35,0,.45.45,0,0,1,.31.12.34.34,0,0,0,.18,0,.38.38,0,0,1,.35.2.5.5,0,0,1,0,.13c-.13-.05-.25-.14-.38-.05.13.22.39.21.67,0a.19.19,0,0,1,0,.33.6.6,0,0,1-.49,0,1.19,1.19,0,0,1-.29-.12c0,.18.13.21.28.21a.22.22,0,0,1-.25.12,1.07,1.07,0,0,1-.27-.12.44.44,0,0,1-.35.2.35.35,0,0,0-.31.28,2.92,2.92,0,0,0-.15.93.94.94,0,0,0,0,.16.29.29,0,0,0,.3.18c.13,0,.19-.1.22-.21a2.09,2.09,0,0,0,.07-.36.92.92,0,0,1,.28-.64.46.46,0,0,1,.54-.13.11.11,0,0,0,.08,0,2.64,2.64,0,0,0,1.55-1.36.56.56,0,0,0,0-.12.76.76,0,0,0,0-.11.55.55,0,0,1,.23.53,1.24,1.24,0,0,1-.33.64,2.83,2.83,0,0,1-1.21.83l-.09,0a2.09,2.09,0,0,0,.87-.26,1.35,1.35,0,0,0,.63-.64.69.69,0,0,1,0,.72,1.87,1.87,0,0,1-.68.54l-.36.2a.12.12,0,0,0-.05,0,1.53,1.53,0,0,0,1.15-.6h0a1.47,1.47,0,0,1,0,.21.78.78,0,0,1-.44.58,7.26,7.26,0,0,1-.7.27l-.1,0a1.13,1.13,0,0,0,.68-.07c.21-.09.4-.22.61-.33a1.09,1.09,0,0,1-.11.49.68.68,0,0,1-.7.39l-.69-.07a1.13,1.13,0,0,0,.66.28,1.11,1.11,0,0,0,.69-.22c0,.44-.17.83-.52.88a1,1,0,0,1-.6-.14l-.41-.24,0,0c.1.09.19.2.3.29a1.18,1.18,0,0,0,.54.26.79.79,0,0,0,.64-.18l.11-.1a.64.64,0,0,1-.62.82,1.17,1.17,0,0,1-.84-.27L752,539a.88.88,0,0,0,.68.52,1.38,1.38,0,0,0,.85-.24,1,1,0,0,1-.06.46.63.63,0,0,1-.87.41,2.22,2.22,0,0,1-1-.7l-.11-.12c0,.23.29.57.74.86a.52.52,0,0,1-.45.07,1.55,1.55,0,0,1-.71-.53l0-.05h0c0,.27.15.4.33.52-.09.18-.22.17-.61,0a.47.47,0,0,0,.1.24,1.55,1.55,0,0,0,.77.45l.12,0c-.06.1-.13.19-.2.3a1.21,1.21,0,0,0,.86,0,2,2,0,0,0,.35-.36,1.36,1.36,0,0,1,.24-.24c.21-.11.32,0,.53.15a1.32,1.32,0,0,1,.18.26c-.22-.09-.29.14-.45.16l.27.1a.26.26,0,0,1,.16.23,2.73,2.73,0,0,1,0,.4,1.43,1.43,0,0,1,0,.16l-.09-.11c-.06-.07-.11-.14-.23-.08s-.14,0-.21-.05a1.09,1.09,0,0,0-.14,0c.29.2.47.43.23.78-.06.09-.1.19-.25.2.07-.17,0-.24-.17-.3a.32.32,0,0,1-.14-.16c-.06-.09-.08-.19-.14-.27s-.14-.1-.21,0a.71.71,0,0,0-.11.21.36.36,0,0,1-.24.25c-.27.08-.31.15-.26.41m-.83-7.91c.07,0,.12.1.2,0a.12.12,0,0,0,0-.1c-.08-.06-.13,0-.19.06m-3.61,0c-.07-.05-.11-.12-.19-.06a.12.12,0,0,0,0,.1c.07.06.13,0,.2,0" transform="translate(-737.05 -531.25)"/><path class="cls-7" d="M750.85,534.94c.06-.05.11-.12.19-.06a.12.12,0,0,1,0,.1c-.08.06-.13,0-.2,0" transform="translate(-737.05 -531.25)"/><path class="cls-8" d="M747.24,534.94c-.07,0-.13.1-.2,0a.12.12,0,0,1,0-.1c.08-.06.12,0,.19.06" transform="translate(-737.05 -531.25)"/></g></svg>