<svg id="Warstwa_1" data-name="Warstwa 1" xmlns="http://www.w3.org/2000/svg" xmlns:xlink="http://www.w3.org/1999/xlink" viewBox="0 0 24.64 24.64"><defs><style>.cls-1{fill:none;}.cls-2{clip-path:url(#clip-path);}.cls-3{fill:#fefefe;}.cls-4{fill:#eff2f8;}.cls-5{fill:#00339f;}.cls-6{fill:#f1a700;}.cls-7{fill:#d80012;}.cls-8{fill:#e80007;}.cls-9{fill:#feb000;}.cls-10{fill:#fdf9ef;}.cls-11{fill:#fceff0;}.cls-12{fill:#f1a8ae;}.cls-13{fill:#e86b75;}.cls-14{fill:#da0c1d;}.cls-15{fill:#f6cc6b;}</style><clipPath id="clip-path" transform="translate(-737.79 -532.82)"><rect class="cls-1" x="742.55" y="537.59" width="15.12" height="15.12"/></clipPath></defs><title>Armenia</title><g class="cls-2"><path class="cls-3" d="M737.79,542.58v-9.76h24.64v24.65H737.79v-9.76c0-.05.08-.11.08-.16,0-1.6,0-3.21,0-4.81,0,0,0-.1-.08-.16m23.81,0v0s0,0,0-.08v-4.88a.35.35,0,0,1,0-.08c-.11,0-.21,0-.32,0H739l-.39,0v5a.28.28,0,0,0,0,.09c0,.08,0,.17,0,.25v4.92c0,.25,0,.49,0,.74v4.35h22.75c.29,0,.29,0,.29-.29V548c0-.06,0-.13,0-.2v-.07c0-.7,0-1.4,0-2.1,0-1,0-2,0-3a0,0,0,0,0,0,0m-23.74,5.29h0v5h0Zm0-5.38h0v-4.9h0Z" transform="translate(-737.79 -532.82)"/><path class="cls-4" d="M737.79,542.58c0,.06.08.11.08.16,0,1.6,0,3.21,0,4.81,0,.05,0,.1-.08.16Z" transform="translate(-737.79 -532.82)"/><path class="cls-5" d="M738.59,547.75v-4.92c0-.08,0-.16,0-.25l0,0a1.38,1.38,0,0,0,.2,0h22.79c0,1,0,2,0,3,0,.7,0,1.4,0,2.1h-22.7l-.21,0h-.11" transform="translate(-737.79 -532.82)"/><path class="cls-6" d="M738.59,547.75h.11a1.87,1.87,0,0,0,.25,0h22.66c0,.07,0,.14,0,.2v4.59c0,.29,0,.29-.29.29H738.58v-4.37c0-.25,0-.49,0-.74" transform="translate(-737.79 -532.82)"/><path class="cls-7" d="M738.59,542.49v-5l.39,0h22.27c.11,0,.21,0,.32,0l0,.08v4.88s0,.05,0,.08h-23" transform="translate(-737.79 -532.82)"/><path class="cls-8" d="M738.62,542.5h23l0,0v0H738.82a1.38,1.38,0,0,1-.2,0v0" transform="translate(-737.79 -532.82)"/><path class="cls-9" d="M761.61,547.79H739a1.87,1.87,0,0,1-.25,0l.21,0h22.7v.07" transform="translate(-737.79 -532.82)"/><path class="cls-10" d="M737.86,547.83v5h0v-5h0" transform="translate(-737.79 -532.82)"/><path class="cls-11" d="M737.84,542.45v-4.9h0v4.9h0" transform="translate(-737.79 -532.82)"/><path class="cls-12" d="M761.62,537.54l0-.08,0,.08" transform="translate(-737.79 -532.82)"/><path class="cls-13" d="M738.62,542.5v0l0,0s0-.06,0-.09h0" transform="translate(-737.79 -532.82)"/><path class="cls-14" d="M761.6,542.54l0,0h0v0" transform="translate(-737.79 -532.82)"/><path class="cls-15" d="M738.58,552.84v0h0" transform="translate(-737.79 -532.82)"/></g></svg>