<svg id="Warstwa_1" data-name="Warstwa 1" xmlns="http://www.w3.org/2000/svg" xmlns:xlink="http://www.w3.org/1999/xlink" viewBox="0 0 33.88 16.95"><defs><style>.cls-1{fill:none;}.cls-2{clip-path:url(#clip-path);}.cls-3{fill:#00b8e3;}.cls-4{fill:#3f9b35;}.cls-5{fill:#eb2939;}.cls-6{fill:#fefefe;}.cls-7{fill:#fefcfc;}.cls-8{fill:#fefbfb;}</style><clipPath id="clip-path" transform="translate(-733.17 -536.67)"><rect class="cls-1" x="742.55" y="537.59" width="15.12" height="15.12"/></clipPath></defs><title>Azerbaijan</title><g class="cls-2"><path class="cls-3" d="M733.17,542.3v-5.63H767v5.48c0,.05,0,.11,0,.16H733.17" transform="translate(-733.17 -536.67)"/><path class="cls-4" d="M733.17,553.6V548H767s0,0,0,.06v5.58Z" transform="translate(-733.17 -536.67)"/><path class="cls-5" d="M767,548H733.17V542.3H767c0,.05,0,.1,0,.14v5.36c0,.05,0,.1,0,.15m-15.61-3.8h0c.1.23.2.45.31.68l-.75.27.75.27c-.11.23-.21.46-.31.68v0h0l.68-.31.27.75c.09-.27.18-.51.27-.75l.72.33-.34-.72.75-.27-.75-.27.34-.72-.72.34-.27-.75c-.1.26-.18.5-.27.75l-.68-.32m0,2.7a2.09,2.09,0,0,1-2.85-.35,1.89,1.89,0,0,1-.3-2.3,2.1,2.1,0,0,1,3.13-.83,2.47,2.47,0,0,0-2.54-.68,2.54,2.54,0,0,0,.1,4.89,2.47,2.47,0,0,0,2.46-.73" transform="translate(-733.17 -536.67)"/><path class="cls-6" d="M767,548c0-.05,0-.1,0-.15v-5.36s0-.09,0-.14,0-.11,0-.16v-5.48h0v16.94H733.29l-.12,0H767V548s0,0,0-.06" transform="translate(-733.17 -536.67)"/><path class="cls-7" d="M751.36,546.86a2.47,2.47,0,0,1-2.46.73,2.54,2.54,0,0,1-.1-4.89,2.47,2.47,0,0,1,2.54.68,2.1,2.1,0,0,0-3.13.83,1.89,1.89,0,0,0,.3,2.3,2.09,2.09,0,0,0,2.85.35" transform="translate(-733.17 -536.67)"/><path class="cls-8" d="M751.39,546.08c.1-.22.2-.45.31-.68l-.75-.27.75-.27c-.11-.23-.21-.45-.31-.68l0,0,.68.32c.08-.25.17-.49.27-.75l.27.75.72-.34-.34.72.75.27-.75.27.34.72-.72-.33c-.09.24-.18.48-.27.75l-.27-.75-.68.31,0,0" transform="translate(-733.17 -536.67)"/><path class="cls-8" d="M751.39,544.18h0l0,0" transform="translate(-733.17 -536.67)"/><path class="cls-8" d="M751.41,546.1h0v0l0,0" transform="translate(-733.17 -536.67)"/></g></svg>