<svg id="Warstwa_1" data-name="Warstwa 1" xmlns="http://www.w3.org/2000/svg" xmlns:xlink="http://www.w3.org/1999/xlink" viewBox="0 0 31.88 15.94"><defs><style>.cls-1{fill:none;}.cls-2{clip-path:url(#clip-path);}.cls-3{fill:#cd1720;}.cls-4{fill:#017b30;}.cls-5{fill:#fdfafb;}.cls-6{fill:#fdfafa;}.cls-7{fill:#fdfbfb;}.cls-8{fill:#ce1a23;}.cls-9{fill:#fdf7f7;}.cls-10{fill:#fdf8f9;}.cls-11{fill:#fdf9f9;}.cls-12{fill:#fefcfc;}.cls-13{fill:#fefefe;}.cls-14{fill:#f9e6e7;}.cls-15{fill:#faeded;}.cls-16{fill:#ce1d25;}.cls-17{fill:#ce1921;}.cls-18{fill:#ce1b24;}.cls-19{fill:#ce1d26;}.cls-20{fill:#cf2028;}.cls-21{fill:#d33139;}.cls-22{fill:#d0222b;}.cls-23{fill:#d0232b;}.cls-24{fill:#d12730;}.cls-25{fill:#fbedee;}.cls-26{fill:#faedee;}</style><clipPath id="clip-path" transform="translate(-734.17 -537.17)"><rect class="cls-1" x="734.35" y="537.59" width="15.12" height="15.12"/></clipPath></defs><title>Belarus</title><g class="cls-2"><path class="cls-3" d="M734.36,553.11h-.19V537.17h.19l.08.17h0v.27l-.05,0a.34.34,0,0,0-.07.15,3.2,3.2,0,0,0,0,.44h.13c0-.07,0-.13,0-.21l.15,0v-.26h.19v-.23l.15,0v-.25h.5v.25l.15,0a1.7,1.7,0,0,1,0,.22l.2,0v.26l.13,0c0,.07,0,.14,0,.2h.26a1.55,1.55,0,0,0,0-.21l.14,0c0-.09,0-.17,0-.26h.18c0-.09,0-.16,0-.23l.15,0v-.25h.49v.25l.16,0a1.77,1.77,0,0,0,0,.23h.19v.26l.15,0v.21l0,0s.08-.07.09-.11,0-.31,0-.46l-.13,0v-.29l0,0,.11-.16h28.14v10.62H737.9c0,.14,0,.26,0,.38h-.12c0,.09,0,.21,0,.26a.88.88,0,0,0-.19.49l-.14,0v.22l-.12,0,0,.15-.14,0c0,.08,0,.16,0,.24h-.18c0-.08,0-.15,0-.23l-.15,0c0-.05,0-.09,0-.14l-.13,0V549l-.13,0c0-.1,0-.23-.1-.26s0-.06,0-.09,0-.09,0-.09-.08-.13-.11-.2H736l0,0a.7.7,0,0,0-.14.16c-.06.14-.1.29-.15.45h-.11a1.77,1.77,0,0,1,0,.23l-.12,0a.78.78,0,0,0,0,.14l-.15,0c0,.08,0,.16,0,.23h-.18c0-.08,0-.16,0-.24H735v-.14l-.14,0V549l-.11,0c-.05-.15-.09-.29-.13-.43l0,0a.33.33,0,0,1-.07-.13,1,1,0,0,1,0-.17h-.13v.75l.12,0v.31l-.13,0v.48c0,.1,0,.1.13.08s0-.16,0-.23l.16,0c0-.08,0-.15,0-.22h.18c0,.09,0,.16,0,.23l.15,0c0,.08,0,.15,0,.23l.13,0v.3l-.14,0a1.55,1.55,0,0,1,0,.22h-.15a1.93,1.93,0,0,0,0,.23h-.18c0-.08,0-.15,0-.22l-.17,0v-.23h-.12v.69l.12,0v.32l-.12,0v.48h.12a1.55,1.55,0,0,0,0-.21c.25,0,.08-.21.16-.28l.17,0a1.7,1.7,0,0,0,0-.22l.15,0c0-.08,0-.21,0-.22s.08-.16.12-.24h.22l.18.47h.11c0,.08,0,.15,0,.23l.19,0a2.26,2.26,0,0,0,0,.26l.13,0v.21h.27a1.62,1.62,0,0,0,0-.21c.25,0,.08-.21.17-.28l.16,0c0-.08,0-.15,0-.23h.15v-.25c.19,0,.07-.16.13-.22h.24a1.15,1.15,0,0,0,0,.19c.19,0,.08.18.12.27l.15,0a1.55,1.55,0,0,0,0,.22l.18,0c0,.11-.07.29.16.29v.2h.12v.37h-.13v.22l-.14,0v.26h-.19a1.93,1.93,0,0,0,0,.23l-.16,0v.24h-.49v-.24l-.15,0c0-.08,0-.16,0-.23h-.18a2.35,2.35,0,0,1,0-.26l-.15,0v-.2H736v.21l-.13,0c0,.09,0,.17,0,.26h-.18c0,.08,0,.16,0,.23l-.15,0v.24H735v-.24l-.15,0c0-.08,0-.15,0-.23h-.19v-.26l-.14,0c0-.08,0-.14,0-.21h-.13c0,.14,0,.28,0,.41s0,.16.13.16V553l-.05,0-.07.15M736.21,542l0,0a.84.84,0,0,0,.15-.18c0-.13.09-.28.14-.42l.12,0v-.22l.12,0a.78.78,0,0,0,0-.14l.15,0a2,2,0,0,0,0-.23h.18c0,.08,0,.16,0,.23l.15,0a.59.59,0,0,0,0,.14l.13,0v.21l.11,0c.05.15.09.29.13.43s0,0,0,0,.07.1.08.16a.66.66,0,0,1,0,.14l0,0s.09-.07.09-.11c0-.22,0-.45,0-.67l-.13,0V541l.13,0v-.47c0-.11,0-.11-.14-.08v.22l-.16,0a1.79,1.79,0,0,1,0,.23h-.18c0-.08,0-.15,0-.23l-.15,0c0-.08,0-.15,0-.22l-.13,0v-.29l.14,0a1.55,1.55,0,0,1,0-.22l.15,0a1.77,1.77,0,0,0,0-.23h.18a2.15,2.15,0,0,1,0,.23l.17,0v.24s.12,0,.12-.05c0-.22,0-.44,0-.66l-.13,0v-.31l.12,0v-.48h-.12a1.55,1.55,0,0,0,0,.21c-.25,0-.08.21-.16.28l-.17,0a1.7,1.7,0,0,0,0,.22l-.16,0v.24c-.19,0-.08.15-.13.22h-.23c0-.09,0-.23-.14-.22v-.24l-.15,0a1.55,1.55,0,0,0,0-.22l-.18,0c0-.11.07-.29-.15-.29,0-.07,0-.14,0-.19H736v.19l-.13,0c0,.09,0,.17,0,.25l-.18,0c0,.08,0,.15,0,.22l-.11,0c-.06.18-.12.32-.18.47h-.23c0-.07,0-.17,0-.17-.17-.05-.09-.2-.12-.29l-.15,0c0-.08,0-.15,0-.22l-.18,0a2.26,2.26,0,0,1,0-.26l-.14,0c0-.08,0-.15,0-.22h-.12V539l.12,0v.32l-.12,0v.7h.13v-.23l.16,0c0-.08,0-.15,0-.22h.18v.22l.16,0c0,.08,0,.15,0,.23l.13,0v.3l-.14,0a1.77,1.77,0,0,1,0,.23l-.15,0a1.48,1.48,0,0,0,0,.21h-.18c0-.07,0-.15,0-.22l-.16,0c0-.08,0-.15,0-.23s-.13,0-.13.09V541l.13,0v.32l-.12,0v.75h.12c0-.1,0-.21,0-.26a.75.75,0,0,0,.19-.49l.13,0a1.55,1.55,0,0,1,0-.22l.13,0c0-.05,0-.1,0-.15l.15,0a1.77,1.77,0,0,0,0-.23h.19c0,.08,0,.15,0,.23l.15,0a.81.81,0,0,1,0,.15l.13,0a1.7,1.7,0,0,1,0,.22l.11,0a4.53,4.53,0,0,0,.15.44,1,1,0,0,0,.14.17l0,0Zm-1,2.7v.89h.22c0,.06,0,.11,0,.17l.15,0a.39.39,0,0,0,0,.16c.07.14.16.27.23.4l0,0,.12,0,.09.45h.24c0-.16.06-.3.09-.45l.14,0,0,0c.09-.18.17-.36.26-.55l.13,0,0-.17h.22v-.89h-.22c0-.07,0-.12,0-.17l-.15,0c0-.06,0-.13,0-.15a.6.6,0,0,1-.19-.44l-.13,0-.09-.45H736l-.09.46h-.09l-.28.59-.12,0c0,.06,0,.11,0,.17h-.22m1.5-1.32c0,.08,0,.19,0,.19s.08.17.11.26l.15,0V544l0,0c0,.07.07.14.12.23l.12,0c0,.08,0,.16,0,.23h.21c0-.09,0-.17,0-.26l.15,0a1.93,1.93,0,0,1,0-.23c.18.06.09-.09.11-.13s.13-.05.13-.07,0-.25,0-.37l-.13,0v-.32l.13,0v-.41a.13.13,0,0,0,0-.07s0,0-.05,0a3.58,3.58,0,0,0-.11.35.65.65,0,0,0,0,.14l-.17,0c0,.08,0,.16,0,.23h-.19c0-.08,0-.16,0-.24l-.16,0v-.26l-.13,0v-.22h.19v-.25h-.35c0,.06,0,.11,0,.16l-.21,0v.27l-.2,0v.32l.15,0v.21l.11,0m1.08,3.52c.15,0,.16-.07.12-.43l-.12,0,0,0-.15-.19a1.18,1.18,0,0,0,0-.16l-.14,0a2.35,2.35,0,0,1,0-.26h-.21c0,.08,0,.16,0,.23l-.15,0a.71.71,0,0,1,0,.14c-.15,0-.09.16-.13.25l-.14,0c0,.1,0,.19-.1.26s0,.21-.13.22v.22l-.14,0v.32l.18,0c0,.09,0,.18,0,.28l.2,0,0,.15h.36v-.12s0-.08,0-.12H737c0-.22,0-.22.13-.26v-.25l.16,0c0-.08,0-.16,0-.24h.19c0,.09,0,.16,0,.24h.14c.05.18.09.34.14.49s0,0,0,0,0,0,0,0v-.45l-.13,0Zm-3.28,0v.31l-.12,0v.48h0s0-.07,0-.11a.65.65,0,0,1,0-.13s0-.08.06-.12a.86.86,0,0,0,0-.16l.18,0V547h.2c0,.09,0,.16,0,.24l.15,0v.25c.19,0,.16.07.11.26h-.16V548h.34l0-.16h.19c0-.1,0-.19,0-.28l.18,0v-.32l-.13,0c0-.09,0-.22,0-.22s-.07-.11-.08-.17,0-.08,0-.08-.08-.1-.09-.16a.15.15,0,0,0,0-.07l-.13,0c0-.07,0-.14,0-.2a1,1,0,0,0-.14-.15l0,0-.15,0a1.85,1.85,0,0,1,0-.23h-.23v.26l-.15,0v.22c-.14,0-.13.06-.13.15l-.12,0c0,.35,0,.39.12.43m.56-4.59v.25h.19v.23l-.13,0v.26l-.15,0c0,.08,0,.15,0,.24h-.2v-.24h-.14c-.06-.19-.12-.36-.18-.53h0v.48l.12,0v.3c-.21,0-.11.18-.13.28s0,.19.15.16c-.07.14,0,.16.1.18s0,.14,0,.21l.15,0v.27H735c0-.08,0-.16,0-.24l.15,0s0-.15,0-.15.08-.15.12-.23l.12,0a1.42,1.42,0,0,1,.07-.22s0-.07.07-.11a.32.32,0,0,0,0-.1c.16,0,.09-.17.12-.27l.13,0v-.32h-.18c0-.1,0-.19,0-.29l-.2,0c0-.06,0-.11,0-.16Zm2.71,3.57c.12,0,.14,0,.14-.1v-1.27c0-.11,0-.14-.14-.09v.2l0,0-.15.19h-.1c0,.23,0,.23-.12.27s0,.19.11.19v.23h.1l.18.22ZM735.16,539h.14c0-.07,0-.13,0-.19l.14,0v-.23a.27.27,0,0,0,.11-.35l-.12,0v-.24l-.13,0c0-.07,0-.13,0-.19h-.13a1.15,1.15,0,0,0,0,.19l-.14,0v.24l-.13,0v.3l.13,0v.24l.14,0Zm2.06-.45c.23-.06.09-.23.14-.35l-.14,0v-.25l-.13,0c0-.06,0-.13,0-.2h-.13v.19l-.13,0c0,.11.07.28-.15.28v.31l.14,0v.23l.13,0c0,.06,0,.12,0,.18.19,0,.1-.12.15-.19l.12,0Zm-1.78,13.55.13,0v-.31l-.13,0v-.23l-.13,0c0-.06,0-.12,0-.18h-.13a1.21,1.21,0,0,0,0,.18l-.14,0v.23l-.13,0v.31l.12,0c0,.09,0,.17,0,.25l.13,0c0,.08,0,.14,0,.2h.12a1.5,1.5,0,0,0,0-.2l.13,0Zm1.35-.61v.23l-.13,0v.3l.14,0v.24l.13,0c0,.21,0,.21.14.18l0-.18.14,0v-.24l.12,0v-.31l-.13,0v-.23l-.13,0c0-.06,0-.12,0-.18h-.13c0,.07,0,.13,0,.19l-.14,0m-2.3-7.09c-.1,0-.14,0-.14.09v1.39h.14v-.22h0l.12-.18h.11c0-.11-.06-.25.12-.26v-.17c-.19,0-.08-.17-.13-.26h-.09l-.14-.19,0,0Zm.2,5.77h.13v-.31l-.13,0Zm.14-10.08h-.14v.3h.14Zm2.72.31c0-.31,0-.31-.13-.29v.29Z" transform="translate(-734.17 -537.17)"/><path class="cls-4" d="M737.88,548.18c0-.12,0-.24,0-.38h28.15v5.32H737.88v-4.93" transform="translate(-734.17 -537.17)"/><path class="cls-5" d="M736.76,537.18v.24l-.15,0c0,.07,0,.14,0,.23h-.18c0,.09,0,.17,0,.26l-.14,0a1.55,1.55,0,0,1,0,.21H736c0-.06,0-.13,0-.2l-.13,0v-.25l-.19,0c0-.07,0-.14,0-.22l-.15,0v-.24H736v.57h.16v-.57Z" transform="translate(-734.17 -537.17)"/><path class="cls-5" d="M735.48,553.12v-.25l.15,0c0-.07,0-.14,0-.23h.19a2.26,2.26,0,0,1,0-.26l.13,0v-.21h.27v.21l.15,0a2.26,2.26,0,0,0,0,.26h.18c0,.07,0,.15,0,.23l.15,0v.25h-.56v-.58H736v.58Z" transform="translate(-734.17 -537.17)"/><path class="cls-6" d="M737.91,537.18l-.11.15,0,0v.29l.13,0c0,.15,0,.3,0,.46s-.06.07-.09.11l0,0V538l-.15,0v-.26h-.19a1.77,1.77,0,0,1,0-.23l-.16,0v-.24Z" transform="translate(-734.17 -537.17)"/><path class="cls-7" d="M735,537.18v.24l-.15,0v.23h-.19v.26l-.15,0c0,.08,0,.14,0,.21h-.13a3.2,3.2,0,0,1,0-.44.34.34,0,0,1,.07-.15l.05,0v-.27h0l-.08-.16Z" transform="translate(-734.17 -537.17)"/><path class="cls-7" d="M734.36,553.12c0-.06,0-.11.07-.16l.05,0v-.29c-.11,0-.14-.05-.13-.16s0-.27,0-.41h.13c0,.07,0,.13,0,.21l.14,0v.26h.19c0,.08,0,.15,0,.24H735v.25Z" transform="translate(-734.17 -537.17)"/><path class="cls-6" d="M737.88,553v.12h-.63v-.25l.16,0a1.7,1.7,0,0,1,0-.22l.19,0v-.26l.14,0v-.22h.13v.56h-.12V553h.12" transform="translate(-734.17 -537.17)"/><rect class="cls-8" x="1.87" y="15.36" width="0.16" height="0.58"/><rect class="cls-8" x="1.87" width="0.16" height="0.58"/><path class="cls-9" d="M736.21,542H736l0,0a2.09,2.09,0,0,1-.14-.17,4.53,4.53,0,0,1-.15-.44l-.11,0a1.7,1.7,0,0,0,0-.22l-.13,0a.81.81,0,0,0,0-.15l-.15,0c0-.08,0-.15,0-.23h-.18a1.77,1.77,0,0,0,0,.23l-.16,0s0,.1,0,.15l-.13,0c0,.07,0,.14,0,.22l-.13,0a.75.75,0,0,1-.19.49s0,.16,0,.26h-.12v-.75l.12,0V541l-.13,0v-.47c0-.11,0-.11.13-.09s0,.15,0,.23l.16,0c0,.07,0,.15,0,.22h.18c0-.07,0-.14,0-.21l.15,0c0-.08,0-.15,0-.23l.13,0v-.3l-.13,0c0-.08,0-.15,0-.23l-.15,0v-.22h-.19c0,.07,0,.14,0,.22l-.16,0v.23h-.13v-.7l.12,0v-.32l-.12,0v-.48h.12c0,.07,0,.14,0,.22l.14,0a2.26,2.26,0,0,0,0,.26l.18,0a1.55,1.55,0,0,1,0,.22l.15,0c0,.09-.05.24.12.29,0,0,0,.1,0,.17h.23c.06-.15.12-.29.18-.47l.11,0c0-.07,0-.14,0-.22l.18,0c0-.08,0-.16,0-.25l.13,0v-.19h.27c0,.05,0,.12,0,.2.21,0,.11.17.15.28l.17,0a1.55,1.55,0,0,1,0,.22l.16,0v.24c.18,0,.09.13.13.22h.23c0-.07-.06-.23.13-.22v-.24l.16,0a1.7,1.7,0,0,1,0-.22l.17,0c.08-.07-.09-.29.16-.28a1.55,1.55,0,0,1,0-.21h.12V539l-.12,0v.31l.13,0c0,.22,0,.44,0,.66,0,0-.07,0-.12.05v-.24l-.17,0a2.15,2.15,0,0,0,0-.23h-.18a1.77,1.77,0,0,1,0,.23l-.15,0a1.55,1.55,0,0,0,0,.22l-.14,0v.29l.14,0a1.7,1.7,0,0,0,0,.22l.15,0a1.79,1.79,0,0,0,0,.23h.18c0-.08,0-.15,0-.23l.16,0v-.22c.09,0,.15,0,.14.08V541l-.13,0v.32l.13,0c0,.22,0,.45,0,.67,0,0-.06.07-.09.11l0,0a.66.66,0,0,0,0-.14c0-.06,0-.15-.08-.16l0,0c0-.14-.08-.28-.13-.43l-.11,0v-.21l-.13,0a.59.59,0,0,1,0-.14l-.15,0c0-.07,0-.15,0-.23h-.18c0,.07,0,.15,0,.23l-.15,0,0,.14-.12,0v.22l-.12,0c-.05.14-.09.29-.14.42a.84.84,0,0,1-.15.18l0,0m-.76-2.14v.23l-.14,0v.29l.14,0v.23l.16,0a1.49,1.49,0,0,0,0,.21h.18c0-.08,0-.15,0-.22l.16,0v-.23h.26a1.85,1.85,0,0,1,0,.23l.16,0c0,.08,0,.15,0,.22h.19c0-.08,0-.15,0-.21a.4.4,0,0,1,.15,0c0-.09,0-.16,0-.23l.13,0v-.3l-.13,0a1.7,1.7,0,0,1,0-.22l-.16,0c0-.08,0-.16,0-.23h-.19a1.64,1.64,0,0,1,0,.23l-.15,0c0,.09,0,.16,0,.23H736c0-.08,0-.16,0-.23l-.16,0a1.77,1.77,0,0,0,0-.23h-.19c0,.08,0,.15,0,.23l-.16,0m.6-.29.14,0v-.47h-.14Zm0,1.35v.49h.14v-.48Z" transform="translate(-734.17 -537.17)"/><path class="cls-9" d="M737.88,549.29v.57h-.13v-.23l-.16,0c0-.08,0-.15,0-.22h-.19c0,.08,0,.15,0,.22l-.15,0a1.77,1.77,0,0,0,0,.23l-.14,0v.3l.14,0a1.55,1.55,0,0,0,0,.22l.15,0c0,.08,0,.15,0,.24h.18c0-.09,0-.16,0-.23l.17,0v-.23h.12v.7l-.12,0v.32h.12v.49h-.12v-.2c-.23,0-.12-.18-.16-.29l-.18,0c0-.07,0-.14,0-.22l-.14,0c0-.1.06-.26-.13-.28,0-.06,0-.12,0-.19h-.24c-.06.06.06.24-.13.22V551h-.15c0,.08,0,.15,0,.23l-.16,0c-.09.07.08.29-.17.28a1.55,1.55,0,0,1,0,.21H736v-.21l-.13,0a2.17,2.17,0,0,1,0-.26l-.19,0c0-.08,0-.15,0-.23h-.11l-.18-.47h-.22c0,.08,0,.21-.12.24s0,.14,0,.22l-.15,0a1.7,1.7,0,0,1,0,.22l-.17,0c-.08.08.09.29-.16.28a1.55,1.55,0,0,1,0,.21h-.12v-.48l.12,0v-.32l-.12,0v-.69h.13v.23l.16,0c0,.07,0,.14,0,.22h.18c0-.07,0-.14,0-.22l.15,0c0-.07,0-.14,0-.22l.13,0v-.3l-.13,0c0-.08,0-.15,0-.23l-.15,0c0-.07,0-.14,0-.22h-.18c0,.07,0,.14,0,.22l-.16,0a1.85,1.85,0,0,1,0,.23c-.08,0-.13,0-.13-.08v-.48l.13,0V549l-.12,0v-.75h.13a1,1,0,0,0,0,.17.33.33,0,0,0,.07.13l0,0c0,.14.09.28.13.43l.11,0v.22l.14,0s0,.09,0,.14h.15c0,.08,0,.16,0,.24h.18c0-.07,0-.15,0-.23l.15,0a.78.78,0,0,1,0-.14l.12,0a1.77,1.77,0,0,0,0-.23h.11c0-.16.09-.31.15-.45a.7.7,0,0,1,.14-.16l0,0h.2c0,.07,0,.19.11.2s0,.06,0,.09,0,.09,0,.09.07.16.1.26l.13,0v.22l.14,0a.81.81,0,0,0,0,.15l.16,0a1.77,1.77,0,0,0,0,.23h.18c0-.08,0-.16,0-.24l.14,0,0-.15.13,0V549l.13,0a.82.82,0,0,1,.2-.49c0-.05,0-.17,0-.26h.12v.76h-.12v.33h.12m-1,.6-.13,0a1.7,1.7,0,0,1,0-.22l-.16,0c0-.08,0-.15,0-.22h-.19c0,.08,0,.15,0,.22l-.16,0v.22H736c0-.08,0-.15,0-.23l-.15,0a1.83,1.83,0,0,1,0-.21h-.19c0,.07,0,.14,0,.22l-.16,0a1.77,1.77,0,0,1,0,.23l-.13,0v.29l.14,0v.22l.16,0a1.7,1.7,0,0,1,0,.22h.2v-.22l.16,0c0-.08,0-.16,0-.23h.26a1.85,1.85,0,0,1,0,.23l.16,0c0,.09,0,.16,0,.23h.19c0-.08,0-.16,0-.23l.17,0v-.22l.13,0Zm-.88.84v.49h.14v-.48Zm.14-1.83h-.14v.48h.14Z" transform="translate(-734.17 -537.17)"/><path class="cls-10" d="M735.18,544.7h.22c0-.06,0-.11,0-.17l.13,0,.27-.59h.09l.09-.46h.24l.09.45.13,0a.6.6,0,0,0,.19.44s0,.09,0,.15l.15,0c0,.05,0,.1,0,.17h.22v.89h-.22l0,.17-.13,0c-.09.19-.17.37-.26.55l0,0-.14,0c0,.15-.06.29-.09.45H736l-.09-.45-.12,0,0,0c-.07-.13-.16-.26-.23-.4a.7.7,0,0,1,0-.16l-.15,0c0-.06,0-.11,0-.17h-.22Zm.58,1.18c.18,0,.11-.1.15-.17l.14,0v-.26h.15a2,2,0,0,0,0,.25l.13,0c0,.18,0,.18.13.15v-.41l0,0a1.05,1.05,0,0,1-.17-.29.35.35,0,0,1,.22-.35c0-.43,0-.43-.13-.41a.76.76,0,0,1,0,.15l-.13,0a2.18,2.18,0,0,0,0,.25H736a2,2,0,0,0,0-.25l-.13,0,0-.16h-.11v.44a.37.37,0,0,1,.21.26.35.35,0,0,1-.22.34Zm-.18-.89c-.19,0-.15.09-.16.17s0,.19.16.14Zm.61-.74v-.32h-.14v.31Zm-.14,2.1h.14V546h-.14Zm.62-1.36v.31c.17,0,.14-.08.15-.16s0-.19-.15-.15" transform="translate(-734.17 -537.17)"/><path class="cls-11" d="M736.68,543.38l-.11,0v-.21l-.15,0v-.32l.2,0v-.27l.21,0c0-.05,0-.1,0-.16h.35v.25H737v.22l.13,0v.26l.16,0c0,.08,0,.16,0,.24h.19c0-.07,0-.15,0-.23l.17,0a.65.65,0,0,1,0-.14,3.58,3.58,0,0,1,.11-.35s.05,0,.05,0a.13.13,0,0,1,0,.07v.41l-.13,0v.32l.13,0c0,.12,0,.25,0,.37s-.07,0-.13.07.07.19-.11.13a1.93,1.93,0,0,0,0,.23l-.15,0c0,.09,0,.17,0,.26h-.21c0-.07,0-.15,0-.23l-.12,0c0-.09-.08-.16-.12-.22h0v-.18l-.15,0c0-.09,0-.21-.11-.25s0-.12,0-.2" transform="translate(-734.17 -537.17)"/><path class="cls-11" d="M737.76,546.9v.3l.13,0v.45s0,0,0,0,0,0,0,0-.09-.31-.14-.49h-.14a1.85,1.85,0,0,1,0-.24h-.2c0,.08,0,.16,0,.24l-.16,0v.25c-.15,0-.15,0-.13.26h.19s0,.08,0,.12V548h-.36a1,1,0,0,0,0-.15l-.2,0a2.62,2.62,0,0,1,0-.28l-.19,0v-.32l.14,0v-.22c.18,0,.07-.19.13-.22s.1-.16.1-.26l.15,0c0-.09,0-.21.12-.25a.71.71,0,0,0,0-.14l.15,0c0-.07,0-.15,0-.23h.21a2.26,2.26,0,0,0,0,.26l.15,0v.16l.15.19,0,0,.12,0c0,.36,0,.39-.12.43" transform="translate(-734.17 -537.17)"/><path class="cls-11" d="M734.48,546.9c-.14,0-.16-.08-.12-.43l.12,0c0-.09,0-.18.13-.15v-.22l.15,0v-.26H735a1.85,1.85,0,0,0,0,.23l.15,0,0,0a1,1,0,0,1,.14.15c0,.06,0,.13,0,.2l.13,0a.15.15,0,0,1,0,.07c0,.06,0,.15.09.16s0,0,0,.08,0,.14.08.17,0,.13,0,.22l.14,0v.32l-.19,0c0,.09,0,.18,0,.28h-.2l0,.16h-.34v-.24h.17c0-.19.07-.21-.11-.26v-.25l-.16,0c0-.08,0-.15,0-.24h-.2v.24l-.18,0a.86.86,0,0,1,0,.16s0,.08-.06.12a.65.65,0,0,0,0,.13s0,.08,0,.11h0v-.48l.12,0Z" transform="translate(-734.17 -537.17)"/><path class="cls-11" d="M735,542.31h.35c0,.05,0,.1,0,.16l.21,0a2.72,2.72,0,0,0,0,.28h.18v.32l-.13,0c0,.1.05.23-.11.27s0,.07,0,.1-.06.07-.07.11a1.42,1.42,0,0,0-.07.22l-.12,0c0,.08,0,.21-.12.23s0,.1,0,.15l-.15,0c0,.08,0,.16,0,.24h-.21v-.27l-.15,0c0-.07,0-.13,0-.21s-.17,0-.1-.18c-.16,0-.16-.07-.15-.16s-.08-.26.13-.28v-.3l-.12,0v-.48h0c.06.17.12.34.18.53h.14v.24h.2c0-.08,0-.16,0-.24h.15v-.27l.14,0v-.23H735Z" transform="translate(-734.17 -537.17)"/><path class="cls-12" d="M737.75,545.88v-.16l-.18-.22h-.09v-.23c-.16,0-.13-.1-.12-.19s.1,0,.12-.27h.1l.15-.19,0,0v-.2c.11,0,.14,0,.14.09v1.27c0,.1,0,.14-.14.1" transform="translate(-734.17 -537.17)"/><path class="cls-9" d="M735.16,539v-.18l-.14,0v-.24l-.13,0v-.31l.13,0v-.24l.14,0a1.15,1.15,0,0,1,0-.19h.13c0,.06,0,.12,0,.19l.13,0v.24l.12,0a.27.27,0,0,1-.11.35v.23l-.14,0c0,.06,0,.12,0,.19h-.14m0-.5h.17v-.3h-.17Z" transform="translate(-734.17 -537.17)"/><path class="cls-9" d="M737.22,538.56v.23l-.12,0c-.05.07,0,.24-.15.19,0-.06,0-.12,0-.18l-.13,0v-.23l-.14,0v-.31c.22,0,.1-.17.15-.28l.13,0v-.19h.13c0,.07,0,.14,0,.2l.13,0v.25l.14,0c-.05.12.09.29-.14.35m-.13-.36h-.16v.3h.16Z" transform="translate(-734.17 -537.17)"/><path class="cls-9" d="M735.44,552.11v.24l-.13,0a1.5,1.5,0,0,1,0,.2h-.12c0-.06,0-.12,0-.19l-.13,0c0-.08,0-.16,0-.25l-.12,0v-.31l.13,0v-.23l.14,0a1.21,1.21,0,0,1,0-.18h.13c0,.07,0,.12,0,.18l.13,0v.23l.13,0v.31l-.13,0m-.29,0h.16v-.3h-.16Z" transform="translate(-734.17 -537.17)"/><path class="cls-9" d="M736.79,551.5l.14,0c0-.06,0-.12,0-.19h.13c0,.07,0,.12,0,.18l.13,0v.23l.13,0v.31l-.12,0v.24l-.14,0c0,.06,0,.12,0,.18s-.13,0-.14-.18l-.13,0v-.24l-.14,0v-.3l.13,0Zm.14.58h.16v-.3h-.16Z" transform="translate(-734.17 -537.17)"/><path class="cls-13" d="M734.49,544.41v.21l0,0,.14.19h.09c0,.09-.06.25.14.26v.17c-.19,0-.1.16-.13.26h-.11l-.12.19,0,0v.22h-.14v-.54c0-.28,0-.57,0-.85,0-.1,0-.12.14-.09" transform="translate(-734.17 -537.17)"/><path class="cls-14" d="M734.69,550.18v-.29l.13,0v.31Z" transform="translate(-734.17 -537.17)"/><path class="cls-14" d="M734.83,540.1v.31h-.14v-.29l.14,0" transform="translate(-734.17 -537.17)"/><path class="cls-15" d="M737.55,540.41h-.13v-.29c.15,0,.15,0,.13.29" transform="translate(-734.17 -537.17)"/><path class="cls-16" d="M737.88,550.2h-.12v.23l-.17,0c0,.07,0,.14,0,.23h-.19a1.85,1.85,0,0,0,0-.24l-.15,0a1.55,1.55,0,0,1,0-.22l-.14,0v-.3l.14,0a1.77,1.77,0,0,1,0-.23l.15,0c0-.07,0-.14,0-.22h.19c0,.07,0,.14,0,.22l.16,0v.23h.13v.34m-.46-.32c0,.32,0,.32.13.29v-.29Z" transform="translate(-734.17 -537.17)"/><path class="cls-17" d="M737.88,549.29h-.12V549h.12Z" transform="translate(-734.17 -537.17)"/><path class="cls-18" d="M737.88,551.25h-.12v-.32l.12,0v.35" transform="translate(-734.17 -537.17)"/><path class="cls-17" d="M737.88,553h-.12v-.31h.12Z" transform="translate(-734.17 -537.17)"/><path class="cls-19" d="M735.45,539.86l.16,0c0-.08,0-.15,0-.23h.19a1.77,1.77,0,0,1,0,.23l.16,0c0,.07,0,.15,0,.23h.26c0-.07,0-.14,0-.22l.15,0a1.64,1.64,0,0,0,0-.23h.19c0,.08,0,.15,0,.23l.15,0c0,.07,0,.14,0,.22l.13,0v.3l-.13,0c0,.07,0,.14,0,.23l-.16,0c0,.06,0,.13,0,.21h-.19a1.8,1.8,0,0,0,0-.22l-.15,0a1.85,1.85,0,0,0,0-.23H736v.23l-.16,0c0,.07,0,.14,0,.22h-.18a1.49,1.49,0,0,1,0-.21l-.16,0v-.22l-.14,0v-.3l.14,0Zm.33.55v-.31l-.13,0v.29Zm.81,0v-.31h-.14v.3Z" transform="translate(-734.17 -537.17)"/><path class="cls-18" d="M736.05,539.57v-.49h.14v.47l-.14,0" transform="translate(-734.17 -537.17)"/><path class="cls-8" d="M736.05,540.92h.14v.48h-.14Z" transform="translate(-734.17 -537.17)"/><path class="cls-19" d="M736.93,549.88v.3l-.13,0v.22l-.17,0c0,.07,0,.15,0,.23h-.19c0-.07,0-.15,0-.23l-.16,0c0-.07,0-.15,0-.23H736c0,.07,0,.15,0,.23l-.16,0v.22h-.2c0-.07,0-.14,0-.22l-.16,0v-.22l-.14,0v-.29l.13,0a1.55,1.55,0,0,0,0-.22l.16,0c0-.08,0-.15,0-.22h.19c0,.06,0,.13,0,.21l.16,0c0,.08,0,.15,0,.23h.26v-.23l.16,0c0-.06,0-.13,0-.21h.19c0,.07,0,.14,0,.22l.15,0c0,.07,0,.14,0,.22l.13,0m-1.15,0h-.13v.29h.13Zm.81.29v-.3h-.13v.3Z" transform="translate(-734.17 -537.17)"/><path class="cls-18" d="M736.05,550.73h.14v.48h-.14Z" transform="translate(-734.17 -537.17)"/><path class="cls-8" d="M736.19,548.9v.47h-.14v-.48Z" transform="translate(-734.17 -537.17)"/><path class="cls-20" d="M735.76,545.88v-.43a.35.35,0,0,0,.22-.34.37.37,0,0,0-.21-.26v-.44h.11l0,.16.13,0a2,2,0,0,1,0,.25h.16a2.18,2.18,0,0,1,0-.25l.13,0v-.15c.15,0,.15,0,.13.41a.35.35,0,0,0-.22.35,1.05,1.05,0,0,0,.17.29l0,0v.41c-.11,0-.11,0-.13-.15l-.13,0a2,2,0,0,1,0-.25h-.15v.26l-.14,0c0,.07,0,.22-.15.17" transform="translate(-734.17 -537.17)"/><path class="cls-21" d="M735.58,545v.31c-.15.05-.16,0-.16-.14s0-.22.16-.17" transform="translate(-734.17 -537.17)"/><path class="cls-22" d="M736.19,544.25h-.14v-.31h.14Z" transform="translate(-734.17 -537.17)"/><rect class="cls-22" x="1.87" y="8.86" width="0.14" height="0.31"/><path class="cls-23" d="M736.67,545c.15,0,.15.06.15.15s0,.2-.15.16Z" transform="translate(-734.17 -537.17)"/><rect class="cls-24" x="0.98" y="1.04" width="0.17" height="0.3"/><path class="cls-24" d="M737.09,538.2v.31h-.16v-.3h.16" transform="translate(-734.17 -537.17)"/><rect class="cls-24" x="0.98" y="14.6" width="0.16" height="0.31"/><rect class="cls-24" x="2.75" y="14.6" width="0.16" height="0.3"/><path class="cls-15" d="M737.42,549.88h.13v.29c-.15,0-.15,0-.13-.29" transform="translate(-734.17 -537.17)"/><path class="cls-25" d="M735.78,540.41h-.13v-.29l.13,0Z" transform="translate(-734.17 -537.17)"/><path class="cls-26" d="M736.59,540.41h-.14v-.3h.14Z" transform="translate(-734.17 -537.17)"/><rect class="cls-25" x="1.48" y="12.71" width="0.13" height="0.3"/><path class="cls-26" d="M736.59,550.18h-.13v-.3h.13Z" transform="translate(-734.17 -537.17)"/></g></svg>