<svg id="Warstwa_1" data-name="Warstwa 1" xmlns="http://www.w3.org/2000/svg" xmlns:xlink="http://www.w3.org/1999/xlink" viewBox="0 0 29.88 14.94"><defs><style>.cls-1{fill:none;}.cls-2{clip-path:url(#clip-path);}.cls-3{fill:#171795;}.cls-4{fill:#fe0000;}.cls-5{fill:#fefdfd;}.cls-6{clip-path:url(#clip-path-2);}.cls-7{fill:#fb1517;}.cls-8{fill:#f3edf1;}.cls-9{fill:#0392da;}.cls-10{fill:#191992;}.cls-11{fill:#048fd5;}.cls-12{fill:#0492da;}.cls-13{fill:#fa0103;}.cls-14{fill:#0594dd;}.cls-15{fill:#1a1995;}.cls-16{fill:#1d1a95;}.cls-17{fill:#f50707;}.cls-18{fill:#fefefe;}.cls-19{fill:#fe0101;}.cls-20{fill:#fe7a7a;}.cls-21{fill:#1a1793;}.cls-22{fill:#d3bc15;}.cls-23{fill:#ad9a10;}.cls-24{fill:#d9c015;}.cls-25{fill:#b20905;}.cls-26{fill:#7c7112;}.cls-27{fill:#140202;}</style><clipPath id="clip-path" transform="translate(-727.43 -537.68)"><rect class="cls-1" x="734.81" y="537.68" width="15.12" height="14.94"/></clipPath><clipPath id="clip-path-2" transform="translate(-727.43 -537.68)"><rect class="cls-1" x="734.81" y="537.59" width="15.12" height="15.12"/></clipPath></defs><title>Croatia</title><g class="cls-2"><path class="cls-3" d="M757.31,547.64v5H727.43v-5H739.9l.07.09a2.89,2.89,0,0,0,4.12.71,3.39,3.39,0,0,0,.76-.8h12.46" transform="translate(-727.43 -537.68)"/><path class="cls-4" d="M727.43,542.65v-5h29.88v5H727.43m12.14,0a6.86,6.86,0,0,1,5.59,0l0,0c.21-.49.43-1,.64-1.46a.11.11,0,0,0,0-.08c-.16-.27-.33-.54-.5-.81l-.73.28a.17.17,0,0,1-.21,0c-.17-.21-.34-.4-.52-.6l-.7.41c-.07,0-.11,0-.17,0s-.41-.35-.63-.52l-.71.57-.79-.45-.52.6a.15.15,0,0,1-.2,0l-.74-.28c-.13.21-.26.43-.4.63a.35.35,0,0,0,0,.42c.1.18.17.38.25.56s.22.51.34.77" transform="translate(-727.43 -537.68)"/><path class="cls-5" d="M727.43,542.65h12s0,.09,0,.13V546c0,.19,0,.38,0,.58a3,3,0,0,0,.39,1H727.43Z" transform="translate(-727.43 -537.68)"/></g><g class="cls-6"><path class="cls-5" d="M745.29,542.65h12v5H744.85a3.5,3.5,0,0,0,.43-1.9c0-1,0-2,0-3,0,0,0-.09,0-.14" transform="translate(-727.43 -537.68)"/><path class="cls-7" d="M745.29,542.65c0,.05,0,.09,0,.14,0,1,0,2,0,3a3.5,3.5,0,0,1-.43,1.9,3.39,3.39,0,0,1-.76.8,2.89,2.89,0,0,1-4.12-.71l-.07-.09a3,3,0,0,1-.39-1,5.65,5.65,0,0,1,0-.58v-3.24s0-.09,0-.14h5.84m-5.77.07v.09c0,1.1,0,2.21,0,3.31a2.7,2.7,0,0,0,0,.49,2.85,2.85,0,0,0,5.65-.52v-3.27s0-.07,0-.1Z" transform="translate(-727.43 -537.68)"/><path class="cls-8" d="M739.57,542.62c-.12-.26-.23-.51-.34-.77s-.15-.38-.25-.56a.35.35,0,0,1,0-.42c.14-.2.27-.42.4-.63l.74.28a.15.15,0,0,0,.2,0l.52-.6.79.45.71-.57c.22.17.43.34.63.52s.1,0,.17,0l.7-.41c.18.2.35.39.52.6a.17.17,0,0,0,.21,0l.73-.28c.17.27.34.54.5.81a.11.11,0,0,1,0,.08c-.21.49-.43,1-.64,1.46l0,0a6.86,6.86,0,0,0-5.59,0m.73-2h0l-.86-.3c-.14.22-.27.45-.42.67a.18.18,0,0,0,0,.19c.19.42.37.84.55,1.25l.05.1,1.07-.36.4-.08.73-.11H743l1.12.2,1.08.36c0-.11.09-.22.16-.37l-1.14-.36a.5.5,0,0,0,0-.12l1.16.38.17-.37-1.23-.39s0-.07,0-.1l1.25.39c.06-.15.14-.31.21-.47a.22.22,0,0,0,0-.08l-.45-.72-.86.31c-.19-.23-.39-.46-.59-.68l-.78.44-.71-.56-.7.56-.79-.44-.58.67" transform="translate(-727.43 -537.68)"/><path class="cls-5" d="M739.52,542.72h5.69s0,.07,0,.1v3.27a2.85,2.85,0,0,1-5.65.52,2.7,2.7,0,0,1,0-.49c0-1.1,0-2.21,0-3.31Zm.61,4.92h0v0a3,3,0,0,0,.61.62c0-.13,0-.24,0-.36s0-.18,0-.28h1.06c0,.05,0,.09,0,.14v1a2.33,2.33,0,0,0,.87,0c.28,0,.22,0,.23-.25v-.35c0-.19,0-.38,0-.58H744c0,.07,0,.13,0,.19v.46a2.67,2.67,0,0,0,.61-.65H744a.08.08,0,0,0,0,0v-1.17h1.08v-1.2H744v-1.17a.05.05,0,0,0,0,0h1.11v-1.2H744s0,.08,0,.12v.84c0,.08,0,.16,0,.24h-1.09v-1.21h-1.09v.88c0,.11,0,.22,0,.33h-1.06a.36.36,0,0,1,0-.1c0-.32,0-.65,0-1,0,0,0-.08,0-.12h-1.08V544h1.11l0,0c0,.39,0,.79,0,1.18h-1.1v1.2h1.1c0,.39,0,.79,0,1.18a.05.05,0,0,0,0,0h-.62" transform="translate(-727.43 -537.68)"/><path class="cls-9" d="M740.67,542.17l-1.07.36-.05-.1c-.18-.41-.36-.83-.55-1.25a.17.17,0,0,1,0-.19c.15-.22.28-.45.42-.67l.86.3c0,.13.07.26.1.39l.09.38c0,.14.07.27.1.4l.09.38m-.85-1.11,0,0c-.15,0,0-.14,0-.21l-.13,0-.08-.07-.16.18.07.21.23,0,.06-.17m-.29.71a.38.38,0,0,0,.48.2.4.4,0,0,0,.24-.5.42.42,0,0,1-.26.37.43.43,0,0,1-.46-.07m0,0h0v0" transform="translate(-727.43 -537.68)"/><path class="cls-10" d="M744.31,541.2s0,.06,0,.1-.06.25-.1.38,0,.08,0,.12-.07.24-.1.37l-1.13-.2c0-.52.09-1.05.13-1.58l.79-.44c.2.22.4.45.59.68,0,.19-.09.38-.14.57m-1-.44-.06,0c0,.07,0,.12,0,.18s.09.1.07.18,0,.07,0,.1a.29.29,0,0,1-.06.34l0,0,.12-.18,0,0-.06.23a.16.16,0,0,0,.08-.1c0-.11.1-.13.22-.08a1.74,1.74,0,0,0-.11.18v0l.22-.19c.16.11-.07.14,0,.26a2.06,2.06,0,0,0,.23-.31,2,2,0,0,0,.11-.28l-.35,0c-.17,0-.25-.1-.28-.23l.11,0-.06,0a.73.73,0,0,1,.21.06c.13.08.17.1.26.07l-.21-.1v0l.15,0-.21-.08a.32.32,0,0,0-.38,0" transform="translate(-727.43 -537.68)"/><path class="cls-11" d="M743.07,540.39,743,542H741.8c0-.12,0-.25,0-.37l0-.41c0-.13,0-.26,0-.39l0-.4h0l.7-.56.7.56m-.91,1h0l0,0,0,0s0,0,0,.07.15.18.23.18.19-.13.19-.21a1,1,0,0,0,0-.17l-.07-.13h-.28a.47.47,0,0,0-.1.11s0,0,0,.06h0v0m.36-.82h-.06c0,.1,0,.22.07.31a.19.19,0,0,0,.3,0,.3.3,0,0,0,.06-.24.24.24,0,0,0,0-.08.24.24,0,0,0-.35-.09v.08m-.24.06a.64.64,0,0,0,0-.07h0a.46.46,0,0,0,0-.09l-.33,0a1,1,0,0,1,0,.12c-.12,0,0,.07,0,.1a.25.25,0,0,0,.19.28c.16,0,.28-.14.24-.33" transform="translate(-727.43 -537.68)"/><path class="cls-12" d="M744.31,541.2c.05-.19.1-.38.14-.57l.86-.31.45.72a.22.22,0,0,1,0,.08c-.07.16-.15.32-.21.47l-1.25-.39m1-.18a2.32,2.32,0,0,1,.08-.22l-.14-.18-.22,0-.08.21.16.18c0-.08.13-.06.2,0" transform="translate(-727.43 -537.68)"/><path class="cls-13" d="M741.66,540.4l0,.4-1.3.21c0-.13-.07-.26-.1-.39h0l1.36-.22" transform="translate(-727.43 -537.68)"/><path class="cls-14" d="M744.07,542.17c0-.13.06-.25.1-.37l1.14.36c-.07.15-.12.26-.16.37l-1.08-.36" transform="translate(-727.43 -537.68)"/><path class="cls-15" d="M741.76,541.6c0,.12,0,.25,0,.37l-.73.12-.4.08-.09-.38,1.18-.19" transform="translate(-727.43 -537.68)"/><path class="cls-16" d="M741.66,540.4l-1.36.22c.19-.23.39-.45.58-.67l.79.44h0" transform="translate(-727.43 -537.68)"/><path class="cls-17" d="M744.19,541.68c0-.13.07-.25.1-.38l1.23.39-.17.37-1.16-.38m1.16.13a.19.19,0,0,0,0-.07l-.46-.13a1.11,1.11,0,0,1-.36-.13c-.08-.06-.12-.07-.19,0l.14.11-.12,0v0l.22,0v0l-.08,0v0h.31v0l-.08,0c.14,0,.34-.07.4.15a.17.17,0,0,0,0-.1.51.51,0,0,0-.08-.13l.26.1" transform="translate(-727.43 -537.68)"/><path class="cls-18" d="M740.74,545.23h1.07V544h1.1c0,.08,0,.16,0,.23,0,.32,0,.65,0,1h-1.09v.5c0,.24,0,.47,0,.7h-1.07c0-.19,0-.39,0-.58s0-.42,0-.62" transform="translate(-727.43 -537.68)"/><path class="cls-19" d="M742.91,544h-1.1c0-.11,0-.22,0-.33v-.88h1.09Z" transform="translate(-727.43 -537.68)"/><path class="cls-18" d="M744,545.23h0c0,.12,0,.23,0,.35,0,.29,0,.57,0,.85h-1.1c0-.4,0-.81,0-1.22H744" transform="translate(-727.43 -537.68)"/><path class="cls-4" d="M742.9,546.43H744v1.17a.08.08,0,0,1,0,0h-1.08v-1.21Z" transform="translate(-727.43 -537.68)"/><path class="cls-19" d="M744,544c0-.08,0-.16,0-.24v-.84s0-.08,0-.12h1.08V544H744" transform="translate(-727.43 -537.68)"/><path class="cls-19" d="M740.75,544h-1.11v-1.19h1.08s0,.08,0,.12v1a.52.52,0,0,0,0,.11h0" transform="translate(-727.43 -537.68)"/><path class="cls-4" d="M744,546.43c0-.28,0-.56,0-.85,0-.12,0-.23,0-.35h1.09v1.2Z" transform="translate(-727.43 -537.68)"/><path class="cls-4" d="M740.74,545.23c0,.2,0,.41,0,.62s0,.39,0,.58h-1.1v-1.2Z" transform="translate(-727.43 -537.68)"/><path class="cls-4" d="M744,545.23h-1.1c0-.32,0-.65,0-1,0-.07,0-.15,0-.23H744a.05.05,0,0,1,0,0v1.17" transform="translate(-727.43 -537.68)"/><path class="cls-4" d="M740.74,546.43h1.07c0,.29,0,.58,0,.87,0,.11,0,.23,0,.35h-1.06a.05.05,0,0,1,0,0c0-.39,0-.79,0-1.18" transform="translate(-727.43 -537.68)"/><path class="cls-19" d="M742.91,547.64c0,.2,0,.39,0,.58v.35c0,.27.05.22-.23.25a2.33,2.33,0,0,1-.87,0v-1s0-.09,0-.14h1.1Z" transform="translate(-727.43 -537.68)"/><path class="cls-4" d="M741.81,544v1.21h-1.07c0-.39,0-.79,0-1.18l0,0h1.06" transform="translate(-727.43 -537.68)"/><path class="cls-19" d="M740.75,547.65c0,.1,0,.19,0,.28s0,.23,0,.36a2.7,2.7,0,0,1-.6-.62v0h.62" transform="translate(-727.43 -537.68)"/><path class="cls-19" d="M744,547.65h.63a2.67,2.67,0,0,1-.61.65v-.46c0-.06,0-.12,0-.19h0" transform="translate(-727.43 -537.68)"/><path class="cls-20" d="M740.13,547.64v0h0" transform="translate(-727.43 -537.68)"/><path class="cls-21" d="M740.39,541l1.3-.21c0,.13,0,.26,0,.39l-1.24.2-.1-.38" transform="translate(-727.43 -537.68)"/><path class="cls-13" d="M740.49,541.39l1.24-.2,0,.41-1.18.19-.09-.4" transform="translate(-727.43 -537.68)"/><path class="cls-22" d="M739.82,541.06l-.06.17-.23,0-.07-.21.16-.18.08.07.13,0c0,.07-.11.17,0,.21l0,0m-.1,0h0" transform="translate(-727.43 -537.68)"/><path class="cls-8" d="M739.53,541.77a.43.43,0,0,0,.46.07.42.42,0,0,0,.26-.37.4.4,0,0,1-.24.5.38.38,0,0,1-.48-.2" transform="translate(-727.43 -537.68)"/><path class="cls-8" d="M739.5,541.74v0h0" transform="translate(-727.43 -537.68)"/><path class="cls-23" d="M739.82,541.06l0,0,0,0" transform="translate(-727.43 -537.68)"/><path class="cls-24" d="M743.51,540.8l.06,0-.11,0c0,.13.11.2.28.23l.35,0a2,2,0,0,1-.11.28,2.06,2.06,0,0,1-.23.31c0-.12.18-.15,0-.26l-.22.19v0a1.74,1.74,0,0,1,.11-.18c-.12-.05-.18,0-.22.08a.16.16,0,0,1-.08.1l.06-.23,0,0-.12.18,0,0a.3.3,0,0,0,0-.34s0-.06,0-.1,0-.15-.06-.18a1.49,1.49,0,0,1,0-.18l.06,0,.17,0" transform="translate(-727.43 -537.68)"/><path class="cls-25" d="M743.51,540.8l-.17,0a.32.32,0,0,1,.38,0l.21.08-.15,0v0l.21.1c-.09,0-.13,0-.26-.07a.73.73,0,0,0-.21-.06" transform="translate(-727.43 -537.68)"/><path class="cls-24" d="M742.23,540.59h0a.64.64,0,0,1,0,.07c0,.19-.08.35-.24.33a.25.25,0,0,1-.19-.28s-.08-.11,0-.1h.34" transform="translate(-727.43 -537.68)"/><path class="cls-22" d="M742.87,540.6a.31.31,0,0,1,0,.08.3.3,0,0,1-.06.24.19.19,0,0,1-.3,0c-.08-.09,0-.21-.07-.31h.41m-.17.11v-.05h0l0,0,.06,0v0h-.06m-.06,0s0,0,0,0h0s0,0,0,0h0" transform="translate(-727.43 -537.68)"/><path class="cls-22" d="M742.16,541.38h0s.05,0,.07,0h.37a.88.88,0,0,1,0,.17c0,.08-.11.21-.19.21s-.23-.11-.23-.18,0,0,0-.07a.09.09,0,0,0,0-.05v0m.3,0v-.06l-.15,0v0l.15,0" transform="translate(-727.43 -537.68)"/><path class="cls-26" d="M742.6,541.33h-.37s0,0-.07,0,0,0,0-.06a.47.47,0,0,1,.1-.11h.28l.07.13" transform="translate(-727.43 -537.68)"/><path class="cls-26" d="M742.23,540.59h-.34a.65.65,0,0,0,0-.11h.33a.46.46,0,0,1,0,.09" transform="translate(-727.43 -537.68)"/><path class="cls-26" d="M742.87,540.6h-.35v-.08a.24.24,0,0,1,.35.09" transform="translate(-727.43 -537.68)"/><path class="cls-26" d="M742.28,540.65a.64.64,0,0,0,0-.07.64.64,0,0,1,0,.07" transform="translate(-727.43 -537.68)"/><path class="cls-26" d="M742.16,541.41v.05l0,0,0,0" transform="translate(-727.43 -537.68)"/><path class="cls-26" d="M742.16,541.38v0" transform="translate(-727.43 -537.68)"/><path class="cls-22" d="M745.27,541c-.07,0-.15,0-.2,0l-.16-.18.08-.21.22,0,.14.18a2.32,2.32,0,0,0-.08.22m-.15-.28c0,.06-.09.12,0,.15l.1-.08-.11-.07" transform="translate(-727.43 -537.68)"/><path class="cls-27" d="M745.35,541.81l-.26-.1a.51.51,0,0,1,.08.13.17.17,0,0,1,0,.1c-.06-.22-.26-.11-.4-.15l.08,0v0h-.31v0l.08,0v0l-.22,0v0l.12,0-.14-.11c.07-.05.11,0,.19,0a1.11,1.11,0,0,0,.36.13l.46.13a.19.19,0,0,1,0,.07" transform="translate(-727.43 -537.68)"/><path class="cls-4" d="M742.91,545.21c0,.41,0,.82,0,1.22h-1.09c0-.23,0-.46,0-.69v-.51h.75l.34,0" transform="translate(-727.43 -537.68)"/><path class="cls-18" d="M741.81,546.43h1.1v1.21h-1.1c0-.12,0-.24,0-.35,0-.29,0-.58,0-.87" transform="translate(-727.43 -537.68)"/><polyline class="cls-23" points="12.29 3.33 12.3 3.34 12.29 3.34 12.29 3.34 12.29 3.33"/><path class="cls-23" d="M742.7,540.71h.06v0Z" transform="translate(-727.43 -537.68)"/><path class="cls-23" d="M742.64,540.72h0s0,0,0,0h0s0,0,0,0" transform="translate(-727.43 -537.68)"/><path class="cls-23" d="M742.7,540.71l0,0h0a.43.43,0,0,0,0,.05Z" transform="translate(-727.43 -537.68)"/><path class="cls-23" d="M742.46,541.43l-.15,0v0l.15,0v.06" transform="translate(-727.43 -537.68)"/><path class="cls-23" d="M745.12,540.74l.11.07-.1.08c-.1,0-.06-.09,0-.15" transform="translate(-727.43 -537.68)"/></g></svg>