<svg id="Warstwa_1" data-name="Warstwa 1" xmlns="http://www.w3.org/2000/svg" xmlns:xlink="http://www.w3.org/1999/xlink" viewBox="0 0 23.55 15.71"><defs><style>.cls-1{fill:none;}.cls-2{clip-path:url(#clip-path);}.cls-3{fill:#fefefe;}.cls-4{fill:#d47801;}.cls-5{fill:#546138;}.cls-6{fill:#525e35;}.cls-7{fill:#536037;}.cls-8{fill:#535f37;}.cls-9{fill:#525f36;}.cls-10{fill:#546038;}.cls-11{fill:#546139;}.cls-12{fill:#57633c;}.cls-13{fill:#57633b;}.cls-14{fill:#59653e;}.cls-15{fill:#5c6841;}.cls-16{fill:#556139;}.cls-17{fill:#5c6842;}.cls-18{fill:#5d6842;}</style><clipPath id="clip-path" transform="translate(-730.59 -537.29)"><rect class="cls-1" x="734.81" y="537.59" width="15.12" height="15.12"/></clipPath></defs><title>Cyprus</title><g class="cls-2"><path class="cls-3" d="M730.59,537.29h23.56V553H730.59Zm9.88,10a1.45,1.45,0,0,1,.28,0,1.19,1.19,0,0,1,.26,0v0l-.06-.08a.34.34,0,0,1-.06-.4.65.65,0,0,1,.17-.16,1,1,0,0,1,.72-.25l.41,0a.11.11,0,0,0,.14-.05s.1,0,.15,0,.08,0,.11,0l.66-.3a.84.84,0,0,1,.14-.06.58.58,0,0,0,.43-.23.18.18,0,0,1,.11,0c.15,0,.28,0,.33-.16s.07-.17.1-.25a1.21,1.21,0,0,0,0-.19.38.38,0,0,1,.4-.39h.29a.48.48,0,0,1,.38.13c.16.17.24.1.35,0a.6.6,0,0,1,.41-.14.66.66,0,0,1,.5.12.27.27,0,0,0,.14,0c0-.07,0-.13-.05-.19a0,0,0,0,0,0,0c-.11-.13-.22-.27-.34-.4s-.17-.16-.25-.25l-.29-.39a.1.1,0,0,0-.07,0,.62.62,0,0,0,0-.13,1.34,1.34,0,0,1,0-.28,2.87,2.87,0,0,1,.18-.4.3.3,0,0,1,.41-.18.27.27,0,0,0,.35-.2.38.38,0,0,1,.09-.15,2.43,2.43,0,0,1,.94-.64,2.2,2.2,0,0,0,.32-.21l.3-.2a.65.65,0,0,0,.21-.19.57.57,0,0,1,.26-.27l.56-.23a.15.15,0,0,0,.07-.09,1.76,1.76,0,0,0,.07-.27l-.43.17,0,0-.12.08c-.16.05-.34,0-.47.15s-.05,0-.07,0a1.57,1.57,0,0,0-.23.09c-.1.07-.17.17-.27.23s-.21,0-.29.09a.44.44,0,0,1-.4,0l-.06.09a1.88,1.88,0,0,1-.67.48,4.63,4.63,0,0,1-.94.35,1,1,0,0,1-.34,0,1,1,0,0,0-.65.21c-.07,0-.16.11-.22.09a.68.68,0,0,0-.32,0,4.46,4.46,0,0,1-1.09.14l-.29,0-.41,0-.32-.07h-.09a1.83,1.83,0,0,1-.33,0c-.09,0-.16,0-.25,0a.21.21,0,0,1-.17,0,1.55,1.55,0,0,1-.56-.19,1.26,1.26,0,0,0-.26-.14c0,.13,0,.23,0,.33a.9.9,0,0,1,.07.27c0,.21-.06.41-.09.62a.59.59,0,0,1-.39.47.36.36,0,0,1-.23,0,3.09,3.09,0,0,0-.77-.28.44.44,0,0,0-.3,0,.48.48,0,0,1-.38.08.36.36,0,0,1,0,.11l-.22.33c-.2.34-.63.63-1,.18l-.08-.08-.14-.09c0,.17-.08.3,0,.45s.2.25.15.42a.2.2,0,0,0,0,.21s.05.09,0,.1,0,.2.07.28v0a.17.17,0,0,0,.12.11.23.23,0,0,1,.14.13c0,.15.06.3.09.44a.11.11,0,0,0,0,.06l.35.22s.11.09.16.09a.72.72,0,0,1,.43.1,3,3,0,0,0,.63.28.66.66,0,0,0,.37,0,1.15,1.15,0,0,1,.17-.06.64.64,0,0,1,.2,0c.13,0,.28,0,.4.09a1.36,1.36,0,0,1,.26.45s0,.05,0,.1m2.11,2.83.15-.08c0-.07-.08-.1-.15,0a.38.38,0,0,1-.42,0c-.07-.05-.12,0-.14.06l.14.07-.36.28.24.2.33-.4.34.41.22-.23-.35-.26m-5-3a.75.75,0,0,0,.7.83c0-.28-.43-.83-.7-.83m8.81.85a1.44,1.44,0,0,0,.57-.31.61.61,0,0,0,.15-.55,1.11,1.11,0,0,0-.72.86m-2.79,1.25a.83.83,0,0,0-.76.6c.53,0,.82-.36.76-.6m-1.75.6c-.13-.37-.52-.67-.77-.59,0,.3.34.58.77.59m3.65-.76a1.19,1.19,0,0,0,.77,0,1,1,0,0,0,.19-.18.85.85,0,0,0-1,.23m-7.25-.24c.07.24.57.36.92.24a.81.81,0,0,0-.92-.24m3.53,1.21a1.4,1.4,0,0,0-.67-.18.4.4,0,0,0-.34.16,1,1,0,0,0,1,0m1.14,0a.91.91,0,0,0,1,0c-.13-.23-.56-.2-1,0m1.21-.78a.8.8,0,0,0,.72-.51.63.63,0,0,0-.72.51m-4.3-.51a.8.8,0,0,0,.73.51.64.64,0,0,0-.73-.51m-1.08-.78a1.45,1.45,0,0,0,.67.75,1.37,1.37,0,0,0-.35-.66.3.3,0,0,0-.32-.09m.61,1.48v.05a.66.66,0,0,0,.39.19,3.2,3.2,0,0,0,.44,0,.11.11,0,0,0,.08-.07.13.13,0,0,0-.06-.09.6.6,0,0,0-.22-.09h-.63m6,0-.33-.05a.78.78,0,0,0-.52.11.13.13,0,0,0-.06.09.14.14,0,0,0,.08.07.88.88,0,0,0,.83-.22m.6-1.5a.25.25,0,0,0-.28,0,1.39,1.39,0,0,0-.38.69,1.41,1.41,0,0,0,.66-.74m-.51.91a.9.9,0,0,0-.82.42c.44,0,.8-.2.82-.42m-6.15,0c.05.28.56.47.84.42a1,1,0,0,0-.84-.42m-1-.53c0-.22-.36-.41-.65-.35.06.32.21.39.65.35m8.09,0,.33,0a.33.33,0,0,0,.32-.36c-.34,0-.6.13-.65.38m-5.16,1.36a.72.72,0,0,0-.83-.21c0,.21.41.29.83.21m-2.17-1c-.15-.39-.41-.64-.64-.61a.77.77,0,0,0,.64.61m4.42,1c.41.08.79,0,.82-.22a.73.73,0,0,0-.82.22m2.15-1c.4-.12.68-.41.63-.64-.35.06-.47.35-.63.64m-7.08-.78c0-.47,0-.58-.2-.63,0,.21,0,.45.2.63m7.6,0c.2-.18.15-.42.2-.64-.22.08-.26.2-.2.64m-7.87.5c0,.18.1.27.23.23s.08-.07,0-.11a1.26,1.26,0,0,0-.26-.12m8.13,0a.26.26,0,0,0-.25.08s0,.09,0,.11a.17.17,0,0,0,.23-.19m-5.67.62a.66.66,0,0,0,0,.15.25.25,0,0,0,.13,0s0-.09,0-.12a.12.12,0,0,0-.18-.08m3.21,0a.15.15,0,0,0-.19.13.1.1,0,0,0,.06.08c.08,0,.13-.07.13-.21m-3.6.7.17.16s.07-.05.07-.06l-.14-.16-.1.06m4,0a.15.15,0,0,0-.05-.06c-.06,0-.15.07-.15.14s0,.08.06.08.11-.07.14-.16m-4.75-1.25-.05,0s0,.12.05.16.08,0,.12,0,0-.09,0-.11a.53.53,0,0,0-.13-.13m5.62,0c-.11,0-.19.06-.19.14s0,.07.07.07.12-.07.12-.21m-5.94.56c0,.09,0,.17.09.2s.06,0,.06,0,0-.15-.15-.16m6.21,0c-.11,0-.14.06-.14.14s0,.05.06.05.09-.11.08-.19" transform="translate(-730.59 -537.29)"/><path class="cls-4" d="M740.48,547.24s0-.08,0-.1a1.36,1.36,0,0,0-.26-.45c-.12-.13-.26-.09-.4-.09a.64.64,0,0,0-.2,0,1.15,1.15,0,0,0-.17.06.66.66,0,0,1-.37,0,3,3,0,0,1-.63-.28.71.71,0,0,0-.43-.1s-.11-.06-.16-.09l-.35-.22,0,0c0-.15,0-.3-.09-.45a.23.23,0,0,0-.14-.13.17.17,0,0,1-.12-.11s0,0,0,0-.17-.15-.07-.28,0-.07,0-.1a.18.18,0,0,1,0-.21.51.51,0,0,0-.16-.42c-.11-.15-.06-.28,0-.45l.14.09.08.08c.41.45.84.16,1.05-.18.06-.11.14-.22.21-.33a.36.36,0,0,0,0-.11.48.48,0,0,0,.38-.08.44.44,0,0,1,.3,0,3,3,0,0,1,.77.28.36.36,0,0,0,.23,0,.59.59,0,0,0,.39-.47,6.17,6.17,0,0,0,.09-.62.9.9,0,0,0-.07-.27c0-.1,0-.2,0-.33a1.26,1.26,0,0,1,.26.14,1.69,1.69,0,0,0,.56.19.2.2,0,0,0,.17,0c.09-.06.16,0,.25,0a1.83,1.83,0,0,0,.33,0H742l.32.07.41,0,.29,0a4.46,4.46,0,0,0,1.09-.14.68.68,0,0,1,.32,0c.06,0,.15,0,.22-.09a1,1,0,0,1,.65-.21,1,1,0,0,0,.34,0,4.63,4.63,0,0,0,.94-.35,1.88,1.88,0,0,0,.67-.48.47.47,0,0,0,.06-.09.44.44,0,0,0,.4,0c.08-.05.21,0,.29-.09s.17-.16.27-.23a1.57,1.57,0,0,1,.23-.09s.06,0,.07,0,.31-.1.47-.15l.12-.08,0,0,.42-.17a1.76,1.76,0,0,1-.07.27.15.15,0,0,1-.07.09l-.56.23a.57.57,0,0,0-.26.27.65.65,0,0,1-.21.19l-.3.2a2.2,2.2,0,0,1-.32.21,2.43,2.43,0,0,0-.94.64.38.38,0,0,0-.09.15.27.27,0,0,1-.35.2c-.21-.05-.31,0-.4.18a2.93,2.93,0,0,0-.19.4,1.34,1.34,0,0,0,0,.28.3.3,0,0,1,0,.13.1.1,0,0,1,.07,0c.1.13.19.26.3.39s.17.16.24.25.23.27.34.4l0,0a1.62,1.62,0,0,0,0,.19.27.27,0,0,1-.14,0,.66.66,0,0,0-.5-.12.56.56,0,0,0-.4.14c-.12.13-.2.2-.36,0a.48.48,0,0,0-.38-.13h-.29a.38.38,0,0,0-.4.39,1.21,1.21,0,0,1,0,.19c0,.08-.07.16-.1.25s-.18.18-.33.16a.18.18,0,0,0-.11,0,.58.58,0,0,1-.43.23.84.84,0,0,0-.14.06l-.65.3s-.08,0-.11,0-.13,0-.16,0a.11.11,0,0,1-.14.05l-.41,0a1,1,0,0,0-.72.25.65.65,0,0,0-.17.16.34.34,0,0,0,.06.4l.06.08v0a1.19,1.19,0,0,0-.26,0,1.26,1.26,0,0,0-.27,0" transform="translate(-730.59 -537.29)"/><path class="cls-5" d="M742.58,550.07l.35.26-.22.23-.34-.41-.33.4-.24-.2.36-.28L742,550c0-.09.07-.11.14-.06a.38.38,0,0,0,.42,0c.07-.05.11,0,.15,0l-.15.08" transform="translate(-730.59 -537.29)"/><path class="cls-6" d="M737.61,547.1c.27,0,.73.55.7.83a.75.75,0,0,1-.7-.83" transform="translate(-730.59 -537.29)"/><path class="cls-6" d="M746.42,548a1.11,1.11,0,0,1,.72-.86.61.61,0,0,1-.15.55,1.44,1.44,0,0,1-.57.31" transform="translate(-730.59 -537.29)"/><path class="cls-7" d="M743.63,549.2c.06.24-.23.55-.76.6a.83.83,0,0,1,.76-.6" transform="translate(-730.59 -537.29)"/><path class="cls-8" d="M741.88,549.8c-.43,0-.79-.29-.77-.59.25-.08.64.22.77.59" transform="translate(-730.59 -537.29)"/><path class="cls-9" d="M745.53,549a.85.85,0,0,1,1-.23,1,1,0,0,1-.19.18,1.19,1.19,0,0,1-.77,0" transform="translate(-730.59 -537.29)"/><path class="cls-9" d="M738.28,548.8a.81.81,0,0,1,.92.24c-.35.12-.85,0-.92-.24" transform="translate(-730.59 -537.29)"/><path class="cls-10" d="M741.81,550a1,1,0,0,1-1,0,.4.4,0,0,1,.35-.16,1.4,1.4,0,0,1,.66.18" transform="translate(-730.59 -537.29)"/><path class="cls-10" d="M743,550c.42-.21.85-.24,1,0a.91.91,0,0,1-1,0" transform="translate(-730.59 -537.29)"/><path class="cls-8" d="M744.16,549.22a.63.63,0,0,1,.72-.51.8.8,0,0,1-.72.51" transform="translate(-730.59 -537.29)"/><path class="cls-8" d="M739.86,548.71a.64.64,0,0,1,.73.51.81.81,0,0,1-.73-.51" transform="translate(-730.59 -537.29)"/><path class="cls-7" d="M738.78,547.93a.3.3,0,0,1,.32.09,1.37,1.37,0,0,1,.35.66,1.45,1.45,0,0,1-.67-.75" transform="translate(-730.59 -537.29)"/><path class="cls-7" d="M739.39,549.41H740a.6.6,0,0,1,.22.09.13.13,0,0,1,.06.09.11.11,0,0,1-.08.07,3.2,3.2,0,0,1-.44,0,.66.66,0,0,1-.39-.19v-.05" transform="translate(-730.59 -537.29)"/><path class="cls-7" d="M745.35,549.44a.88.88,0,0,1-.83.22.14.14,0,0,1-.08-.07.13.13,0,0,1,.06-.09.8.8,0,0,1,.52-.11l.33.05" transform="translate(-730.59 -537.29)"/><path class="cls-7" d="M746,547.94a1.33,1.33,0,0,1-.66.74,1.39,1.39,0,0,1,.38-.69.25.25,0,0,1,.28,0" transform="translate(-730.59 -537.29)"/><path class="cls-8" d="M745.45,548.85c0,.22-.39.42-.83.42a.9.9,0,0,1,.83-.42" transform="translate(-730.59 -537.29)"/><path class="cls-8" d="M739.29,548.84a1,1,0,0,1,.84.42c-.28,0-.79-.14-.84-.42" transform="translate(-730.59 -537.29)"/><path class="cls-11" d="M738.32,548.31c-.44,0-.59,0-.65-.35.29-.06.64.13.65.35" transform="translate(-730.59 -537.29)"/><path class="cls-11" d="M746.41,548.33c.05-.25.31-.4.65-.38a.33.33,0,0,1-.32.36l-.33,0" transform="translate(-730.59 -537.29)"/><path class="cls-7" d="M741.25,549.69c-.42.08-.78,0-.83-.21a.72.72,0,0,1,.83.21" transform="translate(-730.59 -537.29)"/><path class="cls-8" d="M739.08,548.71a.77.77,0,0,1-.64-.61c.23,0,.49.22.64.61" transform="translate(-730.59 -537.29)"/><path class="cls-9" d="M743.5,549.69a.73.73,0,0,1,.82-.22c0,.21-.41.3-.82.22" transform="translate(-730.59 -537.29)"/><path class="cls-9" d="M745.65,548.72c.16-.29.28-.58.63-.64.05.23-.23.52-.63.64" transform="translate(-730.59 -537.29)"/><path class="cls-12" d="M738.57,547.94c-.2-.18-.15-.42-.2-.63.21.05.25.16.2.63" transform="translate(-730.59 -537.29)"/><path class="cls-12" d="M746.17,547.94c0-.44,0-.56.2-.64,0,.22,0,.46-.2.64" transform="translate(-730.59 -537.29)"/><path class="cls-13" d="M738.31,548.44a1.45,1.45,0,0,1,.25.12c.05,0,0,.09,0,.11s-.23,0-.22-.23" transform="translate(-730.59 -537.29)"/><path class="cls-12" d="M746.44,548.48a.18.18,0,0,1-.24.19c-.06,0-.06-.07,0-.11a.27.27,0,0,1,.26-.08" transform="translate(-730.59 -537.29)"/><path class="cls-14" d="M740.76,549.1a.12.12,0,0,1,.18.08s0,.08,0,.12-.1,0-.12,0a.38.38,0,0,1,0-.15" transform="translate(-730.59 -537.29)"/><path class="cls-14" d="M744,549.1c0,.14-.05.22-.13.21a.1.1,0,0,1-.06-.08.15.15,0,0,1,.19-.13" transform="translate(-730.59 -537.29)"/><path class="cls-15" d="M740.37,549.8l.1-.06.14.16s-.06.07-.07.06l-.17-.16" transform="translate(-730.59 -537.29)"/><path class="cls-15" d="M744.33,549.8c0,.09,0,.17-.14.16s-.06-.05-.06-.07.09-.17.15-.15a.15.15,0,0,1,.05.06" transform="translate(-730.59 -537.29)"/><path class="cls-16" d="M739.58,548.55a.86.86,0,0,1,.14.13s0,.07,0,.11-.1,0-.12,0,0-.11-.05-.16l.05,0" transform="translate(-730.59 -537.29)"/><path class="cls-16" d="M745.2,548.58q0,.23-.12.21s-.06,0-.07-.07.08-.14.19-.14" transform="translate(-730.59 -537.29)"/><path class="cls-17" d="M739.27,549.14c.11,0,.15.07.14.16s0,0-.06,0-.08-.11-.08-.2" transform="translate(-730.59 -537.29)"/><path class="cls-18" d="M745.47,549.15c0,.08,0,.15-.08.19s-.06,0-.06-.05,0-.14.14-.14" transform="translate(-730.59 -537.29)"/></g></svg>