<svg id="Warstwa_1" data-name="Warstwa 1" xmlns="http://www.w3.org/2000/svg" xmlns:xlink="http://www.w3.org/1999/xlink" viewBox="0 0 23.88 15.94"><defs><style>.cls-1{fill:none;}.cls-2{clip-path:url(#clip-path);}.cls-3{fill:#fefefe;}.cls-4{fill:#11457d;}.cls-5{fill:#d6141a;}</style><clipPath id="clip-path" transform="translate(-730.43 -537.18)"><rect class="cls-1" x="733.93" y="537.58" width="15.12" height="15.12"/></clipPath></defs><title>Czech Rep</title><g class="cls-2"><path class="cls-3" d="M730.45,537.18h23.86v15.93H730.54l-.11,0h23.85v-8H742.36l-1-.66-4.23-2.81c-.65-.43-1.3-.88-2-1.31l-4.57-3.06a1.53,1.53,0,0,1-.16-.11" transform="translate(-730.43 -537.18)"/><path class="cls-4" d="M730.45,553.09h0V537.28s0-.07,0-.1a1.53,1.53,0,0,0,.16.11l4.57,3.06c.66.43,1.31.88,2,1.31l4.23,2.81,1,.66-10.68,7.12-1.23.84" transform="translate(-730.43 -537.18)"/><path class="cls-5" d="M730.45,553.09l1.23-.84,10.68-7.12h11.92v8H730.45" transform="translate(-730.43 -537.18)"/></g></svg>