<svg id="Warstwa_1" data-name="Warstwa 1" xmlns="http://www.w3.org/2000/svg" xmlns:xlink="http://www.w3.org/1999/xlink" viewBox="0 0 20.68 15.67"><defs><style>.cls-1{fill:none;}.cls-2{clip-path:url(#clip-path);}.cls-3{fill:#c50c30;}.cls-4{fill:#fefefe;}</style><clipPath id="clip-path" transform="translate(-732.03 -537.31)"><rect class="cls-1" x="734.93" y="537.58" width="15.12" height="15.12"/></clipPath></defs><title>Denmark</title><g class="cls-2"><path class="cls-3" d="M752.71,546.26V553H741v-6.7h11.75" transform="translate(-732.03 -537.31)"/><path class="cls-3" d="M741,537.31h11.76V544H741Z" transform="translate(-732.03 -537.31)"/><path class="cls-4" d="M741,537.31V544h11.76v2.25H741V553h11.75v0H732.15l-.12,0h6.69v-6.7H732V544h6.7v-1.28c0-1.6,0-3.2,0-4.8,0-.21,0-.41,0-.62Z" transform="translate(-732.03 -537.31)"/><path class="cls-3" d="M738.73,537.31c0,.21,0,.41,0,.62,0,1.6,0,3.2,0,4.8,0,.43,0,.85,0,1.28H732v-6.7Z" transform="translate(-732.03 -537.31)"/><path class="cls-3" d="M732,546.26h6.69V553H732Z" transform="translate(-732.03 -537.31)"/></g></svg>