<svg id="Warstwa_1" data-name="Warstwa 1" xmlns="http://www.w3.org/2000/svg" xmlns:xlink="http://www.w3.org/1999/xlink" viewBox="0 0 24.11 15.21"><defs><style>.cls-1{fill:none;}.cls-2{clip-path:url(#clip-path);}.cls-3{fill:#fefefe;}.cls-4{fill:#0072cd;}</style><clipPath id="clip-path" transform="translate(-730.32 -537.54)"><rect class="cls-1" x="734.81" y="537.59" width="15.12" height="15.12"/></clipPath></defs><title>Estonia</title><g class="cls-2"><path d="M730.32,547.7v-5.08H754.4v4.61s0,.08,0,.12v.18l0,.16H730.32" transform="translate(-730.32 -537.54)"/><path class="cls-3" d="M730.32,547.7h24.07l0-.16v5.22h-24.1Z" transform="translate(-730.32 -537.54)"/><path class="cls-4" d="M754.4,542.62H730.32v-5.06h24.07q0,.12,0,.21v.17s0,.08,0,.12v4.56" transform="translate(-730.32 -537.54)"/><path class="cls-3" d="M754.42,537.77q0-.09,0-.21H730.32s0,0,0,0h24.09Z" transform="translate(-730.32 -537.54)"/><path class="cls-3" d="M754.4,542.62v-4.56s0-.08,0-.12v9.41s0-.08,0-.12v-4.61" transform="translate(-730.32 -537.54)"/></g></svg>