<svg id="Warstwa_1" data-name="Warstwa 1" xmlns="http://www.w3.org/2000/svg" xmlns:xlink="http://www.w3.org/1999/xlink" viewBox="0 0 26.18 16"><defs><style>.cls-1{fill:none;}.cls-2{clip-path:url(#clip-path);}.cls-3{fill:#003580;}.cls-4{fill:#fefefe;}</style><clipPath id="clip-path" transform="translate(-729.28 -537.15)"><rect class="cls-1" x="732.93" y="537.59" width="15.12" height="15.12"/></clipPath></defs><title>Finland</title><g class="cls-2"><path class="cls-3" d="M729.28,547.33V543h7.27v-5.81h4.36V543h14.54v2.52s0,0,0,.08V546s0,0,0,.07v1.27H740.91v5.81h-4.36v-5.81h-7.27" transform="translate(-729.28 -537.15)"/><path class="cls-4" d="M755.46,545.57s0-.05,0-.08V543H740.91v-5.81h-4.36V543h-7.27v-5.83h26.18Z" transform="translate(-729.28 -537.15)"/><path class="cls-4" d="M740.91,553.14v-5.81h14.54v-1.27s0,0,0-.07v7.15Z" transform="translate(-729.28 -537.15)"/><path class="cls-4" d="M729.28,547.33h7.27v5.81h-7.27Z" transform="translate(-729.28 -537.15)"/></g></svg>