<svg id="Warstwa_1" data-name="Warstwa 1" xmlns="http://www.w3.org/2000/svg" xmlns:xlink="http://www.w3.org/1999/xlink" viewBox="0 0 25.63 15.38"><defs><style>.cls-1{fill:none;}.cls-2{clip-path:url(#clip-path);}.cls-3{fill:#fecd00;}.cls-4{fill:#dc0000;}.cls-5{fill:#fefefe;}</style><clipPath id="clip-path" transform="translate(-729.56 -537.46)"><rect class="cls-1" x="734.5" y="537.59" width="15.12" height="15.12"/></clipPath></defs><title>Germany</title><g class="cls-2"><path d="M729.56,538.08v-.4a1.77,1.77,0,0,1,0-.2h25.58v5.13H729.59c0-.05,0-.1,0-.15v-4.24a.51.51,0,0,0,0-.13" transform="translate(-729.56 -537.46)"/><path class="cls-3" d="M755.18,547.71v5.12h-25.6v-4.49c0-.21,0-.42,0-.63h25.59" transform="translate(-729.56 -537.46)"/><path class="cls-4" d="M755.18,547.71H729.59s0-.09,0-.13v-4.77c0-.07,0-.14,0-.21h25.59Z" transform="translate(-729.56 -537.46)"/><path class="cls-5" d="M755.18,537.48H729.6a1.77,1.77,0,0,0,0,.2v-.22h25.52l.1,0" transform="translate(-729.56 -537.46)"/><path class="cls-5" d="M729.59,542.6c0,.07,0,.14,0,.21v4.77s0,.09,0,.13c0,.21,0,.42,0,.63v4.49h0V538.08a.51.51,0,0,1,0,.13v4.24s0,.1,0,.15" transform="translate(-729.56 -537.46)"/></g></svg>