<svg id="Warstwa_1" data-name="Warstwa 1" xmlns="http://www.w3.org/2000/svg" xmlns:xlink="http://www.w3.org/1999/xlink" viewBox="0 0 22.66 15.12"><defs><style>.cls-1{fill:none;}.cls-2{clip-path:url(#clip-path);}.cls-3{fill:#fefefe;}.cls-4{fill:#0d5eae;}.cls-5{clip-path:url(#clip-path-2);}.cls-6{fill:#2970b7;}.cls-7{fill:#e4edf6;}</style><clipPath id="clip-path" transform="translate(-731.04 -537.59)"><rect class="cls-1" x="731.56" y="537.59" width="15.12" height="15.12"/></clipPath><clipPath id="clip-path-2" transform="translate(-731.04 -537.59)"><rect class="cls-1" x="731.56" y="537.59" width="15.12" height="15.12"/></clipPath></defs><title>Greece</title><g class="cls-2"><path class="cls-3" d="M734.37,537.59h1.7v3.32l0,0h3.33v1.68h-3.35V546H753.7v1.7H731V546h3.32v-3.36H731V541h3.29l0,0v-3.32" transform="translate(-731.04 -537.59)"/><path class="cls-3" d="M731,551v-1.66l0,0h22.58l0,0V551H731" transform="translate(-731.04 -537.59)"/><path class="cls-4" d="M753.66,549.35H731v-1.66H753.7v1.66h0" transform="translate(-731.04 -537.59)"/><path class="cls-4" d="M731,551H753.7v1.66H731Z" transform="translate(-731.04 -537.59)"/></g><g class="cls-5"><path class="cls-4" d="M736.08,540.91v-3.32H753.7v1.66H739.8l-.37,0V541h-3.32l0,0" transform="translate(-731.04 -537.59)"/><path class="cls-4" d="M753.7,546H736.08v-3.34h3.35v1.67H753.7Z" transform="translate(-731.04 -537.59)"/><path class="cls-3" d="M753.7,544.31H739.43v-1.67l.37,0h13.9Z" transform="translate(-731.04 -537.59)"/><path class="cls-3" d="M739.43,541v-1.66l.37,0h13.9v1.66l0,0H739.43Z" transform="translate(-731.04 -537.59)"/></g><g class="cls-2"><path class="cls-4" d="M739.43,541H753.7v1.66H739.8l-.37,0h0V541" transform="translate(-731.04 -537.59)"/><path class="cls-4" d="M731,542.61h3.32V546H731Z" transform="translate(-731.04 -537.59)"/><path class="cls-4" d="M734.33,540.94h-3.25l0,0v-3.32h3.33v3.32l0,0" transform="translate(-731.04 -537.59)"/><path class="cls-6" d="M731,540.91l0,0h0Z" transform="translate(-731.04 -537.59)"/><path class="cls-7" d="M753.7,541h0l0,0Z" transform="translate(-731.04 -537.59)"/><path class="cls-7" d="M731,549.34h0l0,0Z" transform="translate(-731.04 -537.59)"/></g><g class="cls-5"><path class="cls-7" d="M753.66,549.35h0v0l0,0" transform="translate(-731.04 -537.59)"/><path class="cls-6" d="M734.33,540.94l0,0,0,0" transform="translate(-731.04 -537.59)"/><path class="cls-6" d="M736.08,540.91l0,0,0,0" transform="translate(-731.04 -537.59)"/></g></svg>