<svg id="Warstwa_1" data-name="Warstwa 1" xmlns="http://www.w3.org/2000/svg" xmlns:xlink="http://www.w3.org/1999/xlink" viewBox="0 0 21.63 15.58"><defs><style>.cls-1{fill:none;}.cls-2{fill:#02529b;}.cls-3{clip-path:url(#clip-path);}.cls-4{fill:#db1e35;}.cls-5{fill:#fefefe;}</style><clipPath id="clip-path" transform="translate(-731.56 -537.36)"><rect class="cls-1" x="733.86" y="537.58" width="15.12" height="15.12"/></clipPath></defs><title>Iceland</title><rect class="cls-2" x="9.53" y="0.23" width="7.89" height="5.82"/><rect class="cls-2" x="9.54" y="9.5" width="7.88" height="5.85"/><g class="cls-3"><path class="cls-4" d="M731.56,545.81v-.44c0-.16,0-.33,0-.5a2.11,2.11,0,0,0,0-.25v-.33l.17,0h6.77v-6.91h1.72v6.91h13V546h-13v6.9h-1.73V546H731.6c0-.07,0-.13,0-.18" transform="translate(-731.56 -537.36)"/><path class="cls-2" d="M731.56,552.72v-.43a.5.5,0,0,0,0-.12v-4.73a.5.5,0,0,0,0-.12v-.43l.15,0h5.91v6h-6l0-.18" transform="translate(-731.56 -537.36)"/><path class="cls-2" d="M731.58,537.36h6v6h-6l0-.19v-.43a.77.77,0,0,0,0-.15v-5.27" transform="translate(-731.56 -537.36)"/><path class="cls-5" d="M731.56,552.72l0,.18h6v-6h-5.91l-.15,0v-1.08c0,.05,0,.11,0,.18h6.89v6.91h1.73V546h13v.86H741.1v6h12.08s0,0,0,0a.4.4,0,0,1-.11,0h-21.5Z" transform="translate(-731.56 -537.36)"/><polygon class="cls-5" points="21.63 6.91 8.67 6.91 8.67 0 9.53 0 9.53 6.05 21.63 6.05 21.63 6.91"/><path class="cls-5" d="M731.56,543.21l0,.19h6v-6h.87v6.91h-6.77l-.17,0Z" transform="translate(-731.56 -537.36)"/><path class="cls-5" d="M731.58,537.36v5.27a.77.77,0,0,1,0,.15v-5.32s0-.07,0-.1" transform="translate(-731.56 -537.36)"/><path class="cls-5" d="M731.56,547.32a.5.5,0,0,1,0,.12v4.73a.5.5,0,0,1,0,.12Z" transform="translate(-731.56 -537.36)"/><path class="cls-5" d="M731.56,544.62a2.11,2.11,0,0,1,0,.25c0,.17,0,.34,0,.5Z" transform="translate(-731.56 -537.36)"/></g></svg>