<svg id="Warstwa_1" data-name="Warstwa 1" xmlns="http://www.w3.org/2000/svg" xmlns:xlink="http://www.w3.org/1999/xlink" viewBox="0 0 28.04 20.4"><defs><style>.cls-1{fill:none;}.cls-2{clip-path:url(#clip-path);}.cls-3{fill:#fdfdfe;}.cls-4{fill:#0139b8;}.cls-5{fill:#0239b8;}.cls-6{fill:#f9fafd;}</style><clipPath id="clip-path" transform="translate(-749.26 -534.94)"><rect class="cls-1" x="755.71" y="537.59" width="15.12" height="15.12"/></clipPath></defs><title>Israel</title><g class="cls-2"><path class="cls-3" d="M777.29,540.09v10.15h-28v3.19h27.8l.19,0v1.93h-28V534.94h28v2h-28v3.18h27.77l.22,0m-10.18,7.28-.1-.18-1.1-1.9a.2.2,0,0,1,0-.25l1.11-1.92.08-.16h-2.38a.21.21,0,0,1-.23-.13c-.36-.64-.73-1.26-1.09-1.89a1.63,1.63,0,0,0-.11-.17l-.1.16-1.09,1.89a.23.23,0,0,1-.24.14h-2.38l.09.17,1.1,1.9a.22.22,0,0,1,0,.27c-.37.62-.73,1.26-1.09,1.89l-.1.18h2.4a.21.21,0,0,1,.21.13l1.1,1.91.11.17c.4-.71.79-1.38,1.18-2.06a.25.25,0,0,1,.26-.15h2.37" transform="translate(-749.26 -534.94)"/><path class="cls-4" d="M777.29,540.09l-.22,0H749.3v-3.18h28Z" transform="translate(-749.26 -534.94)"/><path class="cls-4" d="M777.29,553.42l-.19,0H749.3v-3.19h28Z" transform="translate(-749.26 -534.94)"/><path class="cls-5" d="M767.11,547.37h-2.37a.25.25,0,0,0-.26.15c-.39.68-.78,1.35-1.18,2.06l-.11-.17-1.1-1.91a.21.21,0,0,0-.21-.13h-2.4l.1-.18c.36-.63.72-1.27,1.09-1.89a.23.23,0,0,0,0-.27l-1.1-1.9-.09-.17h2.38a.23.23,0,0,0,.24-.14l1.09-1.89.1-.16a1.63,1.63,0,0,1,.11.17c.36.63.73,1.25,1.09,1.89a.21.21,0,0,0,.23.13h2.38l-.08.16L765.91,545a.2.2,0,0,0,0,.25l1.1,1.9.1.18m-3.81-3.71h-.75a.17.17,0,0,0-.19.1c-.24.44-.5.86-.74,1.29a.28.28,0,0,0,0,.22c.24.43.49.86.74,1.29a.18.18,0,0,0,.19.11H764a.18.18,0,0,0,.19-.11c.25-.43.5-.85.74-1.29a.26.26,0,0,0,0-.21c-.24-.44-.49-.86-.73-1.29a.18.18,0,0,0-.19-.11h-.74m1.67,0,.46.8c.17-.28.31-.53.46-.8Zm.92,3-.46-.8-.46.8ZM763.75,543l-.46-.8c-.16.29-.31.54-.46.8Zm-3.06.71.46.8.46-.8Zm.46,2.2c-.16.29-.31.54-.46.8h.92l-.46-.8m2.14,2.31c.17-.28.31-.53.46-.79h-.92l.46.79" transform="translate(-749.26 -534.94)"/><path class="cls-3" d="M763.3,543.66H764a.21.21,0,0,1,.19.12c.24.43.49.85.73,1.29a.26.26,0,0,1,0,.21l-.73,1.29a.2.2,0,0,1-.2.11h-1.48a.18.18,0,0,1-.19-.11c-.25-.43-.5-.86-.74-1.29a.28.28,0,0,1,0-.22c.24-.43.5-.85.74-1.29a.17.17,0,0,1,.19-.1h.75" transform="translate(-749.26 -534.94)"/><path class="cls-6" d="M765,543.66h.92c-.15.27-.29.52-.46.8l-.46-.8" transform="translate(-749.26 -534.94)"/><path class="cls-6" d="M765.89,546.66H765c.16-.26.3-.52.46-.8l.46.8" transform="translate(-749.26 -534.94)"/><path class="cls-6" d="M763.75,543h-.92l.46-.8.46.8" transform="translate(-749.26 -534.94)"/><path class="cls-6" d="M760.69,543.66h.92l-.46.8-.46-.8" transform="translate(-749.26 -534.94)"/><path class="cls-6" d="M761.15,545.86l.46.8h-.92c.15-.26.3-.51.46-.8" transform="translate(-749.26 -534.94)"/><path class="cls-6" d="M763.29,548.17l-.46-.79h.92c-.15.26-.29.51-.46.79" transform="translate(-749.26 -534.94)"/></g></svg>