<svg id="Warstwa_1" data-name="Warstwa 1" xmlns="http://www.w3.org/2000/svg" xmlns:xlink="http://www.w3.org/1999/xlink" viewBox="0 0 26.89 15.62"><defs><style>.cls-1{fill:none;}.cls-2{fill:#cd1126;}.cls-3{clip-path:url(#clip-path);}.cls-4{fill:#002b7e;}.cls-5{fill:#0b0a05;}.cls-6{fill:#f6d13b;}.cls-7{fill:#f1cc3a;}.cls-8{fill:#f2cd3a;}.cls-9{fill:#efcb39;}.cls-10{fill:#f0cc3a;}.cls-11{fill:#dcba35;}.cls-12{fill:#e8c437;}.cls-13{fill:#e2c036;}.cls-14{fill:#e9c538;}.cls-15{fill:#e6c237;}.cls-16{fill:#e7c437;}.cls-17{fill:#e5c237;}.cls-18{fill:#dfbd35;}.cls-19{fill:#e4c136;}.cls-20{fill:#e1be36;}.cls-21{fill:#fbd53c;}.cls-22{fill:#eeca39;}.cls-23{fill:#fcd63c;}.cls-24{fill:#ebc738;}.cls-25{fill:#3b320e;}.cls-26{fill:#3a310e;}.cls-27{fill:#efca39;}.cls-28{fill:#0f0d04;}.cls-29{fill:#141105;}.cls-30{fill:#181406;}.cls-31{fill:#100e04;}</style><clipPath id="clip-path" transform="translate(-749.83 -537.34)"><rect class="cls-1" x="751.33" y="537.84" width="15.12" height="15.12"/></clipPath></defs><title>liechtenstein</title><rect class="cls-2" x="1.5" y="8.06" width="15.12" height="7.56"/><g class="cls-3"><path class="cls-4" d="M776.72,545.4H749.83v-8.06h26.89Zm-21-6.12-.09,0c-.16-.07-.23-.06-.36.1a.28.28,0,0,0,.44,0c0,.16,0,.29-.11.36a.4.4,0,0,0-.08.46c-.06,0-.12,0-.14,0a.19.19,0,0,0-.27,0c-.13-.14-.15-.14-.33-.06-.08-.14-.18-.13-.3,0a.19.19,0,0,0-.31,0c-.1-.06-.2-.09-.29,0s0,0-.06,0-.21,0-.25.16c-.19,0-.22.05-.23.23s-.2.11-.15.25,0,.06,0,.07a.19.19,0,0,0,0,.3c-.12.11-.09.22,0,.31a.18.18,0,0,0,0,.28l-.2.13c.12.25.24.47.34.69s.16.36.24.54a.51.51,0,0,0,.4.31c.27,0,.54.1.81.13a10.32,10.32,0,0,0,2.42-.06.89.89,0,0,0,.81-.64,2.38,2.38,0,0,1,.5-.94l-.2-.13c0-.11,0-.19,0-.28s0-.05,0-.06a.17.17,0,0,0,0-.27c0-.09.16-.18,0-.25h0s0-.09,0-.13,0-.18-.12-.24,0-.2-.15-.23h-.06s0,0-.06,0a.17.17,0,0,0-.27-.1c-.12-.15-.15-.16-.32-.07-.15-.11-.18-.1-.32,0-.12-.12-.22-.07-.31,0-.16-.07-.19-.06-.31.08-.12-.09-.22-.05-.3.07l-.11-.06a.34.34,0,0,0,0-.34c-.06-.11-.12-.22-.17-.33a.08.08,0,0,1,0-.07.08.08,0,0,1,.07,0c.16.06.22,0,.36-.12-.12-.06-.21-.21-.37-.08h-.07s0-.06,0-.09a.32.32,0,0,0-.1-.41.31.31,0,0,0-.09.42l0,.11Z" transform="translate(-749.83 -537.34)"/><path class="cls-5" d="M758.41,540.88c.17.07,0,.16,0,.25a.17.17,0,0,1,0,.27s0,0,0,.06,0,.17,0,.28l.2.13a2.38,2.38,0,0,0-.5.94.89.89,0,0,1-.81.64,10.32,10.32,0,0,1-2.42.06c-.27,0-.54-.08-.81-.13a.51.51,0,0,1-.4-.31c-.08-.18-.15-.36-.24-.54s-.22-.44-.34-.69l.2-.13a.18.18,0,0,1,0-.28c-.12-.09-.15-.2,0-.31-.09-.11-.11-.2,0-.3a.06.06,0,0,0,0-.07c-.05-.14,0-.21.15-.25s0-.21.23-.24c0-.11.1-.2.25-.15s0,0,.06,0,.19-.08.29,0a.19.19,0,0,1,.31,0c.12-.08.22-.09.3,0,.18-.08.2-.08.33.06a.19.19,0,0,1,.27,0s.08,0,.14,0a.4.4,0,0,1,.08-.46c.07-.07.07-.2.11-.36a.28.28,0,0,1-.44,0c.13-.16.2-.17.37-.1l.08,0s0,.05,0,.06a.2.2,0,0,0,.08.08s.07,0,.07,0a.16.16,0,0,0-.07-.09h-.06l0-.11a.31.31,0,0,1,.09-.42.32.32,0,0,1,.1.41s0,.06,0,.09H756c.16-.13.25,0,.37.08-.14.16-.2.17-.36.12a.08.08,0,0,0-.07,0,.08.08,0,0,0,0,.07,3.24,3.24,0,0,0,.17.32.36.36,0,0,1,0,.35l.11.06c.08-.12.18-.16.3-.07.12-.14.15-.15.31-.08.09-.1.19-.15.31,0,.14-.12.17-.13.32,0,.17-.09.2-.08.32.07a.17.17,0,0,1,.27.1s0,0,.06,0h.06c.13,0,.08.18.15.23s.16.11.12.24,0,.09,0,.13h0s-.09,0-.12,0a.13.13,0,0,0,0,.12s.1,0,.13,0,0-.08,0-.12,0,0,0,0m-3.35-.13-.09-.09v.86c0,.07,0,.08.09.07h.05c.08,0,.09,0,.09-.08s0-.41,0-.61c0,0-.05-.1-.08-.15h-.06m1.76.78s.08,0,.08-.06v-.93l-.09.07h0c-.07,0-.09,0-.09.1v.87l.1-.05h.05m-2.39,0c.06,0,.09,0,.09-.07,0-.27,0-.54,0-.82,0-.06,0-.08-.09-.08h-.06c-.07,0-.09,0-.09.09s0,.33,0,.5v.43l.09,0h.06m3-.94c-.1,0-.09,0-.09.08,0,.28,0,.57,0,.86,0,0,.06.1.08.15l0,0,.1.08v-1.12s-.06-.06-.09-.09h0m-3.73.17,0,0c0,.23,0,.47,0,.7a1,1,0,0,0,.06.23h0v-.92l-.1,0a.91.91,0,0,1,.86-.23c.3,0,.59.12.9.19,0,0,0-.07,0-.12a5,5,0,0,0-1.27-.21.74.74,0,0,0-.75.62,1.66,1.66,0,0,0,0,.54c0,.21,0,.21.25.24l-.09-.29a.93.93,0,0,1,.05-.73m.62,2.24c0,.11.1.11.14,0s.08,0,.1,0,0-.06,0-.08l.08.08a.35.35,0,0,0,0-.08l.08.07.07-.1,0,.11c.06-.09.23.08.22-.13l.07.11.07-.09.07.09.09-.13c0,.11,0,.15.11.11s0-.07,0-.13,0,.1,0,.15h.13a.74.74,0,0,0,0-.12h0s0,.08,0,.12H756l0-.15a.61.61,0,0,1,0,.16c.1,0,.23.06.27-.1l.06.1.07-.09.06.09.08-.08a.56.56,0,0,1,0,.08.27.27,0,0,0,.08-.07l.06.08.07-.06.06.07.08-.09s0,.09,0,.09l.12,0c0,.13.1,0,.14,0l0,.07a.33.33,0,0,0,.1-.06.65.65,0,0,0,0,.11l.08-.09a1,1,0,0,1,0,.1l.07-.08a.2.2,0,0,0,0,.08l.06,0,.09.12h0c.1-.22.19-.44.29-.65s.21-.44.32-.67a.63.63,0,0,0-.42-.11c-.26,0-.39.21-.5.45a2.78,2.78,0,0,0-.08-.38.34.34,0,0,0-.57-.19,3.11,3.11,0,0,0-.41.4l-.07.08c-.11-.45-.24-.57-.59-.58s-.5.11-.64.59a.52.52,0,0,0-.08-.11,2.19,2.19,0,0,0-.34-.34c-.29-.23-.56-.13-.65.23,0,.08,0,.18-.05.31-.1-.21-.19-.38-.4-.43a.58.58,0,0,0-.52.08l.62,1.32h0a.54.54,0,0,0,.07-.13l.07.08a.81.81,0,0,1,0-.11.2.2,0,0,0,.12,0,.36.36,0,0,1,.08.09.89.89,0,0,0,0-.11l.1.06s0,0,.05-.08m3.5-1.23c.2,0,.24-.11.26-.26s0,0,0-.05c.14-.69-.22-1.12-.91-1.07a8,8,0,0,0-1.07.2l0,0s0,.07,0,.11a1.64,1.64,0,0,1,.28-.07,5.46,5.46,0,0,1,.89-.13c.51,0,.76.3.67.8,0,.16-.08.31-.12.45m-2.27-1.19c-.06.35-.11.69-.17,1.05.07-.06.16-.1.17-.15,0-.29.08-.58.11-.88l-.11,0m.34,0c0,.27.06.54.1.81s0,.15.18.18c-.05-.33-.11-.66-.16-1h-.12m-1.8,0-.05,0a.35.35,0,0,0,0,.13c0,.24,0,.49,0,.73v.33h0a.53.53,0,0,0,.06-.1v-1.08m-.14.05h0a.67.67,0,0,0-.06.12v.95s0,.06,0,.09.05-.06.05-.08V540.6m3.7,0h0v1.14l0,0s.06-.07.06-.11v-.93c0-.05,0-.09-.06-.13m-3.43-.06,0,0s-.06,0-.06.08c0,.34,0,.69,0,1h0s.06-.08.06-.12v-1m3,1,0,0v-1l0,0s-.06,0-.06.07c0,.29,0,.57,0,.86,0,0,0,.07.06.1m-.1-1,0,0s-.06.06-.06.08v.89l0,0s.06,0,.06-.07v-.89m-2.59,0,0,0c0,.3,0,.59,0,.89,0,0,0,.06.06.09l0,0c0-.29,0-.59,0-.88,0,0,0-.06-.06-.09m.17,1,0,0v-.89s0-.06-.06-.09l0,0v.89s0,.06.07.09m2.19-.06,0,0s0-.07,0-.11c0-.27,0-.53,0-.8,0,0,0-.06-.07-.08l0,0Zm-2.06.09,0,0c0-.29,0-.58,0-.86,0,0,0-.06-.06-.09,0,.31,0,.59,0,.88,0,0,0,.06.06.09m2.88-.9v1a1.28,1.28,0,0,0,0-1m-1.14,0,0,0s-.07.07-.07.11v.8l0,0s.06-.06.06-.09v-.82m-.28.87v-.68a.47.47,0,0,0,0,.68m.1.05,0,0v-.81h0s-.06.08-.06.12c0,.21,0,.42,0,.64,0,0,0,.06.05.09m-.9-1.56h.5s0-.07,0-.07-.09-.08-.12-.13-.1-.05-.14-.08,0,.09,0,.13,0,0,0,0-.21,0-.19.13m0,.05c.06.12.14.18.24.17a.22.22,0,0,0,.23-.17Zm-.31.78v.67a.62.62,0,0,0,0-.67m.55.63c.05-.08.11-.12.11-.16s-.07-.08-.11-.12-.1.08-.11.12.06.08.11.16m0-2.68c-.13.19-.13.2,0,.37.12-.17.12-.17,0-.37m-1,1.35c-.07-.06-.12-.11-.15-.11a.16.16,0,0,0-.1.11s.06.09.09.09.08,0,.16-.09m1.84-.11c0,.07-.1.12-.09.15s.07.07.1.11.09-.07.09-.11,0-.08-.1-.15m-3,.35c-.08,0-.13-.09-.17-.09s-.09.07-.08.11a.14.14,0,0,0,.09.09s.08,0,.16-.11m4.74,1.14c-.07,0-.11-.1-.14-.1s-.08.06-.12.1.07.09.1.1.08,0,.16-.1m-.86-1.25c0-.08.09-.12.09-.16s-.07-.09-.1-.09a.13.13,0,0,0-.1.09c0,.05,0,.09.11.16m-2.3.14c0-.07.09-.12.09-.16s-.07-.1-.1-.09a.17.17,0,0,0-.09.11s.05.07.1.14m-.31-.38c-.05.07-.1.12-.1.16s.07.1.1.09a.16.16,0,0,0,.1-.11s0-.07-.1-.14m2-.05c-.05.07-.1.12-.1.16s.07.09.1.09a.18.18,0,0,0,.1-.11s0-.07-.1-.14m-3.19.38c0-.06.11-.11.1-.14s-.06-.07-.1-.11-.09.07-.09.11,0,.08.09.14m.74-.26c-.08,0-.13-.1-.17-.1a.15.15,0,0,0-.08.11.14.14,0,0,0,.09.09s.08,0,.16-.1m3.34,0c-.05.08-.1.12-.1.16a.13.13,0,0,0,.1.09s.1-.06.1-.09-.05-.08-.1-.16m-1.34.2c-.08,0-.12-.1-.16-.1s-.1.06-.09.09a.14.14,0,0,0,.09.11s.08,0,.16-.1m-3,1.25c-.07,0-.12-.1-.15-.09s-.07.07-.11.1.07.1.11.1.08,0,.15-.11m-.06-.28c-.06,0-.11-.11-.14-.1s-.07.06-.11.09.07.1.11.1.07,0,.14-.09m4.66-1c-.05.07-.11.11-.1.14s.06.08.09.12.09-.07.1-.11,0-.08-.09-.15m-1.85-.93c-.16-.13-.17-.13-.29,0,.14.12.14.12.29,0m-3,1.33c.08.05.13.09.17.09a.1.1,0,0,0,0-.19s-.08,0-.16.1m.23.28c-.07-.05-.12-.1-.16-.09s-.06.06-.09.1.07.08.11.09.07,0,.14-.1m3.84-1c0,.07-.1.11-.1.14s.06.08.09.12.09-.07.1-.11,0-.08-.09-.15m-1.89-.64c.16.12.18.12.29,0-.13-.12-.13-.12-.29,0m.83,1c-.08,0-.12-.1-.16-.1a.15.15,0,0,0-.09.1.14.14,0,0,0,.09.09s.08,0,.16-.09m-.49,0c-.08,0-.12-.1-.16-.1s-.07.07-.1.1.07.08.11.09.08,0,.15-.09m2.69.3c-.08,0-.12-.09-.16-.09s-.1.07-.09.1a.17.17,0,0,0,.11.09s.07,0,.14-.1m-2.45.4c-.07-.05-.12-.09-.15-.09s-.07.06-.11.09.07.09.12.1.07,0,.14-.1m2.38,0c-.05.06-.11.1-.1.13s.06.08.09.12.09-.07.1-.11,0-.07-.09-.14m-2.53-1.65-.12.24h.24c0-.09-.08-.15-.12-.24m-1.6.69c-.07,0-.11-.1-.15-.1s-.07.06-.11.1.06.09.1.09.08,0,.16-.09m1.59.54c0,.07-.08.11-.07.14s.06.08.08.07.08,0,.08-.08,0-.07-.09-.13m0,0s.08-.07.08-.1a.14.14,0,0,0-.07-.08s-.08,0-.08.06,0,.07.07.12m0-.2c0-.06.07-.09.07-.11a.14.14,0,0,0-.08-.07s-.06,0-.06.07,0,.05.07.11" transform="translate(-749.83 -537.34)"/><path class="cls-6" d="M754.34,543s0,.08-.05.08l-.1,0s0,0,0,.1a.36.36,0,0,0-.08-.09.2.2,0,0,1-.12,0,.81.81,0,0,0,0,.11l-.07-.08c0,.05,0,.09-.07.13h0l-.62-1.32a.58.58,0,0,1,.52-.08c.2.05.3.22.4.43a2,2,0,0,1,.05-.31c.09-.36.36-.46.65-.23a2.19,2.19,0,0,1,.34.34.52.52,0,0,1,.08.11c.14-.48.28-.6.64-.59s.48.13.59.58l.07-.08a3.11,3.11,0,0,1,.41-.4.34.34,0,0,1,.57.19,2.78,2.78,0,0,1,.08.38c.11-.24.24-.42.5-.45a.6.6,0,0,1,.42.12c-.11.22-.22.44-.32.66s-.19.43-.29.65h0l-.09-.12-.07.05,0-.09-.07.08,0-.1-.08.09a.65.65,0,0,1,0-.11.33.33,0,0,1-.1.06l0-.07s-.1.14-.14,0l-.12,0s0-.06,0-.09l-.08.09-.06-.07-.07.06-.06-.07-.08.06,0-.08-.08.08-.06-.09-.07.09-.06-.1c0,.16-.17.07-.27.1s0-.08,0-.16l0,.15h-.13s0-.08,0-.12h0l0,.12h-.12c0-.05,0-.08,0-.15s0,.1,0,.13-.13,0-.11-.11l-.09.13-.07-.09-.07.09-.07-.11c0,.21-.16,0-.22.13a.49.49,0,0,0,0-.11l-.06.1-.08-.07a.35.35,0,0,1,0,.08l-.08-.08s0,.07,0,.08-.06,0-.1,0-.09.09-.14,0m.12-.77h0l0,0,.31.41v-.48c-.17,0-.13-.16-.23-.22a2.89,2.89,0,0,0,0,.29l-.11,0m3.47,0-.17.21-.1-.14v.47l.41-.38-.2,0c0-.08.06-.13.08-.19l0,0,0,0m-.81,0c-.07,0-.1,0-.09-.08s0-.13.05-.2c-.13,0-.05.3-.25.2v.51l.31-.41,0,0,0,0m-1.32-.36c0,.09,0,.18-.09.21s-.13,0-.22,0a1.27,1.27,0,0,1,.31.71,1.4,1.4,0,0,1,.29-.71c-.21.1-.22.1-.29-.17m-2.28.53.42.38v-.47a.76.76,0,0,0-.08.11l-.19-.18,0,0a1.32,1.32,0,0,0,.08.19l-.21,0" transform="translate(-749.83 -537.34)"/><path class="cls-7" d="M757.84,541.72c0-.15.09-.29.12-.45.09-.5-.16-.82-.67-.8a5.46,5.46,0,0,0-.89.13,1.64,1.64,0,0,0-.28.07s0-.08,0-.11l0,0a8,8,0,0,1,1.07-.2c.69-.06,1,.38.91,1.07,0,0,0,0,0,.05s-.06.28-.26.26" transform="translate(-749.83 -537.34)"/><path class="cls-8" d="M753.72,540.71a.93.93,0,0,0-.05.73l.09.29c-.21,0-.22,0-.25-.24a1.66,1.66,0,0,1,0-.54.74.74,0,0,1,.75-.62,4.57,4.57,0,0,1,1.27.22s0,.07,0,.11c-.31-.07-.6-.14-.9-.18a.86.86,0,0,0-.86.23h0" transform="translate(-749.83 -537.34)"/><path class="cls-9" d="M755.57,540.53l.11,0c0,.3-.06.59-.11.88,0,.05-.1.09-.17.15.06-.36.11-.7.17-1.05" transform="translate(-749.83 -537.34)"/><path class="cls-10" d="M755.91,540.55H756c.05.34.11.67.16,1-.15,0-.16,0-.18-.18s-.06-.54-.1-.81" transform="translate(-749.83 -537.34)"/><path class="cls-11" d="M757.5,540.54s.09.06.09.09v1.12l-.1-.08c0-.38,0-.75,0-1.13" transform="translate(-749.83 -537.34)"/><path class="cls-12" d="M754.11,540.55c0,.36,0,.72,0,1.08a.34.34,0,0,1-.05.11l0,0v-.33c0-.24,0-.49,0-.73a.35.35,0,0,1,0-.13l.05,0" transform="translate(-749.83 -537.34)"/><path class="cls-13" d="M754,540.6v1.07s0,.05-.05.08,0-.06,0-.09v-.95s0-.08.06-.12h0" transform="translate(-749.83 -537.34)"/><path class="cls-14" d="M757.67,540.59a.52.52,0,0,1,.06.13v.93s0,.07-.06.11l0,0V540.6h0" transform="translate(-749.83 -537.34)"/><path class="cls-15" d="M754.24,540.53v1s0,.08-.06.12h0c0-.34,0-.69,0-1,0,0,0-.06.06-.08l0,0" transform="translate(-749.83 -537.34)"/><path class="cls-16" d="M757.28,541.53s-.06-.07-.06-.1c0-.29,0-.57,0-.85,0,0,0-.06.06-.08l0,0v1l0,0" transform="translate(-749.83 -537.34)"/><path class="cls-12" d="M757.18,540.53v.89s0,.05-.06.07l0,0v-.89s0-.05.06-.08l0,0" transform="translate(-749.83 -537.34)"/><path class="cls-16" d="M754.59,540.52s.06.06.06.09c0,.29,0,.59,0,.88l0,0s-.06,0-.06-.08c0-.3,0-.59,0-.89l0,0" transform="translate(-749.83 -537.34)"/><path class="cls-14" d="M754.76,541.55s-.07-.06-.07-.09v-.89l0,0s.06.06.06.09v.89l0,0" transform="translate(-749.83 -537.34)"/><path class="cls-17" d="M757,541.49v-.93l0,0s.07.05.07.08c0,.26,0,.53,0,.8,0,0,0,.07-.06.11l0,0" transform="translate(-749.83 -537.34)"/><path class="cls-18" d="M756.77,541.54l-.1.05v-.87c0-.06,0-.11.09-.1,0,.3,0,.61,0,.92" transform="translate(-749.83 -537.34)"/><path class="cls-13" d="M754.89,541.58s-.06-.06-.06-.09c0-.29,0-.57,0-.88,0,0,.06.06.06.09,0,.28,0,.57,0,.86l0,0" transform="translate(-749.83 -537.34)"/><path class="cls-19" d="M757.77,540.68a1.28,1.28,0,0,1,0,1Z" transform="translate(-749.83 -537.34)"/><path class="cls-14" d="M756.63,540.69v.82s0,.06-.06.09l0,0v-.8s0-.08.06-.11l0,0" transform="translate(-749.83 -537.34)"/><path class="cls-20" d="M756.35,541.56a.46.46,0,0,1,0-.68Z" transform="translate(-749.83 -537.34)"/><path class="cls-18" d="M755.12,540.75s.08.1.08.15c0,.2,0,.41,0,.61s0,.11-.09.08v-.84" transform="translate(-749.83 -537.34)"/><path class="cls-21" d="M757.44,541.63s-.08-.1-.08-.15c0-.29,0-.58,0-.86,0-.06,0-.13.09-.08,0,.36,0,.73,0,1.09" transform="translate(-749.83 -537.34)"/><path class="cls-16" d="M756.45,541.61s-.05-.06-.05-.09c0-.22,0-.43,0-.64,0,0,0-.08.06-.12h0v.81l0,0" transform="translate(-749.83 -537.34)"/><path class="cls-22" d="M755.55,540.05c0-.15.13-.06.18-.12a0,0,0,0,0,0,0,.93.93,0,0,1,0-.13s.11,0,.14.08,0,.12.12.13,0,0,0,.07Z" transform="translate(-749.83 -537.34)"/><path class="cls-23" d="M754.37,541.48l-.09,0v-.43c0-.17,0-.33,0-.5s0-.1.09-.09v1" transform="translate(-749.83 -537.34)"/><path class="cls-23" d="M754.43,540.51c.06,0,.09,0,.08.09v.81c0,.07,0,.08-.08.07v-1" transform="translate(-749.83 -537.34)"/><path class="cls-23" d="M756.81,540.61l.09-.07v.93s-.06,0-.08.06v-.92" transform="translate(-749.83 -537.34)"/><path class="cls-21" d="M753.72,540.71h0l.1,0v.92h0a1,1,0,0,1-.06-.23c0-.23,0-.47,0-.7l0,0" transform="translate(-749.83 -537.34)"/><path class="cls-23" d="M755.06,541.59c-.06,0-.09,0-.09-.07v-.86l.09.09v.84" transform="translate(-749.83 -537.34)"/><path class="cls-7" d="M755.56,540.1H756a.22.22,0,0,1-.23.17c-.11,0-.18,0-.24-.17" transform="translate(-749.83 -537.34)"/><path class="cls-24" d="M755.25,540.88a.62.62,0,0,1,0,.67Z" transform="translate(-749.83 -537.34)"/><path class="cls-25" d="M757.44,541.63c0-.36,0-.73,0-1.09h0c0,.38,0,.75,0,1.13l0,0" transform="translate(-749.83 -537.34)"/><path class="cls-25" d="M754.43,540.51v1h-.06v-1h.06" transform="translate(-749.83 -537.34)"/><path class="cls-26" d="M756.81,540.61v.92h-.05c0-.31,0-.62,0-.92h0" transform="translate(-749.83 -537.34)"/><path class="cls-25" d="M755.06,541.59v-.84h.06c0,.28,0,.56,0,.84h-.05" transform="translate(-749.83 -537.34)"/><path class="cls-10" d="M755.8,541.51c-.06-.08-.11-.12-.11-.16s.07-.08.11-.12.1.07.11.12-.06.08-.11.16" transform="translate(-749.83 -537.34)"/><path class="cls-10" d="M755.8,538.83c.12.2.12.2,0,.37-.13-.17-.13-.18,0-.37" transform="translate(-749.83 -537.34)"/><path class="cls-24" d="M754.8,540.18c-.08,0-.12.09-.16.09s-.1-.07-.09-.09a.16.16,0,0,1,.1-.11s.08,0,.15.11" transform="translate(-749.83 -537.34)"/><path class="cls-24" d="M756.64,540.07c.05.07.1.11.1.15s-.06.07-.09.11-.09-.07-.1-.11,0-.08.09-.15" transform="translate(-749.83 -537.34)"/><path class="cls-22" d="M753.67,540.42c-.07.06-.11.11-.15.11a.14.14,0,0,1-.09-.09s.05-.1.08-.11.09,0,.16.09" transform="translate(-749.83 -537.34)"/><path class="cls-22" d="M758.42,541.56c-.08.05-.12.1-.16.1s-.07-.07-.1-.1.07-.09.11-.1.08,0,.15.1" transform="translate(-749.83 -537.34)"/><path class="cls-24" d="M757.56,540.31c-.06-.07-.11-.11-.11-.15a.13.13,0,0,1,.1-.1s.1.06.1.09,0,.08-.09.16" transform="translate(-749.83 -537.34)"/><path class="cls-22" d="M755.26,540.45c0-.07-.11-.11-.1-.14a.14.14,0,0,1,.09-.11s.1.06.1.09,0,.08-.09.16" transform="translate(-749.83 -537.34)"/><path class="cls-7" d="M755,540.07c0,.07.1.11.1.14a.16.16,0,0,1-.1.11s-.09-.06-.1-.09,0-.09.1-.16" transform="translate(-749.83 -537.34)"/><path class="cls-9" d="M757,540c0,.07.1.11.1.14a.18.18,0,0,1-.1.11s-.1-.06-.1-.09,0-.09.1-.16" transform="translate(-749.83 -537.34)"/><path class="cls-24" d="M753.76,540.4c0-.06-.1-.11-.1-.14s.07-.07.1-.11.09.07.1.11-.05.08-.1.14" transform="translate(-749.83 -537.34)"/><path class="cls-27" d="M754.5,540.14c-.08.05-.12.1-.16.1a.14.14,0,0,1-.09-.09.15.15,0,0,1,.08-.11s.09.05.17.1" transform="translate(-749.83 -537.34)"/><path class="cls-27" d="M757.83,540.1c.06.08.11.12.1.16a.14.14,0,0,1-.09.09.13.13,0,0,1-.1-.09s0-.08.09-.16" transform="translate(-749.83 -537.34)"/><path class="cls-9" d="M756.5,540.3c-.08.05-.13.1-.16.1a.18.18,0,0,1-.1-.11s.07-.09.1-.09.08,0,.16.1" transform="translate(-749.83 -537.34)"/><path class="cls-27" d="M753.48,541.55c-.07.06-.11.11-.15.11s-.07-.06-.11-.1.07-.09.11-.1.08,0,.15.09" transform="translate(-749.83 -537.34)"/><path class="cls-27" d="M753.42,541.27c-.07.05-.11.1-.14.09s-.08-.06-.11-.1.07-.08.11-.09.07.05.14.1" transform="translate(-749.83 -537.34)"/><path class="cls-7" d="M758.08,540.28c0,.07.1.11.09.15s-.06.07-.1.11-.08-.08-.09-.12,0-.07.1-.14" transform="translate(-749.83 -537.34)"/><path class="cls-24" d="M756.23,539.35c-.15.12-.15.12-.29,0,.12-.13.13-.13.29,0" transform="translate(-749.83 -537.34)"/><path class="cls-22" d="M753.19,540.68c.08,0,.12-.1.16-.1a.1.1,0,0,1,0,.19s-.09,0-.17-.09" transform="translate(-749.83 -537.34)"/><path class="cls-27" d="M758.41,540.88s0,0,0,0,0,.1,0,.12-.1,0-.13,0a.13.13,0,0,1,0-.12s.08,0,.12,0h0" transform="translate(-749.83 -537.34)"/><path class="cls-7" d="M753.42,541c-.07,0-.11.11-.14.1s-.08-.06-.11-.09.06-.1.09-.1.09,0,.16.09" transform="translate(-749.83 -537.34)"/><path class="cls-7" d="M757.26,540c0,.07.1.12.09.15s-.06.07-.1.11-.08-.08-.09-.12.05-.07.1-.14" transform="translate(-749.83 -537.34)"/><path class="cls-22" d="M755.37,539.35c.15-.13.15-.13.29,0-.11.13-.13.14-.29,0" transform="translate(-749.83 -537.34)"/><path class="cls-8" d="M756.2,540.37c-.08,0-.12.09-.16.09a.14.14,0,0,1-.09-.09.15.15,0,0,1,.09-.1s.08.05.16.1" transform="translate(-749.83 -537.34)"/><path class="cls-8" d="M755.71,540.37c-.07,0-.12.09-.15.09s-.07-.06-.11-.09.06-.09.1-.1.08.05.16.1" transform="translate(-749.83 -537.34)"/><path class="cls-27" d="M758.4,540.67c-.07.05-.11.11-.14.1a.15.15,0,0,1-.11-.09s.05-.1.09-.1.08,0,.16.09" transform="translate(-749.83 -537.34)"/><path class="cls-7" d="M756,541.07c-.07,0-.11.11-.14.1s-.08-.06-.12-.1.07-.08.11-.09.08,0,.15.09" transform="translate(-749.83 -537.34)"/><path class="cls-27" d="M758.33,541.12c0,.07.1.11.09.14s-.07.08-.1.11-.08-.07-.09-.12,0-.07.1-.13" transform="translate(-749.83 -537.34)"/><path class="cls-24" d="M755.8,539.47l.12.24h-.24l.12-.24" transform="translate(-749.83 -537.34)"/><path class="cls-8" d="M754.19,540.16c-.07.05-.11.1-.15.09s-.07-.06-.1-.09.07-.09.11-.1.08.05.14.1" transform="translate(-749.83 -537.34)"/><path class="cls-14" d="M755.79,540.7c.05.06.09.1.09.13s0,.07-.08.08-.08,0-.08-.07,0-.07.07-.14" transform="translate(-749.83 -537.34)"/><path class="cls-24" d="M755.79,540.72c0-.05-.07-.08-.07-.12s.06-.06.08-.06a.14.14,0,0,1,.07.08s0,.06-.08.1" transform="translate(-749.83 -537.34)"/><path class="cls-19" d="M755.74,539.28h.06a.16.16,0,0,1,.07.09s-.06.06-.07,0l-.08-.08,0-.06h0" transform="translate(-749.83 -537.34)"/><path class="cls-17" d="M755.8,540.52c0-.06-.07-.08-.07-.11s0-.07.06-.07a.14.14,0,0,1,.08.07s0,.05-.07.11" transform="translate(-749.83 -537.34)"/><path class="cls-28" d="M755.8,541.83c.07.27.08.27.29.17a1.4,1.4,0,0,0-.29.71,1.27,1.27,0,0,0-.31-.71c.09,0,.17.07.22,0s.06-.12.09-.21" transform="translate(-749.83 -537.34)"/><path class="cls-29" d="M753.52,542.36l.21,0a1.32,1.32,0,0,1-.08-.19l0,0,.19.18a.76.76,0,0,1,.08-.11v.47l-.42-.38" transform="translate(-749.83 -537.34)"/><path class="cls-30" d="M757.14,542.21l-.31.41v-.51c.2.1.12-.17.25-.2,0,.07,0,.13-.05.2s0,.1.09.08l0,0" transform="translate(-749.83 -537.34)"/><path class="cls-31" d="M758,542.22l-.08.19.2,0-.41.38v-.47l.1.14.17-.21,0,0" transform="translate(-749.83 -537.34)"/><path class="cls-31" d="M754.46,542.18l.11,0a2.89,2.89,0,0,1,0-.29c.1.06.06.25.23.22v.48l-.31-.41v0" transform="translate(-749.83 -537.34)"/><path class="cls-30" d="M757.13,542.19l0,0,0,0,0,0" transform="translate(-749.83 -537.34)"/><path class="cls-31" d="M757.93,542.2l0,0,0,0,0,0" transform="translate(-749.83 -537.34)"/><path class="cls-31" d="M754.45,542.2l0,0h0v0" transform="translate(-749.83 -537.34)"/></g></svg>