<svg id="Warstwa_1" data-name="Warstwa 1" xmlns="http://www.w3.org/2000/svg" xmlns:xlink="http://www.w3.org/1999/xlink" viewBox="0 0 25.88 15.52"><defs><style>.cls-1{fill:none;}.cls-2{clip-path:url(#clip-path);}.cls-3{fill:#fcb813;}.cls-4{fill:#c0272d;}.cls-5{fill:#006a44;}</style><clipPath id="clip-path" transform="translate(-750.33 -537.39)"><rect class="cls-1" x="755.71" y="537.59" width="15.12" height="15.12"/></clipPath></defs><title>Lithuania</title><g class="cls-2"><path class="cls-3" d="M750.33,542.57v-5.18h25.88v5.18H750.33" transform="translate(-750.33 -537.39)"/><path class="cls-4" d="M776.21,547.72v5.18H750.33v-5.18l1.21,0,.72,0,.81,0,.78,0,.83,0,.93,0,2.5,0,.85,0,2.42,0,.86,0,2.38,0,.79,0,.83,0,.78,0,.84,0,.81,0,2.43,0,.72,0,2.34,0,2,0h.06" transform="translate(-750.33 -537.39)"/><path class="cls-5" d="M776.21,547.72h-.06l-2,0-2.34,0-.72,0-2.43,0-.81,0-.84,0-.78,0-.83,0-.79,0-2.38,0-.86,0-2.42,0-.85,0-2.5,0-.93,0-.83,0-.78,0-.81,0-.72,0-1.21,0v-5.15h25.88Z" transform="translate(-750.33 -537.39)"/></g></svg>