<svg id="Warstwa_1" data-name="Warstwa 1" xmlns="http://www.w3.org/2000/svg" xmlns:xlink="http://www.w3.org/1999/xlink" viewBox="0 0 26.49 15.88"><defs><style>.cls-1{fill:none;}.cls-2{clip-path:url(#clip-path);}.cls-3{fill:#ec2939;}.cls-4{fill:#00a0dd;}.cls-5{fill:#fefefe;}</style><clipPath id="clip-path" transform="translate(-750.03 -537.21)"><rect class="cls-1" x="755.71" y="537.59" width="15.12" height="15.12"/></clipPath></defs><title>Luxemburg</title><g class="cls-2"><path class="cls-3" d="M750,542.51v-5.3h26.49v5.3H750" transform="translate(-750.03 -537.21)"/><path class="cls-4" d="M776.52,547.81v5.28H750v-5.31l1.23,0,.85,0,.91,0,.81,0,.88,0,.81,0,2.51,0,.78,0,2.51,0,.85,0,2.48,0,.77,0,.83,0,.89,0,.77,0,.86,0,2.47,0,.85,0,2.51,0,.76,0,1.16,0" transform="translate(-750.03 -537.21)"/><path class="cls-5" d="M776.52,547.81l-1.16,0-.76,0-2.51,0-.85,0-2.47,0-.86,0-.77,0-.89,0-.83,0-.77,0-2.48,0-.85,0-2.51,0-.78,0-2.51,0-.81,0-.88,0-.81,0-.91,0-.85,0-1.23,0v-5.27h26.49Z" transform="translate(-750.03 -537.21)"/></g></svg>