<svg id="Warstwa_1" data-name="Warstwa 1" xmlns="http://www.w3.org/2000/svg" xmlns:xlink="http://www.w3.org/1999/xlink" viewBox="0 0 30.87 15.44"><defs><style>.cls-1{fill:none;}.cls-2{clip-path:url(#clip-path);}.cls-3{fill:#d72126;}.cls-4{fill:#f7e82e;}.cls-5{fill:#fefefe;}.cls-6{fill:#f1bc2c;}</style><clipPath id="clip-path" transform="translate(-747.84 -537.42)"><rect class="cls-1" x="755.71" y="537.59" width="15.12" height="15.12"/></clipPath></defs><title>Macedonia</title><g class="cls-2"><path class="cls-3" d="M778.69,552.87h0l-.08,0-12.74-6.48-.08,0-.32.52.1.08,8.42,5.9.07.06h-9.26a.28.28,0,0,0,0-.09L763.57,548c0-.11,0-.11-.16-.1h-.31c-.1,0-.11,0-.14.09l-.91,3.58-.33,1.3h-9.24l.08-.07,8.44-5.91.07-.06-.32-.52-.09,0-12,6.12-.76.4a.25.25,0,0,1,0-.07v-6.1l.71-.07,1.53-.16,1.52-.15,1.69-.17L755,546l1.69-.17,1.68-.16,1.73-.18.44,0v-.55l-.45,0-1.31-.13-1-.09-1-.1-.94-.1-1-.09-1.26-.13-1-.1-.94-.09-1-.1-1-.1-1.32-.13-.61-.06v-6.17h0l.06,0L760.68,544l.07,0,.32-.53-.07-.05-7.71-5.4-.81-.58h9.24a.08.08,0,0,1,0,0l.6,2.37c.21.83.43,1.66.63,2.48,0,.06,0,.08.1.08h.4c.06,0,.09,0,.1-.08.09-.36.18-.72.28-1.08l1-3.81h9.25l0,0-8.16,5.72-.38.27.32.53.09,0,11.86-6,.94-.49a.36.36,0,0,1,0,.1v6.07h0l-1,.11-.86.08-.76.08-.79.08-1.14.12-1.1.1-.83.09-.75.07-1.17.12-1,.1-1,.09-1,.1-1.05.1-.28,0v.55l.94.09,1.52.15,1.54.16,1.51.15,1.53.15,1.52.15,1.55.16,1.52.15,1,.1h0v6.17m-15.43-5.51a2.21,2.21,0,1,0-2.2-2.22,2.21,2.21,0,0,0,2.2,2.22" transform="translate(-747.84 -537.42)"/><path class="cls-4" d="M747.84,543.61l.61.06,1.32.13,1,.1,1,.1.94.09,1,.1,1.26.13,1,.09.94.1,1,.1,1,.09,1.31.13.45,0v.55l-.44,0-1.73.18-1.68.16L755,546l-1.68.17-1.69.17-1.52.15-1.53.16-.71.07Z" transform="translate(-747.84 -537.42)"/><path class="cls-4" d="M774.05,552.87l-.07-.06-8.42-5.9-.1-.08.32-.52.08,0,12.74,6.48.08,0Z" transform="translate(-747.84 -537.42)"/><path class="cls-4" d="M747.86,552.87c.25-.14.51-.27.77-.4l12-6.12.09,0,.32.52-.07.06-8.44,5.91-.08.07Z" transform="translate(-747.84 -537.42)"/><path class="cls-4" d="M761.72,552.87l.33-1.3L763,548c0-.1,0-.1.14-.09h.31c.12,0,.13,0,.16.1l1.21,4.78a.28.28,0,0,1,0,.09Z" transform="translate(-747.84 -537.42)"/><path class="cls-5" d="M778.69,552.87V537.54a.36.36,0,0,0,0-.1H747.84v0h30.86v15.37a.24.24,0,0,1,0,.08" transform="translate(-747.84 -537.42)"/><path class="cls-4" d="M778.68,546.69l-1-.1-1.52-.15-1.54-.16-1.53-.15-1.53-.15-1.51-.15-1.54-.16-1.52-.15-.94-.09v-.55l.28,0,1.05-.1,1-.09,1-.1,1-.1,1.17-.12.75-.07.83-.09,1.1-.1,1.14-.12.79-.08.76-.08.86-.08,1-.11h0v3.08" transform="translate(-747.84 -537.42)"/><path class="cls-4" d="M774.05,537.44h4.63l-.95.49-11.86,6-.09,0-.32-.53.38-.27,8.16-5.72,0,0" transform="translate(-747.84 -537.42)"/><path class="cls-4" d="M747.86,537.44h4.62l.82.58,7.7,5.4.07.05-.32.53-.07,0-12.76-6.48-.06,0" transform="translate(-747.84 -537.42)"/><path class="cls-4" d="M763.26,547.36a2.21,2.21,0,1,1,2.21-2.19,2.22,2.22,0,0,1-2.21,2.19" transform="translate(-747.84 -537.42)"/><path class="cls-4" d="M761.72,537.44h3.08l-1,3.81c-.1.36-.19.72-.28,1.09,0,0,0,.07-.1.07h-.4a.09.09,0,0,1-.1-.07c-.2-.83-.42-1.66-.63-2.49l-.6-2.37v0" transform="translate(-747.84 -537.42)"/><path class="cls-6" d="M778.68,546.69v-3.08h0v3.09h0" transform="translate(-747.84 -537.42)"/></g></svg>