<svg id="Warstwa_1" data-name="Warstwa 1" xmlns="http://www.w3.org/2000/svg" xmlns:xlink="http://www.w3.org/1999/xlink" viewBox="0 0 29.37 19.39"><defs><style>.cls-1{fill:none;}.cls-2{fill:#ce142b;}.cls-3{clip-path:url(#clip-path);}.cls-4{fill:#fefefe;}.cls-5{fill:#9b847c;}.cls-6{fill:#e1213e;}.cls-7{fill:#e11d3a;}.cls-8{fill:#cac9c9;}.cls-9{fill:#c9c9c9;}.cls-10{fill:#c4c1bf;}.cls-11{fill:#c6c3c2;}.cls-12{fill:#c5c3c1;}.cls-13{fill:#b1adab;}.cls-14{fill:#90837b;}.cls-15{fill:#847c76;}.cls-16{fill:#7a7069;}.cls-17{fill:#92867d;}.cls-18{fill:#7f7672;}.cls-19{fill:#7e746d;}.cls-20{fill:#171717;}.cls-21{fill:#bbb7b5;}.cls-22{fill:#cbcbcb;}.cls-23{fill:#b4b0ac;}.cls-24{fill:#c8c8c8;}.cls-25{fill:#70655e;}.cls-26{clip-path:url(#clip-path-2);}.cls-27{clip-path:url(#clip-path-3);}</style><clipPath id="clip-path" transform="translate(-748.59 -535.45)"><rect class="cls-1" x="748.6" y="540.81" width="15.12" height="9.91"/></clipPath><clipPath id="clip-path-2" transform="translate(-748.59 -535.45)"><rect class="cls-1" x="748.6" y="535.61" width="15.12" height="9.84"/></clipPath><clipPath id="clip-path-3" transform="translate(-748.59 -535.45)"><rect class="cls-1" x="748.6" y="535.61" width="6.42" height="6.09"/></clipPath></defs><title>Malta</title><rect class="cls-2" x="7.57" y="5.36" width="7.56" height="9.91"/><g class="cls-3"><path class="cls-4" d="M756.16,550.8h-7.57v-10h7.57Zm-5.22-8.75h0l0,0h0l0,0h0l-.15-.1v-.73H750v.73l-.17.12h0l-.11.17H749V543h.75l.08.14,0,0,.15.08V544h.77v-.73l.13-.08h0l0,0h0v0h0l0,0h0L751,543h.74v-.76H751l-.07-.12h0v0" transform="translate(-748.59 -535.45)"/><path class="cls-5" d="M749.83,543.14l0,0,0-.19h-.67c-.07,0-.09,0-.09-.09a3.84,3.84,0,0,0,0-.48c0-.07,0-.09.09-.09h.61s.07,0,.06,0a.31.31,0,0,1,0-.19h0a.31.31,0,0,1,.15,0c.07,0,.08,0,.08-.07s0-.4,0-.6,0-.09.08-.09h.49c.07,0,.09,0,.09.09v.6a.08.08,0,0,0,0,.07l.16,0h0l0,0h0l0,0h0v0h0a.27.27,0,0,1,0,.09c0,.08,0,.09.09.09h.59c.06,0,.08,0,.08.08v.49c0,.08,0,.09-.09.09H751s-.06,0-.06.05,0,.09,0,.13h0l0,0h0v0h0l0,0h0a.22.22,0,0,1-.11,0c-.07,0-.08,0-.08.07v.6c0,.07,0,.09-.09.09h-.47c-.08,0-.1,0-.1-.1s0-.39,0-.59c0,0,0-.07,0-.07h-.16m1-1h0c0,.06-.07.05-.11,0l0,0,0-.5v-.33c0-.06,0-.08-.07-.08h-.47c-.06,0-.08,0-.08.08s0,.4,0,.6a1.48,1.48,0,0,1,0,.19l-.1-.09,0,0,.12.11-.06.06,0,0c-.11,0-.21,0-.32,0h-.47c-.07,0-.09,0-.09.09a2.94,2.94,0,0,1,0,.42c0,.08,0,.1.1.1l.76,0c.08,0,.12.05.13.13a2.11,2.11,0,0,1,0,.26,4.51,4.51,0,0,1,0,.52c0,.06,0,.08.08.08h.44c.1,0,.1,0,.1-.1l0-.76a.12.12,0,0,1,.12-.12l.33,0h.47c.06,0,.07,0,.07-.08v-.46c0-.05,0-.07-.07-.07h-.41l-.39,0,0-.06h0l0,0h0v0h0v0m-.93.91h0v0h0l0-.1h0l-.1.05h0m.89-1h0v0h0l0,.1h0l.11,0v0Zm0,.89h0l0,.11h0v0h0v0l-.1,0m-.92-.75h0l-.06-.11h0v0h-.06l.11.05" transform="translate(-748.59 -535.45)"/><path class="cls-6" d="M750.89,542l-.16,0a.08.08,0,0,1,0-.07v-.6c0-.07,0-.09-.09-.09h-.49c-.06,0-.08,0-.08.09s0,.4,0,.6,0,.07-.08.07a.31.31,0,0,0-.15,0l.17-.12v-.73h.76v.73l.15.1" transform="translate(-748.59 -535.45)"/><path class="cls-7" d="M749.83,543.14H750s0,0,0,.07c0,.2,0,.39,0,.59s0,.1.1.1h.47c.07,0,.09,0,.09-.09v-.6c0-.05,0-.08.08-.07a.22.22,0,0,0,.11,0l-.13.08V544H750v-.73l-.15-.08" transform="translate(-748.59 -535.45)"/><path class="cls-6" d="M749.81,542a.31.31,0,0,0,0,.19s0,0-.06,0h-.61c-.07,0-.09,0-.09.09a3.84,3.84,0,0,1,0,.48c0,.07,0,.09.09.09h.67l0,.19-.08-.14H749v-.76h.74l.11-.17" transform="translate(-748.59 -535.45)"/><path class="cls-7" d="M750.94,543.08s0-.09,0-.13,0-.05.06-.05h.61c.07,0,.09,0,.09-.09v-.49c0-.06,0-.08-.08-.08H751c-.06,0-.1,0-.09-.09a.27.27,0,0,0,0-.09l.07.12h.74V543H751l-.08.13" transform="translate(-748.59 -535.45)"/><path class="cls-7" d="M750.93,542l0,0,0,0" transform="translate(-748.59 -535.45)"/><path class="cls-7" d="M750.92,543.11l0,0,0,0" transform="translate(-748.59 -535.45)"/><path class="cls-7" d="M750.88,543.14l0,0,0,0" transform="translate(-748.59 -535.45)"/><path class="cls-7" d="M750.94,542.06l0,0,0,0" transform="translate(-748.59 -535.45)"/><path class="cls-7" d="M751,542.07v0" transform="translate(-748.59 -535.45)"/><path class="cls-7" d="M750.91,543.13v0" transform="translate(-748.59 -535.45)"/><path class="cls-8" d="M750.7,542.16l0,0c0,.05.08.06.11,0h0l0,.06.39,0h.41c.06,0,.07,0,.07.07v.46c0,.06,0,.08-.07.08h-.47l-.33,0a.12.12,0,0,0-.12.12l0,.76c0,.1,0,.1-.1.1h-.44c-.06,0-.08,0-.08-.08a4.51,4.51,0,0,0,0-.52,2.11,2.11,0,0,0,0-.26c0-.08,0-.13-.13-.13l-.76,0c-.08,0-.1,0-.1-.1a2.94,2.94,0,0,0,0-.42c0-.07,0-.09.09-.09h.47c.11,0,.21,0,.32,0v0h0l0,0h0v0h0a.43.43,0,0,0,0,.41l.06,0-.08-.12h.11v.1h0l0-.24v0l0,0c0,.11,0,.13.08.1l.08.07,0,0c-.1,0-.11,0-.11.1a.4.4,0,0,1,0,.11c.07-.06.08-.1.07-.16h0a.15.15,0,0,1,.14.13l.07,0h0l-.11,0h-.09v0l.08,0h.4v0h0l.09-.1,0,0v0h0v0l0,0h0v0c.05-.11,0-.13-.06-.2s0,0,0-.07l.1,0v0s-.1-.06-.12-.05-.09,0-.11,0v0l.08-.05-.11,0-.06,0s0,0-.07,0l-.13,0h0a.25.25,0,0,1,.18-.08l.18,0h0l.1.08.06.07h0l0-.07h-.08l0-.11h0m-.83.63h0v0h0l0,0m.89-.3v-.07h0l0,.07v.2l.07-.17-.07,0m-.46.55.06.06.07-.06-.07,0-.06,0" transform="translate(-748.59 -535.45)"/><path class="cls-9" d="M750,542.38l0,0h0l-.06-.09h0v0h0l0,0h0l0-.06.06-.06-.12-.11,0,0,.1.09a1.48,1.48,0,0,0,0-.19q0-.3,0-.6c0-.06,0-.08.08-.08h.47s.07,0,.07.08v.33l0,.5h0l-.12,0h0c0-.05,0,0-.08,0l0,0,0-.07h0a.25.25,0,0,0-.24,0h-.06l-.06,0,0,.07,0,0h0l-.08.09v.06Z" transform="translate(-748.59 -535.45)"/><path class="cls-10" d="M749.9,542.2l-.11-.05h.06v0h0l.06.11h0" transform="translate(-748.59 -535.45)"/><path class="cls-11" d="M750.88,543v0h0l0-.11h0l.1,0v0h0" transform="translate(-748.59 -535.45)"/><path class="cls-11" d="M750.74,542.11l0-.1h0v0h.05v0l-.11,0h0" transform="translate(-748.59 -535.45)"/><path class="cls-12" d="M750,543l0,.1h0v0h0l.1-.05h0" transform="translate(-748.59 -535.45)"/><path class="cls-13" d="M750,542.22l0,.06v0l0,0" transform="translate(-748.59 -535.45)"/><path class="cls-8" d="M750.89,542.13h0v0h0" transform="translate(-748.59 -535.45)"/><path class="cls-8" d="M750.89,542.15l0,0v0h0" transform="translate(-748.59 -535.45)"/><path class="cls-8" d="M750.88,542.14h0" transform="translate(-748.59 -535.45)"/><polyline class="cls-11" points="2.23 7.5 2.23 7.49 2.23 7.49 2.23 7.5"/><polyline class="cls-12" points="1.39 7.57 1.4 7.56 1.39 7.57 1.39 7.57"/><polyline class="cls-11" points="2.16 6.67 2.15 6.67 2.15 6.66 2.16 6.67"/><path class="cls-8" d="M750.86,542.18h0" transform="translate(-748.59 -535.45)"/><path class="cls-8" d="M750.87,542.17h0v0" transform="translate(-748.59 -535.45)"/><path class="cls-14" d="M750.18,542.25h0l0,.07h0c.12,0,.11.07.15.14l.07-.08h0s0,.09.11,0,.08,0,.12.05v0l-.1,0s-.05,0,0,.07l-.15,0,0,0,0,0c0,.06.15.06.15.15v.05h-.29l-.1,0,.11,0a.22.22,0,0,0,.21,0l-.16-.05s0,0,0,0l-.07,0a.15.15,0,0,0-.14-.13h0c0,.06,0,.1-.07.16a.4.4,0,0,0,0-.11c0-.07,0-.13.11-.1l0,0,.09.05v-.08l0-.11-.06,0,0,0,0,.07c-.08,0-.1,0-.08-.1h0l0,0,.14-.1m.26.26h0v0h0v0" transform="translate(-748.59 -535.45)"/><path class="cls-15" d="M750.61,542.81c0-.09-.1-.09-.15-.15l0,0,0,0,.15,0c.1.07.11.09.06.2v0l-.06,0" transform="translate(-748.59 -535.45)"/><path class="cls-13" d="M749.89,542.32l.06.09,0,0h0l0,.24h0v-.1h-.11l.08.12-.06,0a.43.43,0,0,1,0-.41" transform="translate(-748.59 -535.45)"/><path class="cls-16" d="M750.23,542.33l0-.07.13,0s0,0,.07,0l.06,0a.11.11,0,0,0-.06.13h.05l-.07.08c0-.07,0-.18-.15-.14Zm.14,0s0,0,0,0h0" transform="translate(-748.59 -535.45)"/><path class="cls-13" d="M750.18,542.25l-.14.1h0v0l.08-.09h0l0,0,.12-.06.19,0s.08,0,.08,0l-.18,0a.25.25,0,0,0-.18.08" transform="translate(-748.59 -535.45)"/><path class="cls-17" d="M750.45,542.39h-.05a.11.11,0,0,1,.06-.13l.11,0-.08.05,0,0Z" transform="translate(-748.59 -535.45)"/><path class="cls-18" d="M750.21,542.83l.1,0h-.11l-.08,0v0Z" transform="translate(-748.59 -535.45)"/><path class="cls-19" d="M750.27,542.52v.08l-.09-.05-.08-.07,0-.07,0,0a.08.08,0,0,0,.1.07" transform="translate(-748.59 -535.45)"/><path class="cls-20" d="M750.3,543l.06,0,.07,0-.07.06-.06-.06" transform="translate(-748.59 -535.45)"/><path class="cls-13" d="M750.54,542.2l.12,0,0,.11h0l-.1-.08" transform="translate(-748.59 -535.45)"/><path class="cls-13" d="M750.76,542.49l.07,0-.07.17v-.2Z" transform="translate(-748.59 -535.45)"/><path class="cls-21" d="M750.6,542.87h0v-.05l.06,0h0l-.09.1h0v0" transform="translate(-748.59 -535.45)"/><path class="cls-13" d="M750.64,542.27h.08l0,.07h0l-.06-.07Z" transform="translate(-748.59 -535.45)"/><path class="cls-13" d="M750.76,542.49l0-.07h0v.07Z" transform="translate(-748.59 -535.45)"/><path class="cls-16" d="M750.45,542.39l0,0v0h0" transform="translate(-748.59 -535.45)"/><path class="cls-13" d="M749.87,542.79l0,0h0v0Z" transform="translate(-748.59 -535.45)"/><path class="cls-21" d="M750.73,542.74v0h0v0Z" transform="translate(-748.59 -535.45)"/><path class="cls-13" d="M749.87,542.79Z" transform="translate(-748.59 -535.45)"/><path class="cls-13" d="M750,542.41h0v0h0v0" transform="translate(-748.59 -535.45)"/><path class="cls-13" d="M749.92,542.28l0,0,0,0" transform="translate(-748.59 -535.45)"/><path class="cls-21" d="M750.73,542.74h0" transform="translate(-748.59 -535.45)"/><path class="cls-13" d="M749.9,542.3v0" transform="translate(-748.59 -535.45)"/><polyline class="cls-21" points="2.03 7.44 2.02 7.44 2.02 7.44 2.02 7.44 2.03 7.44"/><polygon class="cls-13" points="2.11 6.9 2.12 6.9 2.11 6.9 2.11 6.9"/><path class="cls-21" d="M750.72,542.77l0,0h0l0,0h0" transform="translate(-748.59 -535.45)"/><path class="cls-22" d="M750.46,542.16l-.19,0-.12.06,0-.07.06,0,.06,0v-.05h.24v.07l0,0" transform="translate(-748.59 -535.45)"/><path class="cls-23" d="M750.48,542.06h-.24a.25.25,0,0,1,.24,0" transform="translate(-748.59 -535.45)"/><path class="cls-23" d="M750.49,542.13v-.07h0l0,.07" transform="translate(-748.59 -535.45)"/><path class="cls-23" d="M750.24,542.06v.05l-.06,0h.06" transform="translate(-748.59 -535.45)"/><path class="cls-24" d="M750,542.41v0l0,0h0" transform="translate(-748.59 -535.45)"/><path class="cls-8" d="M750,542.35h0l0,0v0" transform="translate(-748.59 -535.45)"/><path class="cls-24" d="M750.1,542.22h0" transform="translate(-748.59 -535.45)"/><polyline class="cls-5" points="2.29 7.56 2.28 7.55 2.29 7.55 2.29 7.56"/><polyline class="cls-5" points="2.22 6.61 2.21 6.61 2.21 6.6 2.22 6.61"/><polyline class="cls-5" points="1.33 7.63 1.34 7.62 1.33 7.63 1.33 7.63"/><path class="cls-25" d="M750.32,542.79s0,0,0,0l.16.05a.22.22,0,0,1-.21,0Z" transform="translate(-748.59 -535.45)"/><path class="cls-24" d="M750.27,542.52a.08.08,0,0,1-.1-.07l.06,0,0,.11" transform="translate(-748.59 -535.45)"/><path class="cls-15" d="M750.44,542.51v0h0v0Z" transform="translate(-748.59 -535.45)"/><path class="cls-15" d="M750.43,542.51h0" transform="translate(-748.59 -535.45)"/><polyline class="cls-16" points="1.64 6.88 1.64 6.89 1.64 6.88 1.64 6.88"/><polyline class="cls-8" points="1.52 7.19 1.52 7.18 1.52 7.19 1.52 7.19"/><path class="cls-14" d="M750.37,542.31h0s0,0,0,0" transform="translate(-748.59 -535.45)"/></g><rect class="cls-2" x="7.57" y="0.15" width="7.56" height="9.84"/><g class="cls-26"><path class="cls-4" d="M756.16,545.44h-7.57v-10h7.57Zm-5.22-8.75h0l0,0h0l0,0h0l-.15-.1v-.73H750v.73l-.17.11h0l-.11.17H749v.76h.75l.08.14,0,0,.15.08v.73h.77v-.73l.13-.08h0l0,0h0l0,0h0l.08-.14h.74v-.75H751l-.07-.12h0v0" transform="translate(-748.59 -535.45)"/><path class="cls-5" d="M749.83,537.78l0,0,0-.19h-.67c-.07,0-.09,0-.09-.09a3.84,3.84,0,0,0,0-.48c0-.07,0-.09.09-.09h.61l.06,0a.31.31,0,0,1,0-.19h0c.05,0,.11,0,.15,0s.08,0,.08-.07,0-.4,0-.6,0-.09.08-.09h.49c.07,0,.09,0,.09.09v.6a.08.08,0,0,0,0,.07l.16,0h0l0,0h0l0,0h0v0h0a.27.27,0,0,1,0,.09c0,.08,0,.09.09.08h.59c.06,0,.08,0,.08.08v.49c0,.08,0,.09-.09.09H751s-.06,0-.06.05,0,.09,0,.13h0l0,0h0l0,0h0s-.08,0-.11,0-.08,0-.08.07v.6c0,.07,0,.09-.09.08h-.47c-.08,0-.1,0-.1-.1s0-.39,0-.59c0,0,0-.07,0-.07h-.16m1-1h0c0,.06-.07,0-.11,0s0,0,0,0l0-.5V536c0-.06,0-.08-.07-.08h-.47c-.06,0-.08,0-.08.08s0,.4,0,.6a1.48,1.48,0,0,1,0,.19l-.1-.09h0l.12.12-.06.06,0,0c-.11,0-.21,0-.32,0h-.47c-.07,0-.09,0-.09.09a2.94,2.94,0,0,1,0,.42c0,.08,0,.09.1.1l.76,0c.08,0,.12.05.13.13a2.11,2.11,0,0,1,0,.26,4.51,4.51,0,0,1,0,.52c0,.06,0,.08.08.07h.44c.1,0,.1,0,.1-.1l0-.76a.12.12,0,0,1,.12-.12l.33,0h.47c.06,0,.07,0,.07-.07V537c0-.05,0-.07-.07-.07h-.41l-.39,0,0-.06h0v0h0v0h0v0m-.93.91h0v0h0l0-.11h0l-.1.05h0m.89-1h0v0h0l0,.1h0l.11,0h-.05Zm0,.88h0l0,.11h0v0h0l-.1,0m-.92-.74h0l-.06-.11h0v0h-.05v0l.11.05" transform="translate(-748.59 -535.45)"/><path class="cls-6" d="M750.89,536.65l-.16,0a.08.08,0,0,1,0-.07V536c0-.07,0-.09-.09-.09h-.49c-.06,0-.08,0-.08.09s0,.4,0,.6,0,.07-.08.07-.1,0-.15,0l.17-.11v-.73h.76v.73l.15.1" transform="translate(-748.59 -535.45)"/><path class="cls-7" d="M749.83,537.78H750s0,0,0,.07c0,.2,0,.39,0,.59s0,.1.1.1h.47c.07,0,.09,0,.09-.08v-.6c0-.05,0-.08.08-.07s.07,0,.11,0l-.13.08v.73H750v-.73l-.15-.08" transform="translate(-748.59 -535.45)"/><path class="cls-6" d="M749.81,536.66a.31.31,0,0,0,0,.19l-.06,0h-.61c-.07,0-.09,0-.09.09a3.84,3.84,0,0,1,0,.48c0,.07,0,.09.09.09h.67l0,.19-.08-.14H749v-.76h.74l.11-.17" transform="translate(-748.59 -535.45)"/><path class="cls-7" d="M750.94,537.72s0-.09,0-.13,0-.05.06-.05h.61c.07,0,.09,0,.09-.09V537c0-.06,0-.08-.08-.08H751c-.06,0-.1,0-.09-.08a.27.27,0,0,0,0-.09l.07.12h.74v.75H751l-.08.14" transform="translate(-748.59 -535.45)"/><path class="cls-7" d="M750.93,536.68l0,0,0,0" transform="translate(-748.59 -535.45)"/><path class="cls-7" d="M750.92,537.75l0,0,0,0" transform="translate(-748.59 -535.45)"/><path class="cls-7" d="M750.88,537.78l0,0,0,0" transform="translate(-748.59 -535.45)"/><path class="cls-7" d="M750.94,536.7l0,0,0,0" transform="translate(-748.59 -535.45)"/><path class="cls-7" d="M751,536.71v0" transform="translate(-748.59 -535.45)"/><path class="cls-7" d="M750.91,537.76h0" transform="translate(-748.59 -535.45)"/><path class="cls-8" d="M750.7,536.8s0,0,0,0,.08.06.11,0h0l0,.06.39,0h.41c.06,0,.07,0,.07.07v.46c0,.06,0,.08-.07.07h-.47l-.33,0a.12.12,0,0,0-.12.12l0,.76c0,.1,0,.1-.1.1h-.44c-.06,0-.08,0-.08-.07a4.51,4.51,0,0,0,0-.52,2.11,2.11,0,0,0,0-.26c0-.08,0-.13-.13-.13l-.76,0c-.08,0-.1,0-.1-.1a2.94,2.94,0,0,0,0-.42c0-.07,0-.09.09-.09h.47c.11,0,.21,0,.32,0v0h0l0,0h0v0h0a.43.43,0,0,0,0,.41l.06,0-.08-.12h.11v.1h0l0-.24v0l0,0c0,.11,0,.13.08.1l.08.07,0,0c-.1,0-.11,0-.11.1a.4.4,0,0,1,0,.11c.07-.06.08-.1.07-.16h0a.15.15,0,0,1,.14.13l.07,0h0l-.11,0h-.09v0l.08,0h.4v0h0l.09-.1,0,0v0h0v0l0,0h0v0c.05-.11,0-.14-.06-.2s0,0,0-.07l.1,0v0s-.1-.06-.12,0-.09,0-.11-.05v0l.08-.06-.11,0-.06,0s0,0-.07,0l-.13,0h0a.25.25,0,0,1,.18-.08l.18,0h0l.1.08.06.07h0l0-.07h-.08l0-.11h0m-.83.63h0v0h0l0,0m.89-.3v-.07h0l0,.07v.2l.07-.17-.07,0m-.46.55.06.06.07-.07-.07,0-.06,0" transform="translate(-748.59 -535.45)"/><path class="cls-9" d="M750,537l0,0h0l-.06-.09h0v0h0l0,0h0l0,0,.06-.06-.12-.12h0l.1.09a1.48,1.48,0,0,0,0-.19q0-.3,0-.6c0-.06,0-.08.08-.08h.47s.07,0,.07.08v.33l0,.5h0l-.12,0h0c0-.05,0,0-.08,0l0,0,0-.07h0a.25.25,0,0,0-.24,0h-.06l-.06,0,0,.07,0,0h0L750,537V537Z" transform="translate(-748.59 -535.45)"/><path class="cls-10" d="M749.9,536.84l-.11-.05v0h.05v0h0l.06.11h0" transform="translate(-748.59 -535.45)"/><path class="cls-11" d="M750.88,537.65v0h0l0-.11h0l.1,0h0" transform="translate(-748.59 -535.45)"/><path class="cls-11" d="M750.74,536.75l0-.1h0v0h.06l-.11,0h0" transform="translate(-748.59 -535.45)"/><path class="cls-12" d="M750,537.67l0,.1h0v0h0l.1-.05h0" transform="translate(-748.59 -535.45)"/><path class="cls-13" d="M750,536.86l0,0v0l0,0" transform="translate(-748.59 -535.45)"/><path class="cls-8" d="M750.89,536.77h0v0h0" transform="translate(-748.59 -535.45)"/><path class="cls-8" d="M750.89,536.79h0" transform="translate(-748.59 -535.45)"/><path class="cls-8" d="M750.88,536.78h0" transform="translate(-748.59 -535.45)"/><polyline class="cls-11" points="2.23 2.14 2.23 2.13 2.23 2.13 2.23 2.14"/><polyline class="cls-12" points="1.39 2.21 1.4 2.2 1.39 2.21 1.39 2.21"/><polyline class="cls-11" points="2.16 1.31 2.15 1.31 2.15 1.3 2.16 1.31"/><path class="cls-8" d="M750.86,536.82h0" transform="translate(-748.59 -535.45)"/><path class="cls-8" d="M750.87,536.8v0h0v0h0" transform="translate(-748.59 -535.45)"/><path class="cls-14" d="M750.18,536.89h0l0,.07h0c.12,0,.11.07.15.14l.07-.08h0s0,.09.11.05.08,0,.12,0v0l-.1,0s-.05,0,0,.07l-.15,0,0,0,0,0c0,.06.15.06.15.15v0h-.29l-.1,0,.11,0a.22.22,0,0,0,.21,0l-.16-.05s0,0,0,0l-.07,0a.15.15,0,0,0-.14-.13h0c0,.06,0,.1-.07.16a.4.4,0,0,0,0-.11c0-.08,0-.13.11-.1l0,0,.09,0v-.08l0-.11-.06,0,0,0,0,.07c-.08,0-.1,0-.08-.1h0l0,0,.14-.1m.26.26h0v0h0v0" transform="translate(-748.59 -535.45)"/><path class="cls-15" d="M750.61,537.45c0-.09-.1-.09-.15-.15l0,0,0,0,.15,0c.1.06.11.09.06.2v0l-.06,0" transform="translate(-748.59 -535.45)"/><path class="cls-13" d="M749.89,537l.06.09,0,0h0l0,.24h0v-.1h-.11l.08.12-.06,0a.43.43,0,0,1,0-.41" transform="translate(-748.59 -535.45)"/><path class="cls-16" d="M750.23,537l0-.07.13,0s0,0,.07,0l.06,0a.11.11,0,0,0-.06.13h.05l-.07.08c0-.07,0-.18-.15-.14Zm.14,0s0,0,0,0,0,0,0,0h0" transform="translate(-748.59 -535.45)"/><path class="cls-13" d="M750.18,536.89l-.14.1h0v0l.08-.09h0l0,0,.12-.06.19,0s.08,0,.08,0l-.18,0a.25.25,0,0,0-.18.08" transform="translate(-748.59 -535.45)"/><path class="cls-17" d="M750.45,537h-.05a.11.11,0,0,1,.06-.13l.11,0-.08.06,0,0Z" transform="translate(-748.59 -535.45)"/><path class="cls-18" d="M750.21,537.47l.1,0h-.11l-.08,0v0Z" transform="translate(-748.59 -535.45)"/><path class="cls-19" d="M750.27,537.16v.08l-.09,0-.08-.07,0-.07,0,0a.08.08,0,0,0,.1.07" transform="translate(-748.59 -535.45)"/><path class="cls-20" d="M750.3,537.68l.06,0,.07,0-.07.07-.06-.06" transform="translate(-748.59 -535.45)"/><path class="cls-13" d="M750.54,536.84l.12,0,0,.11h0l-.1-.08" transform="translate(-748.59 -535.45)"/><path class="cls-13" d="M750.76,537.13l.07,0-.07.17v-.2Z" transform="translate(-748.59 -535.45)"/><path class="cls-21" d="M750.6,537.51h0v0l.06,0h0l-.09.1h0v0" transform="translate(-748.59 -535.45)"/><path class="cls-13" d="M750.64,536.91h.08l0,.07h0l-.06-.07Z" transform="translate(-748.59 -535.45)"/><path class="cls-13" d="M750.76,537.13l0-.07h0v.07Z" transform="translate(-748.59 -535.45)"/><path class="cls-16" d="M750.45,537l0,0v0h0" transform="translate(-748.59 -535.45)"/><path class="cls-13" d="M749.87,537.43l0,0h0v0Z" transform="translate(-748.59 -535.45)"/><path class="cls-21" d="M750.73,537.38v0h0v0Z" transform="translate(-748.59 -535.45)"/><path class="cls-13" d="M749.87,537.43Z" transform="translate(-748.59 -535.45)"/><path class="cls-13" d="M750,537.05h0v0h0v0" transform="translate(-748.59 -535.45)"/><path class="cls-13" d="M749.92,536.91l0,0,0,0" transform="translate(-748.59 -535.45)"/><path class="cls-21" d="M750.73,537.38h0" transform="translate(-748.59 -535.45)"/><path class="cls-13" d="M749.9,536.94v0" transform="translate(-748.59 -535.45)"/><polyline class="cls-21" points="2.03 2.08 2.02 2.08 2.02 2.08 2.02 2.08 2.03 2.08"/><polygon class="cls-13" points="2.11 1.54 2.12 1.54 2.11 1.54 2.11 1.54"/><path class="cls-21" d="M750.72,537.41l0,0h0l0,0h0" transform="translate(-748.59 -535.45)"/><path class="cls-22" d="M750.46,536.8l-.19,0-.12.06,0-.07.06,0,.06,0v0h.24v.07l0,0" transform="translate(-748.59 -535.45)"/><path class="cls-23" d="M750.48,536.7h-.24a.25.25,0,0,1,.24,0" transform="translate(-748.59 -535.45)"/><path class="cls-23" d="M750.49,536.77v-.07h0l0,.07" transform="translate(-748.59 -535.45)"/><path class="cls-23" d="M750.24,536.7v0l-.06,0h.06" transform="translate(-748.59 -535.45)"/><path class="cls-24" d="M750,537.05v0l0,0h0" transform="translate(-748.59 -535.45)"/><path class="cls-8" d="M750,537h0l0,0v0" transform="translate(-748.59 -535.45)"/><path class="cls-24" d="M750.1,536.86h0" transform="translate(-748.59 -535.45)"/><polyline class="cls-5" points="2.29 2.2 2.28 2.19 2.29 2.19 2.29 2.2"/><polyline class="cls-5" points="2.22 1.25 2.21 1.25 2.21 1.24 2.22 1.25"/><polyline class="cls-5" points="1.33 2.27 1.34 2.26 1.33 2.27 1.33 2.27"/><path class="cls-25" d="M750.32,537.43s0,0,0,0l.16.05a.22.22,0,0,1-.21,0Z" transform="translate(-748.59 -535.45)"/><path class="cls-24" d="M750.27,537.16a.08.08,0,0,1-.1-.07l.06,0,0,.11" transform="translate(-748.59 -535.45)"/><path class="cls-15" d="M750.44,537.15v0h0v0Z" transform="translate(-748.59 -535.45)"/><path class="cls-15" d="M750.43,537.15h0" transform="translate(-748.59 -535.45)"/><polyline class="cls-16" points="1.64 1.52 1.64 1.52 1.64 1.52 1.64 1.52"/><polyline class="cls-8" points="1.52 1.83 1.52 1.82 1.52 1.83 1.52 1.83"/><path class="cls-14" d="M750.37,537h0s0,0,0,0,0,0,0,0" transform="translate(-748.59 -535.45)"/></g><g class="cls-27"><rect class="cls-2" x="14.69" width="14.69" height="19.39"/><path class="cls-4" d="M763.27,554.84H748.59V535.45h14.68Zm-10.12-17h0l0,0h0l-.06-.05h0l-.29-.2v-1.41h-1.48v1.41l-.33.22h0l-.22.33h-1.42v1.47h1.44l.15.28.09.08.29.17v1.42h1.49v-1.42L753,540h0l.06,0h0l0,0h0l0-.06h0l.16-.27h1.44v-1.46H753.3l-.12-.24h0l0,0" transform="translate(-748.59 -535.45)"/><path class="cls-5" d="M751,540l-.09-.08,0-.38h-1.29c-.14,0-.17,0-.17-.16,0-.32,0-.63,0-.94,0-.14,0-.18.18-.17h1.17a.31.31,0,0,0,.13-.06c0-.14,0-.25.07-.37h0a1.09,1.09,0,0,1,.3-.07c.12,0,.14,0,.14-.12,0-.39,0-.79,0-1.18,0-.12,0-.16.16-.16h.94c.14,0,.18,0,.18.17q0,.59,0,1.17a.15.15,0,0,0,.08.12,1.67,1.67,0,0,0,.31,0h0l.06.05h0l0,0h0l0,0h0a1.08,1.08,0,0,1,0,.18c0,.15,0,.16.16.16h1.14c.13,0,.17,0,.17.15,0,.32,0,.64,0,1,0,.14,0,.18-.18.17H753.3c-.06,0-.13,0-.13.09a2.45,2.45,0,0,1,0,.27h0l0,.06h0l0,0h0l-.06,0h0a.9.9,0,0,1-.23,0c-.12,0-.15,0-.14.14,0,.38,0,.77,0,1.15,0,.14,0,.18-.18.17h-.92c-.15,0-.18,0-.18-.18,0-.38,0-.77,0-1.15,0-.06,0-.13-.08-.13l-.31,0m2-1.88,0,0c-.07.12-.14.1-.21,0l-.05-.05c0-.32,0-.64,0-1s0-.43,0-.65,0-.14-.14-.14h-.9c-.12,0-.16,0-.16.15,0,.39,0,.78,0,1.17a1.51,1.51,0,0,1-.06.35l-.2-.17,0,0,.23.22-.11.12-.09,0c-.21,0-.41.06-.62.07h-.9c-.14,0-.19,0-.19.17a7.66,7.66,0,0,1,0,.83c0,.15,0,.17.19.18.49,0,1,0,1.48,0a.25.25,0,0,1,.25.25,2.94,2.94,0,0,1,0,.51c0,.34,0,.67,0,1,0,.11,0,.15.15.14h.85c.2,0,.19,0,.2-.2,0-.49,0-1,0-1.47a.24.24,0,0,1,.25-.24l.62,0h.92c.11,0,.14,0,.14-.13q0-.45,0-.9c0-.1,0-.14-.14-.14h-.8c-.25,0-.49,0-.76,0l.05-.11,0,0,0,0,0,0,0,0,0,0h-.05l0,0,0,0,0,0m-1.81,1.77h0v.08h0c0-.07,0-.14.08-.2v0h0l-.21.09,0,0h.07m1.74-2h0v-.08h0l-.09.2v0h0l.21-.09v0Zm0,1.72h0v0l.09.21h0v-.08h.09v0l-.2-.09m-1.78-1.45,0,0-.11-.21h0v.1h-.1v0l.21.1" transform="translate(-748.59 -535.45)"/><path class="cls-6" d="M753.06,537.78a1.67,1.67,0,0,1-.31,0,.15.15,0,0,1-.08-.12q0-.58,0-1.17c0-.13,0-.17-.18-.17h-.94c-.13,0-.16,0-.16.16,0,.39,0,.79,0,1.18,0,.1,0,.14-.14.12a1.09,1.09,0,0,0-.3.07l.33-.22v-1.41h1.48v1.41l.29.2" transform="translate(-748.59 -535.45)"/><path class="cls-7" d="M751,540l.31,0c.1,0,.08.07.08.13,0,.38,0,.77,0,1.15,0,.14,0,.19.18.18h.92c.14,0,.18,0,.18-.17,0-.38,0-.77,0-1.15,0-.11,0-.15.14-.14a.9.9,0,0,0,.23,0l-.26.16v1.42h-1.49v-1.42L751,540" transform="translate(-748.59 -535.45)"/><path class="cls-6" d="M751,537.8c0,.12-.12.23-.07.37a.31.31,0,0,1-.13.06h-1.17c-.14,0-.18,0-.18.17,0,.31,0,.62,0,.94,0,.12,0,.17.17.16h1.29l0,.38-.15-.28h-1.44v-1.47h1.42l.22-.33" transform="translate(-748.59 -535.45)"/><path class="cls-7" d="M753.15,539.86a2.45,2.45,0,0,0,0-.27c0-.1.07-.09.13-.09h1.17c.13,0,.18,0,.18-.17,0-.31,0-.63,0-1,0-.12,0-.15-.17-.15h-1.14c-.12,0-.2,0-.16-.16a1.08,1.08,0,0,0,0-.18l.12.24h1.45v1.46h-1.44l-.16.27" transform="translate(-748.59 -535.45)"/><path class="cls-7" d="M753.12,537.83l-.06-.05.06.05" transform="translate(-748.59 -535.45)"/><path class="cls-7" d="M753.12,539.91l0-.06,0,.06" transform="translate(-748.59 -535.45)"/><path class="cls-7" d="M753,540l.06,0-.06,0" transform="translate(-748.59 -535.45)"/><path class="cls-7" d="M753.15,537.86l0,0,0,0" transform="translate(-748.59 -535.45)"/><path class="cls-7" d="M753.18,537.89l0,0,0,0" transform="translate(-748.59 -535.45)"/><path class="cls-7" d="M753.09,539.94l0,0,0,0" transform="translate(-748.59 -535.45)"/><path class="cls-8" d="M752.68,538.06l.05.05c.07.1.14.12.21,0l0,0-.05.11c.27,0,.51,0,.76,0h.8c.11,0,.14,0,.14.14q0,.45,0,.9c0,.1,0,.14-.14.13h-.92l-.62,0a.24.24,0,0,0-.25.24c0,.49,0,1,0,1.47,0,.2,0,.2-.2.2h-.85c-.11,0-.15,0-.15-.14,0-.34,0-.67,0-1a4.4,4.4,0,0,0,0-.51.25.25,0,0,0-.25-.25c-.49,0-1,0-1.48,0-.14,0-.19,0-.19-.18a7.66,7.66,0,0,0,0-.83c0-.14,0-.17.19-.17h.9c.21,0,.41,0,.62-.07v.08h0l0,.06h0l0,0h0a.92.92,0,0,0-.08.81l.11,0-.15-.23.23,0,0,.2h0l0-.48,0-.06.06,0c0,.2,0,.24.16.19l.16.14s-.06.08-.07.07c-.2,0-.23.05-.22.2a1.33,1.33,0,0,1,0,.2.29.29,0,0,0,.13-.3h0a.3.3,0,0,1,.28.25l.12,0h0l-.2.08h-.18v0a1,1,0,0,0,.17,0h.77l0,0h0l.17-.2,0,0,0-.06v0l0,0,0,0h-.06a.34.34,0,0,1,0-.1c.08-.2.07-.25-.11-.38s0-.09,0-.14l.19.08,0-.06c-.08,0-.2-.11-.25-.09s-.16,0-.2-.1a0,0,0,0,0,0,0l.15-.11-.21-.07-.12-.08a.24.24,0,0,0-.14,0l-.25.09,0,0a.46.46,0,0,1,.35-.14l.34.06h0l.2.14.12.14h0l0-.13h-.15l0-.23h.07m-1.6,1.22h0v.05h0l0,0m1.72-.56v-.15h0l0,.14v.37l.14-.33-.14,0m-.89,1,.12.13.12-.14-.12-.09-.12.1" transform="translate(-748.59 -535.45)"/><path class="cls-9" d="M751.38,538.5l-.06,0h-.09l-.12-.18h0l0,0h0l0-.06h0l.09-.11.11-.12-.23-.22,0,0,.2.17a1.51,1.51,0,0,0,.06-.35c0-.39,0-.78,0-1.17,0-.11,0-.16.16-.15h.9c.1,0,.14,0,.14.14s0,.43,0,.65,0,.64,0,1h-.07l-.24.09h0c0-.11-.08-.08-.14-.09l0,0,.08-.14h-.1a.53.53,0,0,0-.46,0h0l-.12,0-.12.08.07.14-.12.06h0l-.15.18s0,0,0,.06v0Z" transform="translate(-748.59 -535.45)"/><path class="cls-10" d="M751.14,538.14l-.21-.1v0h.1v-.1h0l.11.21,0,0" transform="translate(-748.59 -535.45)"/><path class="cls-11" d="M753,539.72v.08h0l-.09-.21h0l.2.09v0H753v0" transform="translate(-748.59 -535.45)"/><path class="cls-11" d="M752.77,538l.09-.2h0v.1h.1v0l-.21.09v0" transform="translate(-748.59 -535.45)"/><path class="cls-12" d="M751.29,539.75l-.08.2h0v-.1h-.09l0,0,.21-.09v0" transform="translate(-748.59 -535.45)"/><path class="cls-13" d="M751.26,538.18l-.09.11v-.08l.09,0" transform="translate(-748.59 -535.45)"/><path class="cls-8" d="M753.05,538h.05l0,0,0,0" transform="translate(-748.59 -535.45)"/><path class="cls-8" d="M753.05,538.05l0,0,0,0,0,0,0,0" transform="translate(-748.59 -535.45)"/><path class="cls-8" d="M753,538l0,0,0,0,0,0,0,0" transform="translate(-748.59 -535.45)"/><path class="cls-11" d="M752.91,539.6v0h0" transform="translate(-748.59 -535.45)"/><path class="cls-12" d="M751.28,539.73h0v0" transform="translate(-748.59 -535.45)"/><path class="cls-11" d="M752.78,538h0v0" transform="translate(-748.59 -535.45)"/><path class="cls-8" d="M753,538.1l0,0,0,0,0,0,0,0" transform="translate(-748.59 -535.45)"/><path class="cls-8" d="M753,538.08l0,0,0,0,0,0,0,0" transform="translate(-748.59 -535.45)"/><path class="cls-14" d="M751.68,538.23l0,0,.06.13h0c.23-.09.22.12.29.25l.14-.14h0l.08,0c0,.08.05.19.2.1s.17.06.25.09l0,.06-.19-.08c0,.05-.1.09,0,.14l-.3.08.11.09-.11.06c.09.12.29.12.3.3l0,.1h-.56a.6.6,0,0,1-.19-.06l.2-.08a.45.45,0,0,0,.42.07l-.32-.11s-.07,0-.1,0l-.12,0a.3.3,0,0,0-.28-.25h0a.29.29,0,0,1-.13.3,1.33,1.33,0,0,0,0-.2c0-.15,0-.25.22-.2,0,0,0,0,.07-.07l.17.09v-.15l-.08-.21-.11.07-.06-.08-.07.14c-.15,0-.19,0-.16-.19h0l0-.06.27-.2m.49.51h0v0h0l0,0" transform="translate(-748.59 -535.45)"/><path class="cls-15" d="M752.52,539.33c0-.18-.21-.18-.3-.3l.11-.06-.11-.09.3-.08c.18.13.19.18.11.38a.34.34,0,0,0,0,.1l-.11.05" transform="translate(-748.59 -535.45)"/><path class="cls-13" d="M751.11,538.37l.12.18,0,.05h0l0,.48h0l0-.2-.23,0,.15.23-.11,0a.92.92,0,0,1,.08-.81" transform="translate(-748.59 -535.45)"/><path class="cls-16" d="M751.77,538.4l-.06-.13.25-.09a.24.24,0,0,1,.14,0l.12.08a.25.25,0,0,0-.12.25h.1l-.14.14c-.07-.13-.06-.34-.29-.25Zm.28,0,0,0,0,0,0,0,0,0" transform="translate(-748.59 -535.45)"/><path class="cls-13" d="M751.68,538.23l-.27.2h0s0-.05,0-.06l.15-.18v0l.12-.06c.07,0,.14-.1.22-.1a2.58,2.58,0,0,1,.38,0c.06,0,.14,0,.14.09l-.34-.06a.46.46,0,0,0-.35.14" transform="translate(-748.59 -535.45)"/><path class="cls-17" d="M752.2,538.52h-.1a.25.25,0,0,1,.12-.25l.21.07-.15.11-.08.06Z" transform="translate(-748.59 -535.45)"/><path class="cls-18" d="M751.74,539.36a.6.6,0,0,0,.19.06h.56v0h-.77a1,1,0,0,1-.17,0v0Z" transform="translate(-748.59 -535.45)"/><path class="cls-19" d="M751.86,538.77v.15l-.17-.09-.16-.14.07-.14.06.08c0,.12.08.15.19.14" transform="translate(-748.59 -535.45)"/><path class="cls-20" d="M751.91,539.77l.12-.1.12.09-.12.14-.12-.13" transform="translate(-748.59 -535.45)"/><path class="cls-13" d="M752.37,538.15l.24-.09,0,.23h0l-.2-.14" transform="translate(-748.59 -535.45)"/><path class="cls-13" d="M752.8,538.72l.14,0-.14.33v-.37Z" transform="translate(-748.59 -535.45)"/><path class="cls-21" d="M752.49,539.45v0l0-.1.11-.05h.06l-.17.2h0l0,0" transform="translate(-748.59 -535.45)"/><path class="cls-13" d="M752.57,538.29h.15l0,.13h0l-.12-.14Z" transform="translate(-748.59 -535.45)"/><path class="cls-13" d="M752.8,538.72l0-.14h0v.15Z" transform="translate(-748.59 -535.45)"/><path class="cls-16" d="M752.2,538.52l.08-.06a0,0,0,0,1,0,0l-.08,0" transform="translate(-748.59 -535.45)"/><path class="cls-13" d="M751.08,539.28l0,0h0v-.05Z" transform="translate(-748.59 -535.45)"/><path class="cls-21" d="M752.75,539.2l0,.06h0l0,0Z" transform="translate(-748.59 -535.45)"/><path class="cls-13" d="M751.08,539.28Z" transform="translate(-748.59 -535.45)"/><path class="cls-13" d="M751.27,538.55h.05l0,.06h0v-.05" transform="translate(-748.59 -535.45)"/><path class="cls-13" d="M751.17,538.29l0,.06,0-.06" transform="translate(-748.59 -535.45)"/><path class="cls-21" d="M752.74,539.2v0h0" transform="translate(-748.59 -535.45)"/><path class="cls-13" d="M751.14,538.35l0,0,0,0" transform="translate(-748.59 -535.45)"/><polyline class="cls-21" points="3.93 4.03 3.92 4.04 3.92 4.04 3.92 4.03 3.93 4.03"/><polygon class="cls-13" points="4.1 2.98 4.11 2.98 4.1 2.98 4.1 2.98"/><path class="cls-21" d="M752.72,539.26l0,0h0l0,0h0" transform="translate(-748.59 -535.45)"/><path class="cls-22" d="M752.23,538.06a2.58,2.58,0,0,0-.38,0c-.08,0-.15.07-.22.1l-.07-.14.12-.08.11.06v-.1h.46l0,.15,0,0" transform="translate(-748.59 -535.45)"/><path class="cls-23" d="M752.26,537.86h-.46a.53.53,0,0,1,.46,0" transform="translate(-748.59 -535.45)"/><path class="cls-23" d="M752.28,538l0-.15h.1l-.08.14" transform="translate(-748.59 -535.45)"/><path class="cls-23" d="M751.8,537.86v.1l-.11-.06.12,0" transform="translate(-748.59 -535.45)"/><path class="cls-24" d="M751.27,538.55v.05l0-.05h0" transform="translate(-748.59 -535.45)"/><path class="cls-8" d="M751.37,538.44h0l0,.06v0" transform="translate(-748.59 -535.45)"/><path class="cls-24" d="M751.51,538.18v0h0" transform="translate(-748.59 -535.45)"/><path class="cls-5" d="M753,539.72v0h0" transform="translate(-748.59 -535.45)"/><path class="cls-5" d="M752.9,537.87h0v0h0" transform="translate(-748.59 -535.45)"/><path class="cls-5" d="M751.16,539.85h0v0h0" transform="translate(-748.59 -535.45)"/><path class="cls-25" d="M751.94,539.28s.07,0,.1,0l.32.11a.45.45,0,0,1-.42-.07Z" transform="translate(-748.59 -535.45)"/><path class="cls-24" d="M751.86,538.77c-.11,0-.18,0-.19-.14l.11-.07.08.21" transform="translate(-748.59 -535.45)"/><path class="cls-15" d="M752.17,538.74l0,0h0v0Z" transform="translate(-748.59 -535.45)"/><path class="cls-15" d="M752.17,538.75h0" transform="translate(-748.59 -535.45)"/><polyline class="cls-16" points="3.18 2.95 3.17 2.96 3.18 2.95 3.18 2.95"/><path class="cls-8" d="M751.54,539h0" transform="translate(-748.59 -535.45)"/><path class="cls-14" d="M752.05,538.35l0,0,0,0,0,0,0,0" transform="translate(-748.59 -535.45)"/></g></svg>