<svg id="Warstwa_1" data-name="Warstwa 1" xmlns="http://www.w3.org/2000/svg" xmlns:xlink="http://www.w3.org/1999/xlink" viewBox="0 0 19.57 15.23"><defs><style>.cls-1{fill:none;}.cls-2{clip-path:url(#clip-path);}.cls-3{fill:#0046ad;}.cls-4{fill:#cb092f;}.cls-5{fill:#fed100;}.cls-6{fill:#fefefe;}.cls-7{fill:#0a0804;}.cls-8{fill:#090603;}.cls-9{fill:#060501;}.cls-10{fill:#f1d104;}.cls-11{fill:#0d0a04;}.cls-12{fill:#262000;}.cls-13{fill:#322b00;}.cls-14{fill:#483c00;}.cls-15{fill:#af7e54;}.cls-16{fill:#b18052;}.cls-17{fill:#ab7c53;}.cls-18{fill:#ae7d54;}.cls-19{fill:#fbce00;}.cls-20{fill:#ca0428;}.cls-21{fill:#a97a52;}.cls-22{fill:#a1744e;}.cls-23{fill:#09704f;}.cls-24{fill:#dec002;}.cls-25{fill:#e9ca02;}.cls-26{fill:#cf0628;}.cls-27{fill:#0d45b7;}.cls-28{fill:#f5ca00;}.cls-29{fill:#0a0702;}.cls-30{fill:#0e0502;}.cls-31{fill:#080806;}.cls-32{fill:#072c78;}.cls-33{clip-path:url(#clip-path-2);}.cls-34{clip-path:url(#clip-path-3);}</style><clipPath id="clip-path" transform="translate(-753.49 -537.53)"><rect class="cls-1" x="755.72" y="537.59" width="15.12" height="15.12"/></clipPath><clipPath id="clip-path-2" transform="translate(-753.49 -537.53)"><rect class="cls-1" x="760.71" y="540.25" width="5.12" height="9.73"/></clipPath><clipPath id="clip-path-3" transform="translate(-753.49 -537.53)"><rect class="cls-1" x="760.71" y="539.68" width="5.12" height="10.3"/></clipPath></defs><title>Moldovia</title><g class="cls-2"><path class="cls-3" d="M755.11,552.74V537.53h5.44v15.21h-5.44" transform="translate(-753.49 -537.53)"/><path class="cls-4" d="M766,537.53h5.44v15.21H766Z" transform="translate(-753.49 -537.53)"/><path class="cls-5" d="M766,537.53v15.21h-5.44V537.53Zm-1.11,7.59c0-.06.06-.09.07-.16a.29.29,0,0,1,0-.13l.06-.08s0,0,0-.09,0-.08,0-.12a.5.5,0,0,0,.05-.35l-.05.07a.11.11,0,0,0,0,.13h0l0,0s0,0,0,.06h0c-.08,0-.08,0-.08.14a.91.91,0,0,1,0,.23c0,.06,0,.12,0,.19l0,.15v-2.77a1.06,1.06,0,0,0,0-.31,1.79,1.79,0,0,0-.24-.5c-.08-.11-.05-.12-.14,0l-.26.42v.06c0,.11,0,.23,0,.34s0,.05,0,.06l-.17.12-.25.22,0-.05a1,1,0,0,1-.12-.44,1.37,1.37,0,0,1,0-.35,1.2,1.2,0,0,0,0-.39l.06.07,0-.22.05,0-.08-.13.06,0-.25-.19a.29.29,0,0,0-.24-.08.17.17,0,0,0-.09.08c0,.05,0,.07-.07.08l-.09,0V541h.09l0,.07v-.23l-.13,0v0l0-.23h-.1l0,.24v0l-.12,0a.34.34,0,0,0,0,.22c0-.09.07-.06.12-.06v.53a1.24,1.24,0,0,1,0,.18l0,.1.06-.12,0-.05v-.25a.35.35,0,0,1,.17.32,2.63,2.63,0,0,1,0,.89.42.42,0,0,1-.13.23l-.3-.29-.06,0s-.06,0-.07-.06a.46.46,0,0,1,0-.17.09.09,0,0,1,0,0,.37.37,0,0,0-.06-.3c-.09-.12-.16-.25-.24-.38s0,0-.05,0a1.77,1.77,0,0,0-.3.6,1,1,0,0,0,0,.25v1.84l0-.11,0,.15-.12-.15a.81.81,0,0,0,0,.32h0l-.08,0c0,.18.07.32.16.33s0,.08,0,.13,0,.05,0,.06,0-.09.06-.15h0l0,.24-.16,0v0l0,.1-.05,0c0,.12.09.21.17.23v2c0,.14,0,.29,0,.43s0,0,0,0h0a2.45,2.45,0,0,0,.23-.49h0l.15-.29,0-.06a.21.21,0,0,0,0,.18l0,0a.43.43,0,0,0,0,.25s0,0,0,.06a.84.84,0,0,1,.06.14c0,.07.06.08.1,0l.05-.07v0a1.1,1.1,0,0,0,0,.18s0,.06,0,.07l.13.13,0-.3-.08-.09a.15.15,0,0,1,0-.15c0-.05,0-.11.05-.16a3.32,3.32,0,0,1,.28-.6l.1-.17.18.14a7.75,7.75,0,0,1-.32,1.06,1.21,1.21,0,0,1-.26.45l.34.31.22-.59a3.19,3.19,0,0,1-.16.66,1.75,1.75,0,0,1,.4.59,1.89,1.89,0,0,1,.39-.59,4.12,4.12,0,0,1-.16-.65l.22.58.33-.3a4.48,4.48,0,0,1-.56-1.51l.17-.16a4,4,0,0,1,.49,1.1l-.07.1V548l.13-.17,0-.07s0,0,0,0,.06,0,.08-.06a.57.57,0,0,1,.06-.15c.06,0,0-.1,0-.17a1.21,1.21,0,0,0,0-.18l0,0V547c.13.29.17.35.2.32a1.94,1.94,0,0,0,.22.48c0-.15,0-.29,0-.43V545.5s0-.06,0-.09l.09-.29" transform="translate(-753.49 -537.53)"/><path class="cls-6" d="M760.55,552.74h10.88V537.53h0v15.22H755.15l0,0h5.44" transform="translate(-753.49 -537.53)"/><path class="cls-7" d="M761.7,547.82s0,0,0,0,0-.29,0-.43v-2c-.08,0-.13-.11-.17-.23l.05,0,0-.1v0l.16,0,0-.24h0c0,.06,0,.17-.06.15s0-.05,0-.06,0-.09,0-.13-.13-.15-.16-.33l.08,0h0v0a.81.81,0,0,1,0-.32l.12.15,0-.15,0,.11V542.4a1,1,0,0,1,0-.25,1.77,1.77,0,0,1,.3-.6s0,0,.05,0,.15.26.24.38a.37.37,0,0,1,.06.3.09.09,0,0,0,0,0,.46.46,0,0,0,0,.17s.05,0,.07.06l.06,0,.3.29h0l-.15-.05-.11-.12v0l0,.16.08,0-.08.13a.49.49,0,0,1,0-.11c0-.05,0,0,0,0l-.06.11-.06-.15s0-.11-.07-.17a1.93,1.93,0,0,0,0,.55l.05-.09,0,.13-.09.16-.07-.12v3.09s0-.14.09-.12l.07-.44V546a1.7,1.7,0,0,0-.05.51l.07-.05a.63.63,0,0,1-.14.49c.06,0,.12-.14.14.05l.14-.38,0,0,.08-.29,0,0-.05.2h.05v.1l.06,0,0,.13.11-.2,0,0-.1.17a3.32,3.32,0,0,0-.28.6c0,.05,0,.11-.05.16a.15.15,0,0,0,0,.15l.08.09,0,.3-.13-.13s0-.05,0-.07a1.1,1.1,0,0,1,0-.18v0l-.05.07c0,.07-.06.06-.1,0a.84.84,0,0,0-.06-.14s0,0,0-.06a.43.43,0,0,1,0-.25l0,0a.21.21,0,0,1,0-.18l0,.06-.15.29h0a2.45,2.45,0,0,1-.23.49ZM762,546h0c0-.14-.11-.2-.18-.17s0,.12.08.14l.1,0m.26,1.55h0v.07l0,0a.16.16,0,0,0,0-.06l0-.07-.05,0c0-.05,0-.07,0-.07v-.07l0,0,0,.06s0,0,0,.06l0,0s0,.1,0,.08m0-.54h0a.25.25,0,0,0,0-.08c0-.23-.11-.47-.17-.7a.19.19,0,0,0,0-.07h0l0,.14c0,.15.07.3.1.44l0,0a.19.19,0,0,0-.19-.1s0,0,0,.06.16.17.22.11l.07.24m-.14-.39h0v0l-.07-.31-.07.13a.14.14,0,0,0,0,.13l.1.06m0-1s0-.05,0-.11v-2.24l-.07.12-.08-.13v2a.36.36,0,0,0,0,.21l0-.06,0,.17m-.17-.75v-1.6l-.08.12-.07-.13v1.42l.09.21,0-.07,0,.05M762,542v0a.42.42,0,0,0,.06.37.61.61,0,0,0,.09-.23s0,0,0,0a.37.37,0,0,0,0,.14.65.65,0,0,0,.12.25,1.55,1.55,0,0,1,0-.22.37.37,0,0,0-.08-.29,1.41,1.41,0,0,1-.18-.27,3.3,3.3,0,0,0-.18.32.26.26,0,0,0,0,.28.57.57,0,0,0,.1-.25s0,0,0-.08m-.23,5.49a1,1,0,0,0,.15-.36c0-.1,0-.22,0-.3s.05,0,0-.16a.46.46,0,0,1,0-.09h0v-.34l-.15-.07Zm.79-.91,0,.08c0,.13-.09.26-.13.4s-.06.11-.11.09-.09,0-.13.11v0h0l.17-.1v0l-.05.15.05,0v.13l.1-.27c0-.15.11-.29.17-.43a.17.17,0,0,0,0-.12l-.06.06v-.14m-.8-3.82a.52.52,0,0,0,0-.5,4.1,4.1,0,0,0,0,.5m.4-.39v.44l.12-.2-.07-.11a1.12,1.12,0,0,0-.05-.13m-.23,0c-.1.09-.1.35,0,.41Zm.31,4a.4.4,0,0,0,0,.38.45.45,0,0,0,0-.38m-.28-3.56a.37.37,0,0,0,0-.45Zm.1,3.31a.45.45,0,0,0,0-.37.52.52,0,0,0,0,.37m-.23-3.25c-.07.05-.07.15-.06.25a.29.29,0,0,0,.05.13h0Zm0,0v.37a.27.27,0,0,0,0-.37m0,2.5a.45.45,0,0,0,0-.36.5.5,0,0,0,0,.36m-.1.49.15.06-.07-.29c0,.14,0,.15-.08.14Zm.6-3.18v0l0,.19.12-.15v0l-.17,0m.09,5.3,0-.19-.09-.09c0,.22,0,.17.07.28m-.23-5.1a.26.26,0,0,0,0,.36Zm-.1-.45a.27.27,0,0,0,0,.37Zm-.1.44a.26.26,0,0,0-.07.23.59.59,0,0,0,.06.14h0Zm0,.37a.25.25,0,0,0,0-.36Zm.09,3.73a.2.2,0,0,0-.2-.09c.06.14.13.17.2.09m-.13-1c0-.12.07-.22,0-.35a.34.34,0,0,0,0,.35m.32.61a.3.3,0,0,0-.09.28c.06,0,.09-.12.09-.28m-.56-.44c.05.09.13.11.19,0s-.12-.11-.19,0m-.24-1.82c0,.14,0,.24.08.26,0-.15,0-.23-.08-.26m.43,2.91.09-.16-.09-.07v.23m-.47-2.64q0,.19.12.18,0-.18-.12-.18m.25.83c0-.1-.1-.14-.15-.11a.13.13,0,0,0,.15.11m-.08-1.07a.73.73,0,0,0,0,.33.47.47,0,0,0,0-.33M762,546h0l-.12-.45,0,0,.12.44m-.4-.94c0,.12.1.16.16.13s-.09-.13-.16-.13m.22-.21a.39.39,0,0,0,0,.26.33.33,0,0,0,0-.26m0,.34,0,0-.08-.32,0,0,.08.32m0,.38,0,0,0,0a.29.29,0,0,0,0-.1s0,0,0,0a.56.56,0,0,0,0,.13m.36.48h0l-.06.11v0s0,0,0,0,0-.07,0-.1m-.21-.75,0,.1a.11.11,0,0,0,0,0s0,0,0,0,0,0,0,0v-.12m0,1,0,0,0-.08,0-.05,0,.11m-.14-.28-.05-.1V546l.05,0" transform="translate(-753.49 -537.53)"/><path class="cls-8" d="M764.77,545.5v1.89c0,.14,0,.28,0,.43a1.94,1.94,0,0,1-.22-.48s-.07,0-.2-.32v.08l0,0a1.21,1.21,0,0,1,0,.18c0,.07,0,.13,0,.17a.57.57,0,0,0-.06.15c0,.05,0,.07-.08.06s0,0,0,0l0,.07-.13.17v-.27l.07-.1a4,4,0,0,0-.49-1.1l0,0,.1.2,0-.13.05,0,0-.1h0l-.06-.19,0,0,.08.28h0l.14.39c0,.07,0,.11.09.1h.06c0-.08,0-.11,0-.12,0-.17-.07-.33-.1-.49s-.06-.33-.08-.49v-.14l.12.64,0,.12v-3.34l-.07.12-.1-.16,0-.13.06.11v-.45a.61.61,0,0,0,0-.11l-.13.31-.06-.12s0,0,0,0a1.17,1.17,0,0,1-.05.11v0c0-.08-.1-.14-.17-.08s0,0-.06,0h0l.25-.22.17-.12s0,0,0-.06,0-.23,0-.34V542l.26-.42c.09-.12.06-.11.14,0a1.79,1.79,0,0,1,.24.5,1.06,1.06,0,0,1,0,.31v2.77h0v0l-.08.27v-2.26l-.08.13-.08-.13v2.69h0l0-.12c0,.1,0,.13.08.1l0,.13a.89.89,0,0,0-.1.38V547a.69.69,0,0,0,0,.25,1.08,1.08,0,0,1,.08.19s0,0,0,0v-1.66l0,.11c0-.09,0-.12-.08-.1l0-.11v0a.43.43,0,0,0,0,.07l0,0a.25.25,0,0,0,0-.07h0l0-.08v.07s0,0,0,0a.5.5,0,0,0,0-.13h0m-.55,1.89-.08.1v0a.4.4,0,0,0,.07.13s0,0,0-.07h0s0-.05,0-.09l0,0a.11.11,0,0,0,0-.06l0-.06,0,0v.07m.27-.89v0l.09-.33a.27.27,0,0,0,0-.09l0,.05a.83.83,0,0,1,0,.15v0a.17.17,0,0,0,0-.07v-2.83a.28.28,0,0,0,0-.08l-.07.13-.08-.13v3.42l0,0h0l-.06.1a.21.21,0,0,0,0,.19c0,.05,0,.06.09,0V547l.1.17v-.6s0,0,0,0m-.07-4.81-.25.35s0,0,0,0v.39a.45.45,0,0,0,.12-.37.05.05,0,0,1,0,0,.69.69,0,0,0,.09.23c0-.13.12-.22.05-.39s0,0,0,.07.06.16.1.25a1.55,1.55,0,0,1,0-.15.17.17,0,0,0,0-.07l-.21-.39m-.58,4.93h0s0,.08,0,.11c.08.23.19.43.26.7l0-.12h0l-.06-.14v0l.17.1h0a.11.11,0,0,1,0,0c0-.06-.08-.12-.14-.1s-.06,0-.09-.08-.09-.28-.14-.42a.33.33,0,0,1,0-.06l0,.13,0-.06m.84-4.4c-.08.18-.07.42,0,.49a4.1,4.1,0,0,0,0-.49m-.14.08v.43a.36.36,0,0,0,0-.43m0,0c-.09.2-.1.37,0,.45Zm-.21.48h0v-.39l-.11.22.1.18m.14,0v.37a.26.26,0,0,0,0-.37m.18,0a.25.25,0,0,0-.08.22c0,.08.05.1.08.17Zm0,0v.39a.29.29,0,0,0,0-.39m-.53-.16a.15.15,0,0,0-.17,0l.12.15.05-.2m.3.17a.25.25,0,0,0-.07.23.94.94,0,0,0,.06.15v-.38Zm-.07-.43v.37a.27.27,0,0,0,0-.37m-.1.81a.27.27,0,0,0,0-.37Zm-.16,4.75.09-.13-.09-.09Zm-.27-5.14.1.07,0-.18-.12.11m.55,4.29v0s0,0-.05-.06,0,0,0,0,0,.06,0,.07,0,0,0,0m.26-1,0,0a.09.09,0,0,0,0-.06l0,0,0,.08m-.06,0h0v0h0" transform="translate(-753.49 -537.53)"/><path class="cls-9" d="M763.46,546.67a4.48,4.48,0,0,0,.56,1.51l-.33.3-.22-.58a4.12,4.12,0,0,0,.16.65,1.89,1.89,0,0,0-.39.59,1.75,1.75,0,0,0-.4-.59,3.19,3.19,0,0,0,.16-.66l-.22.59-.34-.31a1.21,1.21,0,0,0,.26-.45,7.75,7.75,0,0,0,.32-1.06l.05,0a.24.24,0,0,0,0,.08c-.08.28-.15.57-.24.84s-.14.37-.21.55l.16.11,0,0a4.61,4.61,0,0,0,.32-1l0-.15a2.85,2.85,0,0,1,0,.72c0,.23-.08.46-.12.69l.27.32.27-.32c0-.23-.09-.46-.13-.69a2.46,2.46,0,0,1,0-.72s0,.05,0,.08a4.64,4.64,0,0,0,.33,1.11s0,0,0,0l.17-.12a2.77,2.77,0,0,1-.28-.7c-.07-.25-.14-.51-.2-.76l.05,0" transform="translate(-753.49 -537.53)"/><path class="cls-10" d="M763.07,546.7l-.05,0-.18-.14,0,0-.2-.18,0,0-.21-.31V543.2l0-.13,0-.11h1.89l0,.11,0,.13V546l-.19.27,0,0,0,0-.19.17,0,0-.17.16-.05,0-.17.2-.17-.2m1-2V543h-1.69c0,.55,0,1.09,0,1.64v1.06a.46.46,0,0,0,.08.31l.27.27a3.48,3.48,0,0,1,.49.46.81.81,0,0,1,.12-.14l.47-.41A1.37,1.37,0,0,0,764,546a.33.33,0,0,0,.06-.19v-1.14" transform="translate(-753.49 -537.53)"/><path class="cls-11" d="M763.65,542.83h0l.06.1a.32.32,0,0,1-.27-.14l0,.14c-.08,0-.14-.08-.19-.18l0,.15,0-.16c-.06.12-.12.18-.2.19l0-.14v0a.3.3,0,0,1-.27.16l.07-.09h0a.42.42,0,0,0,.13-.23,2.63,2.63,0,0,0,0-.89.35.35,0,0,0-.17-.32v.28a.44.44,0,0,1,0-.1v-.3a1,1,0,0,0,0-.31l.1,0v0h-.09v.15l.09,0s.05,0,.07-.08a.17.17,0,0,1,.09-.08.29.29,0,0,1,.24.08l.25.19-.06,0,.08.13-.05,0,0,.22-.06-.07a1.2,1.2,0,0,1,0,.39,1.37,1.37,0,0,0,0,.35,1,1,0,0,0,.12.44l0,.05m-.54-1.61a.18.18,0,0,0-.07-.05s0,0,0,.07-.06-.07-.1-.06-.08,0-.1.06H763v.06l-.12,0,0,0v0l.17.07v-.07l0,0h0l0-.13,0,.06,0-.06a.1.1,0,0,0,0,.11.13.13,0,0,0,0,.12s0,0,0,.08l-.08-.06s0,0,0,0,0,0,0,.07a2.39,2.39,0,0,1,0,1.1l0,.09a.22.22,0,0,0,.07-.09.4.4,0,0,0,.08-.3v-.3s0,0,0-.06h0a2.44,2.44,0,0,1-.08.85.4.4,0,0,0,.14-.34c0-.15,0-.3,0-.45s0,0,0-.06h0a.43.43,0,0,0,0,.05v.56a.13.13,0,0,0,0,.13.52.52,0,0,0,0-.11V542h0s0,.05,0,.07v.48c0,.12.06.26.13.28h0a2.36,2.36,0,0,1,0-.84.13.13,0,0,1,0,.06v.32c0,.16.07.33.15.36s-.06-.23-.08-.36a1.06,1.06,0,0,1,0-.56.34.34,0,0,0,0-.1c0-.07,0-.14,0-.21l.06,0,0-.13,0,0-.06-.08v0l-.18-.16a.27.27,0,0,0-.25-.06s0,0,0,.09.07,0,.09,0a.14.14,0,0,0,.12,0c.07,0,.15.06.19.19-.08-.1-.15-.19-.23-.11l0,.08q0-.09,0-.12m-.19.2.06.1,0-.08-.09,0" transform="translate(-753.49 -537.53)"/><path class="cls-12" d="M764.77,545.2h0l0-.15c0-.07,0-.13,0-.19a.91.91,0,0,0,0-.23c0-.14,0-.14.08-.14h0s0,0,0-.06l0,0v0l0,.08,0,0a.25.25,0,0,1,0-.07h0a.11.11,0,0,1,0-.13l.05-.07a.5.5,0,0,1-.05.35s0,.08,0,.12,0,.06,0,.09l-.06.08a.29.29,0,0,0,0,.13c0,.07-.05.1-.07.16v0s0-.08,0-.08,0,0,0,.05l0,.15v0h0m.1-.36v0h0s0,0,0,0,0,0,0,0h0c0,.05,0,.06,0,.05h0v-.12h0l0,0h0l.12-.12-.05-.07h0c0-.06,0-.1-.06-.07v0h-.07v.29h0v0Zm.19-.58,0,.07,0,.06Zm0,.33Z" transform="translate(-753.49 -537.53)"/><path class="cls-13" d="M762.79,541.28v0s0,.08,0,.12v.26h0l0,.08,0-.1v0l0,.05-.06.12,0-.1a1.24,1.24,0,0,0,0-.18V541s-.09,0-.12.06a.34.34,0,0,1,0-.22l.12,0v0l0-.24h.1l0,.23v0l.13,0v.23l0-.07v0l0,0v-.11l-.14,0v-.27h-.05l0,.27-.14,0V541l.13,0v.16s0,.1,0,.15" transform="translate(-753.49 -537.53)"/><path class="cls-14" d="M764.87,545.1v0l-.09.29s0,.06,0,.09h0l.12-.4" transform="translate(-753.49 -537.53)"/><path class="cls-7" d="M761.69,547.83h0Z" transform="translate(-753.49 -537.53)"/><path class="cls-15" d="M762.35,543.2v2.57l-.07.44c-.06,0-.06.08-.09.12v-3.09l.07.12.09-.16" transform="translate(-753.49 -537.53)"/><path class="cls-15" d="M762.1,545.59l0-.17,0,.06a.36.36,0,0,1,0-.21v-2l.08.13.07-.12v2.24c0,.06,0,.09,0,.11" transform="translate(-753.49 -537.53)"/><path class="cls-15" d="M761.93,544.84l0-.05,0,.07-.09-.21v-1.42l.07.13.08-.12Z" transform="translate(-753.49 -537.53)"/><path class="cls-16" d="M762.82,542.84l-.07.09a.3.3,0,0,0,.27-.16v0l0,.14c.08,0,.14-.07.2-.19l0,.16,0-.15c.05.1.11.17.19.18l0-.14a.32.32,0,0,0,.27.14l-.06-.1s0,0,.06,0,.12,0,.17.08v0a1.17,1.17,0,0,0,.05-.11s0,0,0,0l.06.12.13-.31a.61.61,0,0,1,0,.11v.45l-.06-.11,0-.11h-1.89l0,.11-.05.09a1.93,1.93,0,0,1,0-.55c0,.06,0,.12.07.17l.06.15.06-.11s0,0,0,0a.49.49,0,0,0,0,.11l.08-.13h0v0h0l.15.05" transform="translate(-753.49 -537.53)"/><path class="cls-17" d="M762,542s0,0,0,.08a.57.57,0,0,1-.1.25.26.26,0,0,1,0-.28,3.3,3.3,0,0,1,.18-.32,1.41,1.41,0,0,0,.18.27.37.37,0,0,1,.08.29,1.55,1.55,0,0,0,0,.22.65.65,0,0,1-.12-.25.37.37,0,0,1,0-.14s0,0,0,0a.61.61,0,0,1-.09.23A.42.42,0,0,1,762,542v0" transform="translate(-753.49 -537.53)"/><path class="cls-18" d="M761.78,547.45v-1.33l.15.07v.34h0a.46.46,0,0,0,0,.09c0,.11,0,.11,0,.16s0,.2,0,.3a1,1,0,0,1-.15.36" transform="translate(-753.49 -537.53)"/><path class="cls-19" d="M762.36,546l.21.31-.08.29,0,0-.14.38c0-.19-.08,0-.14-.05a.63.63,0,0,0,.14-.49l-.07.05a1.7,1.7,0,0,1,.05-.51" transform="translate(-753.49 -537.53)"/><path class="cls-20" d="M762.57,546.54v.14l.06-.06a.17.17,0,0,1,0,.12c-.06.14-.12.28-.17.43l-.1.27v-.13l-.05,0,.05-.15v0l-.17.1h0v0c0-.06.08-.13.13-.11s.08,0,.11-.09.09-.27.13-.4l0-.08" transform="translate(-753.49 -537.53)"/><path class="cls-17" d="M762.6,546.29l.2.18-.11.2,0-.13-.06,0v-.1h-.05l.05-.2" transform="translate(-753.49 -537.53)"/><path class="cls-21" d="M761.77,542.72a4.1,4.1,0,0,1,0-.5.52.52,0,0,1,0,.5" transform="translate(-753.49 -537.53)"/><path class="cls-22" d="M762.17,542.33a1.12,1.12,0,0,1,.05.13l.07.11-.12.2Z" transform="translate(-753.49 -537.53)"/><path class="cls-22" d="M761.94,542.31v.41c-.1-.06-.1-.32,0-.41" transform="translate(-753.49 -537.53)"/><path class="cls-23" d="M762.18,546.78c-.06.06-.17,0-.22-.11s0,0,0-.06a.19.19,0,0,1,.19.1l0,0h0v0Z" transform="translate(-753.49 -537.53)"/><path class="cls-23" d="M762.25,546.29a.45.45,0,0,1,0,.38.4.4,0,0,1,0-.38" transform="translate(-753.49 -537.53)"/><path class="cls-21" d="M762.11,546.63l-.1-.06a.14.14,0,0,1,0-.13l.07-.13.07.31h0" transform="translate(-753.49 -537.53)"/><path class="cls-24" d="M762.18,546.78h0v0h0c0-.15-.07-.29-.1-.44l0-.14h0a.19.19,0,0,1,0,.07c.06.23.12.47.17.7a.25.25,0,0,1,0,.08h0l-.07-.24" transform="translate(-753.49 -537.53)"/><path class="cls-17" d="M762,542.73v-.45a.37.37,0,0,1,0,.45" transform="translate(-753.49 -537.53)"/><path class="cls-23" d="M762.07,546a.52.52,0,0,1,0-.37.45.45,0,0,1,0,.37" transform="translate(-753.49 -537.53)"/><path class="cls-22" d="M761.84,542.79v.37h0a.29.29,0,0,1-.05-.13c0-.1,0-.2.06-.25" transform="translate(-753.49 -537.53)"/><path class="cls-21" d="M761.87,542.79a.27.27,0,0,1,0,.37Z" transform="translate(-753.49 -537.53)"/><path class="cls-23" d="M761.88,545.29a.5.5,0,0,1,0-.36.45.45,0,0,1,0,.36" transform="translate(-753.49 -537.53)"/><path class="cls-21" d="M761.78,545.78v-.09c.06,0,.06,0,.08-.14l.07.29-.15-.06" transform="translate(-753.49 -537.53)"/><path class="cls-20" d="M762.26,547.39s0,0,0,.07l.05,0,0,.07a.16.16,0,0,1,0,.06l0,0v-.07l0,0,0,0v0h0l0,0,0,0s0,0,0-.08h0v0h0l0,0h0v0h0v0h0Z" transform="translate(-753.49 -537.53)"/><path class="cls-21" d="M762.38,542.6l.17,0v0l-.12.15,0-.19v0" transform="translate(-753.49 -537.53)"/><path class="cls-25" d="M762.47,547.9c-.12-.11-.1-.06-.07-.28l.09.09,0,.19" transform="translate(-753.49 -537.53)"/><path class="cls-21" d="M762.24,542.8v.36a.26.26,0,0,1,0-.36" transform="translate(-753.49 -537.53)"/><path class="cls-17" d="M762.14,542.35v.37a.27.27,0,0,1,0-.37" transform="translate(-753.49 -537.53)"/><path class="cls-17" d="M762,542.79v.36h0A.59.59,0,0,1,762,543a.26.26,0,0,1,.07-.23" transform="translate(-753.49 -537.53)"/><path class="cls-17" d="M762.07,543.16v-.36a.25.25,0,0,1,0,.36" transform="translate(-753.49 -537.53)"/><path class="cls-23" d="M762.16,546.89c-.07.08-.14.05-.2-.09a.2.2,0,0,1,.2.09" transform="translate(-753.49 -537.53)"/><path class="cls-23" d="M762,545.89a.34.34,0,0,1,0-.35c.05.13,0,.23,0,.35" transform="translate(-753.49 -537.53)"/><path class="cls-23" d="M762,546l-.1,0s-.06-.08-.08-.14.14,0,.18.17h0" transform="translate(-753.49 -537.53)"/><path class="cls-23" d="M762.35,546.5c0,.16,0,.27-.09.28a.3.3,0,0,1,.09-.28" transform="translate(-753.49 -537.53)"/><path class="cls-23" d="M761.79,546.06c.07-.07.14,0,.19,0s-.14,0-.19,0" transform="translate(-753.49 -537.53)"/><path class="cls-23" d="M761.55,544.24c.06,0,.09.11.08.26-.06,0-.09-.12-.08-.26" transform="translate(-753.49 -537.53)"/><path class="cls-22" d="M762,547.15v-.23l.09.07-.09.16" transform="translate(-753.49 -537.53)"/><path class="cls-23" d="M761.51,544.51q.11,0,.12.18s-.09-.05-.12-.18" transform="translate(-753.49 -537.53)"/><path class="cls-23" d="M761.76,545.34a.13.13,0,0,1-.15-.11s.11,0,.15.11" transform="translate(-753.49 -537.53)"/><path class="cls-23" d="M761.68,544.27a.47.47,0,0,1,0,.33.73.73,0,0,1,0-.33" transform="translate(-753.49 -537.53)"/><path class="cls-24" d="M762,546l-.12-.44,0,0,.12.45h0" transform="translate(-753.49 -537.53)"/><path class="cls-23" d="M761.59,545c.07,0,.12,0,.16.13s-.11,0-.16-.13" transform="translate(-753.49 -537.53)"/><path class="cls-22" d="M762.66,542.81l-.08,0,0-.16v0l.11.12h0v0Z" transform="translate(-753.49 -537.53)"/><path class="cls-20" d="M762.2,547.48l0,0s0,0,0-.06l0-.06,0,0v.07h0v0h0v0h0l0,0h0v0h0Z" transform="translate(-753.49 -537.53)"/><path class="cls-23" d="M761.81,544.83a.33.33,0,0,1,0,.26.39.39,0,0,1,0-.26" transform="translate(-753.49 -537.53)"/><path class="cls-24" d="M761.79,545.17l-.08-.32,0,0,.08.32,0,0" transform="translate(-753.49 -537.53)"/><path class="cls-21" d="M761.78,545.55a.56.56,0,0,1,0-.13s0,0,0,0a.29.29,0,0,1,0,.1l0,0,0,0" transform="translate(-753.49 -537.53)"/><path class="cls-22" d="M762.14,546s0,.07,0,.1,0,0,0,0v0l.06-.11h0" transform="translate(-753.49 -537.53)"/><path class="cls-21" d="M761.93,545.28v.12s0,0,0,0,0,0,0,0a.11.11,0,0,1,0,0l0-.1" transform="translate(-753.49 -537.53)"/><path class="cls-21" d="M762,546.26l0-.11,0,.05,0,.08,0,0" transform="translate(-753.49 -537.53)"/><path class="cls-22" d="M761.83,546l-.05,0v-.13l.05.1" transform="translate(-753.49 -537.53)"/><polyline class="cls-24" points="8.76 9.48 8.76 9.48 8.76 9.48 8.76 9.48"/><path class="cls-5" d="M761.55,544.45v0h0" transform="translate(-753.49 -537.53)"/><polyline class="cls-23" points="8.48 8.47 8.48 8.48 8.48 8.48 8.48 8.47"/><path class="cls-21" d="M762.12,546.62v0h0" transform="translate(-753.49 -537.53)"/><path class="cls-15" d="M764.12,545.78V543.2l.1.16.07-.12v3.34l0-.12-.12-.64v0" transform="translate(-753.49 -537.53)"/><path class="cls-15" d="M764.39,546.6l0,0v-3.42l.08.13.07-.13a.28.28,0,0,1,0,.08v2.83a.17.17,0,0,1,0,.07l-.1.39" transform="translate(-753.49 -537.53)"/><path class="cls-21" d="M764.59,545.8l0,.12h0v-2.69l.08.13.08-.13v2.26h0v0h0v0h0v0h0v0h0l0,.08h0l0,.11h0" transform="translate(-753.49 -537.53)"/><path class="cls-19" d="M763.91,546.28l0,0,.19-.27c0,.16,0,.33.08.49s.06.32.1.49c0,0-.06,0,0,.12h-.06c-.05,0-.07,0-.09-.1l-.14-.39h0l-.08-.28" transform="translate(-753.49 -537.53)"/><path class="cls-17" d="M764.67,545.9l0-.11v1.66s0,0,0,0a1.08,1.08,0,0,0-.08-.19.69.69,0,0,1,0-.25v-.56a.89.89,0,0,1,.1-.38l0-.13Z" transform="translate(-753.49 -537.53)"/><path class="cls-17" d="M764.42,541.69l.21.39a.17.17,0,0,1,0,.07,1.55,1.55,0,0,0,0,.15c0-.09-.1-.13-.1-.25s0-.09,0-.07,0,.26-.05.39a.69.69,0,0,1-.09-.23.05.05,0,0,0,0,0,.45.45,0,0,1-.12.37v-.39s0,0,0,0l.25-.35" transform="translate(-753.49 -537.53)"/><path class="cls-20" d="M763.84,546.62l0,.06,0-.13a.33.33,0,0,0,0,.06c0,.14.1.28.14.42s0,.1.09.08.1,0,.14.1a.11.11,0,0,0,0,0h0l-.17-.1v0l.06.14h0l0,.12c-.07-.27-.18-.47-.26-.7,0,0,0-.07,0-.11h0" transform="translate(-753.49 -537.53)"/><path class="cls-25" d="M764.5,546.23a.83.83,0,0,0,0-.15l0-.05a.27.27,0,0,1,0,.09l-.09.33v0h0l0,.08h0v0h0s0,.07,0,.11l0,.19h0c0,.05-.07,0-.09,0a.21.21,0,0,1,0-.19l.06-.1.11-.38" transform="translate(-753.49 -537.53)"/><path class="cls-17" d="M763.68,546.47l.19-.17.06.19h0l0,.1-.05,0,0,.13-.1-.2" transform="translate(-753.49 -537.53)"/><path class="cls-21" d="M764.49,546.5s0,0,0,0v.6l-.1-.17v-.06h0s0,0,0,0a2.18,2.18,0,0,0,0-.25h0v0h0l0-.08Z" transform="translate(-753.49 -537.53)"/><path class="cls-25" d="M764.87,545.1l-.12.4a.5.5,0,0,1,0,.13s0,0,0,0v-.07h0v0h0v0h0v0h0v0h0l.08-.27,0-.15s0-.05,0-.05,0,0,0,.08" transform="translate(-753.49 -537.53)"/><path class="cls-21" d="M764.68,542.22a4.1,4.1,0,0,1,0,.49c-.09-.07-.1-.31,0-.49" transform="translate(-753.49 -537.53)"/><path class="cls-22" d="M764.54,542.3a.36.36,0,0,1,0,.43Z" transform="translate(-753.49 -537.53)"/><path class="cls-21" d="M764.5,542.27v.45c-.1-.08-.09-.25,0-.45" transform="translate(-753.49 -537.53)"/><path class="cls-17" d="M764.29,542.75l-.1-.18.11-.22v.39h0" transform="translate(-753.49 -537.53)"/><path class="cls-22" d="M764.43,542.8a.26.26,0,0,1,0,.37Z" transform="translate(-753.49 -537.53)"/><path class="cls-20" d="M764.27,547.48s0,.09,0,.09h0s0,.09,0,.07a.4.4,0,0,1-.07-.13v0l.08-.1h0v0h0v0h0v0h0v0h0Zm-.08,0h0l0,0h0v0l0,0v0l0,0h0v0" transform="translate(-753.49 -537.53)"/><path class="cls-21" d="M764.61,542.79v.39c0-.07-.07-.09-.08-.17a.25.25,0,0,1,.08-.22" transform="translate(-753.49 -537.53)"/><path class="cls-22" d="M764.63,542.78a.29.29,0,0,1,0,.39v-.39Z" transform="translate(-753.49 -537.53)"/><path class="cls-21" d="M764.1,542.62l-.05.2-.12-.15a.15.15,0,0,1,.17,0" transform="translate(-753.49 -537.53)"/><path class="cls-17" d="M764.4,542.79v.38a.94.94,0,0,1-.06-.15.25.25,0,0,1,.07-.23" transform="translate(-753.49 -537.53)"/><path class="cls-17" d="M764.33,542.36a.27.27,0,0,1,0,.37Z" transform="translate(-753.49 -537.53)"/><path class="cls-17" d="M764.23,543.17v-.37a.27.27,0,0,1,0,.37" transform="translate(-753.49 -537.53)"/><path class="cls-25" d="M764.07,547.92v-.22l.09.09-.09.13" transform="translate(-753.49 -537.53)"/><path class="cls-21" d="M763.8,542.78l.12-.11,0,.18-.1-.07" transform="translate(-753.49 -537.53)"/><path class="cls-20" d="M764.22,547.39v-.07l0,0,0,.06a.11.11,0,0,1,0,.06l0,0h0v0h0v0h0v0h0v0h0Z" transform="translate(-753.49 -537.53)"/><path class="cls-25" d="M764.35,547.07s0,0,0,0,0,0,0-.07,0,0,0,0,0,0,.05.06v0" transform="translate(-753.49 -537.53)"/><path class="cls-24" d="M764.67,545.9s-.08,0-.08-.1h0s.07,0,.08.1h0" transform="translate(-753.49 -537.53)"/><path class="cls-12" d="M764.5,546.23l-.11.38h0l.1-.39v0" transform="translate(-753.49 -537.53)"/><path class="cls-24" d="M764.61,546l0-.08,0,0a.09.09,0,0,1,0,.06l0,0" transform="translate(-753.49 -537.53)"/><path class="cls-24" d="M764.63,545.69h0a.25.25,0,0,1,0,.07l0,0a.43.43,0,0,1,0-.07v0Z" transform="translate(-753.49 -537.53)"/><path class="cls-21" d="M764.55,546h0v0h0" transform="translate(-753.49 -537.53)"/><polyline class="cls-12" points="11.28 7.67 11.27 7.67 11.28 7.67"/><path class="cls-18" d="M763.07,546.7l.17.2.17-.2c.06.25.13.51.2.76a2.77,2.77,0,0,0,.28.7l-.17.12s0,0,0,0a4.64,4.64,0,0,1-.33-1.11s0,0,0-.08a2.46,2.46,0,0,0,0,.72c0,.23.09.46.13.69l-.27.32-.27-.32c0-.23.09-.46.12-.69a2.85,2.85,0,0,0,0-.72l0,.15a4.61,4.61,0,0,1-.32,1l0,0-.16-.11c.07-.18.15-.35.21-.55s.16-.56.24-.84a.24.24,0,0,1,0-.08" transform="translate(-753.49 -537.53)"/><path class="cls-26" d="M762.4,544.68c0-.55,0-1.09,0-1.64h1.69v1.64h0l-.27-.25a.61.61,0,0,1-.07.1l-.16.13s0,0,0,0l0,0a1.06,1.06,0,0,0,.12-1.19l-.18-.29a.38.38,0,0,0,0,.15c0,.08,0,.16.05.24a1.54,1.54,0,0,1,0,.48c0,.17-.07.27-.16.3l0,0s-.05,0-.07,0,0,0-.08,0,0,.08-.11,0,0,0-.07,0-.05.05-.07,0l0,0c-.08,0-.12-.11-.15-.25a1.42,1.42,0,0,1,0-.41c0-.12,0-.24.07-.36a.76.76,0,0,0,0-.15,3.79,3.79,0,0,0-.2.34,1.16,1.16,0,0,0,0,.93.54.54,0,0,0,.18.23s0,0,0,.06a.59.59,0,0,1-.24-.23l-.27.25h0m.79-1.29-.14-.12.06.26-.14.1.14.1-.06.26.14-.12,0,.26,0-.26.14.11-.06-.25.14-.1-.14-.1.06-.26-.14.12,0-.27,0,.27" transform="translate(-753.49 -537.53)"/><path class="cls-27" d="M764.07,544.68h0v1.14a.33.33,0,0,1-.06.19,1.37,1.37,0,0,1-.19.22l-.47.41a.81.81,0,0,0-.12.14,3.48,3.48,0,0,0-.49-.46l-.27-.27a.46.46,0,0,1-.08-.31v-1.06h0l.26.27.12-.15.13-.13-.06.24.07,0c.11.05.16.14.18.35s0,.16,0,.23h0c0-.18,0-.21-.16-.21a3.41,3.41,0,0,1,0,.72l0,0h0a.19.19,0,0,0,0,.27.75.75,0,0,1,.11.13.12.12,0,0,0,.21,0l.14-.18a.17.17,0,0,0,0-.18.09.09,0,0,0,0,0,.13.13,0,0,0,0-.06c0-.14,0-.28,0-.41a2.58,2.58,0,0,1,0-.29c-.15,0-.14,0-.16.21h0a1.7,1.7,0,0,1,0-.22c0-.21.06-.31.17-.36l.08,0-.07-.22h0v0l.25.27.25-.26m-1.47.89c-.07,0-.1.06-.1.15a.16.16,0,0,0,.09.18c0,.13,0,.2,0,.23s.08,0,.13-.1c0,.06.09.05.12,0a.28.28,0,0,0,0-.25.27.27,0,0,0,0-.24c0-.07-.06-.08-.13,0s-.06-.16-.11-.13-.06.09-.06.21m1.33.09c0-.15-.15-.23-.24-.17a.33.33,0,0,0-.12.32c0,.16.08.31.16.33-.06-.3,0-.51.2-.48m-.45-.63-.07.13.07.12.07-.11-.07-.14m-.56.13.07.13.07-.12L763,545l-.08.12" transform="translate(-753.49 -537.53)"/><path class="cls-17" d="M763.14,541.34l0-.08c.08-.08.15,0,.23.11,0-.13-.12-.21-.19-.19a.14.14,0,0,1-.12,0s-.06,0-.09,0,0-.08,0-.09a.27.27,0,0,1,.25.06l.18.16v0l.06.08,0,0,0,.13-.06,0c0,.07,0,.14,0,.21a.34.34,0,0,1,0,.1,1.06,1.06,0,0,0,0,.56c0,.13.06.25.08.36s-.15-.2-.15-.36v-.32a.13.13,0,0,0,0-.06,2.36,2.36,0,0,0,0,.84h0c-.07,0-.13-.16-.13-.28v-.48s0-.05,0-.07h0v.63a.52.52,0,0,1,0,.11.13.13,0,0,1,0-.13v-.56a.43.43,0,0,1,0-.05h0s0,0,0,.06,0,.3,0,.45a.4.4,0,0,1-.14.34,2.44,2.44,0,0,0,.08-.85h0s0,0,0,.06v.3a.4.4,0,0,1-.08.3.22.22,0,0,1-.07.09l0-.09a2.39,2.39,0,0,0,0-1.1s0-.06,0-.07,0,0,0,0l.08.06s0-.06,0-.08a.13.13,0,0,1,0-.12h0l0,0Z" transform="translate(-753.49 -537.53)"/><path class="cls-25" d="M762.79,541.28s0-.1,0-.15V541l-.13,0v-.09l.14,0,0-.27h.05v.27l.14,0V541l0,0-.1,0a1,1,0,0,1,0,.31" transform="translate(-753.49 -537.53)"/><path class="cls-20" d="M763,541.24l0,.13h0l0,0h0l0,0h0v0h0v0h-.13c0-.06.06,0,.1-.06s.07,0,.1.06h0" transform="translate(-753.49 -537.53)"/><path class="cls-28" d="M763,541.34v.07l-.17-.07v0l0,0,.12,0h0l0,0Z" transform="translate(-753.49 -537.53)"/><path class="cls-25" d="M762.83,541.68l0,.1,0-.08h0v-.26s0-.08,0-.12v.26a.44.44,0,0,0,0,.1" transform="translate(-753.49 -537.53)"/><path class="cls-22" d="M763,541.24h0s0-.08,0-.07a.18.18,0,0,1,.07.05h0v0h0l0,.06,0-.06" transform="translate(-753.49 -537.53)"/><path class="cls-24" d="M763.1,541.22h0s0,.06,0,.12h0l0,0h0a.1.1,0,0,1,0-.11h0v0" transform="translate(-753.49 -537.53)"/><path class="cls-20" d="M762.92,541.42l.09,0,0,.08-.06-.1" transform="translate(-753.49 -537.53)"/><path class="cls-20" d="M763,541.27v0h0Z" transform="translate(-753.49 -537.53)"/><polyline class="cls-17" points="9.93 5.32 9.94 5.33 9.93 5.33 9.93 5.32 9.93 5.32"/><polyline class="cls-20" points="9.54 3.83 9.54 3.84 9.54 3.83 9.54 3.83"/><path class="cls-25" d="M765,544.56s0,0,.06.07a.24.24,0,0,0,0,.08c0,.09-.07.18-.1.27s0,0,0-.05l.06-.3,0-.07" transform="translate(-753.49 -537.53)"/><path class="cls-13" d="M764.89,545c0-.09.06-.18.1-.27a.24.24,0,0,1,0-.08h0a.19.19,0,0,1,0,.08l-.06.11h0l0,0h0l0,.11h0" transform="translate(-753.49 -537.53)"/><path class="cls-13" d="M765,544.56l0,.07-.06.3h0v0h0v0h0v0h0a1.1,1.1,0,0,0,0-.18c0-.06,0-.09.05-.09v0" transform="translate(-753.49 -537.53)"/><path class="cls-25" d="M765,544.54s0,0-.05.09a1.1,1.1,0,0,1,0,.18v-.29H765" transform="translate(-753.49 -537.53)"/><path class="cls-25" d="M765,544.39h0a.25.25,0,0,0,0,.07l0,0,0-.08v0Z" transform="translate(-753.49 -537.53)"/><path class="cls-24" d="M765,544.82l.06-.11a.19.19,0,0,0,0-.08l.05.07-.12.12" transform="translate(-753.49 -537.53)"/><path class="cls-24" d="M765.06,544.26v.13l0-.06,0-.07" transform="translate(-753.49 -537.53)"/><path class="cls-24" d="M764.9,545l0-.11V545h0" transform="translate(-753.49 -537.53)"/><path class="cls-25" d="M764.86,544.87v0h0s0,0,0,0,0,0,0,0" transform="translate(-753.49 -537.53)"/><path class="cls-24" d="M764.94,544.87l0,0,0,0" transform="translate(-753.49 -537.53)"/><path class="cls-25" d="M764.88,544.8v0" transform="translate(-753.49 -537.53)"/><path class="cls-25" d="M764.87,544.84v0" transform="translate(-753.49 -537.53)"/><polygon class="cls-24" points="11.53 7.06 11.53 7.06 11.53 7.06 11.53 7.06"/><path class="cls-7" d="M762.66,542.81v0" transform="translate(-753.49 -537.53)"/><path class="cls-7" d="M762.17,546.75v0" transform="translate(-753.49 -537.53)"/><path class="cls-7" d="M762.25,547.54l0,0v0l0,0h0" transform="translate(-753.49 -537.53)"/><path class="cls-7" d="M762.26,547.55l0,0h0l0,0h0" transform="translate(-753.49 -537.53)"/><path class="cls-7" d="M762.22,547.45l0,0,0,0" transform="translate(-753.49 -537.53)"/><path class="cls-7" d="M762.25,547.4h0" transform="translate(-753.49 -537.53)"/><path class="cls-7" d="M762.24,547.42v0" transform="translate(-753.49 -537.53)"/><path class="cls-7" d="M762.23,547.44v0" transform="translate(-753.49 -537.53)"/><path class="cls-7" d="M762.21,547.47v0" transform="translate(-753.49 -537.53)"/><path class="cls-7" d="M762.2,547.48h0" transform="translate(-753.49 -537.53)"/><path class="cls-7" d="M762.27,547.49h0v0" transform="translate(-753.49 -537.53)"/><path class="cls-8" d="M764.7,545.49v0" transform="translate(-753.49 -537.53)"/><path class="cls-8" d="M764.68,545.58v0" transform="translate(-753.49 -537.53)"/><path class="cls-8" d="M764.69,545.52v0" transform="translate(-753.49 -537.53)"/><path class="cls-8" d="M764.68,545.55v0" transform="translate(-753.49 -537.53)"/><path class="cls-8" d="M764.45,546.61a2.18,2.18,0,0,1,0,.25s0,0,0,0l0-.19s0-.08,0-.11" transform="translate(-753.49 -537.53)"/><path class="cls-8" d="M764.49,546.5l0,.08,0-.08" transform="translate(-753.49 -537.53)"/><path class="cls-8" d="M764.46,546.58v0" transform="translate(-753.49 -537.53)"/><path class="cls-8" d="M764.22,547.55l0,0h0l0,0h0" transform="translate(-753.49 -537.53)"/><path class="cls-8" d="M764.19,547.51v0h0l0,0v0" transform="translate(-753.49 -537.53)"/><path class="cls-8" d="M764.26,547.47h0" transform="translate(-753.49 -537.53)"/><path class="cls-8" d="M764.22,547.39h0" transform="translate(-753.49 -537.53)"/><path class="cls-8" d="M764.22,547.4v0" transform="translate(-753.49 -537.53)"/><path class="cls-8" d="M764.23,547.42v0" transform="translate(-753.49 -537.53)"/><path class="cls-8" d="M764.24,547.43v0" transform="translate(-753.49 -537.53)"/><path class="cls-8" d="M764.25,547.45v0" transform="translate(-753.49 -537.53)"/><path class="cls-8" d="M764.2,547.49v0h0v0" transform="translate(-753.49 -537.53)"/><path class="cls-8" d="M764.23,547.54v0h0" transform="translate(-753.49 -537.53)"/><path class="cls-29" d="M763.49,546.07a.09.09,0,0,1,0,0,.17.17,0,0,1,0,.18l-.14.18a.12.12,0,0,1-.21,0,.75.75,0,0,0-.11-.13.19.19,0,0,1,0-.27v0h0v0h0v0h0l0,0h0a.32.32,0,0,0,0-.09c0-.12,0-.24,0-.36s0-.15,0-.23-.07-.3-.18-.35l-.07,0,.06-.24h0s0,0,0-.06a.54.54,0,0,1-.18-.23,1.16,1.16,0,0,1,0-.93,3.79,3.79,0,0,1,.2-.34.76.76,0,0,1,0,.15c0,.12,0,.24-.07.36a1.42,1.42,0,0,0,0,.41c0,.14.07.23.15.25l0,0s.05,0,.07,0,0,0,.07,0,.06.08.11,0,.05,0,.08,0,0,.05.07,0l0,0c.09,0,.14-.13.16-.3a1.54,1.54,0,0,0,0-.48c0-.08,0-.16-.05-.24a.38.38,0,0,1,0-.15l.18.29a1.06,1.06,0,0,1-.12,1.19l0,0s0,0,0,0h0v0h0l.07.22-.08,0c-.11.05-.16.15-.17.36a1.7,1.7,0,0,0,0,.22c0,.13,0,.26,0,.39s0,.06,0,.09h0v0h0l0,0h0v0Zm-.6-2.81c0,.09-.09.16-.13.25a1,1,0,0,0,.08.94l.14.14-.07.27,0,0c.12,0,.18.16.19.38s0,.31,0,.47a.46.46,0,0,1-.11.37.13.13,0,0,0,0,.18l.12.13a.08.08,0,0,0,.15,0l.12-.13a.12.12,0,0,0,0-.18l0,0a.37.37,0,0,1-.07-.25v-.5c0-.28,0-.37.2-.45h0l-.06-.28.09-.08a.9.9,0,0,0,.2-.74,1.14,1.14,0,0,0-.2-.5h0v0c0,.12,0,.23.08.35a1.06,1.06,0,0,1,0,.47c0,.13-.08.22-.16.23s0,0,0,0-.06,0-.09,0,0,0-.06,0-.07.06-.12,0l0,0c0,.08-.09.06-.14,0h0c-.09,0-.14-.1-.17-.23a1.24,1.24,0,0,1,0-.47c0-.12,0-.23.07-.35v0h0" transform="translate(-753.49 -537.53)"/><path class="cls-30" d="M763.19,543.39l0-.27,0,.27.14-.12-.06.26.14.1-.14.1.06.25-.14-.11,0,.26,0-.26-.14.12.06-.26-.14-.1.14-.1-.06-.26.14.12m-.06,0h0v0l0,.14-.09.06.09.06,0,.14v0h0l.07-.06,0,.16,0-.16.08.06h0v0l0-.14.09-.06-.09-.07,0-.13v0h0l-.07.06,0-.16,0,.16-.07-.06" transform="translate(-753.49 -537.53)"/><path class="cls-8" d="M763.57,544.67h0l.16-.13a.61.61,0,0,0,.07-.1l.27.25-.25.26-.25-.27m.24.21.17-.19-.17-.18-.14.17.14.2" transform="translate(-753.49 -537.53)"/><path class="cls-7" d="M762.91,544.66h0l-.13.13-.12.15-.26-.27.27-.25a.59.59,0,0,0,.24.23m-.25-.15-.17.18.16.18h0a1.33,1.33,0,0,0,.14-.19l-.15-.17" transform="translate(-753.49 -537.53)"/><path class="cls-11" d="M762.6,545.57q0-.18.06-.21c.05,0,.09,0,.11.13s.11,0,.13,0a.27.27,0,0,1,0,.24.28.28,0,0,1,0,.25c0,.06-.07.07-.12,0,0,.11-.08.13-.13.1s0-.1,0-.23a.16.16,0,0,1-.09-.18c0-.09,0-.13.1-.15m0,.29,0,0c0,.05,0,.1,0,.14s0,0,.08,0a.2.2,0,0,0,0-.11l-.11-.08v-.24l.12-.07a.12.12,0,0,0,0-.12,0,0,0,0,0-.07,0,.18.18,0,0,0,0,.15v0s-.06,0-.08,0a.57.57,0,0,0,0,.13c0,.06.05.08.08.07h0m.09,0s.06,0,.06-.11,0-.13-.06-.13-.07.06-.07.13,0,.11.07.11m.11-.11s0,0,0-.11a.12.12,0,0,0,0-.13s-.06,0-.08.05l.07.19m0,0-.08.17s0,.09.08.06a.18.18,0,0,0,0-.11.11.11,0,0,0,0-.12" transform="translate(-753.49 -537.53)"/><path class="cls-31" d="M763.93,545.66c-.16,0-.26.18-.2.48-.08,0-.15-.17-.16-.33a.33.33,0,0,1,.12-.32c.09-.06.19,0,.24.17m-.09-.07c-.09-.08-.17-.05-.21.06a.4.4,0,0,0,0,.34.44.44,0,0,1,.17-.4" transform="translate(-753.49 -537.53)"/><path class="cls-31" d="M763.38,545.52c0-.19,0-.17.16-.21a2.58,2.58,0,0,0,0,.29c0,.13,0,.27,0,.41a.13.13,0,0,1,0,.06h0l0,0h0l0,0h0v0h0a.94.94,0,0,1,0-.3v-.17m.07.41h0l0-.54c-.06,0-.07,0-.08.14a1.92,1.92,0,0,0,0,.24c0,.06,0,.12,0,.17" transform="translate(-753.49 -537.53)"/><path class="cls-31" d="M763,546.05l0,0a3.41,3.41,0,0,0,0-.72c.13,0,.15,0,.16.21a1.6,1.6,0,0,1,0,.44h0l0,0h0v0h0v0h0m0-.67,0,.55a.29.29,0,0,0,.06-.19v-.19c0-.14,0-.15-.09-.17" transform="translate(-753.49 -537.53)"/><path class="cls-31" d="M763.48,545l.07.14-.07.11-.07-.12.07-.13m0,.13,0-.07,0,.07,0,.07,0-.07" transform="translate(-753.49 -537.53)"/><path class="cls-31" d="M762.92,545.16,763,545l.06.13-.07.12-.07-.13m0,0,0,.06,0-.07,0-.07,0,.08" transform="translate(-753.49 -537.53)"/><path class="cls-32" d="M763.38,545.52v.17a.94.94,0,0,0,0,.3s0,0,0-.09,0-.26,0-.39h0" transform="translate(-753.49 -537.53)"/><path class="cls-32" d="M763.06,546a1.6,1.6,0,0,0,0-.44h0c0,.12,0,.24,0,.36a.32.32,0,0,1,0,.09" transform="translate(-753.49 -537.53)"/><path class="cls-32" d="M763,546.05h0v0h0" transform="translate(-753.49 -537.53)"/><polyline class="cls-26" points="10.07 7.15 10.07 7.15 10.07 7.15"/><path class="cls-11" d="M763.12,541.35l0,0,0,0" transform="translate(-753.49 -537.53)"/><path class="cls-11" d="M763,541.27h0v0h0" transform="translate(-753.49 -537.53)"/><path class="cls-11" d="M763,541.34l0,0,0,0" transform="translate(-753.49 -537.53)"/><path class="cls-11" d="M763,541.32h0" transform="translate(-753.49 -537.53)"/><path class="cls-11" d="M763.1,541.22v0" transform="translate(-753.49 -537.53)"/><path class="cls-19" d="M763.59,543.26a1.14,1.14,0,0,1,.2.5.9.9,0,0,1-.2.74l-.09.08.06.28h0c-.15.08-.19.17-.2.45v.5a.37.37,0,0,0,.07.25l0,0a.12.12,0,0,1,0,.18l-.12.13a.08.08,0,0,1-.15,0l-.12-.13a.13.13,0,0,1,0-.18.46.46,0,0,0,.11-.37c0-.16,0-.31,0-.47s-.07-.34-.19-.38l0,0,.07-.27-.14-.14a1,1,0,0,1-.08-.94c0-.09.08-.16.13-.25v0c0,.12,0,.23-.07.35a1.24,1.24,0,0,0,0,.47c0,.13.08.22.17.23h0s.09.07.14,0l0,0c.05.06.07.06.12,0s0,0,.06,0,0,0,.09,0,0,0,0,0,.13-.1.16-.23a1.06,1.06,0,0,0,0-.47c0-.12,0-.23-.08-.35v0m-.14,3v0c0-.05-.08-.08-.11-.05a.08.08,0,0,0,0,.05.12.12,0,0,0,0,0l.11,0m-.43,0s.07.06.11,0a.08.08,0,0,0,0,0,.2.2,0,0,0,0-.05.09.09,0,0,0-.12.05" transform="translate(-753.49 -537.53)"/><path class="cls-32" d="M763,546v0" transform="translate(-753.49 -537.53)"/><path class="cls-32" d="M763.44,546l0,0,0,0" transform="translate(-753.49 -537.53)"/><path class="cls-32" d="M763,546l0,0,0,0" transform="translate(-753.49 -537.53)"/><path class="cls-32" d="M763.46,546l0,0h0v0" transform="translate(-753.49 -537.53)"/><path class="cls-27" d="M763.47,546.06h0" transform="translate(-753.49 -537.53)"/><path class="cls-19" d="M763.58,543.28v0h0v0" transform="translate(-753.49 -537.53)"/><path class="cls-19" d="M762.89,543.26h0v0" transform="translate(-753.49 -537.53)"/><path class="cls-32" d="M763.43,546v0" transform="translate(-753.49 -537.53)"/><path class="cls-32" d="M763,546v0" transform="translate(-753.49 -537.53)"/><path class="cls-28" d="M763.35,543.43l0,.13.09.07-.09.06,0,.14h0l-.08-.06,0,.16,0-.16-.07.06h0l0-.14-.09-.06.09-.06,0-.14v0l.07.06,0-.16,0,.16.07-.06v0" transform="translate(-753.49 -537.53)"/><path class="cls-28" d="M763.34,543.41h0v0" transform="translate(-753.49 -537.53)"/><path class="cls-28" d="M763.13,543.43v0h0v0" transform="translate(-753.49 -537.53)"/><path class="cls-28" d="M763.35,543.83v0h0" transform="translate(-753.49 -537.53)"/><path class="cls-28" d="M763.13,543.84h0v0h0" transform="translate(-753.49 -537.53)"/><path class="cls-19" d="M763.81,544.88l-.14-.2.14-.17.17.18-.17.19" transform="translate(-753.49 -537.53)"/><path class="cls-19" d="M762.66,544.51l.15.17a1.33,1.33,0,0,1-.14.19h0l-.16-.18.17-.18" transform="translate(-753.49 -537.53)"/><path class="cls-28" d="M762.72,545.87s-.06,0-.07-.11,0-.13.07-.13.06.06.06.13,0,.11-.06.11" transform="translate(-753.49 -537.53)"/><path class="cls-28" d="M762.63,545.63v.24h0s-.06,0-.08-.07a.57.57,0,0,1,0-.13s.05,0,.08,0Z" transform="translate(-753.49 -537.53)"/><path class="cls-28" d="M762.83,545.76l-.07-.19c0-.05,0-.07.08-.05a.12.12,0,0,1,0,.13c0,.06,0,.1,0,.11" transform="translate(-753.49 -537.53)"/><path class="cls-28" d="M762.83,545.78a.11.11,0,0,1,0,.12.18.18,0,0,1,0,.11s-.07,0-.08-.06l.08-.17" transform="translate(-753.49 -537.53)"/><path class="cls-28" d="M762.63,545.63v0a.18.18,0,0,1,0-.15,0,0,0,0,1,.07,0,.12.12,0,0,1,0,.12l-.12.07h0" transform="translate(-753.49 -537.53)"/><path class="cls-28" d="M762.63,545.87l.11.08a.2.2,0,0,1,0,.11s-.06,0-.08,0,0-.09,0-.14l0,0h0" transform="translate(-753.49 -537.53)"/><path class="cls-28" d="M763.84,545.59a.44.44,0,0,0-.17.4.4.4,0,0,1,0-.34c0-.11.12-.14.21-.06" transform="translate(-753.49 -537.53)"/><path class="cls-28" d="M763.45,545.93s0-.11,0-.17a1.92,1.92,0,0,1,0-.24c0-.12,0-.13.08-.14l0,.54h0" transform="translate(-753.49 -537.53)"/><path class="cls-28" d="M763,545.38c.08,0,.08,0,.09.17v.19a.29.29,0,0,1-.06.19l0-.55" transform="translate(-753.49 -537.53)"/><path class="cls-25" d="M763.52,545.16l0,.07,0-.07,0-.07,0,.07" transform="translate(-753.49 -537.53)"/><path class="cls-25" d="M763,545.17l0-.08,0,.07,0,.07,0-.06" transform="translate(-753.49 -537.53)"/><path class="cls-11" d="M763.45,546.24l-.11,0a.12.12,0,0,1,0,0,.08.08,0,0,1,0-.05s.09,0,.11.05v0" transform="translate(-753.49 -537.53)"/><path class="cls-11" d="M763,546.21a.09.09,0,0,1,.12-.05.2.2,0,0,1,0,.05.08.08,0,0,1,0,0s-.07,0-.11,0" transform="translate(-753.49 -537.53)"/></g><g class="cls-33"><path class="cls-3" d="M753.49,550v-9.78H760V550h-6.52" transform="translate(-753.49 -537.53)"/></g><g class="cls-34"><path class="cls-4" d="M766.53,540.25h6.52V550h-6.52Z" transform="translate(-753.49 -537.53)"/></g><g class="cls-33"><path class="cls-5" d="M766.53,540.25V550H760v-9.78Zm-1.33,4.88s.06-.06.08-.11,0,0,.06-.07a.24.24,0,0,1,.08-.06s0,0,0-.06l-.06-.07a.22.22,0,0,0,.07-.23l-.07.05s-.06,0,0,.08h0l0,0s0,0,0,0h0c-.09,0-.09,0-.08.09a.58.58,0,0,1,0,.14s0,.09,0,.13a1,1,0,0,0,0,.1v-1.79a.41.41,0,0,0,0-.19,1.32,1.32,0,0,0-.29-.33c-.1-.07-.07-.08-.17,0a3.88,3.88,0,0,0-.31.26.06.06,0,0,0,0,0c0,.07,0,.15,0,.22s0,0,0,0l-.2.08-.3.14-.06,0a.48.48,0,0,1-.15-.28.54.54,0,0,1,0-.22c0-.08.07-.16,0-.25l.07,0,0-.14.06,0-.09-.09.06,0-.29-.12a.6.6,0,0,0-.3,0l-.1,0a.1.1,0,0,1-.08,0l-.11,0v-.1h.11l0,0v-.15l-.16,0v0a.83.83,0,0,1,0-.15h-.13l0,.15v0l-.15,0a.16.16,0,0,0,0,.15c0-.06.09,0,.15,0s0,.24,0,.35a.52.52,0,0,1,0,.11l.06.07.07-.08,0,0v-.16a.24.24,0,0,1,.21.2.93.93,0,0,1-.07.57.25.25,0,0,1-.15.15l-.36-.18-.07,0s-.08,0-.09,0,0-.07,0-.11a0,0,0,0,1,0,0,.15.15,0,0,0-.07-.19l-.29-.24s0,0-.05,0a1,1,0,0,0-.36.39.32.32,0,0,0,0,.16c0,.38,0,.75,0,1.12v.07l0-.07a.36.36,0,0,0,0,.09l-.14-.1a.36.36,0,0,0,0,.21h0l-.11,0c0,.11.09.2.2.21a.22.22,0,0,0,0,.08s0,0,0,0,.05-.06.07-.09h0l0,.15-.2,0v0l0,.06-.06,0a.31.31,0,0,0,.21.16v.05c0,.4,0,.81,0,1.22a2.45,2.45,0,0,1,0,.27v0h0a1.26,1.26,0,0,0,.26-.31h0l.18-.19,0,0c0,.06,0,.06,0,.11l0,0a.15.15,0,0,0,0,.17s0,0,0,0l.07.08s.07,0,.12,0l0,0h0a.5.5,0,0,1,0,.12l0,0,.15.08a1.29,1.29,0,0,0,0-.19l-.1-.06a.07.07,0,0,1,0-.09.33.33,0,0,1,.06-.1,1.55,1.55,0,0,1,.33-.39l.12-.11.21.09a3,3,0,0,1-.38.68.83.83,0,0,1-.3.29l.4.2.27-.38a1.25,1.25,0,0,1-.2.42,1.5,1.5,0,0,1,.48.38,1.57,1.57,0,0,1,.47-.38,1.46,1.46,0,0,1-.19-.42l.27.38.39-.19a2.38,2.38,0,0,1-.68-1l.21-.1a2.48,2.48,0,0,1,.58.71l-.08.06V547l.16-.11,0-.05,0,0a.08.08,0,0,0,.09,0,.27.27,0,0,1,.08-.1c.06,0,.06-.06.05-.1a.45.45,0,0,0-.06-.12l0,0s0,0,0,0c.15.19.2.23.24.2a1,1,0,0,0,.25.31c0-.09,0-.18,0-.27v-1.22l0,0,.11-.19" transform="translate(-753.49 -537.53)"/><path class="cls-6" d="M760,550h13v-9.78h0V550H760" transform="translate(-753.49 -537.53)"/></g><g class="cls-34"><path class="cls-7" d="M761.38,546.87v0a2.45,2.45,0,0,0,0-.27c0-.41,0-.82,0-1.22v-.05a.31.31,0,0,1-.21-.16l.07,0,0-.06v0l.2,0,0-.15h0s0,.1-.07.09,0,0,0,0a.56.56,0,0,1,0-.08c-.11,0-.16-.1-.2-.21l.11,0h0a.36.36,0,0,1,0-.21l.14.1a.36.36,0,0,1,0-.09l0,.07v-.07c0-.37,0-.74,0-1.12a.32.32,0,0,1,0-.16,1,1,0,0,1,.36-.39s0,0,.05,0l.29.24a.15.15,0,0,1,.07.19v0s0,.09,0,.11.06,0,.09,0l.07,0,.36.18h0l-.18,0-.13-.07h0l0,.1.11,0-.1.09-.05-.07s0,0-.06,0l-.07.07-.08-.1-.07-.1a.57.57,0,0,0,0,.35l.06-.06,0,.09-.12.1-.08-.08v2s0-.09.11-.08l.09-.28v.12c0,.11-.09.21,0,.33l.08,0a.29.29,0,0,1-.17.31c.07,0,.14-.09.17,0,0-.08.11-.16.16-.25h0a1.62,1.62,0,0,1,.1-.18h0l-.07.13h.06s0,0,0,.07l.07,0a.47.47,0,0,0,0,.09l.12-.13,0,0-.12.11a1.75,1.75,0,0,0-.33.39l-.06.1a.07.07,0,0,0,0,.09l.1.06a1.29,1.29,0,0,1,0,.19l-.15-.08,0,0,0-.12h0l0,0s-.08,0-.12,0l-.07-.08s0,0,0,0a.15.15,0,0,1,0-.17l0,0c-.05-.05-.05-.05,0-.11l0,0-.18.19h0A1.26,1.26,0,0,1,761.38,546.87Zm.33-1.17h0a.19.19,0,0,0-.21-.11s0,.08.09.09l.12,0m.31,1h0v0h0l0,0,0,0,0,0s0,0,0,0l0-.05,0,0,0,0,0,0,0,0s0,.06,0,.05m0-.35h0v-.05l-.21-.46a.08.08,0,0,0,0,0h0a.2.2,0,0,0,0,.08l.12.29-.05,0a.3.3,0,0,0-.23-.06l0,0a.24.24,0,0,0,.26.06l.08.16m-.16-.25h0a1.72,1.72,0,0,0-.09-.19l-.08.08a.07.07,0,0,0,0,.08l.13,0m0-.67s0,0,0-.07V544s0,0,0,0l-.09.08-.09-.08v1.3c0,.06,0,.1,0,.14l.05,0a.76.76,0,0,1,0,.11m-.2-.48v-1l-.09.08-.09-.08v.91l.11.13,0,0,0,0m.09-1.85h0c0,.09,0,.16.07.24s.1-.07.1-.14l0,0s0,.07,0,.09a.45.45,0,0,0,.15.16v-.14a.16.16,0,0,0-.09-.19,1.74,1.74,0,0,1-.22-.18l-.21.21c-.07.07-.06.11,0,.18s.1-.08.11-.16,0,0,0,0m-.27,3.53a.49.49,0,0,0,.18-.23c0-.07,0-.15,0-.19.07,0,.07,0,0-.11l0-.06h.06v-.22l-.18-.05Zm.94-.59s0,0,0,.05-.12.17-.17.26a.11.11,0,0,1-.13.06.18.18,0,0,0-.15.07v0h0l.2-.06h0l-.07.1.06,0,0,.08.11-.17.21-.28s0,0,0-.08l-.06,0a.94.94,0,0,1,0-.09m-.95-2.46a.2.2,0,0,0,0-.31,1.05,1.05,0,0,0,0,.31m.48-.24v.28l.14-.13-.08-.07a.21.21,0,0,0-.06-.08m-.28,0a.15.15,0,0,0,0,.27Zm.38,2.56a.15.15,0,0,0,0,.24.17.17,0,0,0,0-.24m-.34-2.29c.13-.06.1-.19,0-.29Zm.12,2.13a.18.18,0,0,0,0-.24.22.22,0,0,0,0,.24m-.28-2.09a.12.12,0,0,0-.07.16.47.47,0,0,0,.06.09h0Zm0,0v.24c.12-.08.11-.17,0-.24m0,1.61a.16.16,0,0,0,0-.23.18.18,0,0,0,0,.23m-.12.32.18,0c0-.06,0-.12-.08-.19,0,.1,0,.1-.1.1Zm.72-2v0a.75.75,0,0,1,.07.12l.14-.09v0l-.2,0m.11,3.4s0-.07,0-.11l-.11-.06c0,.14-.05.11.09.17m-.27-3.27c-.15.1-.1.18,0,.23Zm-.13-.29c-.13.09-.1.19,0,.24Zm-.12.28c-.06,0-.1.08-.08.15s0,.06.07.09h0Zm0,.24c.13-.07.11-.19,0-.23Zm.11,2.4a.37.37,0,0,0-.25-.06.18.18,0,0,0,.25.06m-.16-.65c0-.07.09-.14,0-.22a.14.14,0,0,0,0,.22m.38.4a.16.16,0,0,0-.1.18c.06,0,.11-.08.1-.18m-.66-.29a.18.18,0,0,0,.22,0,.18.18,0,0,0-.22,0m-.29-1.16a.12.12,0,0,0,.09.16c0-.09,0-.15-.09-.16m.51,1.86.11-.1-.11,0v.14m-.56-1.69c0,.08.08.12.14.11a.13.13,0,0,0-.14-.11m.3.53a.16.16,0,0,0-.18-.07c0,.07.11.07.18.07m-.1-.69a.22.22,0,0,0,0,.21.18.18,0,0,0,0-.21m.37,1.11,0,0c0-.09-.1-.19-.14-.28h0c0,.09.09.19.13.29m-.47-.61a.16.16,0,0,0,.18.08.21.21,0,0,0-.18-.08m.26-.14a.15.15,0,0,0,0,.17.15.15,0,0,0,0-.17m0,.22h0l-.1-.21,0,0,.1.2m0,.25h0l0,0s0,0,0-.07,0,0,0,0,0,0,0,.09m.43.31h0l-.08.07h.07l0-.06m-.25-.48,0,0a.06.06,0,0,0,0,0h0a0,0,0,0,0,0,0v-.07m.05.63h0l0-.06,0,0,0,.08m-.17-.19-.06-.06v.08l.06,0" transform="translate(-753.49 -537.53)"/><path class="cls-8" d="M765.06,545.37v1.22c0,.09,0,.18,0,.27a1,1,0,0,1-.25-.31s-.09,0-.24-.2c0,0,0,0,0,0l0,0a.45.45,0,0,1,.06.12s0,.08-.05.1a.27.27,0,0,0-.08.1.08.08,0,0,1-.09,0l0,0,0,.05-.16.11v-.18l.08-.06a2.31,2.31,0,0,0-.58-.7l.06,0,.12.13,0-.09.06,0a.25.25,0,0,0,0-.07h.07l-.08-.12,0,0c0,.06.07.12.1.19h0l.17.25c0,.05,0,.08.11.06h.07s0-.07.06-.08-.09-.21-.12-.32-.07-.21-.1-.31v-.09l.14.41,0,.08v-2.15l-.09.08-.11-.1,0-.09.07.07a2.6,2.6,0,0,0,0-.28s0-.05,0-.08a1.56,1.56,0,0,1-.16.2l-.07-.07s0,0,0,0l-.06.07h0a.15.15,0,0,0-.19-.05h-.08l.3-.14.2-.08s0,0,0,0a1.64,1.64,0,0,0,0-.22.06.06,0,0,1,0,0,3.88,3.88,0,0,1,.31-.26c.1-.09.07-.08.17,0a1.32,1.32,0,0,1,.29.33.41.41,0,0,1,0,.19v1.79h0l-.09.18v-1.45a.36.36,0,0,0-.09.08l-.1-.08v1.72h0l0-.08c0,.06,0,.08.1.06a.56.56,0,0,1-.05.08.38.38,0,0,0-.11.25v.36a.24.24,0,0,0,.05.16l.1.12,0,0v-1.07a.25.25,0,0,0,0,.07c0-.06,0-.08-.1-.06l0-.07h0l.05,0,0,0-.05,0h0l0,0,0,0,0,0,0-.09h0m-.66,1.22-.09.06v0a.34.34,0,0,0,.09.08s0,0,0,0h0s0,0,0-.05l0,0,0,0,0,0-.05,0v.05m.32-.58a0,0,0,0,0,0,0l.11-.21v-.06a.1.1,0,0,0-.05,0l0,.09h0V544a.08.08,0,0,0,0,0l-.09.08-.09-.08v2.19l.05,0h0l-.07.06s0,.09,0,.12.06,0,.11,0v0l.12.11V546l0,0m-.07-3.09-.3.23s0,0,0,0v.25a.24.24,0,0,0,.14-.24l0,0c0,.07.07.1.11.15s.15-.14.06-.25.06,0,.06,0,.07.11.12.17l0-.1s0,0,0,0l-.25-.26m-.71,3.17h0a.19.19,0,0,0,0,.07,3.58,3.58,0,0,1,.31.45.24.24,0,0,0,0-.08h.06l-.06-.09h0l.2.06h0s0,0,0,0-.09-.08-.16-.06a.1.1,0,0,1-.11,0c0-.09-.11-.18-.17-.27l0,0s0,.05,0,.08l-.07,0m1-2.83a.2.2,0,0,0,0,.32,1.15,1.15,0,0,0,0-.32m-.18.06v.27a.15.15,0,0,0,0-.27m0,0c-.11.13-.11.23,0,.29Zm-.25.31h0v-.25l-.13.14.12.12m.17,0v.24c.13-.07.11-.18,0-.24m.21,0s-.1.07-.09.14.05.07.09.11Zm0,0v.24c.11-.06.11-.16,0-.24m-.64-.11a.27.27,0,0,0-.2,0,.71.71,0,0,0,.14.1l.06-.13m.36.11s-.1.08-.08.15.05.06.07.09h0Zm-.08-.27v.23c.12-.06.11-.17,0-.23m-.12.51c.11-.07.12-.15,0-.23Zm-.2,3.06.12-.08-.12-.06Zm-.32-3.3.12,0s0-.07,0-.12l-.15.08m.66,2.75v0l-.06,0s0,0,0,0,0,0,0,0,0,0,0,0m.31-.67,0,0,0,0,0,0,0,.05m-.07,0h0" transform="translate(-753.49 -537.53)"/><path class="cls-9" d="M763.49,546.12a2.38,2.38,0,0,0,.68,1l-.39.19-.27-.38a1.46,1.46,0,0,0,.19.42,1.57,1.57,0,0,0-.47.38,1.5,1.5,0,0,0-.48-.38,1.25,1.25,0,0,0,.2-.42l-.27.38-.4-.2a.83.83,0,0,0,.3-.29,3.52,3.52,0,0,0,.39-.68l.06,0,0,.06c-.09.18-.18.36-.28.54s-.17.23-.25.35l.18.07,0,0a2.19,2.19,0,0,0,.39-.68l0-.09a1.19,1.19,0,0,1-.05.46c0,.15-.11.3-.16.44l.33.21.32-.21c0-.14-.11-.29-.15-.44a.82.82,0,0,1,0-.46s0,0,0,0a2.07,2.07,0,0,0,.4.71.05.05,0,0,0,0,0l.21-.08a1.58,1.58,0,0,1-.34-.44l-.24-.5.06,0" transform="translate(-753.49 -537.53)"/><path class="cls-10" d="M763,546.14l-.06,0-.22-.09,0,0-.23-.11h0l-.26-.2V543.9l0-.09,0-.07h2.26l-.05.07s0,.06,0,.09v1.77l-.22.18,0,0,0,0-.22.1-.06,0-.21.1-.06,0-.2.13a1.37,1.37,0,0,1-.2-.13m1.2-1.29v-.91c0-.05,0-.1,0-.15h-2c0,.35,0,.71,0,1.06s0,.45,0,.67a.23.23,0,0,0,.1.21l.32.17a4,4,0,0,1,.59.29l.14-.08.57-.27a1.64,1.64,0,0,0,.22-.14.15.15,0,0,0,.07-.12v-.73" transform="translate(-753.49 -537.53)"/><path class="cls-11" d="M763.72,543.66h0l.08.06a.55.55,0,0,1-.33-.09l0,.09a.37.37,0,0,1-.24-.12l0,.1-.06-.1a.37.37,0,0,1-.24.12l.05-.09h0a.47.47,0,0,1-.32.1l.08-.06h0a.25.25,0,0,0,.15-.15.93.93,0,0,0,.07-.57.24.24,0,0,0-.21-.2v.16h0a.14.14,0,0,1,0-.06v-.15h0v0c0-.06,0-.13,0-.2h.13v0h-.11v.1l.11,0a.1.1,0,0,0,.08,0l.1,0a.6.6,0,0,1,.3,0l.29.12-.06,0,.09.09-.06,0,0,.14-.07,0c0,.09,0,.17,0,.25a.54.54,0,0,0,0,.22.48.48,0,0,0,.15.28l.06,0m-.64-1-.09,0s0,0,0,0a.12.12,0,0,0-.11,0c-.05,0-.09,0-.12,0h.16l0,0-.14,0,0,0v0l.21,0,0,0,0,0h0a.19.19,0,0,0,0-.08.1.1,0,0,1,0,0l0,0s0,.06,0,.08a0,0,0,0,0,0,.07l0,.05-.1,0,0,0v0a.88.88,0,0,1-.06.71l0,.06.09-.06a.24.24,0,0,0,.1-.19,1.34,1.34,0,0,1,0-.2l0,0h0a.8.8,0,0,1-.09.54c.1,0,.18-.11.17-.22a2.8,2.8,0,0,1,0-.29s0,0,0,0h0v.39a.08.08,0,0,0,0,.08.21.21,0,0,0,0-.07v-.41h0a.43.43,0,0,0,0,0v.31a.19.19,0,0,0,.15.18h0a.81.81,0,0,1-.07-.53l0,0v.21a.27.27,0,0,0,.18.24l-.1-.24a.42.42,0,0,1,0-.36.13.13,0,0,0,0-.06.66.66,0,0,1,0-.14l.07,0a.28.28,0,0,0-.06-.08l.05,0-.07-.05,0,0-.22-.1a.63.63,0,0,0-.3,0s-.06,0-.06.06a.25.25,0,0,1,.12,0,.32.32,0,0,0,.14,0,.21.21,0,0,1,.22.12c-.09-.07-.18-.13-.28-.07l0,.05s0-.07,0-.08m-.23.13.07.06,0,0h-.11" transform="translate(-753.49 -537.53)"/><path class="cls-12" d="M765.06,545.18h0l0-.11s0-.07,0-.12a.58.58,0,0,0,0-.14c0-.09,0-.09.08-.09h0s0,0,0,0l0,0v0l0,.05,0,0,0,0h0s0-.06,0-.08l.07-.05a.22.22,0,0,1-.07.23l.06.07s0,0,0,.06l-.08.05s-.06,0-.06.08-.06.07-.08.11h0s0,0,0-.06l0,0,0,.09h0m.12-.23v0h0v0h0s0,0,0,0h0l0-.08h0l0,0h0l.14-.08-.07-.05h0s0-.06-.07,0v0h-.09v.18h0v0Zm.24-.37-.07,0,.07,0Zm-.06.21Z" transform="translate(-753.49 -537.53)"/><path class="cls-13" d="M762.69,542.66v0s0,0,0,.07a1,1,0,0,1,0,.17h0s0,0,.05.05l0-.07h0l0,0-.07.08-.06-.07a.52.52,0,0,0,0-.11c0-.12,0-.23,0-.35s-.11,0-.15,0a.16.16,0,0,1,0-.15l.15,0v0l0-.15h.13a.83.83,0,0,0,0,.15v0l.16,0v.15l0,0v0l0,0v-.07h-.17c0-.06,0-.11,0-.17h-.06c0,.06,0,.11,0,.18l-.17,0v.05h.16v.1a.38.38,0,0,1,0,.1" transform="translate(-753.49 -537.53)"/><path class="cls-14" d="M765.18,545.12h0l-.11.19,0,0h0l.14-.25" transform="translate(-753.49 -537.53)"/><path class="cls-7" d="M761.38,546.87Z" transform="translate(-753.49 -537.53)"/><path class="cls-15" d="M762.17,543.9v1.65l-.09.28c-.07,0-.07,0-.11.08v-2l.08.08.12-.1" transform="translate(-753.49 -537.53)"/><path class="cls-15" d="M761.86,545.43a.76.76,0,0,0,0-.11l-.05,0a.16.16,0,0,1,0-.14v-1.3l.09.08.09-.08s0,0,0,0v1.4s0,.06,0,.07" transform="translate(-753.49 -537.53)"/><path class="cls-15" d="M761.66,545l0,0,0,0-.11-.13v-.91l.09.08.09-.08Z" transform="translate(-753.49 -537.53)"/><path class="cls-16" d="M762.73,543.66l-.08.06a.47.47,0,0,0,.32-.1h0l-.05.09a.37.37,0,0,0,.24-.12l.06.1a.47.47,0,0,0,0-.1.37.37,0,0,0,.24.12l0-.09a.63.63,0,0,0,.33.09l-.08-.06h.08a.15.15,0,0,1,.19.05h0l.06-.07s0,0,0,0l.07.07.16-.2s0,.05,0,.07a2.8,2.8,0,0,1,0,.29l-.07-.07.05-.07H762.1l0,.07-.06.06a.57.57,0,0,1,0-.35l.07.1.08.1.07-.07s0,0,.06,0l.05.07.1-.09h0l.19,0" transform="translate(-753.49 -537.53)"/><path class="cls-17" d="M761.75,543.1s0,0,0,0-.07.11-.11.16-.08-.11,0-.18l.21-.21a1.74,1.74,0,0,0,.22.18.16.16,0,0,1,.09.19v.14a.45.45,0,0,1-.15-.16s0,0,0-.09l0,0c0,.07-.06.1-.1.14s-.12-.15-.07-.24h0" transform="translate(-753.49 -537.53)"/><path class="cls-18" d="M761.48,546.63v-.86l.18.05V546h-.06l0,.06c0,.07,0,.07,0,.11.09,0,0,.12,0,.19a.54.54,0,0,1-.18.23" transform="translate(-753.49 -537.53)"/><path class="cls-19" d="M762.17,545.67l.26.2a1.62,1.62,0,0,0-.1.18h0c-.05.09-.11.17-.16.25,0-.12-.1,0-.17,0a.29.29,0,0,0,.17-.31l-.08,0c0-.12,0-.22,0-.33" transform="translate(-753.49 -537.53)"/><path class="cls-20" d="M762.42,546a.37.37,0,0,1,0,.09l.07,0s0,.06,0,.08l-.21.28-.11.17a.24.24,0,0,0,0-.08h-.06l.07-.09v0l-.2.07h0s0,0,0,0a.18.18,0,0,1,.15-.07.11.11,0,0,0,.13-.06c0-.09.11-.17.17-.26l0-.05" transform="translate(-753.49 -537.53)"/><path class="cls-17" d="M762.47,545.88l.23.11-.12.14a.94.94,0,0,0,0-.09l-.07,0a.14.14,0,0,0,0-.07h-.06l.07-.13" transform="translate(-753.49 -537.53)"/><path class="cls-21" d="M761.47,543.58a1.56,1.56,0,0,1,0-.31.19.19,0,0,1,0,.31" transform="translate(-753.49 -537.53)"/><path class="cls-22" d="M762,543.34a.21.21,0,0,1,.06.08l.08.07-.14.13Z" transform="translate(-753.49 -537.53)"/><path class="cls-22" d="M761.67,543.32v.27a.15.15,0,0,1,0-.27" transform="translate(-753.49 -537.53)"/><path class="cls-23" d="M762,546.19a.24.24,0,0,1-.26-.06l0,0a.3.3,0,0,1,.23.06l.05,0h0Z" transform="translate(-753.49 -537.53)"/><path class="cls-23" d="M762.05,545.88a.17.17,0,0,1,0,.24.15.15,0,0,1,0-.24" transform="translate(-753.49 -537.53)"/><path class="cls-21" d="M761.88,546.1l-.13,0a.07.07,0,0,1,0-.08l.08-.09.09.2h0" transform="translate(-753.49 -537.53)"/><path class="cls-24" d="M762,546.19h0l-.12-.29a.2.2,0,0,1,0-.08h0a.08.08,0,0,1,0,0l.21.46v.05h0l-.08-.16" transform="translate(-753.49 -537.53)"/><path class="cls-17" d="M761.71,543.59v-.29c.1.1.13.23,0,.29" transform="translate(-753.49 -537.53)"/><path class="cls-23" d="M761.83,545.72a.22.22,0,0,1,0-.24.18.18,0,0,1,0,.24" transform="translate(-753.49 -537.53)"/><path class="cls-22" d="M761.55,543.63v.24h0a.47.47,0,0,1-.06-.09.12.12,0,0,1,.07-.16" transform="translate(-753.49 -537.53)"/><path class="cls-21" d="M761.59,543.63c.11.07.12.16,0,.24Z" transform="translate(-753.49 -537.53)"/><path class="cls-23" d="M761.6,545.24a.18.18,0,0,1,0-.23.16.16,0,0,1,0,.23" transform="translate(-753.49 -537.53)"/><path class="cls-21" d="M761.48,545.55v-.06c.07,0,.08,0,.1-.09,0,.07,0,.13.08.19l-.18,0" transform="translate(-753.49 -537.53)"/><path class="cls-20" d="M762.06,546.59s.05,0,0,0l0,0,0,.05,0,0h0s0,0,0,0l0,0,0,0h0l0,0,0,0s0,0,0-.05h.07Z" transform="translate(-753.49 -537.53)"/><path class="cls-21" d="M762.2,543.51l.2,0v0l-.14.09a.75.75,0,0,0-.07-.12v0" transform="translate(-753.49 -537.53)"/><path class="cls-25" d="M762.31,546.91c-.14-.06-.12,0-.09-.17l.11.06s0,.07,0,.11" transform="translate(-753.49 -537.53)"/><path class="cls-21" d="M762,543.64v.23c-.1,0-.15-.13,0-.23" transform="translate(-753.49 -537.53)"/><path class="cls-17" d="M761.91,543.35v.24c-.1-.05-.13-.15,0-.24" transform="translate(-753.49 -537.53)"/><path class="cls-17" d="M761.79,543.63v.23h0s-.06-.06-.07-.09,0-.11.08-.15" transform="translate(-753.49 -537.53)"/><path class="cls-17" d="M761.83,543.87v-.23c.11,0,.13.16,0,.23" transform="translate(-753.49 -537.53)"/><path class="cls-23" d="M761.94,546.27a.18.18,0,0,1-.25-.06.37.37,0,0,1,.25.06" transform="translate(-753.49 -537.53)"/><path class="cls-23" d="M761.78,545.62a.14.14,0,0,1,0-.22c.07.08,0,.15,0,.22" transform="translate(-753.49 -537.53)"/><path class="cls-23" d="M761.71,545.7l-.12,0c-.05,0-.07,0-.09-.09a.19.19,0,0,1,.21.11h0" transform="translate(-753.49 -537.53)"/><path class="cls-23" d="M762.16,546c0,.1,0,.17-.1.18a.15.15,0,0,1,.1-.18" transform="translate(-753.49 -537.53)"/><path class="cls-23" d="M761.5,545.73a.18.18,0,0,1,.22,0,.18.18,0,0,1-.22,0" transform="translate(-753.49 -537.53)"/><path class="cls-23" d="M761.21,544.57c.07,0,.1.07.09.16a.12.12,0,0,1-.09-.16" transform="translate(-753.49 -537.53)"/><path class="cls-22" d="M761.72,546.43v-.14l.11,0-.11.1" transform="translate(-753.49 -537.53)"/><path class="cls-23" d="M761.16,544.74a.13.13,0,0,1,.14.11c-.06,0-.11,0-.14-.11" transform="translate(-753.49 -537.53)"/><path class="cls-23" d="M761.46,545.27c-.07,0-.14,0-.18-.07a.16.16,0,0,1,.18.07" transform="translate(-753.49 -537.53)"/><path class="cls-23" d="M761.36,544.58a.18.18,0,0,1,0,.21.22.22,0,0,1,0-.21" transform="translate(-753.49 -537.53)"/><path class="cls-24" d="M761.73,545.68l-.14-.28h0l.13.28h0" transform="translate(-753.49 -537.53)"/><path class="cls-23" d="M761.26,545.08a.19.19,0,0,1,.18.08.16.16,0,0,1-.18-.08" transform="translate(-753.49 -537.53)"/><path class="cls-22" d="M762.54,543.64l-.11,0a.36.36,0,0,0,0-.1h0l.13.07h0Z" transform="translate(-753.49 -537.53)"/><path class="cls-20" d="M762,546.65l0,0,0,0,0,0,0,0,0,.05H762Z" transform="translate(-753.49 -537.53)"/><path class="cls-23" d="M761.52,544.94a.15.15,0,0,1,0,.17.15.15,0,0,1,0-.17" transform="translate(-753.49 -537.53)"/><path class="cls-24" d="M761.49,545.16l-.1-.2,0,0,.1.21h0" transform="translate(-753.49 -537.53)"/><path class="cls-21" d="M761.48,545.41s0-.06,0-.09,0,0,0,0,0,.05,0,.07l0,0h0" transform="translate(-753.49 -537.53)"/><path class="cls-22" d="M761.91,545.71a.64.64,0,0,1,0,.07h-.07l.08-.07h0" transform="translate(-753.49 -537.53)"/><path class="cls-21" d="M761.66,545.23v.08a0,0,0,0,1,0,0h0a.06.06,0,0,1,0,0l0-.06" transform="translate(-753.49 -537.53)"/><path class="cls-21" d="M761.71,545.86l0-.07,0,0,0,.06,0,0" transform="translate(-753.49 -537.53)"/><path class="cls-22" d="M761.54,545.68l-.06,0v-.08l.06.06" transform="translate(-753.49 -537.53)"/><polyline class="cls-24" points="8.55 8.81 8.55 8.81 8.55 8.81 8.55 8.81"/><path class="cls-5" d="M761.2,544.7h0" transform="translate(-753.49 -537.53)"/><polyline class="cls-23" points="8.22 8.17 8.22 8.17 8.22 8.17 8.22 8.17"/><path class="cls-21" d="M761.89,546.09h0" transform="translate(-753.49 -537.53)"/><path class="cls-15" d="M764.29,545.55V543.9l.11.1.09-.08v2.15l0-.08c-.05-.14-.1-.27-.14-.41v0" transform="translate(-753.49 -537.53)"/><path class="cls-15" d="M764.6,546.08l-.05,0v-2.19l.09.08.09-.08a.08.08,0,0,1,0,0v1.87c0,.08-.08.17-.13.25" transform="translate(-753.49 -537.53)"/><path class="cls-21" d="M764.85,545.57a.25.25,0,0,0,0,.07h0v-1.72a.34.34,0,0,1,.09.08l.1-.09v1.46h0v0h0v.07h0l0,0h0l0,.07h0" transform="translate(-753.49 -537.53)"/><path class="cls-19" d="M764,545.87l0,0,.22-.18c0,.1.06.21.1.31s.08.21.12.32-.07,0-.06.08h-.07a.09.09,0,0,1-.11-.06l-.17-.25h0l-.1-.18" transform="translate(-753.49 -537.53)"/><path class="cls-17" d="M765,545.63a.25.25,0,0,1,0-.07v1.07l0,0-.1-.12a.24.24,0,0,1-.05-.16V546a.38.38,0,0,1,.11-.25.56.56,0,0,0,.05-.08Z" transform="translate(-753.49 -537.53)"/><path class="cls-17" d="M764.65,542.92l.25.26s0,0,0,0l0,.1c-.05-.06-.12-.09-.12-.17s0,0-.06,0,0,.16-.06.25-.1-.08-.1-.15l0,0a.24.24,0,0,1-.14.24v-.25s0,0,0,0l.3-.23" transform="translate(-753.49 -537.53)"/><path class="cls-20" d="M763.94,546.09l.07,0s0,0,0-.08l0,0c.06.09.12.18.17.27a.1.1,0,0,0,.11,0,.19.19,0,0,1,.16.06s0,0,0,0h0l-.2-.06h0l.06.09h-.06a.24.24,0,0,1,0,.08,3.58,3.58,0,0,0-.31-.45.19.19,0,0,1,0-.07h0" transform="translate(-753.49 -537.53)"/><path class="cls-25" d="M764.74,545.84l0-.09a.1.1,0,0,1,.05,0v.06l-.11.21a0,0,0,0,1,0,0h0l0,.05v0h0a.25.25,0,0,1,0,.07l0,.12h0s-.08,0-.11,0,0-.08,0-.12l.07-.06c0-.08.09-.17.13-.25" transform="translate(-753.49 -537.53)"/><path class="cls-17" d="M763.76,546l.22-.11.08.12H764s0,0,0,.07l-.07,0,0,.09-.12-.13" transform="translate(-753.49 -537.53)"/><path class="cls-21" d="M764.72,546l0,0v.39l-.12-.11v0h0l0,0a.92.92,0,0,0,0-.16h0v0l0-.06Z" transform="translate(-753.49 -537.53)"/><path class="cls-25" d="M765.18,545.12l-.14.25,0,.09,0,0,0,0h0v0h0v0h0v0h0l.09-.18,0-.09,0,0s0,0,0,.06" transform="translate(-753.49 -537.53)"/><path class="cls-21" d="M765,543.26a1.15,1.15,0,0,1,0,.32.2.2,0,0,1,0-.32" transform="translate(-753.49 -537.53)"/><path class="cls-22" d="M764.78,543.32a.15.15,0,0,1,0,.27Z" transform="translate(-753.49 -537.53)"/><path class="cls-21" d="M764.74,543.3v.29c-.11-.06-.11-.16,0-.29" transform="translate(-753.49 -537.53)"/><path class="cls-17" d="M764.49,543.61l-.12-.12.13-.14v.25h0" transform="translate(-753.49 -537.53)"/><path class="cls-22" d="M764.66,543.63c.12.06.13.17,0,.24Z" transform="translate(-753.49 -537.53)"/><path class="cls-20" d="M764.47,546.65s0,.05,0,.05h0s0,0,0,0a.34.34,0,0,1-.09-.08v0l.09-.06h.07Zm-.1,0h0l0,0h0v0l0,0h0v0" transform="translate(-753.49 -537.53)"/><path class="cls-21" d="M764.87,543.63v.25s-.08-.06-.09-.11,0-.1.09-.14" transform="translate(-753.49 -537.53)"/><path class="cls-22" d="M764.9,543.63c.11.08.11.18,0,.24v-.24Z" transform="translate(-753.49 -537.53)"/><path class="cls-21" d="M764.26,543.52l-.06.13a.71.71,0,0,1-.14-.1.27.27,0,0,1,.2,0" transform="translate(-753.49 -537.53)"/><path class="cls-17" d="M764.62,543.63v.23h0s-.06-.06-.07-.09,0-.11.08-.15" transform="translate(-753.49 -537.53)"/><path class="cls-17" d="M764.54,543.35c.11.07.12.18,0,.24Z" transform="translate(-753.49 -537.53)"/><path class="cls-17" d="M764.42,543.87v-.23c.12.08.11.16,0,.23" transform="translate(-753.49 -537.53)"/><path class="cls-25" d="M764.22,546.93v-.14l.12.06-.12.08" transform="translate(-753.49 -537.53)"/><path class="cls-21" d="M763.9,543.63l.15-.08c0,.05,0,.08,0,.12l-.12,0" transform="translate(-753.49 -537.53)"/><path class="cls-20" d="M764.4,546.59v-.05l.05,0,0,0,0,0,0,0h-.07Z" transform="translate(-753.49 -537.53)"/><path class="cls-25" d="M764.56,546.38l0,0-.06,0,0,0,.06,0v0" transform="translate(-753.49 -537.53)"/><path class="cls-24" d="M765,545.63c-.06,0-.1,0-.1-.06h0c.06,0,.09,0,.1.06h0" transform="translate(-753.49 -537.53)"/><path class="cls-12" d="M764.74,545.84c0,.08-.08.17-.13.25h0c0-.08.09-.17.13-.25h0" transform="translate(-753.49 -537.53)"/><path class="cls-24" d="M764.87,545.71l0-.05,0,0,0,0,0,0" transform="translate(-753.49 -537.53)"/><path class="cls-24" d="M764.9,545.5h0l.05,0,0,0-.05,0Z" transform="translate(-753.49 -537.53)"/><polyline class="cls-21" points="11.31 8.15 11.31 8.15 11.3 8.15 11.31 8.14 11.31 8.15"/><polyline class="cls-12" points="11.57 7.65 11.57 7.65 11.57 7.65"/><path class="cls-18" d="M763,546.14l.2.14.2-.14.24.5a1.58,1.58,0,0,0,.34.44l-.21.08a.05.05,0,0,1,0,0,2.07,2.07,0,0,1-.4-.71s0,0,0,0a.82.82,0,0,0,0,.46c0,.15.1.3.15.44l-.32.22-.33-.22c.05-.14.11-.29.16-.44a1.19,1.19,0,0,0,.05-.46l0,.1a2.26,2.26,0,0,1-.39.67l0,0-.18-.07c.08-.12.18-.23.25-.35s.19-.36.28-.54l0-.06" transform="translate(-753.49 -537.53)"/><path class="cls-26" d="M762.22,544.85c0-.35,0-.71,0-1.06h2c0,.05,0,.1,0,.15v.91h0l-.32-.16-.09.06-.2.08s0,0,0,0l0,0a.45.45,0,0,0,.14-.76l-.21-.19a.17.17,0,0,0,0,.1l.06.15a.55.55,0,0,1,.05.31.21.21,0,0,1-.19.19l0,0a.06.06,0,0,1-.09,0s0,0-.09,0-.07,0-.13,0a.06.06,0,0,0-.09,0s-.05,0-.09,0l0,0a.19.19,0,0,1-.17-.16.39.39,0,0,1,0-.26c0-.08.06-.16.08-.23s0-.07,0-.1a1.36,1.36,0,0,0-.25.22.44.44,0,0,0,0,.6.57.57,0,0,0,.22.15s0,0,0,0a.82.82,0,0,1-.28-.14l-.32.16h0m.94-.84-.16-.07a1.22,1.22,0,0,1,.07.17l-.17.06.17.06a1.22,1.22,0,0,1-.07.17l.16-.08c0,.06,0,.11.07.17l.06-.17.17.08-.08-.17.17-.06-.17-.06.08-.17-.17.08-.06-.18-.07.17" transform="translate(-753.49 -537.53)"/><path class="cls-27" d="M764.23,544.85h0v.73a.15.15,0,0,1-.07.12,1.64,1.64,0,0,1-.22.14l-.57.27-.14.08a4,4,0,0,0-.59-.29l-.32-.17a.23.23,0,0,1-.1-.21c0-.22,0-.45,0-.67h0l.31.17.14-.1.15-.08-.06.15.08,0a.24.24,0,0,1,.21.22.76.76,0,0,1,0,.15h0c0-.11,0-.13-.2-.13a1.19,1.19,0,0,1,0,.46l0,0h0c-.08.07-.07.12,0,.17l.12.09a.24.24,0,0,0,.26,0l.17-.12s.05-.06,0-.11l0,0,0,0v-.27c0-.06,0-.12,0-.18-.18,0-.17,0-.19.13h0v-.14a.25.25,0,0,1,.21-.23l.09,0-.07-.14h0l.3.18.31-.17m-1.76.57c-.09,0-.12,0-.13.09s0,.09.11.12,0,.13.06.15.09,0,.14-.07.12,0,.15,0,0-.09,0-.16.07-.11,0-.16-.08,0-.16,0-.07-.1-.13-.09-.08.06-.07.14m1.58.05a.26.26,0,0,0-.28-.11.19.19,0,0,0-.14.21.22.22,0,0,0,.18.21c-.07-.19.05-.32.24-.31m-.53-.4-.09.09.09.07.08-.07-.08-.09m-.67.09.08.08.09-.08-.08-.08-.09.08" transform="translate(-753.49 -537.53)"/><path class="cls-17" d="M763.11,542.7l0-.05c.1-.06.19,0,.28.07a.21.21,0,0,0-.22-.12.32.32,0,0,1-.14,0,.25.25,0,0,0-.12,0s0,0,.06-.06a.63.63,0,0,1,.3,0l.22.1,0,0,.07.05-.05,0a.28.28,0,0,1,.06.08l-.07,0a.66.66,0,0,0,0,.14.13.13,0,0,1,0,.06.42.42,0,0,0,0,.36l.1.24a.27.27,0,0,1-.18-.24v-.21l0,0a.81.81,0,0,0,.07.53h0a.19.19,0,0,1-.15-.18v-.31a.43.43,0,0,1,0,0h0v.41a.21.21,0,0,1,0,.07.08.08,0,0,1,0-.08v-.39h0s0,0,0,0a2.8,2.8,0,0,0,0,.29c0,.11-.07.18-.17.22a.8.8,0,0,0,.09-.54h0l0,0v.2a.21.21,0,0,1-.09.19l-.09.06,0-.06a.88.88,0,0,0,.06-.71s0,0,0,0l0,0,.1,0,0-.05a0,0,0,0,1,0-.07h0Z" transform="translate(-753.49 -537.53)"/><path class="cls-25" d="M762.69,542.66a.38.38,0,0,0,0-.1v-.1h-.16v-.05l.17,0c0-.07,0-.12,0-.18h.06c0,.06,0,.11,0,.17h.17v.07l0,0h-.13c0,.07,0,.14,0,.2" transform="translate(-753.49 -537.53)"/><path class="cls-20" d="M763,542.64a.19.19,0,0,1,0,.08h0l0,0h0l0,0h0l0,0h-.16s.07,0,.12,0a.12.12,0,0,1,.11,0h0" transform="translate(-753.49 -537.53)"/><path class="cls-28" d="M762.94,542.7l0,0-.21,0v0l0,0,.14,0h0Z" transform="translate(-753.49 -537.53)"/><path class="cls-25" d="M762.74,542.91l0,.07s0,0-.05-.05h0a1,1,0,0,0,0-.17s0,0,0-.07h0v.15a.14.14,0,0,0,0,.06" transform="translate(-753.49 -537.53)"/><path class="cls-22" d="M763,542.64h0s0-.06,0,0l.09,0h0l0,0,0,0" transform="translate(-753.49 -537.53)"/><path class="cls-24" d="M763.07,542.62h0s0,0,0,.08h0s-.05,0,0-.08h0v0" transform="translate(-753.49 -537.53)"/><path class="cls-20" d="M762.85,542.75H763l0,0-.07-.06" transform="translate(-753.49 -537.53)"/><path class="cls-20" d="M762.89,542.65h0Z" transform="translate(-753.49 -537.53)"/><polyline class="cls-17" points="9.96 6.14 9.96 6.14 9.96 6.15 9.96 6.14 9.96 6.14"/><polyline class="cls-20" points="9.49 5.18 9.49 5.19 9.49 5.18 9.49 5.18"/><path class="cls-25" d="M765.28,544.77s.06,0,.07,0l0,.05a1.74,1.74,0,0,0-.11.18s0,0,0,0a1.59,1.59,0,0,0,.07-.2l0,0" transform="translate(-753.49 -537.53)"/><path class="cls-13" d="M765.21,545l.11-.18,0-.05h0s0,0,0,.06l-.06.07h0l0,0h0l0,.07h0" transform="translate(-753.49 -537.53)"/><path class="cls-13" d="M765.28,544.77l0,0a1.59,1.59,0,0,1-.07.2h0v0h0v0h0v0h0a.53.53,0,0,0,0-.12.07.07,0,0,1,.06-.06v0" transform="translate(-753.49 -537.53)"/><path class="cls-25" d="M765.28,544.75a.07.07,0,0,0-.06.06.53.53,0,0,1,0,.12v-.18h.09" transform="translate(-753.49 -537.53)"/><path class="cls-25" d="M765.33,544.66h0l0,0,0,0,0-.05v0Z" transform="translate(-753.49 -537.53)"/><path class="cls-24" d="M765.29,544.94l.06-.07a.13.13,0,0,0,0-.06l.07.05-.14.08" transform="translate(-753.49 -537.53)"/><path class="cls-24" d="M765.42,544.58v.08l-.07,0,.07,0" transform="translate(-753.49 -537.53)"/><path class="cls-24" d="M765.22,545l0-.07,0,.08h0" transform="translate(-753.49 -537.53)"/><path class="cls-25" d="M765.17,545v0h0v0l0,0" transform="translate(-753.49 -537.53)"/><path class="cls-24" d="M765.27,545l0,0,0,0" transform="translate(-753.49 -537.53)"/><path class="cls-25" d="M765.19,544.93v0" transform="translate(-753.49 -537.53)"/><path class="cls-25" d="M765.18,545v0" transform="translate(-753.49 -537.53)"/><polygon class="cls-24" points="11.87 7.26 11.87 7.26 11.87 7.26 11.87 7.26"/><path class="cls-7" d="M762.54,543.64h0" transform="translate(-753.49 -537.53)"/><path class="cls-7" d="M762,546.18h0" transform="translate(-753.49 -537.53)"/><path class="cls-7" d="M762,546.68l0,0h0l0,0h0" transform="translate(-753.49 -537.53)"/><path class="cls-7" d="M762.05,546.69l0,0h0l0,0h0" transform="translate(-753.49 -537.53)"/><path class="cls-7" d="M762,546.63h0" transform="translate(-753.49 -537.53)"/><path class="cls-7" d="M762.05,546.6h0" transform="translate(-753.49 -537.53)"/><path class="cls-7" d="M762,546.61h0" transform="translate(-753.49 -537.53)"/><path class="cls-7" d="M762,546.62h0" transform="translate(-753.49 -537.53)"/><path class="cls-7" d="M762,546.64h0" transform="translate(-753.49 -537.53)"/><path class="cls-7" d="M762,546.65h0" transform="translate(-753.49 -537.53)"/><path class="cls-7" d="M762.07,546.65h0" transform="translate(-753.49 -537.53)"/><path class="cls-8" d="M765,545.36v0" transform="translate(-753.49 -537.53)"/><path class="cls-8" d="M765,545.43v0" transform="translate(-753.49 -537.53)"/><path class="cls-8" d="M765,545.38v0" transform="translate(-753.49 -537.53)"/><path class="cls-8" d="M765,545.41v0" transform="translate(-753.49 -537.53)"/><path class="cls-8" d="M764.68,546.09a.92.92,0,0,1,0,.16l0,0,0-.13a.14.14,0,0,0,0-.06" transform="translate(-753.49 -537.53)"/><path class="cls-8" d="M764.72,546l0,.06,0-.06" transform="translate(-753.49 -537.53)"/><path class="cls-8" d="M764.69,546.07v0" transform="translate(-753.49 -537.53)"/><path class="cls-8" d="M764.41,546.69l0,0h0l0,0h0" transform="translate(-753.49 -537.53)"/><path class="cls-8" d="M764.37,546.67v0h0v0" transform="translate(-753.49 -537.53)"/><path class="cls-8" d="M764.45,546.64h0" transform="translate(-753.49 -537.53)"/><path class="cls-8" d="M764.4,546.59h0" transform="translate(-753.49 -537.53)"/><path class="cls-8" d="M764.41,546.6h0" transform="translate(-753.49 -537.53)"/><path class="cls-8" d="M764.42,546.61h0" transform="translate(-753.49 -537.53)"/><path class="cls-8" d="M764.43,546.62h0" transform="translate(-753.49 -537.53)"/><path class="cls-8" d="M764.44,546.63h0" transform="translate(-753.49 -537.53)"/><path class="cls-8" d="M764.38,546.65h0v0" transform="translate(-753.49 -537.53)"/><path class="cls-8" d="M764.42,546.68h0" transform="translate(-753.49 -537.53)"/><path class="cls-29" d="M763.53,545.74l0,0c0,.05,0,.09,0,.11l-.17.12a.24.24,0,0,1-.26,0l-.12-.09c-.09,0-.1-.1,0-.17h0l0,0h0l0,0s0,0,0-.06a1.64,1.64,0,0,0,0-.23.76.76,0,0,0,0-.15.24.24,0,0,0-.21-.22l-.08,0,.06-.15h0s0,0,0,0a.57.57,0,0,1-.22-.15.44.44,0,0,1,0-.6,1.79,1.79,0,0,1,.25-.22s0,.07,0,.1-.05.15-.08.23a.39.39,0,0,0,0,.26.19.19,0,0,0,.17.16l0,0a.06.06,0,0,0,.09,0,.05.05,0,0,1,.08,0c.07,0,.07,0,.14,0a.05.05,0,0,1,.08,0,.06.06,0,0,0,.09,0l0,0a.21.21,0,0,0,.19-.19.55.55,0,0,0-.05-.31l-.06-.15a.17.17,0,0,1,0-.1l.22.19a.46.46,0,0,1-.15.76l0,0s0,0,0,0h0l.08.14-.1,0a.25.25,0,0,0-.21.23v.14a2,2,0,0,0,0,.25s0,0,.05.06h0l0,0h0Zm-.72-1.8-.16.15a.42.42,0,0,0,.1.61l.17.09c0,.05,0,.11-.08.17h0a.26.26,0,0,1,.22.25c0,.1,0,.2,0,.3a.22.22,0,0,1-.13.24c-.06,0-.05.08,0,.11l.15.09a.19.19,0,0,0,.18,0l.14-.09c.07,0,.07-.07,0-.11l0,0a.18.18,0,0,1-.09-.16v-.32c0-.18.07-.24.24-.29h0l-.08-.18.11,0a.42.42,0,0,0,.24-.48.61.61,0,0,0-.24-.31h0l.09.23a.39.39,0,0,1,0,.3.23.23,0,0,1-.2.15l0,0s-.07,0-.11,0,0,0-.07,0-.08,0-.14,0h0a.11.11,0,0,1-.16,0h0a.23.23,0,0,1-.2-.15.39.39,0,0,1,0-.3c0-.07.06-.15.09-.23h0" transform="translate(-753.49 -537.53)"/><path class="cls-30" d="M763.16,544l.07-.17.06.18.17-.08-.08.17.17.06-.17.06.08.17-.17-.08-.06.17a1.22,1.22,0,0,1-.07-.17l-.16.08a1.22,1.22,0,0,0,.07-.17l-.17-.06.17-.06a1.22,1.22,0,0,0-.07-.17l.16.07m-.06,0h0l0,.09-.11,0,.11,0a.36.36,0,0,0,0,.09h0l.09,0a.69.69,0,0,0,0,.1,1,1,0,0,1,0-.1l.09,0h0a.36.36,0,0,1,0-.09l.1,0-.1,0,0-.09h0l-.09,0a1,1,0,0,1,0-.1l0,.1-.09,0" transform="translate(-753.49 -537.53)"/><path class="cls-8" d="M763.62,544.84h0l.19-.08.09-.06.32.16-.3.17-.31-.18m.3.13.19-.12-.19-.11-.18.1.18.13" transform="translate(-753.49 -537.53)"/><path class="cls-7" d="M762.83,544.83h0l-.15.08-.14.1-.31-.17.32-.16a.82.82,0,0,0,.28.14m-.29-.09-.2.11.18.12h0l.17-.12-.18-.11" transform="translate(-753.49 -537.53)"/><path class="cls-11" d="M762.47,545.42c0-.08,0-.12.07-.14s.1,0,.13.09.12,0,.16,0,0,.1,0,.16.05.11,0,.16-.08,0-.15,0-.09.09-.14.07-.07-.07-.06-.15-.11-.06-.11-.12,0-.08.13-.09m0,.19,0,0a.19.19,0,0,0,0,.08.06.06,0,0,0,.09,0,.07.07,0,0,0,0-.06l-.13-.06v-.16l.15,0a.06.06,0,0,0,0-.08.13.13,0,0,0-.09,0s0,.06,0,.1v0a.06.06,0,0,0-.09,0,.08.08,0,0,0,0,.08s.05.05.09,0h0m.11,0a.07.07,0,0,0,.07-.07.07.07,0,0,0-.07-.08.08.08,0,0,0-.08.08.07.07,0,0,0,.08.07m.13-.07a.07.07,0,0,0,.06-.07.06.06,0,0,0,0-.08.07.07,0,0,0-.09,0l.08.12m0,0-.09.11s.05.06.09,0a.11.11,0,0,0,.06-.07s0-.07-.06-.08" transform="translate(-753.49 -537.53)"/><path class="cls-31" d="M764.05,545.47c-.19,0-.31.12-.24.31a.25.25,0,0,1-.19-.21.2.2,0,0,1,.15-.21.26.26,0,0,1,.28.11m-.1,0a.21.21,0,0,0-.26,0,.17.17,0,0,0,0,.22.28.28,0,0,1,.21-.26" transform="translate(-753.49 -537.53)"/><path class="cls-31" d="M763.4,545.38c0-.12,0-.1.19-.13,0,.06,0,.12,0,.19v.26l0,0h0l0,0h0a.33.33,0,0,1-.06-.19v-.12m.08.27h0c0-.12,0-.24,0-.35s-.1,0-.1.09a.38.38,0,0,0,0,.15.36.36,0,0,0,0,.11" transform="translate(-753.49 -537.53)"/><path class="cls-31" d="M762.93,545.73l0,0a1.21,1.21,0,0,0,0-.46c.15,0,.18,0,.2.13a.71.71,0,0,1,0,.29h0l0,0h0l0,0h0m0-.43c0,.11,0,.23,0,.35a.14.14,0,0,0,.06-.12v-.13c0-.08,0-.09-.1-.1" transform="translate(-753.49 -537.53)"/><path class="cls-31" d="M763.52,545.07l.08.09-.08.08-.09-.08.09-.09m.05.09-.05,0,0,0,0,.05.05,0" transform="translate(-753.49 -537.53)"/><path class="cls-31" d="M762.85,545.16l.09-.08.08.08-.09.08-.08-.08m0,0s0,0,0,0l.06,0,0,0-.05,0" transform="translate(-753.49 -537.53)"/><path class="cls-32" d="M763.4,545.38v.12a.33.33,0,0,0,.06.19s-.05,0-.05-.06a2,2,0,0,1,0-.25h0" transform="translate(-753.49 -537.53)"/><path class="cls-32" d="M763,545.67a.58.58,0,0,0,0-.29h0a1.64,1.64,0,0,1,0,.23s0,0,0,.06" transform="translate(-753.49 -537.53)"/><path class="cls-32" d="M762.93,545.73h0" transform="translate(-753.49 -537.53)"/><polyline class="cls-26" points="10.13 7.32 10.13 7.32 10.13 7.32"/><path class="cls-11" d="M763.09,542.71h0" transform="translate(-753.49 -537.53)"/><path class="cls-11" d="M762.89,542.66h0v0l0,0h0" transform="translate(-753.49 -537.53)"/><path class="cls-11" d="M762.94,542.7h0" transform="translate(-753.49 -537.53)"/><path class="cls-11" d="M762.92,542.69h0" transform="translate(-753.49 -537.53)"/><path class="cls-11" d="M763.07,542.62v0" transform="translate(-753.49 -537.53)"/><path class="cls-19" d="M763.65,543.94a.61.61,0,0,1,.24.31.42.42,0,0,1-.24.48l-.11,0,.08.18h0c-.17,0-.23.11-.24.29v.32a.18.18,0,0,0,.09.16l0,0c.06,0,.06.08,0,.11l-.14.09a.19.19,0,0,1-.18,0l-.15-.09c-.06,0-.07-.08,0-.11a.22.22,0,0,0,.13-.24c0-.1,0-.2,0-.3a.26.26,0,0,0-.22-.25h0c0-.06,0-.12.08-.17l-.17-.09a.41.41,0,0,1-.1-.61l.16-.15h0c0,.08-.07.16-.09.23a.39.39,0,0,0,0,.3.21.21,0,0,0,.2.15h0a.11.11,0,0,0,.16,0h0c.06,0,.08,0,.14,0s.05,0,.07,0,.07,0,.11,0l0,0a.23.23,0,0,0,.2-.15.39.39,0,0,0,0-.3l-.09-.23h0m-.17,1.91v0a.16.16,0,0,0-.13,0l0,0,0,0h.12m-.51,0a.16.16,0,0,0,.13,0l0,0,0,0c-.05,0-.1,0-.14,0" transform="translate(-753.49 -537.53)"/><path class="cls-32" d="M763,545.72l0,0,0,0" transform="translate(-753.49 -537.53)"/><path class="cls-32" d="M763.47,545.7l0,0,0,0" transform="translate(-753.49 -537.53)"/><path class="cls-32" d="M763,545.69l0,0,0,0" transform="translate(-753.49 -537.53)"/><path class="cls-32" d="M763.49,545.72h0" transform="translate(-753.49 -537.53)"/><path class="cls-27" d="M763.51,545.73h0" transform="translate(-753.49 -537.53)"/><path class="cls-19" d="M763.64,543.94h0" transform="translate(-753.49 -537.53)"/><path class="cls-19" d="M762.81,543.94h0" transform="translate(-753.49 -537.53)"/><polyline class="cls-32" points="9.97 8.16 9.98 8.17 9.97 8.16"/><polyline class="cls-32" points="9.49 8.17 9.5 8.16 9.49 8.17"/><path class="cls-28" d="M763.36,544l0,.09.1,0-.1,0a.36.36,0,0,0,0,.09h0l-.09,0a1,1,0,0,0,0,.1.69.69,0,0,1,0-.1l-.09,0h0l0-.09-.11,0,.11,0a.36.36,0,0,0,0-.09h0l.09,0,0-.1a1,1,0,0,0,0,.1l.09,0h0" transform="translate(-753.49 -537.53)"/><path class="cls-28" d="M763.36,544h0" transform="translate(-753.49 -537.53)"/><path class="cls-28" d="M763.09,544h0" transform="translate(-753.49 -537.53)"/><path class="cls-28" d="M763.37,544.3h0" transform="translate(-753.49 -537.53)"/><path class="cls-28" d="M763.1,544.31h0" transform="translate(-753.49 -537.53)"/><path class="cls-19" d="M763.92,545l-.18-.13.18-.1.19.11-.19.12" transform="translate(-753.49 -537.53)"/><path class="cls-19" d="M762.54,544.74l.18.11-.17.12h0l-.18-.12.2-.11" transform="translate(-753.49 -537.53)"/><path class="cls-28" d="M762.6,545.61a.07.07,0,0,1-.07-.07.08.08,0,0,1,.07-.08.08.08,0,0,1,.08.08.07.07,0,0,1-.08.07" transform="translate(-753.49 -537.53)"/><path class="cls-28" d="M762.5,545.45a.81.81,0,0,1,0,.16h0s-.08,0-.09,0a.08.08,0,0,1,0-.08.06.06,0,0,1,.09,0Z" transform="translate(-753.49 -537.53)"/><path class="cls-28" d="M762.74,545.54l-.08-.12a.06.06,0,0,1,.09,0,.06.06,0,0,1,0,.08.07.07,0,0,1-.06.07" transform="translate(-753.49 -537.53)"/><path class="cls-28" d="M762.73,545.55s.07,0,.06.08a.11.11,0,0,1-.06.07s-.07,0-.09,0l.09-.11" transform="translate(-753.49 -537.53)"/><path class="cls-28" d="M762.5,545.46v0s0-.08,0-.1a.13.13,0,0,1,.09,0,.06.06,0,0,1,0,.08l-.15.05h0" transform="translate(-753.49 -537.53)"/><path class="cls-28" d="M762.5,545.61l.13.06s0,0,0,.06a.06.06,0,0,1-.09,0,.19.19,0,0,1,0-.08l0,0h0" transform="translate(-753.49 -537.53)"/><path class="cls-28" d="M764,545.43a.28.28,0,0,0-.21.26.17.17,0,0,1,0-.22.21.21,0,0,1,.26,0" transform="translate(-753.49 -537.53)"/><path class="cls-28" d="M763.48,545.65a.36.36,0,0,1,0-.11.38.38,0,0,1,0-.15c0-.08,0-.09.1-.09s0,.23,0,.35h0" transform="translate(-753.49 -537.53)"/><path class="cls-28" d="M762.92,545.3c.09,0,.1,0,.1.1v.13a.14.14,0,0,1-.06.12c0-.12,0-.24,0-.35" transform="translate(-753.49 -537.53)"/><path class="cls-25" d="M763.57,545.16l-.05,0,0-.05,0,0,.05,0" transform="translate(-753.49 -537.53)"/><path class="cls-25" d="M762.89,545.16l.05,0,0,0-.06,0s0,0,0,0" transform="translate(-753.49 -537.53)"/><path class="cls-11" d="M763.48,545.85h-.12l0,0s0,0,0,0a.13.13,0,0,1,.13,0v0" transform="translate(-753.49 -537.53)"/><path class="cls-11" d="M763,545.83c0-.05.09,0,.14,0l0,0,0,0a.16.16,0,0,1-.13,0" transform="translate(-753.49 -537.53)"/></g></svg>