<svg id="Warstwa_1" data-name="Warstwa 1" xmlns="http://www.w3.org/2000/svg" xmlns:xlink="http://www.w3.org/1999/xlink" viewBox="0 0 22.43 15.3"><defs><style>.cls-1{fill:none;}.cls-2{clip-path:url(#clip-path);}.cls-3{fill:#fefcfc;}.cls-4{fill:#ce1328;}.cls-5{fill:#ce1327;}.cls-6{fill:#ce1227;}</style><clipPath id="clip-path" transform="translate(-752.06 -537.5)"><rect class="cls-1" x="755.71" y="537.59" width="15.12" height="15.12"/></clipPath></defs><title>Monaco</title><g class="cls-2"><path class="cls-3" d="M773.23,537.5h1.26v15.29H752.06v-2.55l.07.13,1.08,2.21a1.31,1.31,0,0,1,.09.17,1.5,1.5,0,0,0,.09-.18l1.08-2.19a.6.6,0,0,1,.11-.12c.28.59.57,1.18.86,1.77.11.24.22.47.35.72l.09-.17,1.07-2.19a.83.83,0,0,1,.11-.15l1.22,2.52,1.23-2.53c0,.06.07.11.1.16l1.07,2.18a1.47,1.47,0,0,0,.09.17l.1-.19c.35-.72.7-1.44,1.06-2.16a.78.78,0,0,1,.1-.15l1.23,2.53,1.22-2.53a.49.49,0,0,1,.1.15c.37.73.73,1.47,1.09,2.21,0,0,.05.08.08.15l1.15-2.36.1-.15c.41.83.82,1.66,1.23,2.52.1-.19.18-.35.25-.51.33-.67.65-1.34,1-2a.83.83,0,0,1,.11.15l1.08,2.19a1.47,1.47,0,0,0,.09.17c.41-.85.81-1.67,1.2-2.49l.12.12,1.07,2.19.09.18,1.21-2.46a.31.31,0,0,0,0-.19c-.24-.5-.49-1-.73-1.49l-.46-.93-.08.17L772.05,550a1.5,1.5,0,0,1-.11.13l-1.21-2.5c0,.08-.07.13-.09.18L769.56,550c0,.06-.07.1-.1.15-.25-.5-.49-1-.73-1.5l-.5-1c-.42.86-.82,1.7-1.23,2.53l-.1-.18c-.36-.72-.71-1.44-1.06-2.16l-.1-.17-.1.19c-.35.72-.7,1.44-1.06,2.16a.54.54,0,0,1-.1.16l-1.2-2.47,0,0L762,550.2c0-.05-.07-.1-.1-.16-.36-.72-.71-1.45-1.07-2.17a1.82,1.82,0,0,0-.1-.19c-.23.49-.46,1-.68,1.4l-.57,1.12c-.4-.84-.81-1.67-1.23-2.53-.21.42-.4.81-.59,1.21l-.63,1.31L757,550c-.3-.62-.6-1.23-.91-1.85l-.25-.51-.15.29c-.35.74-.71,1.47-1.06,2.2a.74.74,0,0,1-.12-.13l-1.07-2.19a1.31,1.31,0,0,1-.09-.17c-.39.78-.76,1.55-1.14,2.32l-.1.17v-5l.55,1.1c.23.46.45.93.69,1.41.08-.15.14-.28.2-.41l1-2.08a.38.38,0,0,1,.11.11l1.08,2.2a1.47,1.47,0,0,0,.09.17l.24-.47c.32-.67.64-1.34,1-2,0,0,.08,0,.09.08.13.24.24.48.36.72.27.55.54,1.11.83,1.68a1.31,1.31,0,0,1,.09-.17c.35-.73.71-1.46,1.07-2.19a1.34,1.34,0,0,1,.11-.14l1.22,2.52,1.22-2.52a.83.83,0,0,1,.11.15l1.08,2.2s.05.09.08.15c.42-.85.82-1.68,1.22-2.5a1.34,1.34,0,0,1,.11.14c.35.73.71,1.45,1.06,2.18l.1.18c.42-.85.82-1.68,1.22-2.5a1.21,1.21,0,0,1,.1.14l1,2.15.12.21.07-.15c.37-.74.73-1.48,1.09-2.22,0,0,.08-.07.11-.11l0,.08,1.13,2.3.06.09.09-.18,1.07-2.18a.6.6,0,0,1,.11-.12l.06.15,1.06,2.16a1.72,1.72,0,0,1,.09.19c.41-.84.82-1.66,1.21-2.48a.22.22,0,0,0,0-.16c-.13-.28-.27-.55-.41-.83l-.79-1.61q-.11.23-.21.42c-.33.69-.66,1.38-1,2.07,0,0-.09-.07-.11-.12l-1.08-2.19-.09-.18c-.1.2-.19.38-.27.56l-.94,1.93a.73.73,0,0,1-.09-.08l-.39-.78-.79-1.63a1.47,1.47,0,0,0-.09.17L767.07,545a.78.78,0,0,1-.1.15c-.4-.83-.8-1.66-1.22-2.51l-.1.19c-.35.72-.71,1.45-1.07,2.17a.49.49,0,0,1-.1.15l-1.22-2.52L762.1,545a.83.83,0,0,1-.11.15l-1.22-2.52-1.22,2.52a.83.83,0,0,1-.11-.15c-.36-.73-.72-1.46-1.07-2.19a1.31,1.31,0,0,1-.09-.17l-.07.12c-.36.76-.73,1.51-1.1,2.26,0,0-.07.07-.11.11l0-.08-1.13-2.31a.35.35,0,0,0-.06-.09l-.06.12c-.36.75-.73,1.5-1.1,2.24,0,0-.07.08-.11.12l-.69-1.44-.51-1-.09.15c-.27.56-.54,1.12-.82,1.68l-.34.67v-5l.1.17,1.14,2.32.09-.19c.36-.72.71-1.45,1.07-2.17a.83.83,0,0,1,.11-.15l1.21,2.51a1.47,1.47,0,0,0,.09-.17l1.08-2.2.11-.15c.4.83.8,1.67,1.22,2.53.42-.86.82-1.7,1.23-2.53,0,.05.07.1.1.16l1.06,2.17a1.25,1.25,0,0,0,.11.18c.41-.85.81-1.68,1.22-2.51l.1.15,1,2.16.11.2.1-.2c.35-.72.7-1.44,1.06-2.16a.65.65,0,0,1,.1-.15l1.22,2.53.8-1.64.46-.89q.62,1.25,1.23,2.52c.19-.37.36-.72.53-1.07s.46-1,.7-1.45a1.1,1.1,0,0,1,.09.14c.29.57.57,1.15.85,1.72.1.22.21.43.32.66L771,542l.93-1.93a.41.41,0,0,1,.1.13c.09.17.17.33.25.5l.92,1.88,1.18-2.4a.28.28,0,0,0,0-.28l-1.16-2.37v0" transform="translate(-752.06 -537.5)"/><path class="cls-4" d="M764.52,540.06a.65.65,0,0,0-.1.15c-.36.72-.71,1.44-1.06,2.16l-.1.2-.11-.2-1-2.16-.1-.15v0l.06-.07,1.14-2.35a.18.18,0,0,0,0-.1h.07a.53.53,0,0,0,0,.12c.37.77.75,1.54,1.13,2.31a.28.28,0,0,0,.07.09v0" transform="translate(-752.06 -537.5)"/><path class="cls-4" d="M752.06,550.17l.1-.17c.38-.77.75-1.54,1.14-2.32a1.31,1.31,0,0,0,.09.17l1.07,2.19a.74.74,0,0,0,.12.13v.09s-.09.07-.11.12l-1.08,2.19a1.5,1.5,0,0,1-.09.18,1.31,1.31,0,0,0-.09-.17l-1.08-2.21-.07-.13Z" transform="translate(-752.06 -537.5)"/><path class="cls-5" d="M754.57,540.07a.83.83,0,0,0-.11.15c-.36.72-.71,1.45-1.07,2.17,0,.06,0,.12-.09.19l-1.14-2.32-.1-.17V540l.07-.14,1.08-2.2a.83.83,0,0,1,.11-.15c.38.79.77,1.58,1.16,2.37a.87.87,0,0,0,.09.11v.06" transform="translate(-752.06 -537.5)"/><path class="cls-3" d="M764.52,540a.28.28,0,0,1-.07-.09c-.38-.77-.76-1.54-1.13-2.31a.53.53,0,0,1,0-.12h4.9s0,0,0,0a1.11,1.11,0,0,1-.07.16L767,540l-.1-.15c-.35-.73-.71-1.45-1.06-2.18l-.1-.18c-.42.85-.82,1.68-1.22,2.51" transform="translate(-752.06 -537.5)"/><path class="cls-3" d="M763.22,537.5a.18.18,0,0,1,0,.1L762.06,540,762,540l-1.23-2.52-1.15,2.35a1.63,1.63,0,0,1-.11.17c-.07-.16-.15-.31-.23-.47-.32-.67-.64-1.33-1-2v0Z" transform="translate(-752.06 -537.5)"/><path class="cls-5" d="M754.51,545.18l-1,2.08c-.06.13-.12.26-.2.41-.24-.48-.46-.95-.69-1.41l-.55-1.1v-.07l.34-.67c.28-.56.55-1.12.82-1.68l.08-.15.52,1,.69,1.44Z" transform="translate(-752.06 -537.5)"/><path class="cls-3" d="M768.2,537.55v0h2.56v0a1.34,1.34,0,0,0-.11.14l-1.08,2.2a.76.76,0,0,1-.11.14c-.39-.81-.78-1.62-1.18-2.43,0,0,0,0-.07,0" transform="translate(-752.06 -537.5)"/><path class="cls-3" d="M758.32,537.5v0s-.07,0-.09.06l-.27.55c-.29.62-.59,1.24-.89,1.85a.76.76,0,0,1-.11-.14l-1.08-2.2a1.21,1.21,0,0,0-.1-.14v0Z" transform="translate(-752.06 -537.5)"/><path class="cls-3" d="M770.75,537.53v0h2.48v0a.78.78,0,0,0-.1.15l-1.08,2.19a1.34,1.34,0,0,1-.11.14,1.11,1.11,0,0,0-.07-.16c-.37-.77-.75-1.54-1.12-2.32" transform="translate(-752.06 -537.5)"/><path class="cls-3" d="M755.77,537.5v0c-.13.26-.25.51-.37.77l-.83,1.71a.87.87,0,0,1-.09-.11c-.39-.79-.78-1.58-1.16-2.37v0Z" transform="translate(-752.06 -537.5)"/><path class="cls-3" d="M753.32,537.5v0a.83.83,0,0,0-.11.15l-1.08,2.2-.07.14V537.5Z" transform="translate(-752.06 -537.5)"/><path class="cls-4" d="M767,545.1a.78.78,0,0,0,.1-.15l1.08-2.19a1.47,1.47,0,0,1,.09-.17l.79,1.63.39.78a.73.73,0,0,0,.09.08v.1s-.09.07-.11.11c-.36.74-.72,1.48-1.09,2.22l-.07.15-.12-.21-1-2.15a1.21,1.21,0,0,0-.1-.14v-.06" transform="translate(-752.06 -537.5)"/><path class="cls-4" d="M757,545.08s.09-.07.11-.11l1.11-2.26a1.29,1.29,0,0,1,.06-.12,1.31,1.31,0,0,0,.09.17c.35.73.71,1.46,1.07,2.19a.83.83,0,0,0,.11.15v.06a1.34,1.34,0,0,0-.11.14c-.36.73-.72,1.46-1.07,2.19a1.31,1.31,0,0,0-.09.17c-.29-.57-.56-1.13-.83-1.68l-.35-.72s-.07,0-.1-.08v-.1" transform="translate(-752.06 -537.5)"/><path class="cls-4" d="M771.94,550.17a1.5,1.5,0,0,0,.11-.13l1.08-2.19.08-.17.46.93c.24.49.49,1,.73,1.49a.31.31,0,0,1,0,.19l-1.21,2.46-.09-.18c-.35-.73-.71-1.46-1.07-2.19l-.12-.12a.28.28,0,0,0,0-.09" transform="translate(-752.06 -537.5)"/><path class="cls-4" d="M757,545.08v.1c-.33.67-.65,1.34-1,2l-.24.47a1.47,1.47,0,0,1-.09-.17l-1.08-2.2a.38.38,0,0,0-.11-.11v-.1s.09-.07.11-.12c.37-.74.74-1.49,1.1-2.24l.06-.12a.35.35,0,0,1,.06.09L757,545l0,.08" transform="translate(-752.06 -537.5)"/><path class="cls-4" d="M769.51,545.18v-.1l.94-1.93c.08-.18.17-.36.27-.56l.09.18,1.08,2.19s.07.08.11.12v.1a.38.38,0,0,0-.11.11c-.36.73-.71,1.46-1.07,2.18l-.09.18-.06-.09-1.13-2.3,0-.08" transform="translate(-752.06 -537.5)"/><path class="cls-4" d="M764.48,550.24l-1.22,2.53L762,550.24v0l1.2-2.49,0,0,1.2,2.47v0" transform="translate(-752.06 -537.5)"/><path class="cls-4" d="M771.94,540a1.34,1.34,0,0,0,.11-.14l1.08-2.19a.78.78,0,0,1,.1-.15l1.16,2.37a.28.28,0,0,1,0,.28l-1.18,2.4-.92-1.88c-.08-.17-.16-.33-.25-.5a.41.41,0,0,0-.1-.13V540" transform="translate(-752.06 -537.5)"/><path class="cls-5" d="M764.48,545.16c-.4.82-.8,1.65-1.22,2.5l-.08-.14-1.08-2.21a.83.83,0,0,0-.11-.15v-.06a.83.83,0,0,0,.11-.15l1.16-2.37c.41.86.82,1.69,1.22,2.52v.06" transform="translate(-752.06 -537.5)"/><path class="cls-4" d="M769.45,550.24c-.32.67-.64,1.34-1,2-.07.16-.15.32-.25.51L767,550.24v0c.41-.83.81-1.67,1.23-2.53l.5,1c.24.5.48,1,.73,1.5v0" transform="translate(-752.06 -537.5)"/><path class="cls-5" d="M764.48,545.16v-.06a.49.49,0,0,0,.1-.15c.36-.72.72-1.45,1.07-2.17l.1-.19c.42.85.82,1.68,1.22,2.51v.06l-1.22,2.51-.1-.19c-.35-.73-.71-1.45-1.07-2.18a.61.61,0,0,0-.1-.14" transform="translate(-752.06 -537.5)"/><path class="cls-5" d="M769.45,550.24v0c0-.05.07-.09.1-.15l1.08-2.19c0-.05.05-.1.09-.18l1.21,2.5s0,.06,0,.09c-.39.82-.79,1.64-1.2,2.49a1.47,1.47,0,0,1-.09-.17l-1.08-2.19a.83.83,0,0,0-.11-.15" transform="translate(-752.06 -537.5)"/><path class="cls-5" d="M759.51,540a1.63,1.63,0,0,0,.11-.17l1.15-2.35L762,540v0c-.4.83-.81,1.66-1.22,2.52l-.11-.19c-.35-.72-.7-1.45-1.06-2.17a.86.86,0,0,0-.1-.16v0" transform="translate(-752.06 -537.5)"/><path class="cls-6" d="M767,550.2v0l-.1.15-1.15,2.36c0-.07-.06-.11-.08-.15-.36-.74-.72-1.48-1.09-2.21a.49.49,0,0,0-.1-.15v0a.54.54,0,0,0,.1-.16c.36-.72.71-1.44,1.06-2.16l.1-.19.1.17c.35.72.7,1.44,1.06,2.16l.1.18" transform="translate(-752.06 -537.5)"/><path class="cls-4" d="M759.51,550.24l-1.23,2.52-1.22-2.52v0l.63-1.31c.19-.4.38-.79.59-1.21.42.86.83,1.69,1.23,2.53v0" transform="translate(-752.06 -537.5)"/><path class="cls-5" d="M762,545.1v.06l-1.22,2.52-1.22-2.52v-.06l1.22-2.52L762,545.1" transform="translate(-752.06 -537.5)"/><path class="cls-5" d="M757.06,550.19v0a.83.83,0,0,0-.11.15l-1.07,2.19-.09.17c-.13-.25-.24-.48-.35-.72-.29-.59-.58-1.18-.86-1.77v-.09c.35-.73.71-1.46,1.06-2.2l.15-.29.25.51c.31.62.61,1.24.91,1.85a.83.83,0,0,0,.11.15" transform="translate(-752.06 -537.5)"/><path class="cls-5" d="M764.52,540c.4-.83.8-1.66,1.22-2.51l.1.18c.35.73.71,1.45,1.06,2.18l.1.15v0l-.46.89-.8,1.64-1.22-2.53v0" transform="translate(-752.06 -537.5)"/><path class="cls-5" d="M754.57,540l.83-1.71c.12-.26.24-.51.37-.77a1.21,1.21,0,0,1,.1.14l1.08,2.2a.76.76,0,0,0,.11.14v0l-.11.15c-.36.74-.72,1.47-1.07,2.2l-.1.17-1.21-2.51V540" transform="translate(-752.06 -537.5)"/><path class="cls-6" d="M759.51,550.24v0l.57-1.12c.22-.45.45-.91.68-1.4a1.82,1.82,0,0,1,.1.19c.36.72.71,1.45,1.07,2.17,0,.06.07.11.1.16v0a.78.78,0,0,0-.1.15c-.36.72-.71,1.44-1.06,2.16l-.1.19a1.47,1.47,0,0,1-.09-.17l-1.07-2.18-.1-.15" transform="translate(-752.06 -537.5)"/><path class="cls-5" d="M772,545.17v-.09c.34-.69.67-1.38,1-2.07q.11-.19.21-.42l.79,1.61c.14.28.28.55.41.83a.22.22,0,0,1,0,.16c-.39.82-.79,1.64-1.21,2.48a1.72,1.72,0,0,0-.09-.19l-1.06-2.16-.06-.15" transform="translate(-752.06 -537.5)"/><path class="cls-5" d="M771.94,540v.06L771,542l-.29.58c-.11-.23-.22-.44-.32-.66-.28-.57-.56-1.15-.85-1.72a.61.61,0,0,0-.1-.14v0a.76.76,0,0,0,.11-.14l1.08-2.2a1.34,1.34,0,0,1,.11-.14l1.12,2.32a1.11,1.11,0,0,1,.07.16" transform="translate(-752.06 -537.5)"/><path class="cls-4" d="M769.45,540v0c-.24.48-.47,1-.7,1.45s-.34.7-.53,1.07q-.62-1.27-1.23-2.52v0c.38-.77.76-1.54,1.13-2.31a1.11,1.11,0,0,0,.07-.16s.06,0,.07,0c.4.81.79,1.62,1.18,2.43" transform="translate(-752.06 -537.5)"/><path class="cls-5" d="M757.06,540.06v0c.3-.61.6-1.23.89-1.85l.27-.55s.06,0,.09-.06l1,2,.23.47v0c-.41.83-.81,1.67-1.23,2.53-.42-.86-.82-1.7-1.22-2.53" transform="translate(-752.06 -537.5)"/></g></svg>