<svg id="Warstwa_1" data-name="Warstwa 1" xmlns="http://www.w3.org/2000/svg" xmlns:xlink="http://www.w3.org/1999/xlink" viewBox="0 0 21.88 15.91"><defs><style>.cls-1{fill:none;}.cls-2{clip-path:url(#clip-path);}.cls-3{fill:#002868;}.cls-4{fill:#ee2b2d;}.cls-5{fill:#fefefe;}.cls-6{fill:#fdecec;}.cls-7{fill:#fbd8d8;}.cls-8{fill:#fce4e4;}</style><clipPath id="clip-path" transform="translate(-752.33 -537.19)"><rect class="cls-1" x="754.54" y="537.59" width="15.12" height="15.12"/></clipPath></defs><title>Norway</title><g class="cls-2"><path class="cls-3" d="M759.29,537.19h2v7h12.92v2H761.28c0,.05,0,.08,0,.12v6.84h-2v-7h-7v-2h7v-7" transform="translate(-752.33 -537.19)"/><path class="cls-4" d="M774.21,547.14v6H762.27v-6h11.94" transform="translate(-752.33 -537.19)"/><path class="cls-4" d="M762.28,537.19h11.93v6H762.28v-6" transform="translate(-752.33 -537.19)"/><path class="cls-4" d="M752.33,543.15v-6h6v5.95h-6" transform="translate(-752.33 -537.19)"/><path class="cls-4" d="M758.3,553.1h-6v-6h6v6h0" transform="translate(-752.33 -537.19)"/><path class="cls-5" d="M762.28,537.21v5.94h11.93v1H761.29v-7h1v0" transform="translate(-752.33 -537.19)"/><path class="cls-5" d="M774.2,547.13H762.27v6h-1v-6.84a.6.6,0,0,0,0-.12h12.94v1h0" transform="translate(-752.33 -537.19)"/><path class="cls-5" d="M752.35,543.16h5.95v-5.95l0,0h1v7h-7v-1h0" transform="translate(-752.33 -537.19)"/><path class="cls-5" d="M758.3,553.09v-6h-6v-1h7v7h-1" transform="translate(-752.33 -537.19)"/><path class="cls-6" d="M758.32,537.19l0,0v0Z" transform="translate(-752.33 -537.19)"/><path class="cls-7" d="M762.28,537.21v0h0v0" transform="translate(-752.33 -537.19)"/><path class="cls-8" d="M752.35,543.16h0v0h0" transform="translate(-752.33 -537.19)"/><path class="cls-8" d="M774.21,543.17h0Z" transform="translate(-752.33 -537.19)"/><path class="cls-8" d="M752.33,547.12h0Z" transform="translate(-752.33 -537.19)"/><path class="cls-8" d="M774.2,547.13h0v0h0" transform="translate(-752.33 -537.19)"/><path class="cls-6" d="M758.3,553.09h0" transform="translate(-752.33 -537.19)"/></g></svg>