<svg id="Warstwa_1" data-name="Warstwa 1" xmlns="http://www.w3.org/2000/svg" xmlns:xlink="http://www.w3.org/1999/xlink" viewBox="0 0 29.88 18.69"><defs><style>.cls-1{fill:none;}.cls-2{clip-path:url(#clip-path);}.cls-3{fill:#e8e7e6;}.cls-4{fill:#d3213d;}.cls-5{fill:#fefefe;}</style><clipPath id="clip-path" transform="translate(-748.33 -535.8)"><rect class="cls-1" x="755.71" y="537.59" width="15.12" height="15.12"/></clipPath></defs><title>Poland</title><g class="cls-2"><path class="cls-3" d="M778.21,535.84v9.29l0,0H748.33v-9.32l0,0h29.81l0,0" transform="translate(-748.33 -535.8)"/><path class="cls-4" d="M748.33,545.16h29.84v9.32H748.33Z" transform="translate(-748.33 -535.8)"/><path class="cls-5" d="M778.18,554.49c0-3.11,0-6.21,0-9.32l0,0v9.19a1,1,0,0,1,0,.17" transform="translate(-748.33 -535.8)"/><path class="cls-5" d="M748.37,535.8l0,0,0,0" transform="translate(-748.33 -535.8)"/><path class="cls-5" d="M778.21,535.84l0,0,0,0" transform="translate(-748.33 -535.8)"/></g></svg>