<svg id="Warstwa_1" data-name="Warstwa 1" xmlns="http://www.w3.org/2000/svg" xmlns:xlink="http://www.w3.org/1999/xlink" viewBox="0 0 16.12 16.12"><defs><style>.cls-1{fill:none;}.cls-2{clip-path:url(#clip-path);}.cls-3{fill:#cd1126;}.cls-4{fill:#fbd016;}.cls-5{fill:#002b7f;}.cls-6{fill:#fefefe;}</style><clipPath id="clip-path" transform="translate(-755.21 -537.09)"><rect class="cls-1" x="755.71" y="537.59" width="15.12" height="15.12"/></clipPath></defs><title>Romania</title><g class="cls-2"><path class="cls-3" d="M771.33,538.06v1.17c0,.07,0,.14,0,.21v13.77h-5.38q0-8,0-16.08h5.36v.6c0,.11,0,.22,0,.33" transform="translate(-755.21 -537.09)"/><path class="cls-4" d="M766,537.13q0,8,0,16.08h-5.36V537.13H766" transform="translate(-755.21 -537.09)"/><path class="cls-5" d="M760.57,537.13v16.08h-5.36V537.09h.08l.13,0h5.15" transform="translate(-755.21 -537.09)"/><path class="cls-6" d="M760.57,537.13h-5.15l-.13,0h16v1c0-.11,0-.22,0-.33v-.6H760.57" transform="translate(-755.21 -537.09)"/><path class="cls-6" d="M771.31,553.21V539.44c0-.07,0-.14,0-.21V553a1.11,1.11,0,0,1,0,.17" transform="translate(-755.21 -537.09)"/></g></svg>