<svg id="Warstwa_1" data-name="Warstwa 1" xmlns="http://www.w3.org/2000/svg" xmlns:xlink="http://www.w3.org/1999/xlink" viewBox="0 0 22.55 15.05"><defs><style>.cls-1{fill:none;}.cls-2{clip-path:url(#clip-path);}.cls-3{fill:#fefefe;}.cls-4{clip-path:url(#clip-path-2);}.cls-5{fill:#d42b1e;}.cls-6{fill:#0039a5;}</style><clipPath id="clip-path" transform="translate(-752 -537.62)"><rect class="cls-1" x="755.71" y="537.62" width="15.12" height="15.05"/></clipPath><clipPath id="clip-path-2" transform="translate(-752 -537.62)"><rect class="cls-1" x="755.71" y="537.59" width="15.12" height="15.12"/></clipPath></defs><title>Russia</title><g class="cls-2"><path class="cls-3" d="M752,542.66v-5h22.55v5.24a1.91,1.91,0,0,0,0-.21H752" transform="translate(-752 -537.62)"/></g><g class="cls-4"><path class="cls-5" d="M774.53,552.67H752v-5h22.52a.57.57,0,0,1,0,.13v4.88" transform="translate(-752 -537.62)"/><path class="cls-6" d="M774.52,547.66H752v-5h22.51a1.91,1.91,0,0,1,0,.21v.24a.5.5,0,0,0,0,.12v4.25c0,.06,0,.13,0,.19" transform="translate(-752 -537.62)"/><path class="cls-3" d="M774.52,547.66c0-.06,0-.13,0-.19v-4.25a.5.5,0,0,1,0-.12v9.47s0,.07,0,.1v-4.88s0-.09,0-.13" transform="translate(-752 -537.62)"/></g></svg>