<svg id="Warstwa_1" data-name="Warstwa 1" xmlns="http://www.w3.org/2000/svg" xmlns:xlink="http://www.w3.org/1999/xlink" viewBox="0 0 32 16"><defs><style>.cls-1{fill:none;}.cls-2{clip-path:url(#clip-path);}.cls-3{fill:#d40000;}.cls-4{fill:#0100be;}.cls-5{fill:#fefefe;}.cls-6{fill:#cf0308;}.cls-7{fill:#0302be;}.cls-8{fill:#fcfcfd;}.cls-9{fill:#fafafd;}.cls-10{fill:#f3f3fb;}.cls-11{fill:#efd10b;}.cls-12{fill:#eed00c;}</style><clipPath id="clip-path" transform="translate(-747.27 -537.15)"><rect class="cls-1" x="750.77" y="537.63" width="15.12" height="15.12"/></clipPath></defs><title>Slovenia</title><g class="cls-2"><path class="cls-3" d="M779.27,547.82v5.32h-32v-5.32h32" transform="translate(-747.27 -537.15)"/><path class="cls-4" d="M779.27,547.82h-32v-5.35h6.05l0,.23a2.7,2.7,0,0,0,1.81,2.39.33.33,0,0,0,.24,0,2.67,2.67,0,0,0,1.55-1.38,3.12,3.12,0,0,0,.28-1.24h22Z" transform="translate(-747.27 -537.15)"/><path class="cls-5" d="M753.32,542.48h-6.05v-5.32h32v5.32h-22c0-.69.08-1.37.13-2.05,0-.13,0-.18-.13-.2l-.06,0a4.73,4.73,0,0,0-2.49-.35,4.25,4.25,0,0,0-1.35.38.14.14,0,0,0-.13.19c0,.19,0,.39,0,.59,0,.49,0,1,.08,1.47" transform="translate(-747.27 -537.15)"/><path class="cls-6" d="M753.32,542.48c0-.49-.05-1-.08-1.47,0-.2,0-.4,0-.59a.14.14,0,0,1,.13-.19.51.51,0,0,1,0,.13c0,.79.08,1.58.15,2.38a2.5,2.5,0,0,0,1.7,2.22.22.22,0,0,0,.16,0,2.58,2.58,0,0,0,1.71-2.26c0-.83.1-1.65.16-2.47.11,0,.14.07.13.2-.05.68-.08,1.36-.13,2.05a3.12,3.12,0,0,1-.28,1.24,2.67,2.67,0,0,1-1.55,1.38.33.33,0,0,1-.24,0,2.7,2.7,0,0,1-1.81-2.39l0-.23" transform="translate(-747.27 -537.15)"/><path class="cls-7" d="M757.23,540.23c-.06.82-.11,1.64-.16,2.47a2.58,2.58,0,0,1-1.71,2.26.22.22,0,0,1-.16,0,2.5,2.5,0,0,1-1.7-2.22c-.07-.79-.1-1.59-.15-2.38a.59.59,0,0,0,0-.13,4.25,4.25,0,0,1,1.35-.38,4.83,4.83,0,0,1,2.49.35l.06,0M754.5,542l-.73,1a.22.22,0,0,0,0,.23.51.51,0,0,0,.71.32.6.6,0,0,1,.62,0,.51.51,0,0,0,.42,0,.62.62,0,0,1,.62,0,.51.51,0,0,0,.73-.4.18.18,0,0,0,0-.1l-.76-1-.31.41-.47-.93-.47.93-.31-.41m-.31,2h0a2.29,2.29,0,0,0,1,.75.29.29,0,0,0,.13,0,2.38,2.38,0,0,0,.77-.48l.26-.26c-.13,0-.24-.06-.34-.1a.52.52,0,0,0-.5,0,.57.57,0,0,1-.55,0,.52.52,0,0,0-.44,0l-.37.13m-.26-.4c.07.18.12.23.31.22a.77.77,0,0,0,.26-.07.54.54,0,0,1,.51,0,.57.57,0,0,0,.54,0,.5.5,0,0,1,.5,0l.13.05c.22,0,.4,0,.45-.22a.62.62,0,0,1-.63,0,.46.46,0,0,0-.44,0,.56.56,0,0,1-.56,0,.54.54,0,0,0-.48,0,.9.9,0,0,1-.27.07,1.65,1.65,0,0,1-.32-.06m1.36-2.92-.08.13h-.08v.21h.08l0,.09.2-.1-.06-.09.08-.13c-.12.06-.17,0-.19-.1m-.56-.68-.15.09v.17l.14.1.19-.1a.22.22,0,0,1,0-.08l0-.08-.18-.1m1.29.06c-.11,0-.15,0-.2-.11,0,.13-.09.13-.19.13.11.07.06.13,0,.21h.12a.19.19,0,0,1,0,.08l.19-.11c-.07-.05,0-.11,0-.2" transform="translate(-747.27 -537.15)"/><path class="cls-8" d="M754.5,542l.31.41.47-.93.47.93.31-.41.76,1a.18.18,0,0,1,0,.1.51.51,0,0,1-.73.4.64.64,0,0,0-.63,0,.43.43,0,0,1-.41,0,.6.6,0,0,0-.62,0,.51.51,0,0,1-.71-.32.22.22,0,0,1,0-.23l.73-1" transform="translate(-747.27 -537.15)"/><path class="cls-9" d="M754.19,544.06l.37-.13a.52.52,0,0,1,.44,0,.54.54,0,0,0,.55,0,.54.54,0,0,1,.51,0,3.4,3.4,0,0,0,.33.1l-.26.26a2.38,2.38,0,0,1-.77.48.29.29,0,0,1-.13,0,2.35,2.35,0,0,1-1-.74s0,0,0,0" transform="translate(-747.27 -537.15)"/><path class="cls-10" d="M753.93,543.66a1.65,1.65,0,0,0,.32.06.68.68,0,0,0,.27-.07.54.54,0,0,1,.48,0,.56.56,0,0,0,.56,0,.46.46,0,0,1,.44,0,.62.62,0,0,0,.63,0c0,.25-.23.26-.45.22l-.13-.05a.5.5,0,0,0-.5,0,.52.52,0,0,1-.54,0,.54.54,0,0,0-.51,0,.77.77,0,0,1-.26.07c-.19,0-.24,0-.31-.22" transform="translate(-747.27 -537.15)"/><path class="cls-11" d="M755.29,540.74c0,.11.07.16.19.1l-.08.13.06.09-.2.1,0-.09h-.08v-.21h.08l.08-.13" transform="translate(-747.27 -537.15)"/><path class="cls-11" d="M754.73,540.06l.18.1,0,.08a.22.22,0,0,0,0,.08l-.19.11-.14-.1v-.18l.15-.09" transform="translate(-747.27 -537.15)"/><path class="cls-12" d="M756,540.12c-.06.09-.09.15,0,.2l-.19.11a.19.19,0,0,0,0-.08h-.12c.05-.08.1-.14,0-.21.1,0,.18,0,.19-.13,0,.1.09.16.2.11" transform="translate(-747.27 -537.15)"/></g></svg>