<svg id="Warstwa_1" data-name="Warstwa 1" xmlns="http://www.w3.org/2000/svg" xmlns:xlink="http://www.w3.org/1999/xlink" viewBox="0 0 22.55 15.05"><defs><style>.cls-1{fill:none;}.cls-2{clip-path:url(#clip-path);}.cls-3{fill:#fefefe;}.cls-4{clip-path:url(#clip-path-2);}.cls-5{fill:#ed1c25;}.cls-6{fill:#0b4ea1;}.cls-7{fill:#ed1d26;}.cls-8{fill:#0c4ea1;}.cls-9{fill:#fefcfc;}</style><clipPath id="clip-path" transform="translate(-752 -537.62)"><rect class="cls-1" x="754.83" y="537.62" width="15.12" height="15.05"/></clipPath><clipPath id="clip-path-2" transform="translate(-752 -537.62)"><rect class="cls-1" x="754.83" y="537.59" width="15.12" height="15.12"/></clipPath></defs><title>Slovakia</title><g class="cls-2"><path class="cls-3" d="M752,542.64v-5h22.55v15H752.1l-.1,0h22.53v-4.93s0-.05,0-.08,0,0,0-.06v-4.87s0-.05,0-.07H763.16a.22.22,0,0,0,0,.08c0,.58,0,1.17,0,1.76a4.74,4.74,0,0,1-.38,2.07,4.84,4.84,0,0,1-.69,1.08,6.71,6.71,0,0,1-2.11,1.55.17.17,0,0,1-.19,0,6.59,6.59,0,0,1-2.11-1.55l-.07-.09a4.15,4.15,0,0,1-1-2.44c0-.49,0-1,0-1.47v-1H752m10.32,4.25,0-.06a3.62,3.62,0,0,0,.55-1.89c0-.91,0-1.83,0-2.74,0-.27,0-.54-.05-.81H757a.37.37,0,0,1,0,.11c0,.51-.06,1-.07,1.52a19.78,19.78,0,0,0,0,2.31,3.54,3.54,0,0,0,.56,1.57l.25.36a5.89,5.89,0,0,0,2.11,1.61.26.26,0,0,0,.12,0,6.71,6.71,0,0,0,1.63-1.11,3.62,3.62,0,0,0,.7-.86" transform="translate(-752 -537.62)"/></g><g class="cls-4"><path class="cls-5" d="M757.71,547.63a6.59,6.59,0,0,0,2.11,1.55.17.17,0,0,0,.19,0,6.71,6.71,0,0,0,2.11-1.55h12.4s0,.06,0,.08v4.93H752v-5h5.71" transform="translate(-752 -537.62)"/><path class="cls-6" d="M757.71,547.63H752v-5h4.65v1c0,.49,0,1,0,1.47a4.2,4.2,0,0,0,1,2.45.27.27,0,0,1,.07.08" transform="translate(-752 -537.62)"/><path class="cls-6" d="M774.52,547.64h-12.4a4.84,4.84,0,0,0,.69-1.08,4.74,4.74,0,0,0,.38-2.07c0-.59,0-1.18,0-1.76a.22.22,0,0,1,0-.08h11.36s0,0,0,.07v4.87s0,0,0,.06" transform="translate(-752 -537.62)"/><path class="cls-7" d="M757.51,546.9a3.54,3.54,0,0,1-.56-1.57,19.78,19.78,0,0,1,0-2.31c0-.51,0-1,.07-1.52a.37.37,0,0,0,0-.11h5.79c0,.27,0,.54.05.81,0,.91,0,1.83,0,2.74a3.62,3.62,0,0,1-.55,1.89l0,.06c-.1-.12-.19-.26-.3-.37a.67.67,0,0,0-.73-.16.81.81,0,0,0-.42.36,1.57,1.57,0,0,0-.69-.81v-1.2a5.42,5.42,0,0,1,1.56.17V544a4.54,4.54,0,0,1-1.55.17v-.8a3.37,3.37,0,0,1,1.22.17v-.89a4,4,0,0,1-1.25.17c.06-.39.11-.77.17-1.15h-.83c.06.38.11.76.17,1.15a3.48,3.48,0,0,1-1.25-.18v.9a3.42,3.42,0,0,1,1.23-.17v.8a4.73,4.73,0,0,1-1.55-.16v.88a5.39,5.39,0,0,1,1.55-.17v1.2a1.59,1.59,0,0,0-.69.8l-.05-.07a.72.72,0,0,0-1.13-.09,3.24,3.24,0,0,0-.27.35" transform="translate(-752 -537.62)"/><path class="cls-8" d="M760.18,545.91a1.57,1.57,0,0,1,.69.81.77.77,0,0,1,.42-.36.67.67,0,0,1,.73.16c.11.11.2.25.3.37a3.62,3.62,0,0,1-.7.86,6.71,6.71,0,0,1-1.63,1.11.17.17,0,0,1-.12,0,5.75,5.75,0,0,1-2.11-1.6l-.25-.36a3.24,3.24,0,0,1,.27-.35.72.72,0,0,1,1.13.09l.05.07a1.59,1.59,0,0,1,.69-.8.8.8,0,0,1,.53,0" transform="translate(-752 -537.62)"/><path class="cls-9" d="M760.18,545.91a.8.8,0,0,0-.53,0v-1.2a5.39,5.39,0,0,0-1.55.17V544a4.45,4.45,0,0,0,1.54.17v-.8a3.4,3.4,0,0,0-1.22.17v-.9a4,4,0,0,0,1.25.18c-.06-.39-.11-.77-.17-1.15h.83c-.06.38-.11.76-.17,1.15a4,4,0,0,0,1.25-.17v.89a3.37,3.37,0,0,0-1.22-.17v.8a4.54,4.54,0,0,0,1.55-.17v.89a5.42,5.42,0,0,0-1.56-.17Z" transform="translate(-752 -537.62)"/></g></svg>