<svg id="Warstwa_1" data-name="Warstwa 1" xmlns="http://www.w3.org/2000/svg" xmlns:xlink="http://www.w3.org/1999/xlink" viewBox="0 0 23.64 15.76"><defs><style>.cls-1{fill:none;}.cls-2{clip-path:url(#clip-path);}.cls-3{fill:#fec300;}.cls-4{fill:#c50b1e;}.cls-5{fill:#fefefe;}.cls-6{fill:#ab1519;}.cls-7{fill:#aa1918;}.cls-8{fill:#a82017;}.cls-9{fill:#a41918;}.cls-10{fill:#5d3806;}.cls-11{fill:#c7b000;}.cls-12{fill:#c8c8c8;}.cls-13{fill:#0552a4;}.cls-14{fill:#725604;}.cls-15{fill:#a61418;}.cls-16{fill:#cacaca;}.cls-17{fill:#502e05;}.cls-18{fill:#8e7a12;}.cls-19{fill:#bda701;}.cls-20{fill:#c2c2c2;}.cls-21{fill:#a1870a;}.cls-22{fill:#5d5302;}.cls-23{fill:#5c5337;}.cls-24{fill:#7f6704;}.cls-25{fill:#a0a0a0;}.cls-26{fill:#2d6656;}.cls-27{fill:#c39a04;}.cls-28{fill:#edb900;}.cls-29{fill:#113fcd;}.cls-30{fill:#9b1419;}.cls-31{fill:#797778;}.cls-32{fill:#e56ea4;}</style><clipPath id="clip-path" transform="translate(-751.45 -537.27)"><rect class="cls-1" x="754.07" y="537.59" width="15.12" height="15.12"/></clipPath></defs><title>Spain</title><g class="cls-2"><path class="cls-3" d="M751.45,549.1v-7.88h23.61v.1c0,2.55,0,5.11,0,7.66v.11H751.45m5.11-2.68,0,0h0l0,0a.31.31,0,0,0,0,.36h0l0,0,0,0,0,.07,0,0,0-.21v0l.06,0h.05l0,.65c0,.05,0,.09,0,.13h0c0,.08-.07.16-.1.23s-.1.05-.11.08a2.8,2.8,0,0,0,0,.29l.46,0H757a2.17,2.17,0,0,1,.36,0c.07,0,.09,0,.07-.07v-.22c0-.09,0-.09-.09-.1s0-.2-.11-.24h0v-.1c0-.31,0-.63,0-.94l0,0h0l0,0h0l0,0h0l.06-.09a1.09,1.09,0,0,0,0-.18V546l0-.06-.08,0c-.14,0-.06-.14-.06-.21h.23l0,0h.13s.08.09.08.14v1.36a.8.8,0,0,0,0,.15h0l0,.1s0,.07.05.1l.09.13.07.08.11.07.06,0,.29.11a1.51,1.51,0,0,0,.84.13h0l.07,0a2.38,2.38,0,0,0,.8-.17.79.79,0,0,0,.68-.59.54.54,0,0,0,0-.1v-1.15c0-.13,0-.25,0-.38l.46-.06v.17c-.06,0-.15.07-.17.13s-.06.25.16.41c0,.31,0,.63,0,.94l0,0,0,.09c-.14,0,0,.16-.11.23s-.11,0-.09.1a1.31,1.31,0,0,1,0,.28h1a1,1,0,0,1,0-.25c0-.1,0-.13-.1-.14s0-.2-.11-.22l0-.09,0,0c0-.05,0-.09,0-.14s0-.35,0-.53l.11,0V547a.1.1,0,0,0,.07-.07c.2-.34.19-.41-.12-.53l-.07,0,0-.26c.07,0,.16,0,.2-.06.24-.27.2-.42-.13-.55H762c0-.24,0-.47,0-.71l0-.11a1.34,1.34,0,0,0,.07-.18l-.16-.06a.28.28,0,0,0,.07-.09s.07-.11.06-.15-.08-.06-.13-.08l-.21-.09-.22.09c-.05,0-.12,0-.14.08s0,.1.06.15l.07.09-.18.07.12.2v.11c0,.2,0,.4,0,.59l-.47.06v-1h-.78s-.09,0-.14-.06l.09,0,.11,0c.08,0,.06,0,0-.09a2.75,2.75,0,0,0,.22-.26l.23-.18.22-.14a.35.35,0,0,1,0-.06,1,1,0,0,0,.1-.33c0-.08-.08-.15-.11-.24s-.28-.23-.38-.14c-.13-.12-.2-.12-.36,0s-.07-.14-.17-.19a.66.66,0,0,0-.27,0,.7.7,0,0,0-.26.08h-.05a.45.45,0,0,0,0-.11s0-.1,0-.11-.06-.1-.05-.18,0-.1,0-.15l-.1.07-.07,0,0,0c0,.06,0,.13,0,.2l0,.11-.15.1a.63.63,0,0,0-.23-.08,1.07,1.07,0,0,0-.22.1l-.09.06-.11.05H758c-.15,0-.22.08-.19.17l-.09.06-.1,0,0,0,0,.12,0,.06,0,.06.09.2.18.11.05,0,.21.22.12.07,0,.05.06.15.21.06,0,0v0h-.88v1l-.27,0h0l-.19,0c0-.18,0-.36,0-.53a0,0,0,0,0,0,0,.83.83,0,0,0,0-.15c.1,0,.1-.11.08-.18s-.09,0-.14-.05l.11-.19c0-.05-.05-.11-.08-.17l-.18,0-.07-.19-.09.2c-.17-.11-.2,0-.28.12a2.43,2.43,0,0,1,.14.2l-.13,0c0,.16,0,.16.07.23a1.24,1.24,0,0,1,0,.16.45.45,0,0,0,0,.11v.49l-.09.05c-.35.15-.3.2-.14.5h0c.06.07.13.12.23.07l0,.29,0,0-.07,0h0l-.06,0Z" transform="translate(-751.45 -537.27)"/><path class="cls-4" d="M775.06,541.22H751.45v-3.93h23.61v3.93" transform="translate(-751.45 -537.27)"/><path class="cls-4" d="M751.45,549.1h23.61v.16c0,1.25,0,2.51,0,3.77H751.45Z" transform="translate(-751.45 -537.27)"/><path class="cls-5" d="M775.06,553V538.57c0-.42,0-.84,0-1.27H751.45s0,0,0,0h23.62v15.62a.7.7,0,0,1,0,.14" transform="translate(-751.45 -537.27)"/><path class="cls-6" d="M757.47,545.39l.27,0a.45.45,0,0,0,0-.11v-.69c0-.2,0-.2.21-.2h1.19c.1,0,.14,0,.14.13,0,.3,0,.6,0,.9a.44.44,0,0,1,0,.15h.26l0,0,.19.17,0,.07,0,.07,0,.07h0v.28c0,.06,0,.11,0,.17l0,0,0,.06h0l0,.05v0h0l-.08,0h0l-.09.06h0l-.41,0,0,0-.09-.06h0l0-.06h0l-.05-.06s0,0,0,0l0-.06h0v-.12l0,0V546h0a.19.19,0,0,1,0,.07l-.12,0h-.91v-.31c0-.08,0-.11-.11-.1h-.13l0,0h0l-.14-.12.06-.09h0a.22.22,0,0,1,.05-.08m1.59.47,0,0,0,.1,0,0s0,0,0,0v.15s0,0,0,0,0,0,0,0l0,.1,0,0s0,0,0,0h0l0,0h0l0,0h0l.07,0,.06,0h.11l.06,0h0l0,0h0l.09-.08h0s0,0,0,0v0l0,0a.17.17,0,0,1,0-.05V546a.14.14,0,0,1,0-.06l0,0v0s0,0,0,0h0l-.09-.08h0l0,0h0l-.09,0h-.1l-.11,0v0l0,0h0l0,0h0s0,0,0,0m-.83-1-.07.09.05.67-.11,0v.2l0,0h.33l.2,0c.09,0,.21.07.26-.09l.15-.07,0-.06c-.13,0-.15-.1-.14-.2a1.81,1.81,0,0,0,.05-.31.75.75,0,0,0,0-.21.33.33,0,0,0-.06-.1l0,0h0c-.07,0-.15-.08-.16.06v0l0,.05c0-.1,0-.16,0-.23a.61.61,0,0,0,0-.14h-.2s0,.09,0,.14.09.18-.07.2v0l0-.06,0,0h0c-.13-.05-.15,0-.15.06" transform="translate(-751.45 -537.27)"/><path class="cls-7" d="M760.9,547.37a.8.8,0,0,1-.68.59,1,1,0,0,1-.65-.21l-.21-.36v-.51c0-.11,0-.17.15-.17a.88.88,0,0,1,0,.16c0,.12,0,.24,0,.36a.71.71,0,0,0,.06.24s0,0,.07.07a.31.31,0,0,1,.09.07s.36.19.4.15.28,0,.4-.18.1-.28.19-.4,0-.09,0-.14,0-.26,0-.39,0,0,0-.06a.86.86,0,0,1,0-.16c0-.11,0-.15-.11-.13a1,1,0,0,1-.17,0h-.11a.86.86,0,0,1-.45,0s0,0,0,0,.08-.07.13-.07h.9v1.22" transform="translate(-751.45 -537.27)"/><path class="cls-8" d="M762,545.44H762c.33.13.37.28.13.55,0,0-.13,0-.2.06a1.66,1.66,0,0,0,0-.22s0-.09-.06-.1-.31,0-.47-.06l-.46.06v-.33l.47-.06h0l.16,0,.31,0,.07,0m-.1.06h0l-.1,0c0,.07,0,.12,0,.17l.15,0a.81.81,0,0,0,0-.15" transform="translate(-751.45 -537.27)"/><path class="cls-9" d="M761.93,546.32l.07,0c.31.12.32.19.12.53a.12.12,0,0,1-.07.07v-.28l-.11,0-.07,0-.1-.05-.33-.15-.05,0c-.22-.15-.25-.2-.16-.4s.11-.09.17-.13,0,.16.05.27l.48.2" transform="translate(-751.45 -537.27)"/><path class="cls-10" d="M758.86,546.24v.12h-.05l0-.17-.08,0a.25.25,0,0,0,0,.11c0,.51,0,1,0,1.52a.39.39,0,0,0,.05.14l-.24.05-.29-.11v0c.11,0,.08-.06.08-.11v-1.57c-.1,0-.15,0-.15.09V547c0,.28,0,.56,0,.84v0l-.11-.07c.1,0,.08-.08.08-.14,0-.45,0-.89,0-1.34,0,0,0-.09-.07-.14s-.07.1-.07.15c0,.46,0,.93,0,1.39l-.09-.13.06,0a.57.57,0,0,0,0-.13v-1.25h-.15v0h.91l.12,0h0v.12l0,0m-.24-.07c-.12,0-.15,0-.15.1v1.53c0,.12,0,.14.15.1Zm-.23,1.76.06,0c0-.55,0-1.1,0-1.66,0,0-.05-.05-.07-.08s-.07.07-.07.1c0,.52,0,1,0,1.55,0,0,.05.08.08.13" transform="translate(-751.45 -537.27)"/><path class="cls-8" d="M756.71,546.36l0,0h.06l.06,0h0l0,0,.15-.08.12,0,.06-.06,0-.41h0c0,.07-.07.17.07.21l.08,0,0,.06-.1,0v0l.09,0a1.09,1.09,0,0,1,0,.18l-.06.09h0l0,0h0l0,0h0l-.06,0v0l0,0a0,0,0,0,0,0,0l-.14.06-.11,0-.05,0h0l-.08,0h0l-.08,0h0l-.06,0h0l-.06,0v0l-.11,0s0,.06,0,.09a.29.29,0,0,1,0-.36l0,0h0l0,0h0l.06,0h0l.07,0" transform="translate(-751.45 -537.27)"/><path class="cls-11" d="M758.3,544.06l-.12-.07.06-.07h0l.13,0a.28.28,0,0,1,0-.09h.15v0l.17,0,.44,0h.69l-.1,0h-.51l-.31,0h-.16l.07.15h0l0-.15h.29a.19.19,0,0,1,0,.08h.27l0-.08h.3l-.06.21h-1l-.16.05h0l-.13.06-.06-.15h.08v0h-.12m1.25-.07a.07.07,0,0,0,0,0l.08,0v0h-.08m-1,.06v0h.06v0l-.06,0M759,544v0h0l0,0m-.32,0h0m-.26,0h0Z" transform="translate(-751.45 -537.27)"/><path class="cls-12" d="M761.93,546.32l-.48-.2c0-.11,0-.19-.05-.27v-.17c.16,0,.32,0,.47.06s0,.07.06.1a1.46,1.46,0,0,1,0,.22l0,.26" transform="translate(-751.45 -537.27)"/><path class="cls-13" d="M762.07,547.67c.08,0,.12,0,.1.13a1.13,1.13,0,0,0,0,.26h-1a1.31,1.31,0,0,0,0-.28c0-.1,0-.09.09-.11h.78m.09.3v-.05l-.35,0h-.29c-.11,0-.21,0-.32,0v0Zm0-.15a1.51,1.51,0,0,0-1,0l.17,0s.1,0,.14,0a.28.28,0,0,0,.25,0c.11,0,.22-.07.33,0s.06,0,.13,0" transform="translate(-751.45 -537.27)"/><path class="cls-13" d="M757.47,547.85V548l-.37-.06h-.25a.37.37,0,0,0-.33.05l.45.06H757a.34.34,0,0,1,.34,0h.09c0,.07,0,.08-.07.07a2.17,2.17,0,0,0-.36,0H757l-.46,0a2.8,2.8,0,0,1,0-.29s.07,0,.11-.08h.78s.12,0,.09.1l-.78,0a1.33,1.33,0,0,0-.19,0,.12.12,0,0,0,.11,0c.09-.07.17,0,.26,0s0,0,0,0a.8.8,0,0,1,.55,0" transform="translate(-751.45 -537.27)"/><path class="cls-14" d="M761.46,544.38l-.07-.09s-.07-.11-.06-.15.09-.06.14-.08l.22-.09.21.09c.05,0,.12,0,.13.08s0,.1-.06.15a.28.28,0,0,1-.07.09l-.06,0,0,.07h-.38l0-.06h-.06" transform="translate(-751.45 -537.27)"/><path class="cls-15" d="M757.94,547.69c0-.46,0-.93,0-1.39,0,0,0-.1.07-.15s.07.09.07.14c0,.45,0,.89,0,1.34,0,.06,0,.14-.08.14l-.07-.08" transform="translate(-751.45 -537.27)"/><path class="cls-14" d="M756.76,544.4a2.43,2.43,0,0,0-.14-.2c.08-.07.11-.23.28-.12l.09-.2a2,2,0,0,0,.07.19l.18,0c0,.06,0,.12.08.17l-.11.19v0h-.41a.13.13,0,0,1,0-.06l0,0m.33-.08,0,0,0,0h0s0,0,0,0m-.17,0h0" transform="translate(-751.45 -537.27)"/><path class="cls-16" d="M756.71,545.41v-.49a.45.45,0,0,1,0-.11h.32v.56H757l-.17,0h-.12" transform="translate(-751.45 -537.27)"/><path class="cls-11" d="M757.77,546.16h.15v1.25a.57.57,0,0,1,0,.13l-.06,0s0-.07-.05-.1l0-.1h0v-1.2" transform="translate(-751.45 -537.27)"/><path class="cls-17" d="M758.39,544.26l.13-.06h0l.15-.05h1l-.35,0c-.26,0-.27,0-.22.19h.25v0c0,.31,0,.62,0,.92,0,.14,0,.23.16.25h-.25a.44.44,0,0,0,0-.15c0-.3,0-.6,0-.9,0-.11,0-.14-.14-.13h-.37s0,0,.06-.09l-.24.07v-.07h0l-.21-.06" transform="translate(-751.45 -537.27)"/><path class="cls-18" d="M759.48,542.74a.7.7,0,0,1,.26-.08.66.66,0,0,1,.27,0c.1,0,.07.18.17.19s.22-.13.36,0l-.08,0h-.2v.26l0,0,0,0a.27.27,0,0,1-.08.07h0a.61.61,0,0,1-.07-.1l0-.05c.09-.13.08-.24,0-.31a.67.67,0,0,0-.24-.07h-.28v0" transform="translate(-751.45 -537.27)"/><path class="cls-16" d="M757.06,546.19l-.15.08,0,0h0l-.06,0h-.06a2.64,2.64,0,0,0,0-.29c0-.09,0-.18,0-.29l.11,0h0l.12,0h.09v.51" transform="translate(-751.45 -537.27)"/><path class="cls-19" d="M759.69,544.14l.06-.21v0l.1,0h.08l.45.05,0,0h0l.06.05-.22.26h-.13l-.45-.08" transform="translate(-751.45 -537.27)"/><path class="cls-20" d="M758.47,548l.24-.05.06,0h0l.16,0,.1-.07.12-.11.13,0c0,.07,0,.13,0,.2l-.29,0v0l.22.08s0,0,.08.07a1.51,1.51,0,0,1-.84-.13" transform="translate(-751.45 -537.27)"/><path class="cls-21" d="M760.46,542.93l.08,0c.1-.09.33,0,.38.14s.12.16.11.24a1,1,0,0,1-.1.33l-.09,0-.08-.13,0-.08a.24.24,0,0,0-.13-.33l-.21-.08" transform="translate(-751.45 -537.27)"/><path class="cls-8" d="M756.83,545.72l-.11,0c0,.1,0,.19,0,.28s-.17,0-.23-.07h0c-.16-.3-.21-.35.14-.5l.09-.05h0v.07l-.12.08.1.14h.11" transform="translate(-751.45 -537.27)"/><path class="cls-15" d="M759.69,544.14l.45.08,0,.07-.09,0-.68.06h0v-.19l.35,0h0" transform="translate(-751.45 -537.27)"/><path class="cls-6" d="M756.74,545.49v-.07h.09l.17,0h.06l.18,0,.19,0a.19.19,0,0,0,0,.08h0l-.06.09h0l0,.11h-.15c0-.14,0-.17-.1-.18s0,.12,0,.18H757l-.13-.13a.71.71,0,0,1,0,.17h-.13l0-.12s0-.07,0-.1m.14,0a.43.43,0,0,1,0,0l0,0,0,0,0,0" transform="translate(-751.45 -537.27)"/><path class="cls-20" d="M759.57,547.74a.92.92,0,0,0,.65.22,2.38,2.38,0,0,1-.8.17l-.07,0a.35.35,0,0,1,.13-.08,1.83,1.83,0,0,1,.25-.06v-.05h-.21l.06-.17" transform="translate(-751.45 -537.27)"/><path class="cls-18" d="M758.59,542.74a1.07,1.07,0,0,1,.22-.1.63.63,0,0,1,.23.08l0,.06h-.17a.25.25,0,0,0-.24.38.61.61,0,0,1-.05.11l-.14-.09V543l.09.12c0-.07,0-.17,0-.26l.06-.08" transform="translate(-751.45 -537.27)"/><path class="cls-22" d="M757.06,544.82h-.32s0-.11,0-.16v0h.53l0,0a.83.83,0,0,1,0,.15l-.05,0h-.12" transform="translate(-751.45 -537.27)"/><path class="cls-23" d="M759.34,544.38l.68-.06c.05,0,.09.06.14.06h.78v1.36c0,.13,0,.25,0,.38h0v-1.7h-1.56v0" transform="translate(-751.45 -537.27)"/><path class="cls-24" d="M759,542.78l0-.06.15-.1.2.1,0,0h.07v0h-.08c-.09.07-.12.13,0,.17s0,.23-.14.2h0a.15.15,0,0,1,0-.07.32.32,0,0,1,0-.09h-.09c0-.22,0-.23-.18-.24" transform="translate(-751.45 -537.27)"/><path class="cls-19" d="M759.39,542.72l-.2-.1,0-.11c0-.07,0-.14,0-.2l0,0,.07,0,.1-.07c0,.05.06.11,0,.15s0,.13.05.18,0,.07,0,.11a.45.45,0,0,1,0,.11h0l0,0" transform="translate(-751.45 -537.27)"/><path class="cls-25" d="M757.06,544.82h.17c0,.17,0,.35,0,.53l-.18,0v-.56" transform="translate(-751.45 -537.27)"/><path class="cls-26" d="M759.51,547.91h.21a.11.11,0,0,0,0,.05,1.83,1.83,0,0,0-.25.06.35.35,0,0,0-.13.08h0s0-.06-.08-.07L759,548v0l.28,0h.09l.12,0" transform="translate(-751.45 -537.27)"/><path class="cls-22" d="M762,544.62l0,.11-.56,0v-.15l.59,0v0" transform="translate(-751.45 -537.27)"/><path class="cls-18" d="M761.4,544.76l.56,0c0,.24,0,.47,0,.71l-.07,0h0l0,0v-.53l0,0h-.48v.53h0c0-.19,0-.39,0-.59" transform="translate(-751.45 -537.27)"/><path class="cls-20" d="M757.47,548h-.09a.34.34,0,0,0-.34,0H757l-.45-.06a.37.37,0,0,1,.33-.05h.25l.37.06v0" transform="translate(-751.45 -537.27)"/><path class="cls-18" d="M757.83,543c0-.09,0-.16.19-.18h.37v.08l-.48.12s0,0,0-.06l-.09,0" transform="translate(-751.45 -537.27)"/><path class="cls-10" d="M758.62,544.38l.24-.07s0,.07-.06.09H758c-.21,0-.21,0-.21.2v.69a.45.45,0,0,1,0,.11v-1Z" transform="translate(-751.45 -537.27)"/><path class="cls-20" d="M757.47,547.85a.8.8,0,0,0-.55,0s0,0,0,0-.17-.07-.26,0a.12.12,0,0,1-.11,0,1.33,1.33,0,0,1,.19,0l.78,0v.07" transform="translate(-751.45 -537.27)"/><path class="cls-24" d="M756.7,547.43l0-.13h.49l0,0h0v.1h-.57" transform="translate(-751.45 -537.27)"/><path class="cls-11" d="M761.4,547.45l0-.09h.5l0,.09h-.56" transform="translate(-751.45 -537.27)"/><path class="cls-27" d="M757.83,543l.09,0v.06c0,.09,0,.19-.08.29l0,.11,0,.14,0,0-.09-.2.09-.21a.41.41,0,0,0,0,.11h0c0-.06,0-.12,0-.19v0l.09-.06" transform="translate(-751.45 -537.27)"/><path class="cls-22" d="M761.4,547.45H762c.15,0,0,.16.11.22h-.78c.06-.06,0-.2.11-.22m.28.2h.25s.06,0,.09-.07-.06-.07-.09-.07h-.51s0,0-.08.07.06.07.09.07h.25" transform="translate(-751.45 -537.27)"/><path class="cls-22" d="M757.37,547.68h-.77c0-.07.07-.15.1-.23h.57c.12,0,.06.16.1.24m-.38,0h.26s0,0,.08-.06-.05-.08-.08-.08h-.53s-.05,0-.07.08.05.06.07.06H757" transform="translate(-751.45 -537.27)"/><path class="cls-17" d="M757.77,546.16v1.2a.8.8,0,0,1,0-.15v-1.36c0-.05,0-.09-.08-.14s.11,0,.11.11v.34" transform="translate(-751.45 -537.27)"/><path class="cls-12" d="M761.87,546.61l.07,0c0,.18,0,.35,0,.53s0,.09,0,.14h0v-.72" transform="translate(-751.45 -537.27)"/><path class="cls-19" d="M760.83,543.55l.1,0s0,.06,0,.06-.14.09-.21.14l-.09-.09.2-.15" transform="translate(-751.45 -537.27)"/><path class="cls-17" d="M760.9,546.12h0c0,.39,0,.77,0,1.15a.54.54,0,0,1,0,.1c0-.41,0-.81,0-1.22v0Z" transform="translate(-751.45 -537.27)"/><path class="cls-11" d="M757.27,547.44h0" transform="translate(-751.45 -537.27)"/><path class="cls-27" d="M760.63,543.7l.09.09-.23.18-.06-.05.14-.07c.08,0,.08-.07,0-.12l-.11-.06,0,0h.12" transform="translate(-751.45 -537.27)"/><path class="cls-27" d="M757.27,547.33h0v-.94h0v.94" transform="translate(-751.45 -537.27)"/><path class="cls-18" d="M761.39,546.38l.05,0c0,.31,0,.61,0,.92h0c0-.32,0-.63,0-1" transform="translate(-751.45 -537.27)"/><path class="cls-22" d="M758.39,542.93v-.08l.11-.05,0,0c0,.09,0,.19,0,.26l-.09-.12,0,0" transform="translate(-751.45 -537.27)"/><path class="cls-19" d="M758.24,543.92l-.06.07-.21-.22.1,0c0,.14.07.17.17.19" transform="translate(-751.45 -537.27)"/><path class="cls-9" d="M756.49,546.83v-.09l.11,0,0,.21-.07,0,0,0,0,0Z" transform="translate(-751.45 -537.27)"/><path class="cls-10" d="M758.07,543.73l-.1,0-.05,0s0-.09,0-.13l.25.13h-.12" transform="translate(-751.45 -537.27)"/><path class="cls-18" d="M756.74,547.3h0c0-.21,0-.43,0-.65v0h0v.67" transform="translate(-751.45 -537.27)"/><path class="cls-24" d="M762,544.62v0c.09-.15,0-.15-.12-.16l0-.07.06,0,.16.06a1.34,1.34,0,0,1-.07.18" transform="translate(-751.45 -537.27)"/><path class="cls-24" d="M761.4,544.61v0l-.12-.2.18-.07h.06l0,.06-.14.05a.69.69,0,0,0,0,.13" transform="translate(-751.45 -537.27)"/><path class="cls-24" d="M756.71,544.61v0c-.09-.07-.09-.07-.07-.23l.13,0,0,0v.06l-.15,0,.06.14" transform="translate(-751.45 -537.27)"/><path class="cls-8" d="M757.33,545.67l0-.11.14.12h-.17" transform="translate(-751.45 -537.27)"/><path class="cls-24" d="M761.41,547.33h.5l0,0h-.5l0,0" transform="translate(-751.45 -537.27)"/><path class="cls-11" d="M757.94,543.59s0,.09,0,.13l-.18-.11,0,0h.17Z" transform="translate(-751.45 -537.27)"/><path class="cls-18" d="M757.74,543.2l-.09.21,0-.06,0-.06,0-.12a.1.1,0,0,0,.05,0s0,0,0,.07" transform="translate(-751.45 -537.27)"/><path class="cls-14" d="M760.11,544.29l0-.07h.13s0,.1,0,.09l-.11,0" transform="translate(-751.45 -537.27)"/><path class="cls-24" d="M757.27,544.64l0,0,.09-.11-.12-.07v0s.13,0,.14.05,0,.16-.08.18" transform="translate(-751.45 -537.27)"/><path class="cls-28" d="M757.73,543.13l-.05,0,0,0,.1,0v0" transform="translate(-751.45 -537.27)"/><path class="cls-19" d="M758.3,544.06h.12v0h-.08l0-.05" transform="translate(-751.45 -537.27)"/><path class="cls-27" d="M758.53,542.82l0,0,.09,0-.06.08" transform="translate(-751.45 -537.27)"/><path class="cls-9" d="M757.44,546l-.09,0v0l.1,0V546" transform="translate(-751.45 -537.27)"/><path class="cls-27" d="M757.65,543.29l0,.06,0-.06" transform="translate(-751.45 -537.27)"/><path class="cls-9" d="M757.39,546.3l.06-.09-.06.09" transform="translate(-751.45 -537.27)"/><path class="cls-8" d="M756.55,546.89l.07,0,0,0,0-.07" transform="translate(-751.45 -537.27)"/><path class="cls-8" d="M757.42,545.47v-.08h0l-.05.08" transform="translate(-751.45 -537.27)"/><path class="cls-10" d="M758.6,544.32h0a.08.08,0,0,0,0,0l0,0" transform="translate(-751.45 -537.27)"/><path class="cls-17" d="M757.77,547.36l0,.1,0-.1" transform="translate(-751.45 -537.27)"/><path class="cls-9" d="M757.41,545.91l-.08,0,.08,0" transform="translate(-751.45 -537.27)"/><path class="cls-9" d="M756.71,546.36l-.07,0,.07,0" transform="translate(-751.45 -537.27)"/><path class="cls-9" d="M757.27,546.39h0l.06,0,0,0" transform="translate(-751.45 -537.27)"/><path class="cls-23" d="M757.23,544.82h-.05l.05,0s0,0,0,0" transform="translate(-751.45 -537.27)"/><path class="cls-9" d="M756.71,546.62v0h-.05l.06,0" transform="translate(-751.45 -537.27)"/><path class="cls-9" d="M756.59,546.69l.06,0-.06,0" transform="translate(-751.45 -537.27)"/><path class="cls-9" d="M756.62,546.39l-.06,0,.06,0" transform="translate(-751.45 -537.27)"/><path class="cls-10" d="M758.18,547.87l-.06,0v0l.06,0v0" transform="translate(-751.45 -537.27)"/><path class="cls-9" d="M757.36,546.32l0,0,0,0" transform="translate(-751.45 -537.27)"/><path class="cls-9" d="M757.3,546.36l0,0,0,0" transform="translate(-751.45 -537.27)"/><polyline class="cls-18" points="8.02 5.46 8.01 5.46 8.02 5.46"/><path class="cls-9" d="M756.56,546.42l0,0,0,0" transform="translate(-751.45 -537.27)"/><path class="cls-9" d="M756.5,546.45l0,0,0,0" transform="translate(-751.45 -537.27)"/><path class="cls-8" d="M757.5,545.68l0,0,0,0" transform="translate(-751.45 -537.27)"/><path class="cls-8" d="M756.5,546.83l0,0,0,0" transform="translate(-751.45 -537.27)"/><path class="cls-12" d="M759.34,544.42h1.56v1.7h-1a.61.61,0,0,1,0-.12h0l0-.07,0-.07,0-.07-.19-.17,0,0h0c-.15,0-.17-.11-.16-.25,0-.3,0-.61,0-.92m1.17.34v.4h0c0-.06,0-.13,0-.19a1.42,1.42,0,0,1,0-.2h-.11a.41.41,0,0,0-.31-.24s0,.07,0,.1l-.1.06-.15.09c0,.07.06.11.08.16-.16.06-.23,0-.35-.2a1.59,1.59,0,0,0-.13.13l.29.3a.53.53,0,0,0-.15.05c-.13.07,0,.11,0,.15.19-.16.28-.15.4,0-.16,0-.11.12-.1.19l-.15.1a.42.42,0,0,0,.15,0,.24.24,0,0,0,.12,0,.66.66,0,0,0,0-.13l.18.11-.1.12a.25.25,0,0,0,0,.08.34.34,0,0,0,.12.06s0-.05.05-.07,0-.17,0-.21a.17.17,0,0,1,0-.27l-.07,0a.28.28,0,0,1-.18-.29,3.4,3.4,0,0,0,.12-.34h.11" transform="translate(-751.45 -537.27)"/><path class="cls-27" d="M759.87,546.28a.86.86,0,0,0,.45,0h.11a.92.92,0,0,0,.16,0c.11,0,.15,0,.12.13a.92.92,0,0,0,0,.16s0,0,0,0,0,.27,0,.4,0,.12,0,.14-.07.27-.19.4-.28.09-.4.18-.35-.1-.4-.15a.31.31,0,0,0-.09-.07s-.06,0-.07-.07a.71.71,0,0,1-.06-.24c0-.12,0-.24,0-.36a.9.9,0,0,0,0-.16,0,0,0,0,0,0,0h0l.09-.06h0l.07,0h0l0,.16a.19.19,0,0,0,0,.13s.07,0,.11,0l.17,0a.1.1,0,0,0,0,0h0a.1.1,0,0,0,0,0,.49.49,0,0,1-.24-.29v0h0l0,0,.34.3c0-.09-.08-.17-.06-.23s0-.18-.15-.13h-.08a1,1,0,0,1,0-.17h0m.34.63.08,0,.18,0c.08,0,.15,0,.14-.1s0-.2,0-.27l-.3.32-.06.06c-.1-.06-.17-.06-.17.08l-.09,0-.18,0s-.13,0-.13,0a1.54,1.54,0,0,0,0,.3l.29-.3L760,547c.06.07.12,0,.18,0l0,.08.29.3c0-.1,0-.2.05-.3a.23.23,0,0,0-.12,0,1.38,1.38,0,0,0-.2,0l-.06,0v-.07m-.15.17,0,0a.48.48,0,0,1-.23.26.09.09,0,0,0,0,.17l.25.12Zm.12.58.19-.12s.11-.07.1-.08a.39.39,0,0,0-.08-.14l-.14-.16-.07-.08Zm.37-1.24c-.09,0-.15,0-.21,0s-.22-.07-.14.13c0,0,0,.07,0,.11a.52.52,0,0,0,0,.14l.39-.4" transform="translate(-751.45 -537.27)"/><path class="cls-22" d="M758.21,545.91h-.08l0,0v-.2l.11,0c0-.22,0-.44-.05-.67.1.06.15,0,.23-.06v0h.15a1.4,1.4,0,0,0,.24.06c.14,0,.15,0,.12.17a1.42,1.42,0,0,0,0,.46s0,.11,0,.17-.17.09-.26.09,0-.23-.12-.23-.09.13-.1.21h0l-.05,0h-.18m.59-.61h-.11a.38.38,0,0,0,0,.15s.07,0,.12,0v-.17l0,0h0v0m-.43.2.07,0-.08-.17s-.07.08-.07.12a.35.35,0,0,0,.08.1" transform="translate(-751.45 -537.27)"/><path class="cls-13" d="M759.53,545.77l.09.09h0l0,0v0l0,0s0,0,0,.06v.27a.43.43,0,0,1,0,.05l0,0v0l0,0h0l-.09.08h0l0,0h0l-.06,0h-.11l-.06,0-.07,0h0l0,0h0l0,0h0s0,0,0,0l0,0,0-.1s0,0,0,0,0,0,0,0v-.15s0,0,0,0l0,0,0-.1,0,0s0,0,0,0h0s0,0,0,0h0l0,0s0,0,0,0l.11,0h.1l.09,0h0l0,0h0Zm.09.27-.12-.18-.11.18.11.18.12-.18m-.44.13.09-.13-.11-.19c0,.12-.16.22,0,.32m0,.16.12.09.11-.1-.12-.17-.11.18" transform="translate(-751.45 -537.27)"/><path class="cls-19" d="M759,547.84l-.16,0c0-.51,0-1,0-1.52h.05l0,.06s0,0,0,0l.05.06h0l0,.06h0v1.05c0,.07,0,.15,0,.23" transform="translate(-751.45 -537.27)"/><path class="cls-17" d="M758.92,545.8c0-.06,0-.12,0-.17a1.42,1.42,0,0,1,0-.46c0-.13,0-.16-.12-.17a1.4,1.4,0,0,1-.24-.06h-.15c.16,0,.07-.13.07-.2s0-.09,0-.14h.2a.61.61,0,0,1,0,.14c0,.07,0,.13,0,.23l0-.05s0,0,0,0l.16-.06h0l0,0a.19.19,0,0,1,0,.1.51.51,0,0,1,0,.21c0,.1,0,.2-.05.31s0,.19.14.2l0,.06-.15.07" transform="translate(-751.45 -537.27)"/><path class="cls-10" d="M759.51,546.68a0,0,0,0,1,0,0c-.11,0-.15.06-.14.17v.51h-.05v-.55c0-.08,0-.14-.13-.11v.42l0,.43,0,0c0-.16,0-.33,0-.49s0-.33,0-.49h0l.41,0" transform="translate(-751.45 -537.27)"/><path class="cls-8" d="M759.8,546.45h.08c.14-.05.22-.07.15.13s0,.14.06.23l-.34-.3v0l0,0" transform="translate(-751.45 -537.27)"/><path class="cls-7" d="M760,546.86l-.17,0s-.1,0-.11,0a.19.19,0,0,1,0-.13l0-.16v0l0,0a.53.53,0,0,0,.24.29h0" transform="translate(-751.45 -537.27)"/><path class="cls-29" d="M758.44,545.88h0c0-.08,0-.21.1-.21s.12.13.12.23l-.2,0,0,0" transform="translate(-751.45 -537.27)"/><path class="cls-17" d="M759,547.84c0-.08,0-.16,0-.23v-1.05l.09.06h0s-.06.08-.06.12v.92a.34.34,0,0,0,0,.11l-.1.07" transform="translate(-751.45 -537.27)"/><path class="cls-23" d="M759.84,546a.61.61,0,0,0,0,.12h1v0H760a.35.35,0,0,0-.13.08h0V546" transform="translate(-751.45 -537.27)"/><path class="cls-17" d="M758.39,544.91c-.08,0-.13.12-.23.06l.07-.09.14-.06h0l0,0,0,.06" transform="translate(-751.45 -537.27)"/><path class="cls-14" d="M758.37,544.82l-.14.06c0-.1,0-.11.14-.06" transform="translate(-751.45 -537.27)"/><path class="cls-14" d="M758.82,544.82l-.16.06c0-.14.09-.09.16-.06" transform="translate(-751.45 -537.27)"/><path class="cls-30" d="M759.69,546.24v0" transform="translate(-751.45 -537.27)"/><path class="cls-8" d="M757.36,545.56l.06-.09-.06.09" transform="translate(-751.45 -537.27)"/><path class="cls-30" d="M758.84,546.09h0l0-.07h0a.17.17,0,0,0,0,.07" transform="translate(-751.45 -537.27)"/><path class="cls-10" d="M758.21,545.64l-.11,0,.11,0" transform="translate(-751.45 -537.27)"/><path class="cls-30" d="M759,546.06v0" transform="translate(-751.45 -537.27)"/><path class="cls-10" d="M758.21,545.91h0" transform="translate(-751.45 -537.27)"/><path class="cls-10" d="M759.6,546.62l-.09.06.09-.06" transform="translate(-751.45 -537.27)"/><path class="cls-30" d="M759.45,545.73l-.09,0,.09,0" transform="translate(-751.45 -537.27)"/><path class="cls-30" d="M759,546.5l-.05-.06.05.06" transform="translate(-751.45 -537.27)"/><path class="cls-30" d="M759.31,545.71h0" transform="translate(-751.45 -537.27)"/><path class="cls-30" d="M759.75,545.79l0,.07,0-.07" transform="translate(-751.45 -537.27)"/><path class="cls-10" d="M759.75,546.47v0l0,0,0-.06" transform="translate(-751.45 -537.27)"/><path class="cls-30" d="M759.39,546.56l.06,0-.06,0" transform="translate(-751.45 -537.27)"/><path class="cls-30" d="M759,546l0,0,0,0" transform="translate(-751.45 -537.27)"/><path class="cls-10" d="M758.44,545.88l0,0h-.07l.05,0" transform="translate(-751.45 -537.27)"/><path class="cls-30" d="M759.22,546.54l.06,0-.06,0" transform="translate(-751.45 -537.27)"/><path class="cls-10" d="M759.68,546.59l-.08,0,.08,0" transform="translate(-751.45 -537.27)"/><path class="cls-17" d="M759,546.56l0-.06,0,.06" transform="translate(-751.45 -537.27)"/><path class="cls-30" d="M759.67,546.32l0-.05,0,.05" transform="translate(-751.45 -537.27)"/><path class="cls-30" d="M759.81,545.93l0,.07,0-.07" transform="translate(-751.45 -537.27)"/><path class="cls-30" d="M759.69,546l0-.06,0,.06" transform="translate(-751.45 -537.27)"/><path class="cls-30" d="M758.89,546.42l0-.06,0,.06" transform="translate(-751.45 -537.27)"/><path class="cls-30" d="M759,546.24s0,0,0,0,0,0,0,0" transform="translate(-751.45 -537.27)"/><path class="cls-30" d="M759.62,545.87h0" transform="translate(-751.45 -537.27)"/><path class="cls-14" d="M758.41,544.85l0,0,0,0" transform="translate(-751.45 -537.27)"/><path class="cls-10" d="M758.1,545.88l0,0,0,0" transform="translate(-751.45 -537.27)"/><path class="cls-30" d="M759.65,545.92v0" transform="translate(-751.45 -537.27)"/><path class="cls-30" d="M759.5,545.75h0" transform="translate(-751.45 -537.27)"/><path class="cls-10" d="M759.07,546.62l0,0h0l0,0Z" transform="translate(-751.45 -537.27)"/><path class="cls-30" d="M758.86,546.24l0,0,0,0" transform="translate(-751.45 -537.27)"/><path class="cls-30" d="M759.84,546.23h0v0h0v0" transform="translate(-751.45 -537.27)"/><path class="cls-30" d="M759.64,546.38v0" transform="translate(-751.45 -537.27)"/><path class="cls-30" d="M759,546.39l0,0,0,0" transform="translate(-751.45 -537.27)"/><path class="cls-30" d="M759.62,546.41h0" transform="translate(-751.45 -537.27)"/><polyline class="cls-30" points="7.62 9.16 7.63 9.16 7.63 9.17 7.62 9.16"/><path class="cls-30" d="M759.51,545.59l0,0,0,0" transform="translate(-751.45 -537.27)"/><polyline class="cls-30" points="7.65 9.19 7.66 9.19 7.66 9.2 7.65 9.19"/><path class="cls-30" d="M759.14,546.49h0" transform="translate(-751.45 -537.27)"/><polyline class="cls-30" points="8.07 9.23 8.07 9.23 8.08 9.23 8.07 9.23"/><path class="cls-30" d="M759.15,545.76s0,0,0,0v0" transform="translate(-751.45 -537.27)"/><polyline class="cls-30" points="8.08 8.51 8.07 8.51 8.07 8.5 8.08 8.51"/><polyline class="cls-30" points="7.66 8.54 7.66 8.54 7.65 8.54 7.66 8.54"/><path class="cls-30" d="M759.48,546.53s0,0,0,0h0" transform="translate(-751.45 -537.27)"/><path class="cls-30" d="M759.08,545.83h0" transform="translate(-751.45 -537.27)"/><path class="cls-30" d="M759.06,545.86l0,0,0,0" transform="translate(-751.45 -537.27)"/><path class="cls-10" d="M759.72,546.56l0,0,0-.05v0" transform="translate(-751.45 -537.27)"/><path class="cls-14" d="M758.86,544.85l0,0,0,0" transform="translate(-751.45 -537.27)"/><path class="cls-25" d="M759.31,547.39h.05l.21.35-.06.17-.12,0c0-.07,0-.15,0-.23l0,0h0l-.12,0v0s0,0,0,0a1.74,1.74,0,0,1,.1-.19" transform="translate(-751.45 -537.27)"/><path class="cls-16" d="M761.42,545.35v-.53h.48l0,0v.53l0,0h0l-.31,0-.17,0" transform="translate(-751.45 -537.27)"/><path class="cls-27" d="M761.87,545.5a.81.81,0,0,1,0,.15l-.15,0s0-.1,0-.17l.1,0,0,0v0l0,0" transform="translate(-751.45 -537.27)"/><path class="cls-16" d="M761.78,547.33h-.35c0-.31,0-.61,0-.92l.33.15c0,.26,0,.51,0,.77" transform="translate(-751.45 -537.27)"/><path class="cls-31" d="M761.78,547.33c0-.26,0-.51,0-.77l.1.05v.72h-.09" transform="translate(-751.45 -537.27)"/><path class="cls-11" d="M758.62,546.17v1.73c-.1,0-.15,0-.15-.09v-1.54c0-.1,0-.14.15-.1" transform="translate(-751.45 -537.27)"/><path class="cls-15" d="M758.39,547.93s-.08-.09-.08-.13c0-.52,0-1,0-1.55,0,0,0-.06.07-.1s.07.06.07.08c0,.56,0,1.11,0,1.66l-.06,0" transform="translate(-751.45 -537.27)"/><path class="cls-11" d="M758.19,547.85l-.06,0c0-.28,0-.56,0-.84v-.72c0-.11,0-.12.15-.09v1.57s0,.13-.08.11" transform="translate(-751.45 -537.27)"/><path class="cls-6" d="M758.77,547.89l-.06,0a.39.39,0,0,1-.05-.14c0-.51,0-1,0-1.52a.25.25,0,0,1,0-.11l.08,0c0,.56,0,1.12,0,1.69" transform="translate(-751.45 -537.27)"/><path class="cls-30" d="M758.77,547.89c0-.57,0-1.13,0-1.69l0,.17c0,.5,0,1,0,1.52h0" transform="translate(-751.45 -537.27)"/><path class="cls-16" d="M756.74,547.3v-.67l0,0h0l.08,0h0l.05,0,.11,0c0,.27,0,.53,0,.8h-.32" transform="translate(-751.45 -537.27)"/><path class="cls-25" d="M757.06,547.3c0-.27,0-.53,0-.8l.14-.06c0,.29,0,.57,0,.86h-.12" transform="translate(-751.45 -537.27)"/><path class="cls-25" d="M757.06,545.68h.15l0,.41-.06.06-.12,0v-.51" transform="translate(-751.45 -537.27)"/><path class="cls-25" d="M757.24,546.41v.89h0c0-.29,0-.58,0-.87l0,0" transform="translate(-751.45 -537.27)"/><path class="cls-16" d="M757.2,546.43v.87h0c0-.29,0-.57,0-.86a0,0,0,0,1,0,0" transform="translate(-751.45 -537.27)"/><path class="cls-9" d="M757.18,546.15l.06-.06-.06.06" transform="translate(-751.45 -537.27)"/><path class="cls-9" d="M756.88,546.56l-.08,0,.08,0" transform="translate(-751.45 -537.27)"/><path class="cls-9" d="M756.79,546.59l0,0h0l.08,0" transform="translate(-751.45 -537.27)"/><path class="cls-9" d="M756.94,546.54l-.05,0,.05,0" transform="translate(-751.45 -537.27)"/><path class="cls-9" d="M756.79,546.32l.06,0-.06,0" transform="translate(-751.45 -537.27)"/><path class="cls-9" d="M756.86,546.3l0,0,0,0" transform="translate(-751.45 -537.27)"/><path class="cls-9" d="M758.07,543.73h.12l-.25-.13h0l-.14-.14a.52.52,0,0,1,0-.11l.58-.15.14.09a.61.61,0,0,0,.05-.11l.58-.13c0,.09,0,.19,0,.28v.06l-.13.11-.08.06-.08.08,0,0,.12-.06h0l.06,0,.1,0,0,.1-.24.08h0v0l0,0,0,.09h0l-.27,0,.06-.07.16-.1c-.09-.05-.17-.06-.2-.1s-.07-.1-.13-.06-.06.08-.08.11l-.12.09a1.25,1.25,0,0,0,.12.08s.07,0,.11,0l-.06.17h-.15l-.08-.05s0,.07,0,.11h0c-.1,0-.2,0-.17-.19" transform="translate(-751.45 -537.27)"/><path class="cls-19" d="M759,543.79l.24-.08.08-.09c0,.11,0,.18.16.16a.65.65,0,0,0,.17-.08v0l0,0h0v0l-.2.08h-.37l-.11-.08" transform="translate(-751.45 -537.27)"/><path class="cls-10" d="M759.52,543.87l.2-.08h0c.09.1.17.09.26,0h0l.09,0h.17l.08.1-.45-.05h-.4" transform="translate(-751.45 -537.27)"/><path class="cls-10" d="M759,543.79l.11.08-.44,0-.17,0a.28.28,0,0,1,.24,0s.11,0,.17-.05H759Z" transform="translate(-751.45 -537.27)"/><path class="cls-19" d="M759,543.79c-.06,0-.13.07-.17.05a.28.28,0,0,0-.24,0v0l.06-.17.08.06.27,0" transform="translate(-751.45 -537.27)"/><path class="cls-22" d="M759.74,543.91v0h-.83l.31,0h.51" transform="translate(-751.45 -537.27)"/><path class="cls-19" d="M759.22,543.94h.23l0,.08h-.27l0-.08" transform="translate(-751.45 -537.27)"/><path class="cls-19" d="M758.92,543.93a.88.88,0,0,1,0,.15h0l-.07-.15h.16" transform="translate(-751.45 -537.27)"/><path class="cls-19" d="M758.27,543.91s0-.07,0-.11l.08.05a.28.28,0,0,0,0,.09l-.13,0" transform="translate(-751.45 -537.27)"/><path class="cls-22" d="M759,544.14h0" transform="translate(-751.45 -537.27)"/><path class="cls-19" d="M759.55,544h.08v0l-.08,0v0" transform="translate(-751.45 -537.27)"/><path class="cls-19" d="M758.52,544.05l.06,0v0h-.06v0" transform="translate(-751.45 -537.27)"/><path class="cls-19" d="M759,544l0,0h0v0" transform="translate(-751.45 -537.27)"/><path class="cls-19" d="M758.71,544h0v0h0v0" transform="translate(-751.45 -537.27)"/><polygon class="cls-19" points="7 6.75 6.99 6.75 6.99 6.74 7 6.75"/><path class="cls-20" d="M762.16,548h-1v0c.11,0,.21,0,.32,0h.29l.35,0V548" transform="translate(-751.45 -537.27)"/><path class="cls-20" d="M762.2,547.82c-.07,0-.11,0-.13,0s-.22,0-.33,0a.28.28,0,0,1-.25,0s-.1,0-.14,0l-.17,0a1.51,1.51,0,0,1,1,0" transform="translate(-751.45 -537.27)"/><path class="cls-11" d="M761.4,544.61a.69.69,0,0,1,0-.13l.14-.05h.38c.11,0,.21,0,.12.16l-.59,0" transform="translate(-751.45 -537.27)"/><path class="cls-11" d="M757.21,544.43l.12.07-.09.11h-.53l-.06-.13.15-.05h.41" transform="translate(-751.45 -537.27)"/><path class="cls-24" d="M757.09,544.32s0,0,0,0h0l0,0,0,0" transform="translate(-751.45 -537.27)"/><path class="cls-24" d="M756.92,544.31h0" transform="translate(-751.45 -537.27)"/><path class="cls-8" d="M757,545.38l-.17,0,.17,0" transform="translate(-751.45 -537.27)"/><path class="cls-30" d="M759.31,544.18v.19h-.22c-.05-.19,0-.2.22-.19" transform="translate(-751.45 -537.27)"/><path class="cls-22" d="M758.52,544.2h0" transform="translate(-751.45 -537.27)"/><path class="cls-6" d="M760.29,543.84h-.17l0,0,0,0h0l0,0,0-.13h0v.16h-.2l-.06,0h0l0,0v0c.1-.1,0-.13-.06-.18h0l0,0h0v0l0,0h-.09s0-.06,0-.08v0h0v0h0l.05,0h0v-.06a.13.13,0,0,1,0-.06l.16,0h.05l.07,0,.25.06v.05a.61.61,0,0,0,.07.1l-.1.11h0v.07l0,0,.26,0h0l-.13-.08v0l.05,0v0l0,0h0l0-.06v0l.07-.1,0,0h.29l.07,0h0l.06,0,.06,0,0,.1s0,.08.07.13l-.2.15h0l0-.1a.29.29,0,0,1,0,.1l0,0c-.07,0-.15,0-.14.1l0,.07m-.37-.35-.12.06s0,.05,0,.08l.09-.1v0" transform="translate(-751.45 -537.27)"/><path class="cls-3" d="M760,543.17l-.25-.06-.07,0h-.05l-.15,0,0-.18a.35.35,0,0,0-.05-.08h.36a.67.67,0,0,1,.24.07c.12.07.13.18,0,.31h0" transform="translate(-751.45 -537.27)"/><path class="cls-3" d="M760.51,543.23h0l-.23,0v-.26h.19l.22.08a.24.24,0,0,1,.13.33l-.08,0-.06,0-.06,0h0l-.07,0" transform="translate(-751.45 -537.27)"/><path class="cls-19" d="M760.11,543.35v0l0,.06h0v0l-.17,0v-.08l.1-.11h0a0,0,0,0,0,0,0" transform="translate(-751.45 -537.27)"/><path class="cls-9" d="M760.26,543.19l.23,0h-.27l0,0" transform="translate(-751.45 -537.27)"/><path class="cls-9" d="M760.11,543.35a0,0,0,0,1,0,0,.27.27,0,0,0,.08-.07.86.86,0,0,1-.07.1" transform="translate(-751.45 -537.27)"/><path class="cls-9" d="M760,543.17h0l0,.05v-.05" transform="translate(-751.45 -537.27)"/><path class="cls-8" d="M756.85,545.71a.71.71,0,0,0,0-.17l.13.13h0l-.13,0" transform="translate(-751.45 -537.27)"/><path class="cls-9" d="M760.33,543.77c0-.1.07-.1.14-.1l.11.06v.12l-.14.07h0l-.06-.14" transform="translate(-751.45 -537.27)"/><path class="cls-27" d="M760.33,543.77l.06.14,0,0-.08-.1,0-.07" transform="translate(-751.45 -537.27)"/><path class="cls-15" d="M759.19,547.63v0l-.12.11a.34.34,0,0,1,0-.11v-.92s0-.08.06-.12l0,0c0,.16,0,.33,0,.49s0,.33,0,.49" transform="translate(-751.45 -537.27)"/><path class="cls-30" d="M759.35,547.65l0,.24h-.09c0-.06,0-.13,0-.2h0l0,0" transform="translate(-751.45 -537.27)"/><path class="cls-9" d="M760.72,543.32l.08,0,0,.08,0-.1" transform="translate(-751.45 -537.27)"/><path class="cls-27" d="M756.74,545.49s0,.07,0,.1l0,.12-.1-.14.12-.08" transform="translate(-751.45 -537.27)"/><path class="cls-8" d="M757.18,545.67h-.06c0-.06,0-.12,0-.18s.12,0,.1.18" transform="translate(-751.45 -537.27)"/><path class="cls-8" d="M756.88,545.52l0,0,0,0,0,0a.43.43,0,0,0,0,0" transform="translate(-751.45 -537.27)"/><path class="cls-3" d="M759.18,543l-.58.13a.25.25,0,0,1,.24-.38H759c.18,0,.18,0,.18.24v0" transform="translate(-751.45 -537.27)"/><path class="cls-28" d="M758.41,543.19l-.58.15c0-.1,0-.2.08-.29l.48-.12,0,0v.23" transform="translate(-751.45 -537.27)"/><path class="cls-21" d="M759.45,542.87l0,.18s0,0,0,.07v.11h0l-.05,0h0l-.11-.09,0,0h0c.17,0,.14-.1.14-.2l0-.09" transform="translate(-751.45 -537.27)"/><path class="cls-18" d="M759.24,543.17l0,0c0,.07,0,.11-.07.12s0-.19,0-.28v0h.09a.32.32,0,0,0,0,.09.15.15,0,0,0,0,.07" transform="translate(-751.45 -537.27)"/><path class="cls-18" d="M759.45,542.87l0,.09c-.14,0-.11-.1,0-.17a.35.35,0,0,1,.05.08" transform="translate(-751.45 -537.27)"/><path class="cls-18" d="M759.39,542.72l0,0,0,0" transform="translate(-751.45 -537.27)"/><path class="cls-18" d="M759.28,543.16h0" transform="translate(-751.45 -537.27)"/><path class="cls-12" d="M761.9,545.41l0,0,0,0" transform="translate(-751.45 -537.27)"/><path class="cls-12" d="M761.93,544.85l0,0,0,0" transform="translate(-751.45 -537.27)"/><path class="cls-18" d="M756.83,547.31h0" transform="translate(-751.45 -537.27)"/><path class="cls-18" d="M757,547.31h0" transform="translate(-751.45 -537.27)"/><path class="cls-18" d="M757.21,547.31h0v0l0,0" transform="translate(-751.45 -537.27)"/><path class="cls-14" d="M757.8,543.45l.15.14h-.18l0-.14" transform="translate(-751.45 -537.27)"/><path class="cls-22" d="M757.73,543.13v0c0,.06,0,.13,0,.19h0s0-.07,0-.11,0,0,0-.07" transform="translate(-751.45 -537.27)"/><path class="cls-11" d="M761.68,547.65h-.25s-.06,0-.09-.07,0-.07.08-.07h.51s.06,0,.09.07-.06.06-.09.07h-.25" transform="translate(-751.45 -537.27)"/><path class="cls-11" d="M757,547.65h-.27s-.05,0-.07-.06.05-.08.07-.08h.53s0,0,.08.08-.05.06-.08.06H757" transform="translate(-751.45 -537.27)"/><path class="cls-19" d="M760.57,543.85v-.12c.07,0,.07.09,0,.12" transform="translate(-751.45 -537.27)"/><path class="cls-9" d="M760.51,543.7a.29.29,0,0,0,0-.1l0,.1h-.07" transform="translate(-751.45 -537.27)"/><path class="cls-32" d="M760.36,545.7l-.18-.11a.66.66,0,0,1,0,.13.24.24,0,0,1-.12,0,.42.42,0,0,1-.15,0l.15-.1c0-.07-.06-.18.1-.19-.12-.19-.21-.2-.4,0-.05,0-.14-.08,0-.15a.53.53,0,0,1,.15-.05l-.29-.3a1.59,1.59,0,0,1,.13-.13c.12.22.19.26.35.2l.08-.11v-.14l.1-.06.18.14a3.4,3.4,0,0,1-.12.34.28.28,0,0,0,.18.29l.07,0a.17.17,0,0,0,0,.27s0,.13,0,.21-.1-.11-.12-.19" transform="translate(-751.45 -537.27)"/><path class="cls-23" d="M760.4,544.76l-.18-.14s0-.06,0-.1a.41.41,0,0,1,.31.24h-.11" transform="translate(-751.45 -537.27)"/><path class="cls-31" d="M760.51,544.76h.11a1.42,1.42,0,0,0,0,.2c0,.06,0,.13,0,.19h0v-.4h0" transform="translate(-751.45 -537.27)"/><path class="cls-23" d="M760.36,545.7c0,.08,0,.21.12.19,0,0,0,.07-.05.07a.34.34,0,0,1-.12-.06.25.25,0,0,1,0-.08l.1-.12" transform="translate(-751.45 -537.27)"/><path class="cls-23" d="M760.12,544.68s0,.07,0,.14l-.08.11s0-.09-.08-.16l.15-.09" transform="translate(-751.45 -537.27)"/><path class="cls-8" d="M760.06,547.08v.57l-.25-.12a.09.09,0,0,1,0-.17.48.48,0,0,0,.23-.26l0,0" transform="translate(-751.45 -537.27)"/><path class="cls-8" d="M760.18,547.66v-.58l.07.08.14.16a.39.39,0,0,1,.08.14s-.06,0-.1.08l-.19.12" transform="translate(-751.45 -537.27)"/><path class="cls-8" d="M760.55,546.42l-.39.4a.52.52,0,0,1,0-.14s0-.08,0-.11c-.08-.2,0-.16.14-.13s.12,0,.21,0" transform="translate(-751.45 -537.27)"/><path class="cls-8" d="M760.28,547a1.38,1.38,0,0,1,.2,0,.23.23,0,0,1,.12,0c0,.1,0,.2-.05.3l-.29-.3,0,0" transform="translate(-751.45 -537.27)"/><path class="cls-8" d="M760,547.05l-.29.3a1.54,1.54,0,0,1,0-.3s.08,0,.13,0l.18,0,0,0" transform="translate(-751.45 -537.27)"/><path class="cls-8" d="M760.27,546.85l.3-.32c0,.07,0,.17,0,.27s-.05.13-.13.1l-.18,0,0,0" transform="translate(-751.45 -537.27)"/><path class="cls-26" d="M760,547c0-.14.07-.14.17-.08h0s0,0,0,.07h0c-.06.06-.12.09-.18,0h0" transform="translate(-751.45 -537.27)"/><path class="cls-8" d="M760,547h0l-.07.06,0,0,.09,0" transform="translate(-751.45 -537.27)"/><path class="cls-8" d="M760.22,547l.07,0,0,0,0-.08h0" transform="translate(-751.45 -537.27)"/><path class="cls-8" d="M760.21,546.91h0l.06-.06,0,0-.08,0" transform="translate(-751.45 -537.27)"/><path class="cls-7" d="M760,546.85l0,0h0l0,0h0" transform="translate(-751.45 -537.27)"/><path class="cls-29" d="M758.81,545.32v.17l-.12,0a.43.43,0,0,1,0-.16h.11v0" transform="translate(-751.45 -537.27)"/><path class="cls-29" d="M758.37,545.5a.35.35,0,0,1-.08-.1s.05-.08.07-.12l.08.17-.07,0" transform="translate(-751.45 -537.27)"/><path class="cls-17" d="M758.81,545.32v-.05h0l0,0" transform="translate(-751.45 -537.27)"/><path class="cls-18" d="M759.62,546l-.12.18-.11-.18.11-.18.12.18" transform="translate(-751.45 -537.27)"/><path class="cls-21" d="M759.18,546.17c-.18-.1-.07-.2,0-.32l.11.19-.09.13" transform="translate(-751.45 -537.27)"/><path class="cls-21" d="M759.22,546.33l.11-.18.12.17-.11.1-.12-.09" transform="translate(-751.45 -537.27)"/><path class="cls-11" d="M759.31,547.39a1.74,1.74,0,0,0-.1.19l0-.43v-.42c.12,0,.13,0,.13.11v.55" transform="translate(-751.45 -537.27)"/><path class="cls-20" d="M759.35,547.65l0,0,0,0" transform="translate(-751.45 -537.27)"/><path class="cls-8" d="M761.87,545.5l0,0v0l0,0Z" transform="translate(-751.45 -537.27)"/><path class="cls-10" d="M758.68,543.74l-.08-.06s-.08,0-.11,0a1.25,1.25,0,0,1-.12-.08l.12-.09s0-.09.08-.11.09,0,.13.06.11,0,.2.1l-.16.1-.06.07" transform="translate(-751.45 -537.27)"/><path class="cls-19" d="M759.22,543.32c.09,0,.1-.05.07-.12l.11.09,0,0h0v.1l-.18,0h0l0-.08v-.06" transform="translate(-751.45 -537.27)"/><path class="cls-19" d="M759.23,543.61l-.1,0-.06,0h0l-.06-.06.08-.06.16,0h0a.76.76,0,0,1,0,.15" transform="translate(-751.45 -537.27)"/><path class="cls-17" d="M759.23,543.61a.76.76,0,0,0,0-.15l.18,0,0,0a.68.68,0,0,0,0,.14h-.06l-.08.09,0-.1" transform="translate(-751.45 -537.27)"/><path class="cls-30" d="M759,543.55l.06.06-.12.06,0,0,.09-.08" transform="translate(-751.45 -537.27)"/><path class="cls-19" d="M759,543.79H759a.41.41,0,0,0,0-.09l0,0v0" transform="translate(-751.45 -537.27)"/><path class="cls-17" d="M759.25,543.46l-.16,0,.13-.11,0,.08" transform="translate(-751.45 -537.27)"/><path class="cls-30" d="M759.07,543.61l.06,0-.06,0" transform="translate(-751.45 -537.27)"/><path class="cls-30" d="M759,543.74l0,0,0,0" transform="translate(-751.45 -537.27)"/><path class="cls-9" d="M759.36,543.62h.06c.11.07.16,0,.21-.09s.16.08.06.18a.65.65,0,0,1-.17.08c-.11,0-.16,0-.16-.16" transform="translate(-751.45 -537.27)"/><path class="cls-9" d="M759.72,543.76l.06,0h-.06v0" transform="translate(-751.45 -537.27)"/><path class="cls-9" d="M759.69,543.73l0,0,0,0" transform="translate(-751.45 -537.27)"/><path class="cls-19" d="M759.72,543.79H760c-.09.09-.17.1-.26,0" transform="translate(-751.45 -537.27)"/><path class="cls-19" d="M760,543.79v-.15h0l0,.13a0,0,0,0,0,0,0H760" transform="translate(-751.45 -537.27)"/><path class="cls-19" d="M760.1,543.82l0,0-.09,0h0l0,0" transform="translate(-751.45 -537.27)"/><path class="cls-19" d="M759.63,543.52c0,.08-.1.15-.21.09v-.14h.11l0,0h0l0,0Z" transform="translate(-751.45 -537.27)"/><path class="cls-9" d="M759.92,543.53l-.09.1s0-.08,0-.08l.12-.06v0" transform="translate(-751.45 -537.27)"/><path class="cls-10" d="M760,543.51l.17,0,.13.08h0l-.26,0,0,0" transform="translate(-751.45 -537.27)"/><path class="cls-9" d="M759.48,543.12s0,0,0-.07l.15,0-.16,0" transform="translate(-751.45 -537.27)"/><path class="cls-9" d="M760.16,543.46v0l0,0v0l-.05,0" transform="translate(-751.45 -537.27)"/><path class="cls-9" d="M759.57,543.49l0,0,0,0v0" transform="translate(-751.45 -537.27)"/><path class="cls-9" d="M759.45,543.46h0l0-.05v0a.19.19,0,0,1,0,.08" transform="translate(-751.45 -537.27)"/><path class="cls-9" d="M760.16,543.44l0-.06,0,.06" transform="translate(-751.45 -537.27)"/><path class="cls-9" d="M759.43,543.35v0h0l0,0" transform="translate(-751.45 -537.27)"/><path class="cls-9" d="M759.43,543.29l.05,0-.05,0" transform="translate(-751.45 -537.27)"/><path class="cls-9" d="M760.51,543.23l.07,0-.07,0" transform="translate(-751.45 -537.27)"/><path class="cls-9" d="M759.49,543.23v0" transform="translate(-751.45 -537.27)"/><path class="cls-9" d="M759.69,543.08l.07,0-.07,0" transform="translate(-751.45 -537.27)"/><path class="cls-9" d="M760.6,543.26l.06,0-.06,0" transform="translate(-751.45 -537.27)"/><path class="cls-10" d="M759.92,543.53v0" transform="translate(-751.45 -537.27)"/><path class="cls-9" d="M760,543.43v0h0" transform="translate(-751.45 -537.27)"/><path class="cls-9" d="M760.07,543.79h0a0,0,0,0,1,0,0l0,0" transform="translate(-751.45 -537.27)"/><path class="cls-9" d="M759.63,543.52l0,0,0,0" transform="translate(-751.45 -537.27)"/><path class="cls-9" d="M759.42,543.32l0,0h0v0" transform="translate(-751.45 -537.27)"/><path class="cls-9" d="M760.1,543.82l0,0,0,0" transform="translate(-751.45 -537.27)"/><polyline class="cls-6" points="5.52 8.42 5.52 8.41 5.53 8.41 5.52 8.42"/></g></svg>