<svg id="Warstwa_1" data-name="Warstwa 1" xmlns="http://www.w3.org/2000/svg" xmlns:xlink="http://www.w3.org/1999/xlink" viewBox="0 0 24.12 15.08"><defs><style>.cls-1{fill:none;}.cls-2{clip-path:url(#clip-path);}.cls-3{fill:#fdcb00;}.cls-4{fill:#006aa6;}.cls-5{clip-path:url(#clip-path-2);}.cls-6{fill:#fefefe;}</style><clipPath id="clip-path" transform="translate(-751.21 -537.6)"><rect class="cls-1" x="754.13" y="537.59" width="15.12" height="15.12"/></clipPath><clipPath id="clip-path-2" transform="translate(-751.21 -537.6)"><rect class="cls-1" x="754.13" y="537.61" width="15.12" height="15.08"/></clipPath></defs><title>Sweden</title><g class="cls-2"><path class="cls-3" d="M775.33,543.64v3H761.77v6h-3v-6h-7.53v-3h7.53v-6h3v6Z" transform="translate(-751.21 -537.6)"/><path class="cls-4" d="M775.33,543.64H761.77v-6h13.56Z" transform="translate(-751.21 -537.6)"/><rect class="cls-4" x="10.56" y="9.05" width="13.56" height="6.03"/><path class="cls-4" d="M758.76,537.62v6h-7.53v-5.25a.19.19,0,0,0,0-.07v-.4a.14.14,0,0,0,0-.06v-.24h7.53" transform="translate(-751.21 -537.6)"/><path class="cls-4" d="M751.23,546.66h7.53v6h-7.53v-6" transform="translate(-751.21 -537.6)"/></g><g class="cls-5"><path class="cls-6" d="M758.76,537.62h-7.53v.24a.14.14,0,0,1,0,.06v-.32h24.07l-.07,0H758.76" transform="translate(-751.21 -537.6)"/><path class="cls-6" d="M751.23,546.66v6h0a.09.09,0,0,1,0,0V538.32a.19.19,0,0,1,0,.07v8.27" transform="translate(-751.21 -537.6)"/></g></svg>