<svg id="Warstwa_1" data-name="Warstwa 1" xmlns="http://www.w3.org/2000/svg" xmlns:xlink="http://www.w3.org/1999/xlink" viewBox="0 0 16.4 16.4"><defs><style>.cls-1{fill:none;}.cls-2{clip-path:url(#clip-path);}.cls-3{fill:#fe0000;}.cls-4{fill:#fefefe;}</style><clipPath id="clip-path" transform="translate(-755.07 -536.95)"><rect class="cls-1" x="755.71" y="537.59" width="15.12" height="15.12"/></clipPath></defs><title>switzerland</title><g class="cls-2"><path class="cls-3" d="M771.41,537h.06v16.4H755.09V537.7a.3.3,0,0,0,0-.1v-.38l0-.26h16.31m-9.66,13.32h3.07v-3.58h3.58v-3.08h-3.58V540h-3.07v3.58h-3.58v3.07h3.58Z" transform="translate(-755.07 -536.95)"/><path class="cls-4" d="M771.41,537H755.1l0,.26V537Z" transform="translate(-755.07 -536.95)"/><path class="cls-4" d="M755.07,537.6a.3.3,0,0,1,0,.1v15.65h0a.17.17,0,0,1,0-.07Z" transform="translate(-755.07 -536.95)"/><polygon class="cls-4" points="6.67 13.32 6.67 9.75 3.09 9.75 3.09 6.67 6.67 6.67 6.67 3.09 9.74 3.09 9.74 6.67 13.32 6.67 13.32 9.74 9.75 9.74 9.75 13.32 6.67 13.32"/></g></svg>