<?xml version="1.0" encoding="utf-8"?>
<!-- Generator: Adobe Illustrator 21.1.0, SVG Export Plug-In . SVG Version: 6.00 Build 0)  -->
<svg version="1.1" id="Warstwa_1" xmlns="http://www.w3.org/2000/svg" xmlns:xlink="http://www.w3.org/1999/xlink" x="0px" y="0px"
	 viewBox="0 0 15.1 15.1" style="enable-background:new 0 0 15.1 15.1;" xml:space="preserve">
<style type="text/css">
	.st0{clip-path:url(#SVGID_2_);}
	.st1{fill:#E20A17;}
	.st2{fill:#FEFDFD;}
</style>
<title>turkey</title>
<g>
	<defs>
		<rect id="SVGID_1_" width="15.1" height="15.1"/>
	</defs>
	<clipPath id="SVGID_2_">
		<use xlink:href="#SVGID_1_"  style="overflow:visible;"/>
	</clipPath>
	<g class="st0">
		<path class="st1" d="M21.1,15.2h-23V-0.1h23V15.2z M9.4,9.7L9.4,9.7L9.4,9.7c-0.8,0.7-1.9,1-3,0.7C4.8,10,3.8,8.4,4.2,6.7
			S6.3,4,7.9,4.4C8.5,4.6,9,4.9,9.4,5.2l0,0l0,0l0,0c0,0,0-0.1,0-0.1C8.1,3.5,5.7,3.1,4,4.3C2.3,5.6,1.9,8,3.2,9.7
			c0.6,0.9,1.6,1.4,2.7,1.6c0.9,0.1,1.9-0.2,2.7-0.7C8.9,10.3,9.2,10,9.4,9.7L9.4,9.7L9.4,9.7L9.4,9.7 M12.8,6.4L12.8,6.4l-1.2,0.4
			c0,0-0.1,0-0.1,0l-0.7-1c0,0-0.1-0.1-0.1-0.1V7L9.3,7.5l1.3,0.4v1.5c0,0,0.1-0.1,0.1-0.1l0.7-1c0-0.1,0.1-0.1,0.1,0l1.1,0.4h0.1
			l-0.1-0.1l-0.6-0.8c-0.1-0.1-0.1-0.1-0.2-0.2l0.8-1.1l0,0l0,0"/>
		<path class="st2" d="M9.3,9.7c-0.2,0.3-0.5,0.7-0.9,0.9c-0.8,0.6-1.7,0.8-2.7,0.7c-2.1-0.2-3.7-2.1-3.5-4.2s2.1-3.7,4.2-3.5
			c1.1,0.1,2.1,0.7,2.7,1.6c0,0,0,0.1,0,0.1l0,0C8.9,5,8.4,4.7,7.8,4.5C6.2,4.1,4.5,5.1,4.1,6.8s0.6,3.3,2.3,3.7
			C7.4,10.8,8.5,10.6,9.3,9.7L9.3,9.7L9.3,9.7"/>
		<path class="st2" d="M12.7,8.6L12.7,8.6l-1.2-0.4c-0.1,0-0.1,0-0.1,0l-0.7,1c0,0,0,0-0.1,0.1V8L9.2,7.6l1.3-0.4V5.7l0.1,0.1l0.7,1
			c0,0,0.1,0,0.1,0l1.1-0.4h0.1l0,0l-0.8,1.1l0.2,0.2L12.7,8.6L12.7,8.6L12.7,8.6z"/>
		<path class="st2" d="M9.3,5.4L9.3,5.4L9.3,5.4L9.3,5.4L9.3,5.4"/>
		<path class="st2" d="M9.4,9.7L9.4,9.7L9.4,9.7L9.4,9.7L9.4,9.7"/>
		<path class="st2" d="M9.4,5.4L9.4,5.4L9.4,5.4"/>
		<path class="st2" d="M12.7,6.4L12.7,6.4"/>
		<path class="st2" d="M12.7,8.6L12.7,8.6"/>
		<path class="st2" d="M9.4,9.7L9.4,9.7L9.4,9.7L9.4,9.7"/>
	</g>
</g>
</svg>
