<svg id="Warstwa_1" data-name="Warstwa 1" xmlns="http://www.w3.org/2000/svg" xmlns:xlink="http://www.w3.org/1999/xlink" viewBox="0 0 23.04 15.35"><defs><style>.cls-1{fill:none;}.cls-2{clip-path:url(#clip-path);}.cls-3{fill:#e20a17;}.cls-4{fill:#fefdfd;}</style><clipPath id="clip-path" transform="translate(-751.76 -537.47)"><rect class="cls-1" x="753.71" y="537.59" width="15.12" height="15.12"/></clipPath></defs><title>turkey</title><g class="cls-2"><path class="cls-3" d="M774.79,552.82h-23V537.47h23Zm-11.71-5.53,0,0-.06,0a3,3,0,0,1-2.89.74,3.07,3.07,0,0,1,1.49-6,3.11,3.11,0,0,1,1.46.81l0,0v0l0,0a.56.56,0,0,1,0-.08,3.84,3.84,0,1,0-3.47,6.09,3.68,3.68,0,0,0,2.66-.74,3.31,3.31,0,0,0,.86-.89l0,0v0h0m3.34-3.25h-.1l-1.14.37a.1.1,0,0,1-.13,0l-.7-1a.4.4,0,0,1-.07-.09v1.39l-1.32.43,1.32.44V547a.36.36,0,0,0,.07-.09l.7-1c0-.06.07-.06.13,0l1.14.36h.1l-.06-.06-.58-.81a2,2,0,0,1-.17-.23l.79-1.08,0,0h0" transform="translate(-751.76 -537.47)"/><path class="cls-4" d="M763.06,547.33a3.31,3.31,0,0,1-.86.89,3.68,3.68,0,0,1-2.66.74,3.84,3.84,0,1,1,3.47-6.09.56.56,0,0,0,0,.08l0,0a3,3,0,0,0-1.45-.81,3.07,3.07,0,0,0-1.49,6,3,3,0,0,0,2.89-.74l.06,0h0" transform="translate(-751.76 -537.47)"/><path class="cls-4" d="M766.42,546.24h-.1l-1.14-.36c-.06,0-.09,0-.13,0l-.7,1s0,0-.07.09v-1.38l-1.32-.44,1.32-.43v-1.39l.07.09.7,1a.1.1,0,0,0,.13,0l1.14-.37h.1l0,0-.79,1.08.16.23.59.81.06.06Z" transform="translate(-751.76 -537.47)"/><path class="cls-4" d="M763.06,543l0,0h0l0,0,0,0" transform="translate(-751.76 -537.47)"/><path class="cls-4" d="M763.08,547.3l0,0h0l0,0h0" transform="translate(-751.76 -537.47)"/><path class="cls-4" d="M763.08,543v0h0" transform="translate(-751.76 -537.47)"/><path class="cls-4" d="M766.42,544h0" transform="translate(-751.76 -537.47)"/><path class="cls-4" d="M766.42,546.24h0" transform="translate(-751.76 -537.47)"/><path class="cls-4" d="M763.08,547.29h0v0h0" transform="translate(-751.76 -537.47)"/></g></svg>