<svg id="Warstwa_1" data-name="Warstwa 1" xmlns="http://www.w3.org/2000/svg" xmlns:xlink="http://www.w3.org/1999/xlink" viewBox="0 0 24.24 16.16"><defs><style>.cls-1{fill:none;}.cls-2{clip-path:url(#clip-path);}.cls-3{fill:#fed400;}.cls-4{fill:#005bba;}.cls-5{fill:#fefefe;}</style><clipPath id="clip-path" transform="translate(-751.15 -537.07)"><rect class="cls-1" x="755.71" y="537.58" width="15.12" height="15.12"/></clipPath></defs><title>Ukraine</title><g class="cls-2"><path class="cls-3" d="M775.39,552.62v.48H751.15V545c.24,0,.48.06.72.06h23.38c0,2.31,0,4.63,0,6.94a3.16,3.16,0,0,0,.11.6" transform="translate(-751.15 -537.07)"/><path class="cls-4" d="M775.25,545.08H751.87c-.24,0-.48,0-.72-.06v-7.95h24.12q0,4,0,8" transform="translate(-751.15 -537.07)"/><path class="cls-5" d="M751.15,553.1h24.24c-.06,0-.12.12-.18.12H751.33c-.06,0-.12-.08-.18-.12" transform="translate(-751.15 -537.07)"/><path class="cls-5" d="M775.25,545.08q0-4,0-8a2.11,2.11,0,0,1,.12.48v15.07a3.16,3.16,0,0,1-.11-.6c0-2.31,0-4.62,0-6.94" transform="translate(-751.15 -537.07)"/></g></svg>