<svg id="Warstwa_1" data-name="Warstwa 1" xmlns="http://www.w3.org/2000/svg" xmlns:xlink="http://www.w3.org/1999/xlink" viewBox="0 0 17.88 21.66"><defs><style>.cls-1{fill:none;}.cls-2{clip-path:url(#clip-path);}.cls-3{fill:#fdfcfd;}.cls-4{fill:#c00221;}.cls-5{fill:#02156a;}.cls-6{fill:#01156a;}.cls-7{fill:#c10722;}.cls-8{fill:#c10622;}.cls-9{fill:#02166a;}.cls-10{fill:#1f2470;}.cls-11{fill:#1e2470;}.cls-12{fill:#c11327;}.cls-13{fill:#0b186a;}.cls-14{fill:#c11427;}.cls-15{fill:#18226e;}.cls-16{fill:#18216e;}.cls-17{fill:#020262;}.cls-18{fill:#000162;}.cls-19{fill:#c32128;}.cls-20{fill:#c32127;}.cls-21{fill:#c1182a;}.cls-22{fill:#c21a2b;}</style><clipPath id="clip-path" transform="translate(-754.33 -534.31)"><rect class="cls-1" x="755.71" y="537.59" width="15.12" height="15.12"/></clipPath></defs><title>United Knigdom</title><g class="cls-2"><path class="cls-3" d="M754.33,534.31h17.88V556H754.33Zm6.86,13.88v0l.11-.1h0l.06-.05.28-.23a9.55,9.55,0,0,0-1.19,0s-.08.06-.12.09l-.09.07-5.45,5a.55.55,0,0,0-.08.1h1.12a.37.37,0,0,0,.23-.1c.44-.38.87-.78,1.3-1.17l3.65-3.33.11-.1h0l.06,0M760,542.14h0l-.1-.09h0v0l-.06,0h0l-.11-.1a1.14,1.14,0,0,0-.11-.11L755,537.62l-.31-.28c0,.34,0,.64,0,.94a.37.37,0,0,0,.13.32l1.62,1.47,2.63,2.37v0h0a.58.58,0,0,0,.17.06h1.11v0l-.22-.19-.11-.09h0l-.06-.06m6.81,6.16h0l.11.1a.94.94,0,0,0,.1.1l3.73,3.39,1.17,1.06c0-.34,0-.64,0-.94a.42.42,0,0,0-.12-.33c-.61-.54-1.2-1.09-1.8-1.63l-2.45-2.21,0,0s-.06-.06-.09-.06h-1.19v0l.21.18.11.1h0l.06.06h0l.1.09h0l.07.06M755.69,540h0l-.86-.78h0l-.15-.15v3.35c.05,0,.1.1.15.1h3.59l0,0-1-.91h0l-.86-.77h0l-.86-.77m.86,9.47.86-.78h0l1-.91,0,0h-3.6c-.05,0-.09.07-.14.1v3.35l.15-.14h0l.86-.77h0l.86-.78Zm13.46-8.7h0l-.85.77h0l-1,.91v0h3.61s.09-.06.13-.1v-3.35l-.14.15h0l-.85.77h0l-.85.77m0,8.7h0l.85.78h0l.85.78h0l.14.14v-3.35s-.1-.1-.15-.1h-3.47l-.17,0,1.06.94h0l.85.78m-4.74-7.3h0l-.34.29a7.2,7.2,0,0,0,1.13,0c.06,0,.12,0,.17-.07l.13-.12.07-.05,5.35-4.86.09-.1h-1.19a.28.28,0,0,0-.17.1l-1.65,1.5-3.47,3.16-.11.1m-3.46-4.85h-5l-.15,0a1.39,1.39,0,0,1,.17.16l3.14,2.85,1.74,1.56.16.16v-4.6a.57.57,0,0,0,0-.14m0,15.61a2.07,2.07,0,0,0,0-.22v-4.29c0-.06,0-.12,0-.18l-.07,0-.14.14-.11.08-4.32,3.92-.53.49a.11.11,0,0,0,.1.05h5Zm3-11,.07,0,5-4.51.11-.11h-5.17a.78.78,0,0,0,0,.22c0,1.43,0,2.86,0,4.29,0,.06,0,.12,0,.18l.07,0m0,6.28c-.12-.11-.07.06-.07.11,0,1.47,0,2.94,0,4.42a.43.43,0,0,0,0,.14h5.16l-.13-.12-2.61-2.38-2.39-2.16m-2.31-10.94a1,1,0,0,0-.06.23v6h-7.7s0,.06,0,.09v2.92c.06,0,.12.09.18.09h7.56v6a.83.83,0,0,0,.06.21h1.59a1.05,1.05,0,0,0,.06-.24v-6h7.7s0-.06,0-.09v-2.92c-.06,0-.11-.09-.17-.09h-7.57v-6a.83.83,0,0,0-.06-.21h-1.59" transform="translate(-754.33 -534.31)"/><path class="cls-4" d="M771.87,546.6s0,.09,0,.09h-7.7v6a1.05,1.05,0,0,1-.06.24v-6.19h0V553h-1.51v-6.19h0V553a.83.83,0,0,1-.06-.21v-6h-7.56c-.06,0-.12-.06-.18-.09h7.7v-.05h-7.7v-2.81h7.7v-.06h-7.7s0-.08,0-.09h7.7v-6a1,1,0,0,1,.06-.23v6.19h0v-6.19H764v6.19h0v-6.19a.83.83,0,0,1,.06.21v6h7.57c.06,0,.11.06.17.09h-7.7v.06h7.7v2.81h-7.7v.05Z" transform="translate(-754.33 -534.31)"/><path class="cls-5" d="M764.79,548.28l2.39,2.16,2.61,2.38.13.12h-5.16c0-1.45,0-2.9,0-4.34,0-.11,0-.22,0-.33" transform="translate(-754.33 -534.31)"/><path class="cls-5" d="M764.76,537.34h5.17l-.11.11-5,4.51-.07,0c0-.11,0-.21,0-.32,0-1.45,0-2.9,0-4.34" transform="translate(-754.33 -534.31)"/><path class="cls-6" d="M761.68,541.92l-1.74-1.56-3.14-2.85a1.39,1.39,0,0,0-.17-.16l.15,0h5v4.57h-.05" transform="translate(-754.33 -534.31)"/><path class="cls-6" d="M761.73,553h-5a.11.11,0,0,1-.1-.05l.53-.49,4.32-3.92.11-.08c.11.05.11.18.11.33V553" transform="translate(-754.33 -534.31)"/><path class="cls-7" d="M761,548.35l-3.65,3.33c-.43.39-.86.79-1.3,1.17a.37.37,0,0,1-.23.1h-1.12a.55.55,0,0,1,.08-.1l5.45-5,.09-.07.09.06h.9V548l0,.12h0l-.11.1v0l-.06,0h0l-.11.1" transform="translate(-754.33 -534.31)"/><path class="cls-8" d="M765.37,542.09l3.47-3.16,1.65-1.5a.28.28,0,0,1,.17-.1h1.19l-.09.1-5.35,4.86-.07.05c-.08-.21-.09,0-.14,0h-.67a1.35,1.35,0,0,1-.29,0v-.13h0l.11-.1" transform="translate(-754.33 -534.31)"/><path class="cls-8" d="M759.05,542.44l-2.63-2.37-1.62-1.47a.37.37,0,0,1-.13-.32c0-.3,0-.6,0-.94l.31.28,4.57,4.15a1.14,1.14,0,0,1,.11.11l.11.1h0l.06,0v0h0l.1.09h0l.06.06h0l0,.12-.26,0-.66,0,0,0h0v0" transform="translate(-754.33 -534.31)"/><path class="cls-7" d="M767.51,547.84l2.45,2.21c.6.54,1.19,1.09,1.8,1.63a.42.42,0,0,1,.12.33c0,.3,0,.6,0,.94l-1.17-1.06L767,548.5a.94.94,0,0,1-.1-.1l-.11-.1h0l-.07-.06h0l-.1-.09h0l-.06-.06h0l0-.12a.49.49,0,0,1,.16-.05h.8l0-.06" transform="translate(-754.33 -534.31)"/><path class="cls-9" d="M771.87,539.26v3.12h-3.26a.61.61,0,0,1-.18,0c.21-.18.42-.35.62-.54a.83.83,0,0,0,.09-.21h0s.08,0,.1,0l.7-.63a.38.38,0,0,0,0-.17h0s.08.05.1,0l.7-.64s0-.11.05-.16h0s.08,0,.1,0l.7-.64s0-.11.05-.16h0l.14,0" transform="translate(-754.33 -534.31)"/><path class="cls-9" d="M771.87,547.9V551l-.14,0h0a.38.38,0,0,0-.05-.17c-.23-.22-.46-.43-.7-.63,0,0-.07,0-.1,0h0a.38.38,0,0,0-.05-.17c-.23-.22-.46-.43-.7-.63,0,0-.07,0-.1,0h0a.38.38,0,0,0,0-.17c-.23-.22-.46-.43-.7-.63,0,0-.07,0-.1,0h0a.83.83,0,0,0-.09-.21c-.2-.19-.41-.36-.62-.54a.61.61,0,0,1,.18-.05h3.26" transform="translate(-754.33 -534.31)"/><path class="cls-5" d="M754.68,542.38v-3.12l.15,0h0c0,.06,0,.15,0,.17.22.22.45.43.68.63,0,0,.08,0,.13,0h0c0,.05,0,.14,0,.16.22.22.45.43.68.63,0,0,.08,0,.13,0h0c0,.05,0,.14.05.16.22.22.45.43.68.63,0,0,.08,0,.13,0h0c0,.06,0,.15.06.18l.65.57a.61.61,0,0,1-.18,0h-3.26" transform="translate(-754.33 -534.31)"/><path class="cls-5" d="M754.68,551V547.9h3.26a.61.61,0,0,1,.18.05,2.6,2.6,0,0,0-.45.37c-.09.11-.26.12-.26.38h0s-.1,0-.13,0a6.77,6.77,0,0,0-.56.52,1.39,1.39,0,0,0-.17.27h0s-.1,0-.13,0a6.77,6.77,0,0,0-.56.52,1.78,1.78,0,0,0-.17.27h0c-.05,0-.1,0-.13,0-.19.16-.38.34-.56.52a1.78,1.78,0,0,0-.17.27h0l-.15,0" transform="translate(-754.33 -534.31)"/><path class="cls-10" d="M769.14,541.58a.83.83,0,0,1-.09.21c-.2.19-.41.36-.62.54l0,0v.06h3.49s-.09.1-.13.1h-3.61v0l1-.91" transform="translate(-754.33 -534.31)"/><path class="cls-10" d="M768.43,548c.21.18.42.35.62.54a.83.83,0,0,1,.09.21l-1.06-.94.17,0h3.47s.1.07.15.1h-3.49v.06l0,.05" transform="translate(-754.33 -534.31)"/><path class="cls-11" d="M758.12,542.33l-.65-.57s0-.12-.06-.18l1,.91,0,0h-3.59c-.05,0-.1-.06-.15-.1h3.49v-.06l0,0" transform="translate(-754.33 -534.31)"/><path class="cls-11" d="M757.41,548.71c0-.26.17-.27.26-.38a2.6,2.6,0,0,1,.45-.37l0-.05v-.06h-3.49c.05,0,.09-.1.14-.1h3.6l0,0-1,.91" transform="translate(-754.33 -534.31)"/><path class="cls-12" d="M754.68,543.68h7.7v.06h-7.7v-.06" transform="translate(-754.33 -534.31)"/><path class="cls-12" d="M771.87,543.74h-7.7v-.06h7.7v.06" transform="translate(-754.33 -534.31)"/><path class="cls-12" d="M754.68,546.55h7.7v.05h-7.7v-.05" transform="translate(-754.33 -534.31)"/><path class="cls-12" d="M771.87,546.6h-7.7v-.05h7.7v.05" transform="translate(-754.33 -534.31)"/><path class="cls-13" d="M761.73,553v-4.2c0-.15,0-.28-.11-.33l.14-.14a1.86,1.86,0,0,1,0,.33V553Z" transform="translate(-754.33 -534.31)"/><path class="cls-13" d="M761.73,541.91v-4.57h.07v3c0,.49,0,1,0,1.46,0,0,.06.2-.06.15" transform="translate(-754.33 -534.31)"/><path class="cls-14" d="M762.52,537.34v6.19h0v-6.19h0" transform="translate(-754.33 -534.31)"/><path class="cls-14" d="M764.07,537.34v6.19h0v-6.19h0" transform="translate(-754.33 -534.31)"/><path class="cls-14" d="M764,553v-6.19h0V553h0" transform="translate(-754.33 -534.31)"/><path class="cls-14" d="M762.48,553v-6.19h0V553h0" transform="translate(-754.33 -534.31)"/><path class="cls-15" d="M768.43,548l0-.05v-.06h3.49v0h-3.26a.61.61,0,0,0-.18.05" transform="translate(-754.33 -534.31)"/><path class="cls-16" d="M754.68,547.85h3.49v.06l0,.05a.61.61,0,0,0-.18-.05h-3.26v0" transform="translate(-754.33 -534.31)"/><path class="cls-16" d="M758.12,542.33l0,0v.06h-3.49v0h3.26a.61.61,0,0,0,.18,0" transform="translate(-754.33 -534.31)"/><path class="cls-15" d="M771.87,542.43h-3.49v-.06l0,0a.61.61,0,0,0,.18,0h3.26v0" transform="translate(-754.33 -534.31)"/><path class="cls-17" d="M761.73,541.91c.12.05.06-.1.06-.15,0-.49,0-1,0-1.46v-3a.57.57,0,0,1,0,.14v4.6l-.16-.16h.05" transform="translate(-754.33 -534.31)"/><path class="cls-18" d="M764.76,537.34c0,1.44,0,2.89,0,4.34,0,.11,0,.21,0,.32l-.07,0c0-.06,0-.12,0-.18,0-1.43,0-2.86,0-4.29a.78.78,0,0,1,0-.22" transform="translate(-754.33 -534.31)"/><path class="cls-18" d="M761.8,553v-4.34a1.86,1.86,0,0,0,0-.33l.07,0c0,.06,0,.12,0,.18v4.29a2.07,2.07,0,0,1,0,.22" transform="translate(-754.33 -534.31)"/><path class="cls-18" d="M764.79,548.28c0,.11,0,.22,0,.33,0,1.44,0,2.89,0,4.34a.43.43,0,0,1,0-.14c0-1.48,0-2.95,0-4.42,0,0-.05-.22.07-.11" transform="translate(-754.33 -534.31)"/><path class="cls-19" d="M760.42,547.9l-.09-.06s.08-.09.12-.09a9.55,9.55,0,0,1,1.19,0l-.28.23v0l0,0h0v-.06c-.06,0-.11,0-.16,0l-.74,0" transform="translate(-754.33 -534.31)"/><path class="cls-19" d="M765.25,542.2v.13l-.08.06v0h1v0c-.05,0-.11.07-.17.07a7.2,7.2,0,0,1-1.13,0l.34-.29" transform="translate(-754.33 -534.31)"/><path class="cls-20" d="M759.07,542.47l0,0c.28,0,.56,0,.84,0,0,0,.1-.07.15-.1l0,0,.22.19v0h-1.11a.58.58,0,0,1-.17-.06" transform="translate(-754.33 -534.31)"/><path class="cls-20" d="M766.42,548l-.21-.18v0h1.19s.06,0,.09.06l0,0h-.88c-.05,0-.1.06-.15.1l0,0" transform="translate(-754.33 -534.31)"/><path class="cls-10" d="M770.87,550.27s.08,0,.1,0c.24.2.47.41.7.63a.38.38,0,0,1,.05.17l-.85-.78" transform="translate(-754.33 -534.31)"/><path class="cls-10" d="M770,549.49s.08,0,.1,0c.24.2.47.41.7.63a.38.38,0,0,1,.05.17l-.85-.78" transform="translate(-754.33 -534.31)"/><path class="cls-10" d="M769.15,548.71s.08,0,.1,0c.24.2.47.41.7.63a.38.38,0,0,1,0,.17l-.85-.78" transform="translate(-754.33 -534.31)"/><path class="cls-10" d="M771.72,539.24s0,.14-.05.16l-.7.64s-.07,0-.1,0l.85-.77" transform="translate(-754.33 -534.31)"/><path class="cls-10" d="M770,540.8a.38.38,0,0,1,0,.17l-.7.63s-.07,0-.1,0l.85-.77" transform="translate(-754.33 -534.31)"/><path class="cls-10" d="M770.86,540c0,.05,0,.14-.05.16l-.7.64s-.07,0-.1,0l.85-.77" transform="translate(-754.33 -534.31)"/><path class="cls-11" d="M757.41,541.57s-.1,0-.13,0c-.23-.2-.46-.41-.68-.63,0,0,0-.11-.05-.16l.86.77" transform="translate(-754.33 -534.31)"/><path class="cls-11" d="M754.83,551.05a1.78,1.78,0,0,1,.17-.27c.18-.18.37-.36.56-.52,0,0,.08,0,.13,0l-.86.77" transform="translate(-754.33 -534.31)"/><path class="cls-11" d="M755.69,550.27a1.78,1.78,0,0,1,.17-.27,6.77,6.77,0,0,1,.56-.52s.08,0,.13,0l-.86.78" transform="translate(-754.33 -534.31)"/><path class="cls-11" d="M756.55,549.49a1.39,1.39,0,0,1,.17-.27,6.77,6.77,0,0,1,.56-.52s.08,0,.13,0l-.86.78" transform="translate(-754.33 -534.31)"/><path class="cls-11" d="M755.69,540c-.05,0-.1,0-.13,0-.23-.2-.46-.41-.68-.63,0,0,0-.11,0-.17l.86.78" transform="translate(-754.33 -534.31)"/><path class="cls-11" d="M756.55,540.79s-.1,0-.13,0c-.23-.2-.46-.41-.68-.63,0,0,0-.11,0-.16l.86.77" transform="translate(-754.33 -534.31)"/><path class="cls-10" d="M771.87,539.26l-.14,0,.14-.15Z" transform="translate(-754.33 -534.31)"/><path class="cls-10" d="M771.73,551.06l.14,0v.17l-.14-.14" transform="translate(-754.33 -534.31)"/><path class="cls-11" d="M754.83,539.23l-.15,0v-.18l.15.15" transform="translate(-754.33 -534.31)"/><path class="cls-11" d="M754.68,551l.15,0-.15.14Z" transform="translate(-754.33 -534.31)"/><path class="cls-19" d="M766.2,542.38s.06-.25.14,0l-.13.12v-.08" transform="translate(-754.33 -534.31)"/><path class="cls-20" d="M760,542.33l0-.12.11.09,0,0H760" transform="translate(-754.33 -534.31)"/><path class="cls-20" d="M766.51,548l0,.12-.11-.1,0,0h.07" transform="translate(-754.33 -534.31)"/><path class="cls-20" d="M766.6,548.15l.1.09-.1-.09" transform="translate(-754.33 -534.31)"/><path class="cls-19" d="M761,548.35l.11-.1-.11.1" transform="translate(-754.33 -534.31)"/><path class="cls-20" d="M759.78,542l-.11-.1.11.1" transform="translate(-754.33 -534.31)"/><path class="cls-20" d="M766.77,548.3l.11.1-.11-.1" transform="translate(-754.33 -534.31)"/><path class="cls-20" d="M760,542.14l-.1-.09.1.09" transform="translate(-754.33 -534.31)"/><path class="cls-19" d="M765.37,542.09l-.11.1.11-.1" transform="translate(-754.33 -534.31)"/><path class="cls-19" d="M761.19,548.19l.11-.1-.11.1" transform="translate(-754.33 -534.31)"/><path class="cls-19" d="M761.3,548.08l0-.12h0l0,0v0l-.06.05" transform="translate(-754.33 -534.31)"/><path class="cls-20" d="M766.53,548.08l.06.06-.06-.06" transform="translate(-754.33 -534.31)"/><path class="cls-19" d="M761.13,548.24l.06,0-.06,0" transform="translate(-754.33 -534.31)"/><path class="cls-20" d="M766.7,548.24l.07.06-.07-.06" transform="translate(-754.33 -534.31)"/><path class="cls-20" d="M759.85,542l-.06,0,.06,0" transform="translate(-754.33 -534.31)"/><path class="cls-20" d="M767.51,547.84l0,.06v0l0,0,0,0" transform="translate(-754.33 -534.31)"/><path class="cls-20" d="M760,542.2l-.06-.06.06.06" transform="translate(-754.33 -534.31)"/><path class="cls-20" d="M759.05,542.44v0Z" transform="translate(-754.33 -534.31)"/><path class="cls-21" d="M760.42,547.9l.74,0c.05,0,.1,0,.16,0h-.9" transform="translate(-754.33 -534.31)"/><path class="cls-22" d="M766.2,542.38v0h-1v0l.08-.06a1.35,1.35,0,0,0,.29,0h.67" transform="translate(-754.33 -534.31)"/><path class="cls-22" d="M760,542.33h.07c-.05,0-.1.1-.15.1-.28,0-.56,0-.84,0l.66,0,.26,0" transform="translate(-754.33 -534.31)"/><path class="cls-22" d="M767.47,547.85v0h-.8a.49.49,0,0,0-.16.05h-.07s.1-.1.15-.1h.88" transform="translate(-754.33 -534.31)"/><path class="cls-7" d="M761.35,548l0,0,0,0" transform="translate(-754.33 -534.31)"/></g></svg>