<svg id="Warstwa_1" data-name="Warstwa 1" xmlns="http://www.w3.org/2000/svg" xmlns:xlink="http://www.w3.org/1999/xlink" viewBox="0 0 15.62 16.12"><defs><style>.cls-1{fill:none;}.cls-2{fill:#fedf00;}.cls-3{clip-path:url(#clip-path);}.cls-4{fill:#fefefe;}.cls-5{fill:#f5d800;}.cls-6{fill:#f9f9f9;}.cls-7{fill:#c7c7c7;}.cls-8{fill:#fadc00;}.cls-9{fill:#c5c5c5;}.cls-10{fill:#f4f4f4;}.cls-11{fill:#f80000;}.cls-12{fill:#f8d900;}.cls-13{fill:#f10204;}.cls-14{fill:#f3d500;}.cls-15{fill:#efd200;}.cls-16{fill:#c3c3c3;}.cls-17{fill:#491313;}.cls-18{fill:#dbdada;}.cls-19{fill:#62580e;}.cls-20{fill:#807109;}.cls-21{fill:#bababa;}.cls-22{fill:#eccf00;}.cls-23{fill:#535353;}.cls-24{fill:#514a15;}.cls-25{fill:#efefef;}.cls-26{fill:#f8f8f8;}.cls-27{fill:#491f20;}.cls-28{fill:#e10204;}.cls-29{fill:#e5e5e5;}.cls-30{fill:#61191a;}.cls-31{fill:#3f120a;}.cls-32{fill:#fafafa;}</style><clipPath id="clip-path" transform="translate(-755.46 -537.09)"><rect class="cls-1" x="755.46" y="537.59" width="15.12" height="15.12"/></clipPath></defs><title>Vatican City</title><rect class="cls-2" y="0.5" width="7.56" height="15.12"/><g class="cls-3"><path class="cls-4" d="M763,537.09h8.06v16.12H763Zm4.24,6.95v0c0,.09.08.16.18.1l0-.21.12,0,0-.07s0,0,0-.07l0-.05h0v0s0,0,0-.06h0s0,0,0,.06v0h0c0-.06,0-.14-.09-.14s-.09.07-.09.14l-.06,0a1.62,1.62,0,0,1,0-.22l.06,0h.11l.11,0s0,.06.05.12v-.15h0l0,0s0,0,0,0l.05,0h0l0-.15,0,0h0v0a2.44,2.44,0,0,1,.1-.24h0l.09-.1,0-.05h0a.19.19,0,0,1,0,.08c0,.06-.05.13,0,.17v.12h0s.05-.08,0-.12.05-.19.07-.28a.94.94,0,0,0,.1-.1h.08l.07,0v0h0s0,.06,0,.1l.22-.07.22.15.21-.3-.07,0,0,0-.05,0h-.15l0,0-.12,0h-.14v0l.12,0-.13,0h0s-.11-.08-.11,0v0l-.16.13h-.09l0-.06a.43.43,0,0,1,0-.07v0s0,0,0-.08l0-.05,0-.08c0-.08.12-.15,0-.24l.1-.06s0-.06,0-.09l0,0a.35.35,0,0,0-.05.08l0-.06-.1-.09v-.08l0-.1v-.06l0,0s-.05-.11,0-.13,0-.11,0-.17a.19.19,0,0,1,0-.08l-.19.21h0l0,0-.1.08-.08,0h0l0,0v0c.08-.06,0-.1,0-.14l0-.11h-.21s0,.08,0,.12l0,0-.06,0,0,0,.05.07h-.05l-.07,0h0s0,0,0,0h0v-.11l-.06,0,0,.07h0l-.06-.07,0,0-.06-.08-.07,0v.09l0,0v0a.29.29,0,0,0,0,.09c-.1.05-.1.14-.11.23v.07l0,0-.07.08v.1l0,0,0,.06,0,0c0,.05,0,.09.07.14l0,.1,0,.05v.1l0,.05-.06.08-.05,0-.14-.13-.12-.16,0,0a.25.25,0,0,0,0,.08l-.17,0,.09-.05v0l-.11,0c-.06,0-.16,0-.17.08h-.15l-.06,0,0,0s-.08,0,0,.11l.16.23.13-.09.07,0,.18,0,.05,0,0,0v0l.05,0h0l0,0,.07,0,0,0,.1.13,0,0h0l.12.05-.07.09.13,0v.1h0l0,0,0,0h0l0,.09h0c-.05.09,0,.17.08.2l.3.08.36,0c0,.16,0,.32,0,.46l.11,0,0,0Zm-.56,3.52h0l.07,0v0a.15.15,0,0,0,0,.18V548a.64.64,0,0,1,0,.07.11.11,0,0,0,0,.18v0a.09.09,0,0,0,0,.15c-.05,0-.12.09-.07.18-.17.14-.12.33-.12.51,0,0,0,.05.08.07.2.07.33-.12.5-.15,0,0,0,0,0,0s0-.33-.1-.46c.06-.09,0-.16,0-.23a.53.53,0,0,1,0-.13.19.19,0,0,0,0-.08h0V548h0s0,0,0-.06v-.15h0a.28.28,0,0,1,0-.09v-.1h.09l0,0h0l.22,0,.15-.06h.08l.14-.05.1,0,0,0h.09v0H768v0l.1,0,0,0a.14.14,0,0,1,0,.06c0,.11.09.14.18.07l0-.07.12,0,.08,0,.43,0,.08-.05h0l.06,0,.18-.08h.07c.05,0,.09.08.13.07a.6.6,0,0,0,.12-.11l-.14-.11s0,0,0,0l.05-.1,0-.08,0-.1,0-.07v-.25a.31.31,0,0,1,0-.08v0l0-.1v0l0,0v0a1,1,0,0,1-.07-.15c.05-.05.14-.09.07-.18s-.1,0-.15,0-.06,0-.08.06l0,0h0l-.17-.1,0,0-.12,0h-.23l-.41.16h0c0-.13-.08-.13-.17-.14a3.81,3.81,0,0,0-.24-.32l-.31-.32c-.06,0-.1-.15-.21-.06l0-.06-.08,0v0h0l.06-.11.2-.19h0l.08,0v0l-.09,0,0,0,.25-.23,0,0v0l.07-.07c.13,0,.14,0,.11-.1l.06,0h0l0,0h0v-.05s0-.08,0-.11a2.76,2.76,0,0,0-.08-.27l0-.06,0,.06v0l0,0,0,0-.17.13-.14.15h-.12a.28.28,0,0,0,0,.09l-.1.08,0,0,0,0,0,0h0l0,0-.1.09h0l0,0h0l0,0,0,0-.09.09h0v-.1h-.13l-.23-.18.13-.2h0a1.83,1.83,0,0,1-.13.16l-.2-.15-.15-.1v0l0,0h-.06l-.07-.07a.35.35,0,0,1,0-.08l0,0h0l-.11-.18a3,3,0,0,0-.11.32.34.34,0,0,0,0,.14l.1.08.1,0c0,.08,0,.14.1.1l0,.12h0a.44.44,0,0,1,.15.08,1.27,1.27,0,0,1,.12.1h0l0,0a.4.4,0,0,1,.13,0l.19.16v.13l-.11-.08-.11.13-.1.12-.54.6h-.16a.5.5,0,0,1,0,.13.75.75,0,0,0-.54-.16,3.53,3.53,0,0,0-.46.15c-.11-.16-.17-.16-.27,0l.14.11a.82.82,0,0,0-.16.77,2.41,2.41,0,0,1,.08.25.6.6,0,0,0-.06.11s0,.11,0,.14.16.08.21-.09l.11.08a.89.89,0,0,0,.89,0s0,0,0,0,.15.1.22,0,0-.08,0-.12h0a.59.59,0,0,1,0,.08l.08,0,.07,0h0l0,0,.06,0,.06,0h.12l0,0h0l.06,0,.1,0h.1l.05,0m2.38-3.14h0l0-.22,0,0c.06.06.11.06.15,0l0,0,.06-.06.06,0,.07-.06.05,0v-.19a.14.14,0,0,1,0-.06h0l0,0-.11-.1-.05,0,0,0h0l-.06-.23h0l0,0-.1-.1.12-.13s.09,0,.11,0a.16.16,0,0,0,0-.13c0-.08.05-.23.13-.24s.14-.06.11-.14-.12-.06-.19,0l-.07.15h0l-.08,0h-.07c-.14,0-.19,0-.2.12l-.24.22-.09.07-.06,0-.14.13,0,0h-.08l0-.1,0-.06,0,0,0,0h0l0,0,0,0,0,.07-.11-.07,0,0-.08,0h0v0h0v.1l0,.1h0l0,0,.1,0,.11.22.1-.06c0-.06-.06-.11-.08-.16s0-.09.07-.08l.06,0a.09.09,0,0,0,0,0l0,.05v0l0,.06.06.22v.33l0,.1-.21.28,0,0,.18-.26.07.05.06,0,.11.1c0,.07.1.09.16,0h0l.06-.05.09-.08s0,0,0,0m-1.93-3.35h0v0h0l0,0-.06-.12-.08-.13c-.16,0-.13.13-.09.22v0H767v0l.07,0a.12.12,0,0,1,0,.05m-1.71,2.54h0l.06-.08v0l-.22-.17,0-.08h0l-.05,0-.07-.07-.24-.23s-.05-.1-.08-.11a1.35,1.35,0,0,0-.29,0l0,0c0-.07,0-.13-.1-.12s-.1,0-.1.08,0,.13.12.12l0,.05s0,0,0,0l0,.06,0,0h0a.21.21,0,0,0,0,.07.33.33,0,0,0,0,.14s.07,0,.11,0l.13.1a1.31,1.31,0,0,0-.12.15c-.1.05,0,.15-.06.22l0,0-.12-.08c-.18.18-.19.22-.13.41l.07.07,0,0,.05,0,.06.05,0,0h0s.07.11.13,0h0l0,0h0s0,.1,0,.14a.47.47,0,0,0,.06.09h0l0,0,.13.1s.06.09.09.08.08,0,.11-.08l.13-.1.15-.05v0h0v0l0-.09s0-.09,0-.13,0-.26,0-.39l.05-.15a.43.43,0,0,1,0,0m.53-.28,0-.06h0s0,0,0,.06l0,.08-.07,0c-.09,0,0-.08,0-.12v-.06c-.05,0-.12,0-.13,0l-.1,0,0-.06,0,0-.05.11.11.08a.55.55,0,0,0-.08.15s0,.07,0,.1.07,0,.08,0a1,1,0,0,0,.1-.17l.07,0,0,0,0,0,0-.1,0-.07a.24.24,0,0,1,0-.08m-.28,1.29,0,0,0,0v-.06h0M766,543l0,0h0l0,0s0,.06,0,.09l0,0,0-.07m2.21,1.46a.45.45,0,0,0,0,.08.32.32,0,0,0,0-.07,1,1,0,0,0,0-.16l0-.07h0a.15.15,0,0,0,0,.07.09.09,0,0,0,0,.15m-1.66-.79-.1.08h0v.14s0,0,0,.05l.05,0c.16.07,0,.15,0,.25s.09,0,.1,0a.47.47,0,0,1,.21-.23v-.09a.51.51,0,0,1,0-.13h0a.62.62,0,0,0,0,.13l0,0s0,0,0-.07v0c0-.08-.09-.07-.13,0m.39-3.14-.09.05-.05,0,0,0,.26,0v-.09l-.16-.07m1.12,4.14,0,0,.11-.09,0,0-.11.1m-2.22-1.91h0l.11.14,0,0-.12-.13m0,1.89v0l.07,0,0,0-.08,0m2.34-.2,0,0-.06,0v0l.07,0m-.77-3.22,0,0,0,0,0,0,0,0m.66,3.47,0,0-.06,0v0l.07,0m-2.42-.46h0v-.06h0v.07m0,.08,0,0,0,0v0l0,0m.08-1.52h0l0,.06h0v-.06m1,1.21h0l0,0,0,0m1.44-1,0,0a0,0,0,0,0,0,0h0a.08.08,0,0,0,0,0m-.25.23h0a0,0,0,0,0,0,0s0,0,0,0m-1.51.32h0v0h0v0m1.55-.73h0v0h0v0m.19,0h0m-.9,1.46h0v0h0v0m-1.76.13h0v0l0,0m1.15-3.42h0v0m.57,0h0v0m.85,1.68h0v0m-2.39.24v0h0v0h0m.65,1.1h0v0h0m-.7-1h0m.33.05v0h0m-.31,1.28h0v0h0l0,0m1.05-.32h0m-.89.33v0h0m1.7-.42v0h0m.36.4h0m-1.71.29h0m1-.46h0v0h0m0-.07h0m.87-.6h0m-.14-.4h0" transform="translate(-755.46 -537.09)"/><path class="cls-5" d="M764.54,546a3.53,3.53,0,0,1,.46-.15.79.79,0,0,1,.55.16l.27.32,0,.25,0,.4a1.09,1.09,0,0,1-.08.15l-.1,0-.12,0,0-.12s.08,0,0-.06.06-.13.05-.14a1.13,1.13,0,0,0-.2-.13.61.61,0,0,1,.07-.1h0l0,0h0l0,0h0l0,0h0l0,0a.49.49,0,0,0,0-.21.27.27,0,0,0-.35-.13c-.08,0-.12.14-.1.27s0,.08,0,.1a.17.17,0,0,1-.12,0s0-.07,0-.11l0-.06-.12-.14a.23.23,0,0,0-.39.09.29.29,0,0,0,.15.36l0,.07a.25.25,0,0,0-.19.28.26.26,0,0,0,.23.23A.28.28,0,0,0,765,547l0-.06h0v0a.46.46,0,0,1,0-.1.12.12,0,0,1,.1,0s0,.07,0,.1-.06,0,0,.08a.24.24,0,0,0,.4.17l0,.16,0,.07a.89.89,0,0,1-.89,0l-.11-.08-.16-.16a2.41,2.41,0,0,0-.08-.25.82.82,0,0,1,.16-.77l.13-.13" transform="translate(-755.46 -537.09)"/><path class="cls-6" d="M768.09,547.26l-.1,0h-.18l-.13.06h0l-.09,0h0l-.11,0h-.11l-.14,0h-.09l-.05-.1,0-.07v-.08s0-.05,0-.08V547h0v-.07h0v-.07a.13.13,0,0,1,0-.06l0-.06v-.33a.28.28,0,0,0,0-.09v-.15a.06.06,0,0,1,0,0s0-.06,0-.09l0,0v-.1h0v-.07h0v-.05s0-.11.07-.1a1.77,1.77,0,0,1,0,.2c0,.1.08.12.17,0l-.09-.18c.07-.07.12,0,.15,0a1.41,1.41,0,0,0,.44.33l0,.09,0,0,.11,0,0,.05v.11l0,.07a1.62,1.62,0,0,0,0,.22l-.13-.06,0,0c-.11,0-.06.09-.06.14s.08.1.15.1l.08.07.05,0,0,.06a.42.42,0,0,1,0,.1l-.08.12m-.66-1,.07.1.06.08h0l0,.06h0a.27.27,0,0,1,.07.08l.09.09c.1,0,.06-.07.07-.12l-.08-.1-.07-.05v0l0,0h0l0-.11-.07-.1-.08-.12h0l0,0,0,0v0l.06.09h0l0,.11" transform="translate(-755.46 -537.09)"/><path class="cls-7" d="M768.11,547l-.05,0c0-.05.06-.11,0-.11a.36.36,0,0,1,0-.1,1.62,1.62,0,0,1,0-.22l0-.07v0a.07.07,0,0,1,0,0v0l.07-.1a.86.86,0,0,1,.07-.1l0,0,0,0,0,0,.07-.07.41-.16H769l.12,0,0,0a1,1,0,0,1,.17.1h0l0,0,.13.17.1.14v0l0,0v0l0,.1a0,0,0,0,1,0,0,.31.31,0,0,0,0,.08v.25a.19.19,0,0,0,0,.07l0,.1,0,.08s0,.07-.05.1l0,0h0l0,0h0v0l0,0-.08.07-.17.08-.06,0h0l-.08.05-.43,0-.08,0-.11,0-.06-.08c0-.1.12,0,.17-.08s.22,0,.26-.15l.05-.06v0l0-.08a.59.59,0,0,1,0-.08l.11-.08c.13.07.13.1,0,.19l0,.07v0h0l0,0h0l0,.05h0l0,0h0l0,0h.21l0,0h0l.06,0h0l0-.05h0l0,0h0v-.2h0l0,0h0l0,0h0l-.06,0h0l0,0h0l0,0,.06-.06h0l.05,0h0l.08-.07h0l0,0c0-.11,0-.22-.1-.29l-.1,0h-.17c-.09,0-.16.07-.13.18v.07l0,.08,0,0,0,0c-.09,0-.12,0-.12-.11v0l0-.13,0-.05-.14-.08-.13,0h0l-.08,0h0l0,0v0a.35.35,0,0,0-.05.08.77.77,0,0,1,0,.15l0,.05.18.13,0,0-.15.05,0,0,0,0,0,.08v.1l.05,0,0,.07a.21.21,0,0,1-.2.06l0-.1,0-.06m.11-.28,0,0h0l.11-.1-.07-.1v0h0v0a1,1,0,0,1,0,.17m.6.49-.05.08c.13,0,.13,0,.1-.08a.64.64,0,0,1,0-.07h0s0,0,0,.07M769,546l-.14,0h-.07a.09.09,0,0,0,0,.07c.05.1.12.09.21-.06m.49.54-.12.15.2,0-.08-.13m-.51.78,0,0h0v0h0m-.27,0h0v0h0l0,0" transform="translate(-755.46 -537.09)"/><path class="cls-7" d="M764.43,544.09l0,0-.07-.07c-.06-.19,0-.23.13-.41l.12.08,0,0a.74.74,0,0,0,.13-.08l-.07-.14.12-.15-.13-.1a.32.32,0,0,1,.23-.26l.24.23v.18l-.22,0,0,0,.24.13,0,.06,0,0,0,.06h0l0,.05h0l0,0,.05-.09s0,0,0,0a0,0,0,0,0,0,0s0,0,0,0v-.07h.17a.07.07,0,0,0,0,0l-.06.08h0s0,0,0,0l-.05.15a.89.89,0,0,0,0,.51l-.08.15-.13.1c-.05,0-.08,0-.08-.07a.4.4,0,0,0-.07-.16c0,.11.13.2,0,.23l-.13-.1,0,0h0l0-.17h.06v0l-.06,0,0-.08,0-.07.1,0a.66.66,0,0,1,0-.14v0h0l0,0h0l0,0h0l0,0h0l0,0h0l0,0h0c0-.1-.07,0-.1,0h0a.59.59,0,0,0-.13,0s0,.07,0,.1a.19.19,0,0,0,0,.08h0l0,0h-.09l0,0,0,0h0l0,0,0,0c0,.06.08.13,0,.17h0l0,0,0-.05-.06,0m.71.29,0,0,.06-.07,0,0-.07.06m-.72-.49,0,0-.07,0,0,0,.06,0" transform="translate(-755.46 -537.09)"/><path class="cls-2" d="M769,544.46l-.09.08-.06.05h-.16l-.11-.1-.06,0-.07-.05v0l0-.1,0,0,0,0v-.28s0-.08.05-.13l0,0,0,0,.05,0h0l0,0h0l0,0,.05-.08v0l.23-.15.1-.08.1.1,0,0h0s0,0,0,.05,0,.15.08.18h0v0l0,0,0,0,.05,0,.11.1,0,0h0l-.1.13,0,0,.08-.11V544l-.05,0-.07.06-.06,0-.06.06,0,0h0c-.09,0-.05-.11,0-.17l0,0,0,0v0l0,0,0,0-.13-.09.07-.08-.12-.1v.14l0,.09,0-.15,0,0-.06,0,0,.1,0,.07,0,.06h0l-.11.06h.08l.1.07.11.08-.07,0v0h.08a.64.64,0,0,0,0,.07l0,.09h0s0,0,0,0m-.25-.07-.08,0s0,0,0,0l.09,0h.11v0l-.1,0" transform="translate(-755.46 -537.09)"/><path class="cls-8" d="M766.13,542.4l0-.1.06,0s.07,0,.09,0a.6.6,0,0,0,.13-.09h.06l.22,0,.12-.05h.21l.08,0h0l.25-.05.05,0,.19.1.09,0,0,.08-.06,0,0,0s0,0,0,.08l-.07,0v0h.06a.43.43,0,0,0,0,.07v.09h0l-.06,0-.42-.13a.14.14,0,0,0-.23,0v.05l0,0v0l0,.07-.1,0,0-.08a.36.36,0,0,1,0-.1l-.1,0h-.13l-.22.06-.06,0h0l-.05,0h0s0,0,0,.05l-.1,0s0,0,0-.07l.06-.08,0-.05v-.1l.09,0v0h-.12m1.17.05h0v0l0,0h0m.2-.11h0v0h0v0m-.73,0h0Zm.4,0h0v0h0v0m-.52.18v0h0m-.24,0v0h0m1.18,0v0h0m-.6-.26h0m.31,0h0m-.86,0v0h0m1.07.17h0" transform="translate(-755.46 -537.09)"/><path class="cls-5" d="M765.74,545.82l.54-.6a1.47,1.47,0,0,0,.1-.13l.22.22s0,0,0,0l.08,0s0,0,0,0l.09,0,0,0h0l0,0h0l0,0,0,0-.34.27c-.11.09-.24.18-.36.26a.74.74,0,0,1-.22-.1c-.05,0-.06-.11-.09-.16m.74-.54,0,0,0,.06h0l.05-.05m0,.13v0l.07,0a.06.06,0,0,0,0-.05h0" transform="translate(-755.46 -537.09)"/><path class="cls-9" d="M767.88,546.11a1.41,1.41,0,0,1-.44-.33s-.08-.11-.15,0,0,0,0-.07l0-.1h0l-.05,0h0l0,0h0c0-.06,0-.1,0-.13s0,0,0,0l0-.05.09-.06h.07v0h-.05l0-.07v0c.11-.08.15,0,.21.07l.31.32a3.81,3.81,0,0,1,.24.32c-.07.13-.14.25-.29.29m-.41-.53h0l0,0,0,0v0a.47.47,0,0,0,.05-.1h.06v0l-.06,0s-.15,0-.1.1l0,0,0,0m.34.06v0l-.21,0,.08.09.14-.08m-.26,0h0v0h0" transform="translate(-755.46 -537.09)"/><path class="cls-10" d="M767.65,542.3l-.19-.1-.05,0-.25.05h0a.42.42,0,0,0,0-.1.14.14,0,0,1,0-.06.27.27,0,0,1-.08-.07l0,0h0l0,0c-.06-.06-.12-.07-.18,0l-.05.07c-.06,0-.11,0-.08.13l0,0h0l0,.06-.22,0,0-.05,0,.05a.6.6,0,0,1-.13.09s-.06,0-.09,0l.07-.07,0-.08-.07,0h-.1v0l0,0,.05,0h0l.06-.05,0,0,.06,0h.12l0,0h.08a0,0,0,0,1,0,0h0a.17.17,0,0,1,.1,0h.43l.07,0h.1l.33.14,0,0,0-.06v0l0,.06a.35.35,0,0,1,.05-.08l0,0s0,.07,0,.09l-.1.05-.17,0c0,.07,0,.12.06.18" transform="translate(-755.46 -537.09)"/><path class="cls-2" d="M766.32,541.89l0,0-.06.05h-.07v-.05l.07-.08,0,0v-.07c0-.09,0-.18.11-.23s.1,0,.1-.08l0,0,0,0,0-.08h.09l0,0h.12l.31,0h0l.08,0,.09,0h0l0,0v0s0,0,.06,0a.36.36,0,0,1,.19.08l0,0-.08,0,.08,0,0,.1v.07l.1.1v0l0,0-.33-.14h-.1l-.07,0h-.43s-.07,0-.1,0h0l0,0h-.08l0,0h-.12l-.06,0m.3-.35v0h.62v0Zm.61.17v0h-.08v0Zm.26-.15a.08.08,0,0,0,0,0h0l0,0,0,0m0,.19h0l.06,0v0h-.07m-1.05-.14v0h-.05l0,0m.94.12h0s0,0,0,0h0s0,0,0,0m-.67,0h0v0h0m-.18-.14h0m.87,0h0m-.89.17h0m-.09,0h0" transform="translate(-755.46 -537.09)"/><path class="cls-7" d="M766.22,544.14l.15.1.2.15,0,.05.23.18,0,0,0,0H767v.1l-.06.07s0,0,0,.06l-.13.12-.08,0,0,0,0-.05-.19-.16a.4.4,0,0,0-.13,0l0,0h0l-.11-.1a.6.6,0,0,0-.16-.08h0l0-.12c0-.13.13-.18.23-.23" transform="translate(-755.46 -537.09)"/><path class="cls-11" d="M767.53,543.43s0,0,0,0l0,0h0l-.05,0-.11,0h-.59l-.3-.08c-.12,0-.13-.11-.08-.2l.23-.07,0,0h.65l.05,0,.2.08.06.12h0l-.05,0" transform="translate(-755.46 -537.09)"/><path class="cls-8" d="M767.53,543.26l-.2-.08,0,0s0,0,0,0h-.7l-.23.07h0l0-.09h0v0l.06-.06v0l-.11.05h0V543l0-.08c.08.08.17.1.24,0h.08l0,0V543h.68v0H767l-.36,0,.14,0,0,0h0l.22,0s.06.09.08.09l.25-.06c.08.12.09.12.23,0h.07s0,0,0,.06l-.1.24v0l0,0,0,0m-.84-.14v0h.52v0Zm.73-.11h0" transform="translate(-755.46 -537.09)"/><path class="cls-12" d="M767.17,544.57l0,0h0l.1-.09,0,0h0v0l0,0,0,0,.1-.08.08-.09h0a.38.38,0,0,1,.24.24l-.07.07,0,0-.25.23,0,0-.2.19-.06.07h0l0-.05-.1.1s-.06,0-.07,0a.3.3,0,0,1,0-.13h0v-.09l0,0,.09-.09,0,0,0,0h0Z" transform="translate(-755.46 -537.09)"/><path class="cls-13" d="M767.13,548.49c.14.13.06.31.1.46s0,0,0,0c-.17,0-.3.22-.5.15,0,0-.08,0-.08-.07,0-.18,0-.37.12-.51l.38-.06" transform="translate(-755.46 -537.09)"/><path class="cls-10" d="M766.79,542.9l-.14,0h0l0,0h0l0,0a.9.9,0,0,0-.05-.09l0,.09c-.07.1-.16.08-.24,0a.3.3,0,0,0,0,.08l-.13,0,.07-.09-.12-.05s0-.06,0-.09l0,0s0,0,0,.07l.1,0s0,0,0-.05h0l.05,0h0l.06,0,.22-.06h.13l.1,0a.36.36,0,0,0,0,.1l0,0c-.12.05-.12.1,0,.2h0l0,0" transform="translate(-755.46 -537.09)"/><path class="cls-10" d="M767.68,542.88s-.06,0-.07,0-.15.1-.23,0a1.17,1.17,0,0,1-.25.07s0-.06-.08-.09v-.18l0,0v-.05h.23l.42.13.06,0h0l0,0,.05,0,0,.05-.13,0v.08" transform="translate(-755.46 -537.09)"/><path class="cls-14" d="M768.67,542.5l.05,0v.05l0,0h0l0,0h0l.07,0-.21.3-.22-.15v0c.06,0,.14,0,.14-.11l-.24.13-.11,0h0v0l0,0-.09,0h0l0,0h0a.19.19,0,0,1,0-.08v0l.08,0h.07l.13,0,0,0h.12l0,0,0,0h0a.14.14,0,0,1,0-.06h.15m-.08.27v0h0v0m.06-.08v0h0m0-.11h0m-.22.06h0Z" transform="translate(-755.46 -537.09)"/><path class="cls-15" d="M765.84,542.68l-.07,0,0,0h0l-.06,0v.09l0,0-.05,0-.07,0a.36.36,0,0,1,0-.11h0l-.1.21-.13.09c-.06-.08-.1-.16-.16-.23s0-.09,0-.11l.06,0v0l-.05,0,.06,0,0,0,.06,0v.09h0l0-.09v0h0l.18,0h0l.17,0,.13.06,0,0s0,0,0,0l0,0h0m-.52.09v0h0l0,0" transform="translate(-755.46 -537.09)"/><path class="cls-16" d="M769.05,542.9c0-.14.06-.17.2-.12l.08.12,0,0,0-.1h0l.08,0h0c.11,0,.06-.09.07-.15s.15-.06.19,0,0,.13-.11.14-.14.16-.13.24a.16.16,0,0,1,0,.13s-.07,0-.11,0-.11-.19-.22-.25" transform="translate(-755.46 -537.09)"/><path class="cls-12" d="M769.05,542.9c.11.06.22.11.22.25l-.12.13-.1.08-.08,0c0-.06-.17,0-.13-.1l0-.11.24-.22" transform="translate(-755.46 -537.09)"/><path class="cls-12" d="M765.49,543.48h-.17l0,0h0v0h0l0,0a0,0,0,0,1,0,0s0,0,0,0l-.05.09,0,0h0l0-.05h0l0-.06,0,0,0-.07h-.06l-.24-.13,0,0,.22,0h0l0,0v0l0,0,0,0v-.12l.07.07.05,0h0l0,.08.22.17" transform="translate(-755.46 -537.09)"/><path class="cls-16" d="M765.74,545.82s0,.13.09.16a.74.74,0,0,0,.22.1c0,.12-.08.22-.23.2s-.18-.22-.28-.32a.5.5,0,0,0,0-.13h.16" transform="translate(-755.46 -537.09)"/><path class="cls-15" d="M765.82,543.58l-.07,0a1,1,0,0,1-.1.17s0,0-.08,0,0-.07,0-.1a.55.55,0,0,1,.08-.15l-.11-.08a1.17,1.17,0,0,1,.05-.11h0l.1,0c0-.1.08,0,.13,0v.06s-.07.09,0,.12l0,.05,0,.1h0m-.19-.08h0" transform="translate(-755.46 -537.09)"/><path class="cls-15" d="M767.88,546.11c.15,0,.22-.16.29-.29s.18,0,.17.13l-.05.08,0,0,0,0h0l0,0-.07.1-.09,0-.11,0,0,0,0-.09" transform="translate(-755.46 -537.09)"/><path class="cls-16" d="M769,543.33l.08,0-.23.15h-.07l0,0s0,0,0,0l0,0h0l0,0h0l0,0h0l-.05,0,0,0,0,0v-.05l0-.12,0-.08-.17,0-.06,0,0,0,.08,0,0,0,.45,0" transform="translate(-755.46 -537.09)"/><path class="cls-14" d="M764.86,542.9a.32.32,0,0,0-.23.25s-.1,0-.11,0a.37.37,0,0,1,0-.14.15.15,0,0,1,0-.07l0,0,0,0a.14.14,0,0,1,0,.06l0,0,0-.06s0,0,0,0l.06-.08a1.35,1.35,0,0,1,.29,0s.06.07.08.11" transform="translate(-755.46 -537.09)"/><path class="cls-15" d="M766.45,543.78l.1-.08h.13v0s0,.06,0,.08l0,0h0a.11.11,0,0,0,0,0v0a.47.47,0,0,0-.21.23s-.07,0-.1,0,.13-.18,0-.25l0,0v-.1l0,0" transform="translate(-755.46 -537.09)"/><path class="cls-15" d="M768.39,543.43l0,0c-.07,0-.08,0-.07.08s.05.1.08.16l-.1.06-.11-.22-.1,0,0,0h0v0a.31.31,0,0,1,0-.1c.06,0,0-.07,0-.1h0v0l.08,0,0,0a.41.41,0,0,1,.11.07l.07,0,0,.1v0" transform="translate(-755.46 -537.09)"/><path class="cls-17" d="M767.16,547.44h.07l0,.09v0h0l0,0h-.1v.13l-.1,0a.62.62,0,0,0,0-.1l-.17,0v0l0-.08,0,0s.09.07.1,0l.06,0a.56.56,0,0,0,0-.12,0,0,0,0,1,0,0h0v0a.41.41,0,0,0,.05.09h0" transform="translate(-755.46 -537.09)"/><path class="cls-15" d="M767.51,543.86l0,.07-.08,0,0,.21c-.1.06-.15,0-.18-.11h0l0-.07a.6.6,0,0,0-.08-.08l.1-.08c0-.11,0-.1.11-.09l0,.09h.1l0,.05" transform="translate(-755.46 -537.09)"/><path class="cls-18" d="M766.8,547.61l.17,0a.62.62,0,0,1,0,.1h0a.57.57,0,0,1,0,.13l0,.09v.12h0v.06h0l0,.1h0v-.07l0,0h-.07c-.08-.05-.07-.12,0-.19s.08.09.1,0v-.08a.13.13,0,0,0,0-.06c0-.08,0-.12-.12-.07a.15.15,0,0,1,0-.18" transform="translate(-755.46 -537.09)"/><path class="cls-17" d="M766.7,545.35l-.08,0s0,0,0,0l-.22-.22.11-.12.11.08h.08l.05.09.1.12h0l0,0c-.12,0-.06.08-.08.12Z" transform="translate(-755.46 -537.09)"/><path class="cls-5" d="M767.13,548.49l-.38.06c0-.09,0-.13.07-.18h0l.11,0v0l0-.05h.08c0,.07.1.14,0,.23" transform="translate(-755.46 -537.09)"/><path class="cls-19" d="M767.11,541.44l-.31,0,0,0h.05l-.05-.07,0-.05,0,0h.25c.06,0,.09.08,0,.14v0l0,0" transform="translate(-755.46 -537.09)"/><path class="cls-20" d="M767.61,541.56a.33.33,0,0,0-.19-.08s0,0-.06,0h0l0,0,.19-.21a.19.19,0,0,0,0,.08c0,.06,0,.11,0,.17s0,.08,0,.13" transform="translate(-755.46 -537.09)"/><path class="cls-21" d="M767.91,544.37a.35.35,0,0,0-.24-.23l.14-.15h0s0,0,0,.06a2.09,2.09,0,0,0,.2.22c0,.12,0,.13-.11.1" transform="translate(-755.46 -537.09)"/><path class="cls-21" d="M769.07,544.34a.64.64,0,0,1,0-.07l0-.06-.11-.08-.09-.07a.19.19,0,0,1,0-.07H769s.08.07.11,0l0-.09,0,0c0,.1,0,.2,0,.3l0,0,0,.22,0-.09" transform="translate(-755.46 -537.09)"/><path class="cls-16" d="M767.84,544h0l.17-.13.21.28v.05h0l0,0h0a.25.25,0,0,0-.24-.25" transform="translate(-755.46 -537.09)"/><path class="cls-15" d="M766.22,544.14c-.1.05-.2.1-.23.23s-.11,0-.1-.1l.23-.24h.07l0,0v0" transform="translate(-755.46 -537.09)"/><path class="cls-15" d="M765.92,543.86h0l0,0a.35.35,0,0,0,0,.08l-.26.26-.1-.08a3.11,3.11,0,0,0,.23-.28" transform="translate(-755.46 -537.09)"/><path class="cls-17" d="M768.51,547.19s-.15,0-.17.08l-.2,0,0,0,.08-.12a.21.21,0,0,0,.2-.06h.09l0,.1" transform="translate(-755.46 -537.09)"/><path class="cls-9" d="M764.33,547.1l.16.16c0,.17-.11.2-.21.09a.21.21,0,0,1,0-.14.6.6,0,0,1,.06-.11" transform="translate(-755.46 -537.09)"/><path class="cls-16" d="M764.54,546l-.13.13-.14-.11c.1-.18.16-.18.27,0" transform="translate(-755.46 -537.09)"/><path class="cls-19" d="M766.94,540.56l.17.07v.09l-.27,0,0,0,.05,0,.09-.05" transform="translate(-755.46 -537.09)"/><path class="cls-16" d="M765.49,547.36l0-.07.24,0h0v0s0,.08,0,.12-.14.11-.22,0,0,0,0,0" transform="translate(-755.46 -537.09)"/><path class="cls-21" d="M765.92,543.86a3.11,3.11,0,0,1-.23.28.34.34,0,0,1,0-.14,3,3,0,0,1,.11-.32l.11.18" transform="translate(-755.46 -537.09)"/><path class="cls-14" d="M769.5,546.09l-.13-.17s0-.06.08-.06a.24.24,0,0,1,.15,0c.07.09,0,.13-.07.18h0" transform="translate(-755.46 -537.09)"/><path class="cls-22" d="M768.62,543.56l0,.12,0,.06v0c0,.05,0,.09-.05.13l0-.22,0-.06v0l0-.05v0l.17,0,0,.08" transform="translate(-755.46 -537.09)"/><path class="cls-21" d="M765.79,544.21l.26-.25.07.07-.23.24-.1-.06" transform="translate(-755.46 -537.09)"/><path class="cls-12" d="M769.42,547.24l0,0h0l0,0h0l.14.11a.6.6,0,0,1-.12.11s-.08,0-.13-.07v-.07" transform="translate(-755.46 -537.09)"/><path class="cls-22" d="M768.19,544.14l-.21-.28,0,0s0,0,0,0v0h.08a2.76,2.76,0,0,1,.08.27s0,.07,0,.11" transform="translate(-755.46 -537.09)"/><path class="cls-22" d="M767.84,544a.25.25,0,0,1,.24.25l-.06,0-.2-.22s0,0,0-.06" transform="translate(-755.46 -537.09)"/><path class="cls-5" d="M768.14,547.29l.2,0,.06.08-.06.07c-.09.07-.16,0-.18-.07a.14.14,0,0,0,0-.06" transform="translate(-755.46 -537.09)"/><path class="cls-14" d="M766.88,541c0-.09-.07-.18.09-.22l.08.13a1,1,0,0,0,0,.1h-.13" transform="translate(-755.46 -537.09)"/><path class="cls-20" d="M769.17,544.23c0-.1,0-.2,0-.3h0l.13.09,0,0c0,.06-.07.13,0,.17s-.09.08-.15,0" transform="translate(-755.46 -537.09)"/><path class="cls-14" d="M767.65,542.3c0-.06,0-.11-.06-.18l.17,0c.1.1,0,.17,0,.25l-.09,0" transform="translate(-755.46 -537.09)"/><path class="cls-23" d="M767.23,543.8l-.1.08a.6.6,0,0,1,.08.08l0,.07,0,0-.11,0c0-.14,0-.3,0-.46l-.36,0h.43v0c0,.07,0,.15,0,.22l.07,0h0" transform="translate(-755.46 -537.09)"/><path class="cls-14" d="M764.38,542.77c-.09,0-.12,0-.12-.11s.06-.07.1-.08.11,0,.1.12l-.08.07" transform="translate(-755.46 -537.09)"/><path class="cls-10" d="M767.08,541.26h-.25s0-.08,0-.12h.21l0,.11" transform="translate(-755.46 -537.09)"/><path class="cls-16" d="M765,544.57c.18,0,0-.12,0-.23a.4.4,0,0,1,.07.16c0,.07,0,.08.09.07s-.08.08-.12.08-.06,0-.09-.08" transform="translate(-755.46 -537.09)"/><path class="cls-16" d="M768.81,543.12l0,.11c-.05,0-.06.15-.16.09a.28.28,0,0,1,0-.09h0l.05,0,.09-.07" transform="translate(-755.46 -537.09)"/><path class="cls-14" d="M766.2,542.08l.08,0a.24.24,0,0,0,0,.08l-.07.07-.06,0-.07-.14a.39.39,0,0,1,.1-.08" transform="translate(-755.46 -537.09)"/><path class="cls-24" d="M768.67,543.23a.28.28,0,0,0,0,.09c.1.06.11-.05.16-.09,0,.14.1,0,.13.1l-.45,0,.15-.13" transform="translate(-755.46 -537.09)"/><path class="cls-25" d="M767.81,542.7h.09l.06,0c0,.09-.05.19-.07.28h0c-.09,0-.06-.11,0-.17a.22.22,0,0,0,0-.08l-.05,0v0" transform="translate(-755.46 -537.09)"/><path class="cls-23" d="M765.4,544.32a.89.89,0,0,1,0-.51c0,.13,0,.26,0,.39s0,.09,0,.13h0" transform="translate(-755.46 -537.09)"/><path class="cls-26" d="M768.48,544.34v0l-.18.26,0,0,.21-.28" transform="translate(-755.46 -537.09)"/><path class="cls-27" d="M764.64,543.41l.07.14a.74.74,0,0,1-.13.08c0-.07,0-.17.06-.22" transform="translate(-755.46 -537.09)"/><path class="cls-24" d="M769.33,543.64c-.12,0-.15-.08-.08-.18s0,0,0-.05l.06.23" transform="translate(-755.46 -537.09)"/><path class="cls-16" d="M764.76,544.21h0l0,0h0c-.09-.07,0-.14,0-.2h0l0,0h0a.5.5,0,0,1,0,.12v.08" transform="translate(-755.46 -537.09)"/><path class="cls-21" d="M764.76,544.21v-.08h0l0,0,0,.08v0l0,.17a.47.47,0,0,1-.06-.09s0-.09,0-.14" transform="translate(-755.46 -537.09)"/><path class="cls-23" d="M765.91,542.64h0v0h0l.14.13v.09h0l-.07-.11,0-.06" transform="translate(-755.46 -537.09)"/><path class="cls-22" d="M765.39,542.82l.1-.21h0l0,.11-.1,0-.08,0" transform="translate(-755.46 -537.09)"/><path class="cls-22" d="M766.87,548.37h0a.09.09,0,0,1,0-.15h0l.06,0v0h0l-.07.06" transform="translate(-755.46 -537.09)"/><path class="cls-18" d="M765.87,542.58l-.13-.06v-.08l0,0,.12.16h0l0,0" transform="translate(-755.46 -537.09)"/><path class="cls-15" d="M767.09,548.26H767v-.12h.1a.53.53,0,0,0,0,.13" transform="translate(-755.46 -537.09)"/><path class="cls-24" d="M766.5,541.46l0,0h-.12v0l0,0-.05,0v-.09l0,.08,0,0v-.07l.06.08,0,0,.07,0,.06,0h0l-.06,0" transform="translate(-755.46 -537.09)"/><path class="cls-28" d="M767,548l0-.09.07-.06h0l0,0v.1l-.12,0" transform="translate(-755.46 -537.09)"/><path class="cls-28" d="M767.56,547.37h0l.09,0h0l.06,0h0s0,0,0,.06h-.08l0,0,0,0v0" transform="translate(-755.46 -537.09)"/><path class="cls-15" d="M768,542.75l-.06,0,.16-.13a.19.19,0,0,0,0,.08l-.11.1" transform="translate(-755.46 -537.09)"/><path class="cls-24" d="M767.68,542.88v-.08l.13,0-.09.1v0l0-.07h0v.1h0s0,0,0-.06" transform="translate(-755.46 -537.09)"/><path class="cls-10" d="M767.23,543.8h0c0-.07,0-.14.08-.14s.09.08.09.14a.39.39,0,0,1,0-.09c-.06,0-.13,0-.11.09" transform="translate(-755.46 -537.09)"/><path class="cls-23" d="M764.71,544c0,.06-.1.13,0,.2-.06.08-.09,0-.13,0s0-.11,0-.17h.1" transform="translate(-755.46 -537.09)"/><path class="cls-25" d="M768.2,542.73l.11,0,.1,0v0l-.22.07s0-.07,0-.1" transform="translate(-755.46 -537.09)"/><path class="cls-28" d="M766.21,547.46h0v-.14l0,0s0,.1,0,.12" transform="translate(-755.46 -537.09)"/><path class="cls-26" d="M768.06,544.7l.11-.1,0,0-.11.09,0,0" transform="translate(-755.46 -537.09)"/><path class="cls-10" d="M766.6,544.44l0-.05.13-.16h0l-.13.2" transform="translate(-755.46 -537.09)"/><path class="cls-22" d="M766.33,541.43h.12c0,.08-.05.08-.1.08a.29.29,0,0,1,0-.09" transform="translate(-755.46 -537.09)"/><path class="cls-29" d="M766,542.7l.06.11,0,0-.1-.13H766" transform="translate(-755.46 -537.09)"/><path class="cls-28" d="M766.15,547.43l-.07,0,0,0h0l.07-.08,0,.12" transform="translate(-755.46 -537.09)"/><path class="cls-9" d="M765.4,544.32h0a.36.36,0,0,1,0,.09h0l-.15.05.08-.15" transform="translate(-755.46 -537.09)"/><path class="cls-29" d="M765.84,542.79l.12.13,0,0-.11-.14h0" transform="translate(-755.46 -537.09)"/><path class="cls-13" d="M766.39,547.48h0l0,0h0s-.07-.11,0-.1l0,.11" transform="translate(-755.46 -537.09)"/><path class="cls-21" d="M769.32,542.78l0,.1,0,0a.83.83,0,0,1-.08-.12h.07" transform="translate(-755.46 -537.09)"/><path class="cls-28" d="M767,548.08h0v0l.12-.06h0v.07h0l-.12,0" transform="translate(-755.46 -537.09)"/><path class="cls-28" d="M768,547.35h0l0,0h-.1l0,0h0v-.05H768l0,.05" transform="translate(-755.46 -537.09)"/><path class="cls-28" d="M767,544.72l0,0-.16,0,.06-.07h0" transform="translate(-755.46 -537.09)"/><path class="cls-10" d="M768.26,544.34a.77.77,0,0,1,0,.15h0a.09.09,0,0,1,0-.15Z" transform="translate(-755.46 -537.09)"/><path class="cls-30" d="M766.65,547.54h-.1s0,0,0,0,0-.06,0-.1l.11,0a.36.36,0,0,0,0,.09l0,0" transform="translate(-755.46 -537.09)"/><path class="cls-28" d="M765.87,547.34l0-.08v0h0l0,0,.06,0,0,.1" transform="translate(-755.46 -537.09)"/><path class="cls-13" d="M767,547.74l.1,0a.13.13,0,0,0,0,.06h0l0,0h0l-.08-.07Z" transform="translate(-755.46 -537.09)"/><path class="cls-27" d="M766.37,547.37c-.12,0,0,.06,0,.1h-.11c.08,0,0-.07,0-.12l.13,0h0" transform="translate(-755.46 -537.09)"/><path class="cls-22" d="M766.2,542.08a.39.39,0,0,0-.1.08l0,0,0,0h.1" transform="translate(-755.46 -537.09)"/><path class="cls-12" d="M769.6,543.79l-.08.11,0,0,.1-.13a.14.14,0,0,0,0,.06" transform="translate(-755.46 -537.09)"/><path class="cls-21" d="M769.47,542.6c0,.06,0,.15-.07.15l.07-.15" transform="translate(-755.46 -537.09)"/><path class="cls-28" d="M766,547.38l-.07,0a.36.36,0,0,0,0-.09l0,0v.09" transform="translate(-755.46 -537.09)"/><path class="cls-28" d="M766.9,548c0,.1-.06,0-.1,0a.14.14,0,0,0,0-.06l.12,0" transform="translate(-755.46 -537.09)"/><path class="cls-27" d="M766.56,547.51v0l-.1,0v0l0-.1h0l0,.12" transform="translate(-755.46 -537.09)"/><path class="cls-22" d="M768.73,544.59h.16c0,.09-.11.07-.16,0" transform="translate(-755.46 -537.09)"/><path class="cls-10" d="M767,541l0-.09.06.12h0l-.07,0h0" transform="translate(-755.46 -537.09)"/><path class="cls-25" d="M767.89,543c.08,0,.05.08,0,.12h0l0-.11h0" transform="translate(-755.46 -537.09)"/><path class="cls-26" d="M767.53,543.26l0,0,0,.15-.06-.12" transform="translate(-755.46 -537.09)"/><path class="cls-22" d="M765.55,542.47l-.18,0c0-.12.11-.06.17-.08a.07.07,0,0,0,0,.05" transform="translate(-755.46 -537.09)"/><path class="cls-9" d="M769.5,546.09h0l.07.15-.1-.14" transform="translate(-755.46 -537.09)"/><path class="cls-10" d="M766.78,543.84h0a.62.62,0,0,1,0-.13h0a.51.51,0,0,0,0,.13" transform="translate(-755.46 -537.09)"/><path class="cls-10" d="M765.46,542.78l.11,0,.07,0-.18,0" transform="translate(-755.46 -537.09)"/><path class="cls-27" d="M767.59,547.43l0,0-.15.06v-.06h0s.08.07.11,0h0" transform="translate(-755.46 -537.09)"/><path class="cls-24" d="M767,548.08l.12,0a.19.19,0,0,1,0,.08H767v-.06" transform="translate(-755.46 -537.09)"/><path class="cls-29" d="M768.37,542.45l0,0-.12,0v0h.14v0" transform="translate(-755.46 -537.09)"/><path class="cls-30" d="M766.45,547.49v0l-.06,0,0-.11h.07a.61.61,0,0,1,0,.14" transform="translate(-755.46 -537.09)"/><path class="cls-27" d="M766.9,548l-.12,0a.13.13,0,0,1,0-.06h0l.1,0h0V548" transform="translate(-755.46 -537.09)"/><path class="cls-27" d="M766,547.27a.36.36,0,0,1,0,.09l-.08,0,0-.1.08,0" transform="translate(-755.46 -537.09)"/><path class="cls-27" d="M766.78,547.79c.08,0,.12,0,.12.08h0l-.1-.06h0v0" transform="translate(-755.46 -537.09)"/><path class="cls-27" d="M767.26,547.55v0l.07,0h0l.13,0v0l-.21,0" transform="translate(-755.46 -537.09)"/><path class="cls-10" d="M766.68,543.71h-.13c0-.06.09-.07.13,0" transform="translate(-755.46 -537.09)"/><path class="cls-14" d="M766.13,542.4h.12v0l-.09,0,0-.05" transform="translate(-755.46 -537.09)"/><path class="cls-27" d="M767.11,548l-.12.06h0V548l.12,0s0,0,0,.06" transform="translate(-755.46 -537.09)"/><path class="cls-22" d="M764.38,542.77l.08-.07,0,0-.06.08,0-.06" transform="translate(-755.46 -537.09)"/><path class="cls-18" d="M766.77,547.51l0,.08-.07,0h0s0-.06,0-.09h0l0,0" transform="translate(-755.46 -537.09)"/><path class="cls-22" d="M766.37,541.24v.07l0,0,0-.08.07,0" transform="translate(-755.46 -537.09)"/><path class="cls-18" d="M765.55,542.47a.07.07,0,0,1,0-.05l.11,0v0l-.09.05h0" transform="translate(-755.46 -537.09)"/><path class="cls-9" d="M769.42,547.24v.07h-.07l.07-.07" transform="translate(-755.46 -537.09)"/><path class="cls-26" d="M765.81,544.68l.08,0,0,0-.07,0v0" transform="translate(-755.46 -537.09)"/><path class="cls-5" d="M766.24,543.08l.11-.05v0l-.06.06h0l0,0" transform="translate(-755.46 -537.09)"/><path class="cls-22" d="M766.47,541.39l-.07,0,0,0,0,0v0" transform="translate(-755.46 -537.09)"/><path class="cls-24" d="M767.33,541.39l-.09,0,.1-.08v0" transform="translate(-755.46 -537.09)"/><path class="cls-28" d="M767.41,545.12h0l-.1,0,.05,0,0,.06" transform="translate(-755.46 -537.09)"/><path class="cls-29" d="M766,543l0,.07,0,0,0-.09Z" transform="translate(-755.46 -537.09)"/><path class="cls-25" d="M767.64,544.14l-.08.09s0-.06,0-.09h.09" transform="translate(-755.46 -537.09)"/><path class="cls-26" d="M768.14,543.76h-.08l0-.06,0,.06" transform="translate(-755.46 -537.09)"/><path class="cls-29" d="M768.14,542.53l-.08,0c0-.11.06-.06.11,0h0" transform="translate(-755.46 -537.09)"/><path class="cls-31" d="M766.15,547.43l0-.12h.07v.14l-.05,0" transform="translate(-755.46 -537.09)"/><path class="cls-31" d="M766,547.38v-.09l.1,0h0l-.07.08h0" transform="translate(-755.46 -537.09)"/><path class="cls-15" d="M768.37,542.45v0l.12,0h-.12" transform="translate(-755.46 -537.09)"/><path class="cls-9" d="M768.94,545.8h0" transform="translate(-755.46 -537.09)"/><path class="cls-10" d="M765.92,543.48l0-.05.08,0h0l0,.07" transform="translate(-755.46 -537.09)"/><path class="cls-10" d="M768.15,544.48l-.07,0v0l.06,0,0,0" transform="translate(-755.46 -537.09)"/><path class="cls-26" d="M767.43,543.49l.05,0v.15a.48.48,0,0,0-.05-.12" transform="translate(-755.46 -537.09)"/><path class="cls-10" d="M767.38,541.26l0,0,0,0,0,0,0,0" transform="translate(-755.46 -537.09)"/><path class="cls-22" d="M766.5,541.46l.06,0h0l0,.08,0,0" transform="translate(-755.46 -537.09)"/><path class="cls-26" d="M765.7,544.62a.13.13,0,0,0,0,.06l0,0,0,0Z" transform="translate(-755.46 -537.09)"/><path class="cls-26" d="M768,544.73l-.07,0v0l.06,0,0,0" transform="translate(-755.46 -537.09)"/><path class="cls-17" d="M767.28,545l.06-.07-.06.11v0" transform="translate(-755.46 -537.09)"/><path class="cls-11" d="M767.28,545v0h0l0,0h0v0l.07,0Z" transform="translate(-755.46 -537.09)"/><path class="cls-10" d="M765.63,544.27v-.07h0s0,0,0,.07h0" transform="translate(-755.46 -537.09)"/><path class="cls-9" d="M764.31,544l.07.07-.07-.07" transform="translate(-755.46 -537.09)"/><path class="cls-10" d="M765.64,544.35l0,0v0l0,0,0,0" transform="translate(-755.46 -537.09)"/><path class="cls-22" d="M767.81,542.7v0h0l0,0v-.09l0,.06" transform="translate(-755.46 -537.09)"/><path class="cls-25" d="M767.41,544l.08,0,0,.07-.12,0" transform="translate(-755.46 -537.09)"/><path class="cls-23" d="M767.36,545.06l-.05,0,0,0V545l.08,0" transform="translate(-755.46 -537.09)"/><path class="cls-9" d="M769.7,546.51a.31.31,0,0,1,0-.08.31.31,0,0,0,0,.08" transform="translate(-755.46 -537.09)"/><path class="cls-25" d="M768.16,542.63l.09,0,0,0-.07,0v0h0Z" transform="translate(-755.46 -537.09)"/><path class="cls-10" d="M766.47,541.39v0l.06.07-.06,0" transform="translate(-755.46 -537.09)"/><path class="cls-24" d="M766.65,541.42h-.08l0-.07,0,0a.13.13,0,0,1,0,.06" transform="translate(-755.46 -537.09)"/><path class="cls-10" d="M766.8,541.29l0,.05,0,0,.06,0" transform="translate(-755.46 -537.09)"/><path class="cls-10" d="M766.66,541.36l0,0,.06,0v.05" transform="translate(-755.46 -537.09)"/><path class="cls-10" d="M767,541h0" transform="translate(-755.46 -537.09)"/><path class="cls-27" d="M767.7,547.47v-.06h.13l-.14.05" transform="translate(-755.46 -537.09)"/><path class="cls-6" d="M766.3,543.16l0,.09,0-.09" transform="translate(-755.46 -537.09)"/><path class="cls-24" d="M765.32,542.55l-.06,0,.07,0h0v0h0" transform="translate(-755.46 -537.09)"/><path class="cls-24" d="M767,541h-.15v0H767v0" transform="translate(-755.46 -537.09)"/><path class="cls-10" d="M765.72,542.83v.06h0l0-.06h0" transform="translate(-755.46 -537.09)"/><path class="cls-9" d="M769,547.46l.08-.05-.08.05" transform="translate(-755.46 -537.09)"/><path class="cls-7" d="M766.66,545.05h-.06V545h0l0,0a.13.13,0,0,1,0,.06" transform="translate(-755.46 -537.09)"/><path class="cls-26" d="M767.59,544.71l.08,0a0,0,0,0,1,0,0l-.08,0h0" transform="translate(-755.46 -537.09)"/><path class="cls-10" d="M767.43,543.76l0-.06h0v.06Z" transform="translate(-755.46 -537.09)"/><path class="cls-9" d="M769.67,546.4l0-.1,0,.1" transform="translate(-755.46 -537.09)"/><path class="cls-29" d="M765.67,542.68v-.07l.06,0-.05,0" transform="translate(-755.46 -537.09)"/><path class="cls-14" d="M767.73,542.45l0,0,.06,0,0,.05" transform="translate(-755.46 -537.09)"/><path class="cls-22" d="M765.33,542.5l-.07,0,0,0h.11" transform="translate(-755.46 -537.09)"/><path class="cls-12" d="M768.52,544.19l0,0,0,0a.09.09,0,0,0,0,0" transform="translate(-755.46 -537.09)"/><path class="cls-9" d="M769.68,546.83l0-.07,0,.07" transform="translate(-755.46 -537.09)"/><path class="cls-22" d="M766.77,541.42l0,0h-.1l.07,0" transform="translate(-755.46 -537.09)"/><path class="cls-22" d="M767.72,542.57h-.06v0l.07,0v0" transform="translate(-755.46 -537.09)"/><path class="cls-22" d="M765.16,542.55l0,0v0l-.07,0,0,0" transform="translate(-755.46 -537.09)"/><path class="cls-22" d="M767.63,541.65l-.08,0,.08,0v.06" transform="translate(-755.46 -537.09)"/><path class="cls-9" d="M769.6,547l0-.08,0,.08" transform="translate(-755.46 -537.09)"/><path class="cls-10" d="M766.78,544s0,0,0,0l0,0h0" transform="translate(-755.46 -537.09)"/><path class="cls-27" d="M767.84,547.36h.1l-.1,0h0v0" transform="translate(-755.46 -537.09)"/><path class="cls-9" d="M768.51,547.39l.08,0-.08,0" transform="translate(-755.46 -537.09)"/><path class="cls-14" d="M766.22,541.84l-.07.08.07-.08" transform="translate(-755.46 -537.09)"/><path class="cls-10" d="M768.21,543.08a.08.08,0,0,1,0,0h0a0,0,0,0,1,0,0l0,0" transform="translate(-755.46 -537.09)"/><path class="cls-15" d="M765.27,543.31l0-.08,0,.08" transform="translate(-755.46 -537.09)"/><path class="cls-10" d="M765.62,543.32h0l0,0,0,.05" transform="translate(-755.46 -537.09)"/><path class="cls-10" d="M766,543.33s0,0,0-.06h0l0,.06h0" transform="translate(-755.46 -537.09)"/><path class="cls-10" d="M768,543.31s0,0,0,0a0,0,0,0,1,0,0h0" transform="translate(-755.46 -537.09)"/><path class="cls-10" d="M768.06,543.31s.06.06,0,.1v-.1" transform="translate(-755.46 -537.09)"/><path class="cls-10" d="M765.94,543.41l0-.08h0l0,.08Z" transform="translate(-755.46 -537.09)"/><path class="cls-26" d="M768.39,543.43v0h.08l-.08,0" transform="translate(-755.46 -537.09)"/><path class="cls-21" d="M765.44,543.61l.06-.08-.06.08" transform="translate(-755.46 -537.09)"/><path class="cls-10" d="M766.45,543.63a.11.11,0,0,0,0,0h0v0h0" transform="translate(-755.46 -537.09)"/><path class="cls-9" d="M768.29,546l.05-.08h0l-.07.07" transform="translate(-755.46 -537.09)"/><path class="cls-10" d="M767.15,541.07l0-.05h0l0,0Z" transform="translate(-755.46 -537.09)"/><path class="cls-10" d="M766.42,543.91l0,0-.05,0s0,0,0-.05" transform="translate(-755.46 -537.09)"/><path class="cls-21" d="M769.4,542.75l-.08,0,.08,0" transform="translate(-755.46 -537.09)"/><path class="cls-26" d="M767.79,542.76h0l.05,0h0l-.05,0" transform="translate(-755.46 -537.09)"/><path class="cls-25" d="M768,542.9v0h0v0h0" transform="translate(-755.46 -537.09)"/><path class="cls-22" d="M766.3,541.35l.05,0,0,0,0,0" transform="translate(-755.46 -537.09)"/><path class="cls-10" d="M768.29,543.21l0,0h0l0,0Z" transform="translate(-755.46 -537.09)"/><path class="cls-10" d="M767.39,541.39l0,0h0v-.05h0" transform="translate(-755.46 -537.09)"/><path class="cls-10" d="M768.19,542.92h0" transform="translate(-755.46 -537.09)"/><path class="cls-9" d="M764.43,544.09l.05,0-.05,0" transform="translate(-755.46 -537.09)"/><path class="cls-14" d="M766.24,541.75v0" transform="translate(-755.46 -537.09)"/><path class="cls-14" d="M767.66,541.82v0" transform="translate(-755.46 -537.09)"/><path class="cls-9" d="M769.12,547.42l0,0,0,0" transform="translate(-755.46 -537.09)"/><path class="cls-10" d="M766.45,543.78l0,0v0h0" transform="translate(-755.46 -537.09)"/><path class="cls-28" d="M766.65,545h0v0l0,.05" transform="translate(-755.46 -537.09)"/><path class="cls-22" d="M768.89,544.59l.06-.05-.06.05" transform="translate(-755.46 -537.09)"/><path class="cls-10" d="M768.34,543.31l-.07,0,0-.07h0l0,.06" transform="translate(-755.46 -537.09)"/><path class="cls-25" d="M767.29,544.38v0h0v0h0" transform="translate(-755.46 -537.09)"/><path class="cls-32" d="M766.88,544.62l0,0,0,0h0" transform="translate(-755.46 -537.09)"/><path class="cls-26" d="M765.53,544.51l0,0v0h0" transform="translate(-755.46 -537.09)"/><path class="cls-26" d="M765.82,543.58h0l0,0,0,0" transform="translate(-755.46 -537.09)"/><path class="cls-15" d="M768.67,542.5h0" transform="translate(-755.46 -537.09)"/><path class="cls-10" d="M768.26,544.34a.15.15,0,0,1,0-.07h0l0,.07h0" transform="translate(-755.46 -537.09)"/><path class="cls-10" d="M768.11,544.24l0,0,0,0" transform="translate(-755.46 -537.09)"/><path class="cls-26" d="M767.43,543.76h.05v0h-.05v0" transform="translate(-755.46 -537.09)"/><path class="cls-6" d="M766,543.88l0,0,0,0" transform="translate(-755.46 -537.09)"/><path class="cls-26" d="M768,543.54l0,0,0,0" transform="translate(-755.46 -537.09)"/><path class="cls-10" d="M767.16,541.06h0v0h0Z" transform="translate(-755.46 -537.09)"/><path class="cls-10" d="M766.68,541.09v0h0" transform="translate(-755.46 -537.09)"/><path class="cls-10" d="M767.25,541.1v0h0" transform="translate(-755.46 -537.09)"/><path class="cls-25" d="M768.1,542.78v0h0" transform="translate(-755.46 -537.09)"/><path class="cls-22" d="M764.44,542.85l0,.06,0-.06" transform="translate(-755.46 -537.09)"/><path class="cls-12" d="M769.55,544l.05,0-.05,0" transform="translate(-755.46 -537.09)"/><path class="cls-10" d="M765.71,543h0v0h0v0" transform="translate(-755.46 -537.09)"/><path class="cls-10" d="M766.36,544.12h0v0h0v0" transform="translate(-755.46 -537.09)"/><path class="cls-12" d="M769.42,544.13l.06,0-.06,0" transform="translate(-755.46 -537.09)"/><path class="cls-26" d="M768.44,543.63l0,.06,0-.06" transform="translate(-755.46 -537.09)"/><path class="cls-29" d="M766,543l0,0,0,0,0,0h0" transform="translate(-755.46 -537.09)"/><path class="cls-27" d="M766.15,542h.05l-.05,0v0" transform="translate(-755.46 -537.09)"/><path class="cls-26" d="M768.42,543.56l0,.05,0-.05" transform="translate(-755.46 -537.09)"/><path class="cls-15" d="M768.14,542.53h0" transform="translate(-755.46 -537.09)"/><path class="cls-15" d="M768.72,542.57v0l0,0h0Z" transform="translate(-755.46 -537.09)"/><path class="cls-22" d="M766.18,542.55l0,.05,0-.05" transform="translate(-755.46 -537.09)"/><path class="cls-22" d="M765.72,542.62l0,0,0,0" transform="translate(-755.46 -537.09)"/><path class="cls-10" d="M765.66,543.16h0" transform="translate(-755.46 -537.09)"/><path class="cls-10" d="M767.81,544.46l0,0v0l0,0" transform="translate(-755.46 -537.09)"/><path class="cls-10" d="M766,543.21h0v0" transform="translate(-755.46 -537.09)"/><path class="cls-10" d="M768.29,543.2l0,0h0s0,0,0,0h0" transform="translate(-755.46 -537.09)"/><path class="cls-26" d="M765.68,544.49l0,0h0v0h0" transform="translate(-755.46 -537.09)"/><path class="cls-32" d="M767.14,544.6l0,0,0,0" transform="translate(-755.46 -537.09)"/><path class="cls-27" d="M768,547.34h.06v0H768" transform="translate(-755.46 -537.09)"/><path class="cls-10" d="M765.85,543.31v0" transform="translate(-755.46 -537.09)"/><path class="cls-25" d="M767.37,544.39l0,0,0,0" transform="translate(-755.46 -537.09)"/><path class="cls-26" d="M768.05,543.79s0,0,0,0,0,0,0,0" transform="translate(-755.46 -537.09)"/><path class="cls-26" d="M767.53,543.43l.05,0-.05,0" transform="translate(-755.46 -537.09)"/><path class="cls-26" d="M765.47,544.42v0h0v0h0" transform="translate(-755.46 -537.09)"/><path class="cls-26" d="M768.21,544.49h0a.32.32,0,0,1,0,.07l0-.08" transform="translate(-755.46 -537.09)"/><path class="cls-10" d="M766.73,544.17h0v0" transform="translate(-755.46 -537.09)"/><path class="cls-10" d="M765.84,544.5h0v0h0v0" transform="translate(-755.46 -537.09)"/><path class="cls-9" d="M769.53,547.16h0l0,0a.08.08,0,0,0,0,0" transform="translate(-755.46 -537.09)"/><path class="cls-25" d="M767.54,544.08h0v0" transform="translate(-755.46 -537.09)"/><path class="cls-22" d="M769.07,544.34l0,.09h0l0-.09" transform="translate(-755.46 -537.09)"/><path class="cls-30" d="M767.11,547.78a.13.13,0,0,1,0-.06v.06" transform="translate(-755.46 -537.09)"/><path class="cls-10" d="M768.16,543.26l0,0,0,0" transform="translate(-755.46 -537.09)"/><path class="cls-17" d="M766.78,547.81h0v.08h0a.22.22,0,0,1,0-.08" transform="translate(-755.46 -537.09)"/><path class="cls-10" d="M766.7,543.81s0,0,0-.08,0,.06,0,.08" transform="translate(-755.46 -537.09)"/><path class="cls-12" d="M768.56,544.44l.06,0-.06,0" transform="translate(-755.46 -537.09)"/><path class="cls-31" d="M766.87,548.22h0v0h.07v0h0" transform="translate(-755.46 -537.09)"/><path class="cls-17" d="M767.28,545v0h0v0l0,0v0" transform="translate(-755.46 -537.09)"/><path class="cls-9" d="M769,545.8h0" transform="translate(-755.46 -537.09)"/><polyline class="cls-10" points="12.43 7.4 12.44 7.4 12.44 7.41 12.43 7.41 12.43 7.4"/><polyline class="cls-26" points="10.73 7.68 10.72 7.69 10.72 7.68 10.72 7.67 10.73 7.68"/><path class="cls-26" d="M767.54,544.71l0,0,0,0h-.05" transform="translate(-755.46 -537.09)"/><path class="cls-25" d="M767.24,544.3h0v0h0" transform="translate(-755.46 -537.09)"/><path class="cls-32" d="M766.79,543.93v0" transform="translate(-755.46 -537.09)"/><path class="cls-26" d="M767.51,543.86l0-.05,0,.05" transform="translate(-755.46 -537.09)"/><path class="cls-25" d="M767.2,544.24h0" transform="translate(-755.46 -537.09)"/><polyline class="cls-26" points="12.6 6.56 12.6 6.56 12.59 6.57 12.59 6.56 12.6 6.56"/><path class="cls-27" d="M764.58,543.63l0,0,0,0" transform="translate(-755.46 -537.09)"/><path class="cls-24" d="M769.44,543.61l-.05,0,.05,0" transform="translate(-755.46 -537.09)"/><path class="cls-21" d="M765.45,543.66v0" transform="translate(-755.46 -537.09)"/><path class="cls-10" d="M767.15,543.56v0h.05l-.06,0" transform="translate(-755.46 -537.09)"/><path class="cls-10" d="M767.29,543.53h0" transform="translate(-755.46 -537.09)"/><path class="cls-22" d="M769,544.46l0,0,0,0" transform="translate(-755.46 -537.09)"/><path class="cls-6" d="M766.22,544.09l0,0,0,0" transform="translate(-755.46 -537.09)"/><path class="cls-24" d="M769.27,543.41l0,0,0,0" transform="translate(-755.46 -537.09)"/><path class="cls-24" d="M768.72,543.19l-.06,0,.06,0" transform="translate(-755.46 -537.09)"/><polyline class="cls-10" points="12.46 6.15 12.45 6.15 12.46 6.14 12.46 6.14 12.46 6.15"/><path class="cls-27" d="M768,547.35l0-.05h0v0Z" transform="translate(-755.46 -537.09)"/><path class="cls-15" d="M765.22,543.23l-.05,0,.05,0" transform="translate(-755.46 -537.09)"/><path class="cls-6" d="M766.27,543.11h0v0l0,0" transform="translate(-755.46 -537.09)"/><path class="cls-5" d="M766.22,543v0" transform="translate(-755.46 -537.09)"/><path class="cls-30" d="M766.7,547.56l-.05,0,0,0,0,0Z" transform="translate(-755.46 -537.09)"/><path class="cls-10" d="M767.33,541.39v0l0,0h0Z" transform="translate(-755.46 -537.09)"/><path class="cls-23" d="M766.1,542.07l0,0,0-.07v0" transform="translate(-755.46 -537.09)"/><path class="cls-29" d="M765.84,542.68h0l0,0h0l0,0" transform="translate(-755.46 -537.09)"/><path class="cls-27" d="M767.1,548.05v0" transform="translate(-755.46 -537.09)"/><path class="cls-26" d="M767.48,543.46l0,0,0,0" transform="translate(-755.46 -537.09)"/><polygon class="cls-16" points="12.72 7.1 12.73 7.11 12.72 7.1 12.72 7.1"/><path class="cls-32" d="M767.17,544.57h0" transform="translate(-755.46 -537.09)"/><path class="cls-25" d="M767.23,544l0,0h0l0,0" transform="translate(-755.46 -537.09)"/><path class="cls-31" d="M765.82,547.24s0,0,0,0h0s0,0,0,0h0" transform="translate(-755.46 -537.09)"/><path class="cls-26" d="M766,544.49h0" transform="translate(-755.46 -537.09)"/><path class="cls-9" d="M769.62,546.28l0,0,0,0" transform="translate(-755.46 -537.09)"/><path class="cls-26" d="M766.32,544.67h0" transform="translate(-755.46 -537.09)"/><path class="cls-10" d="M768.06,543.28v0h0" transform="translate(-755.46 -537.09)"/><path class="cls-25" d="M767.46,544.31l0,0,0,0" transform="translate(-755.46 -537.09)"/><path class="cls-9" d="M769.15,545.85l0,0,0,0" transform="translate(-755.46 -537.09)"/><path class="cls-6" d="M766.18,544.05h0" transform="translate(-755.46 -537.09)"/><polyline class="cls-26" points="10.23 7.53 10.23 7.52 10.23 7.53 10.23 7.53"/><path class="cls-20" d="M769.32,544.21l0,0,0,0" transform="translate(-755.46 -537.09)"/><path class="cls-26" d="M767.58,543.2v0h0" transform="translate(-755.46 -537.09)"/><path class="cls-21" d="M764.84,544.44l0,0,0,0" transform="translate(-755.46 -537.09)"/><path class="cls-27" d="M767.94,547.37l0,0,0,0h0" transform="translate(-755.46 -537.09)"/><path class="cls-31" d="M766.05,547.39l0,0,0,0" transform="translate(-755.46 -537.09)"/><path class="cls-9" d="M769.35,546h0" transform="translate(-755.46 -537.09)"/><path class="cls-22" d="M767.16,541.45h0" transform="translate(-755.46 -537.09)"/><path class="cls-10" d="M766.68,541.44l0,0s0,0,0,0" transform="translate(-755.46 -537.09)"/><path class="cls-26" d="M767.73,542.93v0h0v0h0" transform="translate(-755.46 -537.09)"/><path class="cls-25" d="M767.55,544.14h0" transform="translate(-755.46 -537.09)"/><path class="cls-27" d="M766.32,547.46l0,0,0,0" transform="translate(-755.46 -537.09)"/><path class="cls-23" d="M764.71,544.24l0,0,0,0" transform="translate(-755.46 -537.09)"/><path class="cls-30" d="M766.73,547.56h0" transform="translate(-755.46 -537.09)"/><path class="cls-27" d="M767.11,547.59h0" transform="translate(-755.46 -537.09)"/><path class="cls-27" d="M767.21,547.58l0,0,0,0" transform="translate(-755.46 -537.09)"/><path class="cls-9" d="M764.54,544.19l0,0,0,0" transform="translate(-755.46 -537.09)"/><path class="cls-12" d="M769.57,543.73l0,0,0,0" transform="translate(-755.46 -537.09)"/><path class="cls-30" d="M767.08,547.81l0,0a.07.07,0,0,0,0,.05l0,0" transform="translate(-755.46 -537.09)"/><path class="cls-26" d="M768,543.51v0h0" transform="translate(-755.46 -537.09)"/><path class="cls-25" d="M768.21,542.7h0v0" transform="translate(-755.46 -537.09)"/><path class="cls-10" d="M765.69,542.73l0,0,0,0" transform="translate(-755.46 -537.09)"/><path class="cls-25" d="M767.4,544.36v0" transform="translate(-755.46 -537.09)"/><path class="cls-24" d="M769.37,543.65l0,0v0h0" transform="translate(-755.46 -537.09)"/><path class="cls-32" d="M767.23,544.52h0" transform="translate(-755.46 -537.09)"/><path class="cls-15" d="M768.14,542.63v0h0l0,0" transform="translate(-755.46 -537.09)"/><path class="cls-25" d="M767.26,544h0v0" transform="translate(-755.46 -537.09)"/><path class="cls-6" d="M765.39,546.68a1.13,1.13,0,0,1,.2.13s0,.09-.05.14l0,0,0,0a.27.27,0,0,0,.07.08l0,.12h0a.24.24,0,0,1-.4-.17v-.08s0-.08,0-.1a.12.12,0,0,0-.1,0,.46.46,0,0,0,0,.1h0l0,0h0l0,.06a.28.28,0,0,1-.28.23.26.26,0,0,1-.23-.23.24.24,0,0,1,.19-.28l.09,0h.09a.1.1,0,0,0,0-.1s0-.06-.07-.05a.61.61,0,0,0-.18.05.29.29,0,0,1-.15-.36.24.24,0,0,1,.39-.1l.12.15,0,.06s0,.1,0,.11a.17.17,0,0,0,.12,0s0-.07,0-.1,0-.24.1-.27a.27.27,0,0,1,.35.13.49.49,0,0,1,0,.21l0,0h0l0,0h0l0,0h0l0,0h0l-.12,0h-.14c-.06.06,0,.12,0,.15s.08,0,.12,0h0" transform="translate(-755.46 -537.09)"/><path class="cls-6" d="M766.12,547.31l-.1,0,0,0-.09,0-.06,0h0l-.07,0v0a1.09,1.09,0,0,0,.08-.15l.18-.06,0,0h0l.07-.05,0-.06h0l.11-.13a.35.35,0,0,0,.16-.3l0-.09h.08l0,0,.06-.09v0l.06-.1h.07V546h0v.2l0,.09,0,.18v.08a.43.43,0,0,1,0,.05v.22h0v0a.13.13,0,0,0,0,.06v.13a.13.13,0,0,0,0,.06v.22l0,0-.08,0h0l-.11,0-.07,0h0l0,0h-.08l-.13,0,0,0h-.07" transform="translate(-755.46 -537.09)"/><path class="cls-26" d="M765.82,546.28c.15,0,.2-.08.23-.2s.25-.17.36-.26l.34-.27-.06.25s0,0-.06,0l0,0-.12.3-.06.1-.21.26-.1.07a.27.27,0,0,1-.08.07h0l0,0h0l0,0h0l-.05,0,0-.23,0-.25" transform="translate(-755.46 -537.09)"/><path class="cls-31" d="M765.74,547.08v0s0,.07,0,.11l-.23,0,0-.16h0l.12,0,.1,0" transform="translate(-755.46 -537.09)"/><path class="cls-17" d="M765.87,546.53l0,.23.05,0h0a.25.25,0,0,0,0,.07.08.08,0,0,0,0,0h0v0l-.18.06c0-.13,0-.27,0-.4" transform="translate(-755.46 -537.09)"/><path class="cls-14" d="M764.66,546.61l.18-.05s.07,0,.07.05a.1.1,0,0,1,0,.1h-.09l-.09,0,0-.07" transform="translate(-755.46 -537.09)"/><path class="cls-19" d="M765.39,546.68h0s0-.08,0-.12l.12,0a.36.36,0,0,0-.07.1" transform="translate(-755.46 -537.09)"/><path class="cls-30" d="M765.55,547l-.07-.08,0,0,0,0c.09,0,0,0,0,.06" transform="translate(-755.46 -537.09)"/><path class="cls-15" d="M765.11,546.88V547c-.06,0-.06-.05,0-.08" transform="translate(-755.46 -537.09)"/><path class="cls-15" d="M765,547l0-.06,0,.06" transform="translate(-755.46 -537.09)"/><path class="cls-19" d="M765.54,546.53l0,0,0,0" transform="translate(-755.46 -537.09)"/><path class="cls-19" d="M765.49,546.56l0,0,0,0" transform="translate(-755.46 -537.09)"/><path class="cls-15" d="M765,546.89l0,0h0v0" transform="translate(-755.46 -537.09)"/><path class="cls-19" d="M765.57,546.48l0,0,0,0" transform="translate(-755.46 -537.09)"/><path class="cls-19" d="M765.45,546.58l0,0,0,0" transform="translate(-755.46 -537.09)"/><path class="cls-30" d="M767.28,545.67s0,.05,0,.07l.09.18c-.09.07-.14.05-.17,0a1.77,1.77,0,0,0,0-.2h.11" transform="translate(-755.46 -537.09)"/><path class="cls-30" d="M768,546.73a.36.36,0,0,0,0,.1l0,0c-.07,0-.14,0-.14-.1s-.06-.12,0-.14l0,0,.13.06" transform="translate(-755.46 -537.09)"/><path class="cls-28" d="M767.17,545.67c-.09,0-.06.06-.07.1s-.09.07-.1,0h0l.07,0,.06-.12v0h0l0,0h0l.05,0h0a.93.93,0,0,1-.05.1Z" transform="translate(-755.46 -537.09)"/><path class="cls-28" d="M767.11,546.41v0l-.14,0a.19.19,0,0,0,0-.07h.12" transform="translate(-755.46 -537.09)"/><path class="cls-28" d="M767.46,547.51l-.13,0v-.07h0l.07.07v0" transform="translate(-755.46 -537.09)"/><path class="cls-28" d="M767.1,546.66v.08l-.09,0v-.1h0l0,0h.07" transform="translate(-755.46 -537.09)"/><path class="cls-13" d="M767.1,546.29v0l-.13.06h0v-.06s0,0,0,0h.11" transform="translate(-755.46 -537.09)"/><path class="cls-28" d="M767.05,547.3h0v-.07l0,0h.06v.08l-.05,0" transform="translate(-755.46 -537.09)"/><path class="cls-28" d="M767.67,546.39v.09l-.08,0h0s0,0,0-.06h0l0-.08,0,0h0l0,0" transform="translate(-755.46 -537.09)"/><path class="cls-28" d="M767.39,546h0v.14h-.06s0-.09,0-.13" transform="translate(-755.46 -537.09)"/><path class="cls-28" d="M767.1,546.54v.05l-.07.07h0v-.11h0l.1,0" transform="translate(-755.46 -537.09)"/><path class="cls-28" d="M767.11,547h0c-.05,0-.11.1-.1,0l.1,0h0V547" transform="translate(-755.46 -537.09)"/><path class="cls-13" d="M767.83,547.39v0h-.12l0-.06h.13l0,0" transform="translate(-755.46 -537.09)"/><path class="cls-13" d="M767.81,546.56c0,.05,0,.12-.07.12v-.1l.07,0" transform="translate(-755.46 -537.09)"/><path class="cls-28" d="M767.11,545.89h0l-.06,0h0a.22.22,0,0,0,0-.08h0l.11,0h0v.07" transform="translate(-755.46 -537.09)"/><path class="cls-28" d="M767.1,545.93V546s-.09.06-.11,0h0l.07-.05h0" transform="translate(-755.46 -537.09)"/><path class="cls-9" d="M768,546.87l0,0c.1,0,.05.06,0,.11l-.08-.07" transform="translate(-755.46 -537.09)"/><path class="cls-28" d="M767.1,546.17v0s-.09.07-.11,0h0l0,0h0" transform="translate(-755.46 -537.09)"/><path class="cls-27" d="M767,546c0,.08.07.06.11,0l0,0h0l-.09,0,0-.11" transform="translate(-755.46 -537.09)"/><path class="cls-17" d="M767,547c0,.14.06,0,.1,0v.06h0l-.12.06v-.06s0-.07,0-.11Z" transform="translate(-755.46 -537.09)"/><path class="cls-31" d="M767.11,545.82l-.11,0v-.11c0,.1.06,0,.1,0v.05" transform="translate(-755.46 -537.09)"/><path class="cls-27" d="M767.11,546.93l-.1,0h0l0-.06.12,0h0v.07" transform="translate(-755.46 -537.09)"/><path class="cls-27" d="M767.43,546.17V546l.08.12h0l-.08,0Z" transform="translate(-755.46 -537.09)"/><path class="cls-23" d="M767,546.78l.09,0,0,.06h0l-.1,0,0-.05h0" transform="translate(-755.46 -537.09)"/><path class="cls-17" d="M767,546.19c0,.09.07.07.11,0v.08H767v-.11" transform="translate(-755.46 -537.09)"/><path class="cls-17" d="M767.1,546.54l-.1,0,0-.08.14,0v.09" transform="translate(-755.46 -537.09)"/><path class="cls-27" d="M767,546.38l.13-.06a.28.28,0,0,1,0,.09H767l0,0" transform="translate(-755.46 -537.09)"/><path class="cls-27" d="M767.81,546.56l-.07,0,0,0v-.1h0l.08.1" transform="translate(-755.46 -537.09)"/><path class="cls-9" d="M768.05,546.28l.09,0a.36.36,0,0,0-.07.1l0-.05" transform="translate(-755.46 -537.09)"/><path class="cls-17" d="M767.51,546.15a.61.61,0,0,1,.07.1h0l-.06,0,0,0s0-.07,0-.1Z" transform="translate(-755.46 -537.09)"/><path class="cls-27" d="M767.34,547.41a.17.17,0,0,1,0,.07h0l-.1,0h0l.14,0" transform="translate(-755.46 -537.09)"/><path class="cls-27" d="M767.58,546.38l0,.08-.06-.08h0l.06,0v0" transform="translate(-755.46 -537.09)"/><path class="cls-17" d="M767.81,547.34h-.13l.13-.06v.05" transform="translate(-755.46 -537.09)"/><path class="cls-17" d="M767.58,546.51l.08,0h0v.1h0a.27.27,0,0,0-.07-.08" transform="translate(-755.46 -537.09)"/><path class="cls-27" d="M768,547.3h0" transform="translate(-755.46 -537.09)"/><path class="cls-23" d="M767.39,546s0,.08,0,.13l0-.09,0,0,0,0" transform="translate(-755.46 -537.09)"/><path class="cls-27" d="M767.74,546.58v.1l-.09-.09h0l.06,0,0,0" transform="translate(-755.46 -537.09)"/><path class="cls-27" d="M767.63,546.36l0,0h0v-.11h0l0,.11" transform="translate(-755.46 -537.09)"/><path class="cls-17" d="M767.5,546.38a.61.61,0,0,0-.07-.1h.06l0,0v.1Z" transform="translate(-755.46 -537.09)"/><path class="cls-27" d="M767.38,546.17h0v.09h0l0-.11" transform="translate(-755.46 -537.09)"/><path class="cls-27" d="M767,546.66l.07-.07v.07H767" transform="translate(-755.46 -537.09)"/><path class="cls-27" d="M767.1,547.19H767v0l.07-.07h0s0,.06,0,.08" transform="translate(-755.46 -537.09)"/><path class="cls-17" d="M767.45,547.47l-.07-.06h.08a.09.09,0,0,0,0,.05h0" transform="translate(-755.46 -537.09)"/><path class="cls-30" d="M767.05,547.3l.05,0,0,.07v0" transform="translate(-755.46 -537.09)"/><path class="cls-26" d="M767.67,546.39l0,0,0,0" transform="translate(-755.46 -537.09)"/><path class="cls-9" d="M768.07,546.36v0" transform="translate(-755.46 -537.09)"/><path class="cls-17" d="M767.66,546.48v-.07l.07.05h0l-.06,0Z" transform="translate(-755.46 -537.09)"/><path class="cls-17" d="M767.56,547.37v0l0,0h-.1l.11,0" transform="translate(-755.46 -537.09)"/><path class="cls-27" d="M767.68,547.35l0,.06-.06,0h0" transform="translate(-755.46 -537.09)"/><path class="cls-27" d="M767.65,547.36l-.09,0,.09,0" transform="translate(-755.46 -537.09)"/><path class="cls-27" d="M767.12,546s0,.06,0,.09h0a.15.15,0,0,0,0-.07h0" transform="translate(-755.46 -537.09)"/><path class="cls-26" d="M767.91,546.67l0,0,0,0" transform="translate(-755.46 -537.09)"/><path class="cls-9" d="M768.06,546.44l0,.07,0-.07" transform="translate(-755.46 -537.09)"/><path class="cls-30" d="M767.1,546.17h0v0l0,0h0v0" transform="translate(-755.46 -537.09)"/><path class="cls-26" d="M767.91,546.2l0,0,0,0" transform="translate(-755.46 -537.09)"/><path class="cls-27" d="M767.56,546.45a.14.14,0,0,0,0,.06.14.14,0,0,1,0-.06" transform="translate(-755.46 -537.09)"/><path class="cls-27" d="M767.11,545.89v0" transform="translate(-755.46 -537.09)"/><path class="cls-23" d="M767.12,546.8a.13.13,0,0,0,0,.06h0v-.05h0" transform="translate(-755.46 -537.09)"/><path class="cls-27" d="M767.11,547v0" transform="translate(-755.46 -537.09)"/><path class="cls-9" d="M768.11,547l0,.06,0-.06" transform="translate(-755.46 -537.09)"/><path class="cls-27" d="M767.11,547.06v.05h0v-.05Z" transform="translate(-755.46 -537.09)"/><path class="cls-27" d="M767.1,545.93h-.05l.06,0v0" transform="translate(-755.46 -537.09)"/><path class="cls-27" d="M767.16,547.44h0" transform="translate(-755.46 -537.09)"/><path class="cls-23" d="M767.31,546.07v0l0,0,0,0" transform="translate(-755.46 -537.09)"/><path class="cls-32" d="M768.51,547.19l0-.1a.36.36,0,0,1,0-.09l-.06-.07-.07,0v0l0-.08,0,0,0,0,.15-.05c.05.07.13.09.18,0s0-.12-.08-.18l-.12.1-.18-.13,0-.05a.77.77,0,0,0,0-.15l0-.08v0l0,0h0l.08,0h0l.13,0,.14.08,0,.05,0,.13v0c0,.08,0,.13.12.11l0,0,0,0,0-.08v-.07l.13-.18h.17l.1,0c.12.07.1.18.1.29l0,0h0l-.07.07h0l-.05,0h-.1l0,0H769l0,.14h.13l0,0h.11l0,0h0l.06,0h0l0,0h0l0,0h0v.2h0l0,0h0l0,.05h0l-.06,0h0l0,0h-.21l0,0h0l0,0h0l0-.05h0l0,0h0v0l0-.07c.09-.09.09-.12,0-.19l-.11.08a.59.59,0,0,0,0,.08l0,.08v0l-.06,0c0,.14-.14.15-.25.16" transform="translate(-755.46 -537.09)"/><path class="cls-9" d="M769,546c-.09.15-.16.16-.21.06a.09.09,0,0,1,0-.07h.07l.14,0" transform="translate(-755.46 -537.09)"/><path class="cls-21" d="M768.52,546.61l.12-.1c0,.06.15.09.08.18s-.13,0-.18,0a.08.08,0,0,1,0,0" transform="translate(-755.46 -537.09)"/><path class="cls-9" d="M769.47,546.51l.08.13-.2,0,.12-.15" transform="translate(-755.46 -537.09)"/><path class="cls-26" d="M768.87,547.19c0,.1,0,.1-.1.08a.56.56,0,0,1,.05-.08h0" transform="translate(-755.46 -537.09)"/><path class="cls-29" d="M768.24,546.53l.07.1-.09.07c0-.06,0-.11,0-.17Z" transform="translate(-755.46 -537.09)"/><path class="cls-9" d="M769.05,546.1l-.13.18c0-.11,0-.15.13-.18" transform="translate(-755.46 -537.09)"/><path class="cls-13" d="M768.42,547l0,.08h-.09l0-.07h.08" transform="translate(-755.46 -537.09)"/><path class="cls-9" d="M768.42,547h-.08l-.05,0s.07.06.07,0l.06.07" transform="translate(-755.46 -537.09)"/><path class="cls-23" d="M769.26,546.68h-.11a.36.36,0,0,1,0-.1h.1l-.06.06,0,0" transform="translate(-755.46 -537.09)"/><path class="cls-23" d="M769,547.16h0" transform="translate(-755.46 -537.09)"/><path class="cls-9" d="M768.22,546.7l.09-.07-.11.1h0l0,0" transform="translate(-755.46 -537.09)"/><path class="cls-9" d="M769.32,546.15l-.1,0,.1,0" transform="translate(-755.46 -537.09)"/><path class="cls-9" d="M768.62,546.1l-.13,0,.13,0" transform="translate(-755.46 -537.09)"/><path class="cls-23" d="M769.39,547v0" transform="translate(-755.46 -537.09)"/><path class="cls-9" d="M769.32,546.55l.08-.07-.08.07" transform="translate(-755.46 -537.09)"/><path class="cls-28" d="M768.36,546.94c0,.08,0,0-.07,0v-.05l.07,0" transform="translate(-755.46 -537.09)"/><path class="cls-9" d="M768.87,547.19h0v-.07h0l0,.07" transform="translate(-755.46 -537.09)"/><path class="cls-9" d="M768.47,546.08l-.08,0,.08,0" transform="translate(-755.46 -537.09)"/><path class="cls-9" d="M768.33,546.2l0,.08,0-.08" transform="translate(-755.46 -537.09)"/><path class="cls-9" d="M768.32,546.78l0,.08,0-.08" transform="translate(-755.46 -537.09)"/><path class="cls-9" d="M768.9,546.91l0,.07,0-.07" transform="translate(-755.46 -537.09)"/><path class="cls-9" d="M768.92,546.35l0,.08,0-.08" transform="translate(-755.46 -537.09)"/><path class="cls-9" d="M768.39,546.13l0,0,0,0" transform="translate(-755.46 -537.09)"/><path class="cls-9" d="M769,547.28l0,0v0h0" transform="translate(-755.46 -537.09)"/><path class="cls-9" d="M768.69,547.28l0,0h0v0h0" transform="translate(-755.46 -537.09)"/><path class="cls-9" d="M768.82,547l0-.08,0,.08" transform="translate(-755.46 -537.09)"/><path class="cls-9" d="M768.76,547l0,0,0,0" transform="translate(-755.46 -537.09)"/><path class="cls-9" d="M768.31,546.43l0,.05,0-.05" transform="translate(-755.46 -537.09)"/><path class="cls-9" d="M768.24,546.53h0v0h0s0,0,0,0" transform="translate(-755.46 -537.09)"/><path class="cls-9" d="M768.79,546.23l0-.05,0,.05" transform="translate(-755.46 -537.09)"/><path class="cls-9" d="M768.77,546.4v0" transform="translate(-755.46 -537.09)"/><path class="cls-23" d="M769.27,546.58l.05,0-.05,0" transform="translate(-755.46 -537.09)"/><path class="cls-9" d="M768.92,546.46l0,0,0,0" transform="translate(-755.46 -537.09)"/><path class="cls-23" d="M769.35,546.73l-.06,0,.06,0" transform="translate(-755.46 -537.09)"/><path class="cls-23" d="M769.37,546.78l0,0,0,0" transform="translate(-755.46 -537.09)"/><path class="cls-23" d="M768.94,547.06l0,.05,0-.05" transform="translate(-755.46 -537.09)"/><path class="cls-23" d="M769.34,547.11l0-.05,0,.05" transform="translate(-755.46 -537.09)"/><path class="cls-23" d="M769,547.11l0,0,0,0" transform="translate(-755.46 -537.09)"/><path class="cls-23" d="M769.29,547.13l.06,0-.06,0" transform="translate(-755.46 -537.09)"/><path class="cls-9" d="M769.5,547.16l0,0,0,0" transform="translate(-755.46 -537.09)"/><path class="cls-9" d="M768.21,546.13l0,0,0,0" transform="translate(-755.46 -537.09)"/><path class="cls-9" d="M769.4,546.48l0,0,0,0" transform="translate(-755.46 -537.09)"/><path class="cls-23" d="M769,547.13l0,0,0,0" transform="translate(-755.46 -537.09)"/><path class="cls-23" d="M769.26,547.16l0,0,0,0" transform="translate(-755.46 -537.09)"/><path class="cls-9" d="M769.45,547.19h0v0h0" transform="translate(-755.46 -537.09)"/><path class="cls-9" d="M768.24,546.08l0,0,0,0" transform="translate(-755.46 -537.09)"/><path class="cls-23" d="M769.4,546.82l0,0,0,0" transform="translate(-755.46 -537.09)"/><path class="cls-23" d="M768.92,547v0h0v0" transform="translate(-755.46 -537.09)"/><path class="cls-23" d="M768.92,547l0,0,0,0" transform="translate(-755.46 -537.09)"/><path class="cls-23" d="M769.37,547.06l0,0,0,0" transform="translate(-755.46 -537.09)"/><path class="cls-23" d="M769.3,546.71l0,0,0,0" transform="translate(-755.46 -537.09)"/><path class="cls-9" d="M768.39,546.71l0,0,0,0" transform="translate(-755.46 -537.09)"/><path class="cls-29" d="M764.84,544.16l0,0c0-.06,0-.11,0-.17l0,0c0,.06.06,0,.1,0l0,0s0,.09,0,.14l-.1,0,0,.07" transform="translate(-755.46 -537.09)"/><path class="cls-23" d="M764.82,544c0,.06,0,.11,0,.17h0a.5.5,0,0,0,0-.12.19.19,0,0,1,0-.08s0-.09,0-.1a.59.59,0,0,1,.13,0s0,0,0,0,0,.08,0,.12" transform="translate(-755.46 -537.09)"/><path class="cls-21" d="M764.86,543.84s0,0,0,0h0l.08.13v0l0,0a.35.35,0,0,1-.05-.08l0-.08Z" transform="translate(-755.46 -537.09)"/><path class="cls-23" d="M765,543.94l-.08-.13s.07-.1.11,0l0,.13Z" transform="translate(-755.46 -537.09)"/><path class="cls-9" d="M765.14,544.38l.07-.06,0,0-.06.07,0,0" transform="translate(-755.46 -537.09)"/><path class="cls-9" d="M765,543.94v-.13h0l0,0h0l0,0h0v0h0l0,0h0l0,0Z" transform="translate(-755.46 -537.09)"/><path class="cls-9" d="M764.42,543.89l-.06,0,0,0,.07,0,0,0" transform="translate(-755.46 -537.09)"/><path class="cls-22" d="M765.09,543.51h.07l0,.07,0-.06" transform="translate(-755.46 -537.09)"/><path class="cls-16" d="M764.86,544.27v0l0,0v0h-.06" transform="translate(-755.46 -537.09)"/><path class="cls-9" d="M764.58,544l0,0h0l0,0h0" transform="translate(-755.46 -537.09)"/><path class="cls-21" d="M765.29,543.53l0,0v.07h0v0" transform="translate(-755.46 -537.09)"/><path class="cls-22" d="M765.24,543.71l0,0,0,0" transform="translate(-755.46 -537.09)"/><path class="cls-15" d="M765.09,543.25l0,0h0v-.06" transform="translate(-755.46 -537.09)"/><path class="cls-22" d="M765.19,543.66l0,.05,0-.05" transform="translate(-755.46 -537.09)"/><path class="cls-21" d="M765.34,543.66s0,0,0,0,0,0,0,0" transform="translate(-755.46 -537.09)"/><path class="cls-22" d="M765.16,543.6l0,.06,0-.06" transform="translate(-755.46 -537.09)"/><path class="cls-23" d="M765.06,543.89v0l0,0h0" transform="translate(-755.46 -537.09)"/><path class="cls-23" d="M765,543.91l0,0,0,0" transform="translate(-755.46 -537.09)"/><path class="cls-23" d="M765,543.94l0,0,0,0" transform="translate(-755.46 -537.09)"/><path class="cls-23" d="M764.74,544l0,0,0,0" transform="translate(-755.46 -537.09)"/><path class="cls-22" d="M765.29,543.56h0a0,0,0,0,1,0,0l0,0" transform="translate(-755.46 -537.09)"/><path class="cls-23" d="M764.61,544l0,0h0l0,0h0" transform="translate(-755.46 -537.09)"/><path class="cls-23" d="M765,543.84l0,0,0,0" transform="translate(-755.46 -537.09)"/><path class="cls-23" d="M765.07,543.86l0,0,0,0" transform="translate(-755.46 -537.09)"/><path class="cls-22" d="M769.15,543.93h0l0,0v-.14l.12.1-.07.08" transform="translate(-755.46 -537.09)"/><path class="cls-31" d="M769,544h-.06l0-.06,0-.07,0-.1v0l0,.17" transform="translate(-755.46 -537.09)"/><path class="cls-22" d="M768.79,544.39l.1,0v0h-.11v0" transform="translate(-755.46 -537.09)"/><path class="cls-19" d="M769.07,544c0,.07-.07,0-.11,0s0-.08,0-.13l0,0,0,.15" transform="translate(-755.46 -537.09)"/><path class="cls-22" d="M769.06,544.21l0,.06H769v0l.06,0" transform="translate(-755.46 -537.09)"/><path class="cls-12" d="M768.89,544l0,.07h-.08l.11-.06" transform="translate(-755.46 -537.09)"/><path class="cls-12" d="M768.79,544.39v0l-.09,0s0,0,0,0l.08,0" transform="translate(-755.46 -537.09)"/><path class="cls-12" d="M768.76,543.58s0,0,0,0l.05,0-.05.08h0v0" transform="translate(-755.46 -537.09)"/><path class="cls-21" d="M768.82,543.53l-.05,0,0,0h.07v0" transform="translate(-755.46 -537.09)"/><path class="cls-12" d="M768.91,543.86l0,.07,0-.07" transform="translate(-755.46 -537.09)"/><path class="cls-12" d="M769.32,544l0,0v0l0,0h0" transform="translate(-755.46 -537.09)"/><path class="cls-19" d="M768.94,543.81v0l.06,0h-.06" transform="translate(-755.46 -537.09)"/><path class="cls-21" d="M768.64,543.73l.05,0-.05,0" transform="translate(-755.46 -537.09)"/><path class="cls-16" d="M768.57,543.78v0h0l0,0,0,0" transform="translate(-755.46 -537.09)"/><path class="cls-12" d="M768.77,543.61l0,0v0h0Z" transform="translate(-755.46 -537.09)"/><path class="cls-21" d="M768.74,543.61v0h0l0,0" transform="translate(-755.46 -537.09)"/><path class="cls-21" d="M768.7,543.68v0" transform="translate(-755.46 -537.09)"/><path class="cls-20" d="M769.33,544l0,0,0,0,0,0h0" transform="translate(-755.46 -537.09)"/><path class="cls-19" d="M769,543.81l0,0v0l0,0h0" transform="translate(-755.46 -537.09)"/><path class="cls-20" d="M767.05,542.74v.09l-.22,0c-.12-.1-.12-.15,0-.2l.07.05.1,0h0" transform="translate(-755.46 -537.09)"/><path class="cls-24" d="M767.06,542.18h-.21V542H767l0,.18" transform="translate(-755.46 -537.09)"/><path class="cls-14" d="M767.06,542.18l0-.18,0,0h0a.27.27,0,0,0,.08.07l0,.06a.42.42,0,0,1,0,.1l-.08,0" transform="translate(-755.46 -537.09)"/><path class="cls-22" d="M767.26,542.55H767a.14.14,0,0,1,.23,0" transform="translate(-755.46 -537.09)"/><path class="cls-24" d="M766.73,542.23l0-.06h.1l-.12.05" transform="translate(-755.46 -537.09)"/><path class="cls-22" d="M766.88,542.55l-.1,0,.1,0" transform="translate(-755.46 -537.09)"/><path class="cls-22" d="M767.05,542.74h0l0-.07v.06" transform="translate(-755.46 -537.09)"/><path class="cls-22" d="M766.9,542.73l-.07-.05,0,0,0,.08" transform="translate(-755.46 -537.09)"/><path class="cls-14" d="M767.5,542.34v0h0v0h0" transform="translate(-755.46 -537.09)"/><path class="cls-14" d="M766.77,542.3h0" transform="translate(-755.46 -537.09)"/><path class="cls-14" d="M767.41,542.17l.05,0-.05,0" transform="translate(-755.46 -537.09)"/><path class="cls-14" d="M766.45,542.2l0-.05s0,0,0,.05h-.06" transform="translate(-755.46 -537.09)"/><path class="cls-14" d="M767.17,542.29v0h0v0h0" transform="translate(-755.46 -537.09)"/><path class="cls-22" d="M767.31,542.45l0,0v0h0Z" transform="translate(-755.46 -537.09)"/><path class="cls-22" d="M766.65,542.47h0v0" transform="translate(-755.46 -537.09)"/><path class="cls-22" d="M766.41,542.51h0v0" transform="translate(-755.46 -537.09)"/><path class="cls-22" d="M766.73,542.52h0" transform="translate(-755.46 -537.09)"/><path class="cls-22" d="M767.59,542.54h0v0" transform="translate(-755.46 -537.09)"/><path class="cls-22" d="M766.35,542.6l-.05,0,.05,0" transform="translate(-755.46 -537.09)"/><path class="cls-22" d="M767,542.6l0,0,0,0" transform="translate(-755.46 -537.09)"/><path class="cls-22" d="M767.74,542.72l-.06,0,.06,0" transform="translate(-755.46 -537.09)"/><path class="cls-22" d="M766.25,542.65l0,.05,0-.05" transform="translate(-755.46 -537.09)"/><path class="cls-14" d="M767,542.28h0" transform="translate(-755.46 -537.09)"/><polyline class="cls-14" points="11.84 5.23 11.84 5.22 11.85 5.22 11.84 5.23 11.84 5.23"/><path class="cls-14" d="M766.44,542.34h0v0" transform="translate(-755.46 -537.09)"/><polyline class="cls-22" points="12.05 5.42 12.05 5.43 12.04 5.43 12.04 5.42 12.05 5.42"/><path class="cls-22" d="M766.43,542.58l-.06,0,.06,0" transform="translate(-755.46 -537.09)"/><polyline class="cls-22" points="11.84 5.36 11.85 5.36 11.85 5.36 11.84 5.37 11.84 5.36"/><polyline class="cls-14" points="11.69 5.13 11.69 5.13 11.69 5.14 11.68 5.14 11.69 5.13"/><path class="cls-31" d="M767.16,545.52h0l-.08-.06c-.08.07-.08.07-.17,0l-.07,0h0l0,0c.09,0,0-.06.06-.09v0h0v0l0,.06h0s0-.07,0-.11l-.1-.12-.05-.09.05,0h.07l.08,0,0,.13h0s0-.09,0-.13a1.79,1.79,0,0,0,0-.23.14.14,0,0,0,0-.06l.16,0v.09l-.12,0c.07.08.07.08.12,0a.3.3,0,0,0,0,.13s0,0,.07,0h.06v0l0,0-.08,0c-.07.07-.06.12,0,.15l.11,0v.05s0,0,0,0-.08.07,0,.13" transform="translate(-755.46 -537.09)"/><path class="cls-17" d="M766.82,545.46s0,0,.07,0,.09,0,.17,0l.08.06v0l-.14,0-.08.08v0l0-.06-.06,0,.06.1c0,.06.11.11,0,.19l-.1,0h-.07a.53.53,0,0,0-.06.1l0,0a.41.41,0,0,1,0,.09l0,0h-.05l0,0h0l.12-.3,0,0,.06,0,.06-.26,0,0,0,0h0l0,0Z" transform="translate(-755.46 -537.09)"/><path class="cls-31" d="M766.8,545.42l-.09,0s0,0,0,0h0l.08,0,.07.07h0v0l-.06,0" transform="translate(-755.46 -537.09)"/><path class="cls-14" d="M766.48,545.28l-.05.05h0l0-.06,0,0" transform="translate(-755.46 -537.09)"/><path class="cls-14" d="M766.47,545.41h0a.06.06,0,0,1,0,.05l-.07,0v0" transform="translate(-755.46 -537.09)"/><path class="cls-23" d="M766.8,545.42l.06,0v0l0,0,0,0" transform="translate(-755.46 -537.09)"/><path class="cls-14" d="M766.6,545.31h0" transform="translate(-755.46 -537.09)"/><path class="cls-31" d="M766.82,545.46l0,0,0,0" transform="translate(-755.46 -537.09)"/><path class="cls-31" d="M766.8,545.49l0,0,0,0" transform="translate(-755.46 -537.09)"/><path class="cls-17" d="M767.23,545.3l-.11,0c-.08,0-.09-.08,0-.15h0l.07,0,.1,0,0,0,.1,0,0,.06s0,0,0,0l-.09.06h0" transform="translate(-755.46 -537.09)"/><path class="cls-23" d="M767.81,545.64l-.14.08-.08-.09.21,0v0" transform="translate(-755.46 -537.09)"/><path class="cls-16" d="M767.38,545.5c0-.12.07-.07.1-.1s0,.07-.05.1h0" transform="translate(-755.46 -537.09)"/><path class="cls-27" d="M767.18,545.67a.93.93,0,0,0,.05-.1l0,.11h-.1" transform="translate(-755.46 -537.09)"/><path class="cls-16" d="M767.37,545.24l0,0h.05v0h-.07" transform="translate(-755.46 -537.09)"/><path class="cls-16" d="M767.48,545.4l.06,0v0Z" transform="translate(-755.46 -537.09)"/><path class="cls-16" d="M767.23,545.3h0l0,.05v-.05" transform="translate(-755.46 -537.09)"/><path class="cls-23" d="M767.38,545.5h0v0l0,0" transform="translate(-755.46 -537.09)"/><path class="cls-23" d="M767.44,545.53l0,0h0l0,0v0" transform="translate(-755.46 -537.09)"/><path class="cls-27" d="M767.23,545.57l-.05,0,.05,0" transform="translate(-755.46 -537.09)"/><path class="cls-23" d="M767.55,545.61h0v0h0" transform="translate(-755.46 -537.09)"/><path class="cls-17" d="M767.18,545.55l0,0,0,0" transform="translate(-755.46 -537.09)"/><path class="cls-23" d="M767.49,545.57l0,0h0" transform="translate(-755.46 -537.09)"/><path class="cls-5" d="M767.05,542l0,0h-.18v-.08c.06-.08.12-.07.18,0l0,0h0v0" transform="translate(-755.46 -537.09)"/><path class="cls-15" d="M766.85,542.17h-.1l0,0c0-.08,0-.1.08-.13h.05v.17" transform="translate(-755.46 -537.09)"/><path class="cls-14" d="M767.21,541.79l.07,0-.07,0" transform="translate(-755.46 -537.09)"/><path class="cls-22" d="M766.3,542.2l0-.08,0,.08" transform="translate(-755.46 -537.09)"/><path class="cls-24" d="M766.85,542h-.05l.05-.07V542" transform="translate(-755.46 -537.09)"/><path class="cls-14" d="M767.71,542l0,0,0,.06,0,0" transform="translate(-755.46 -537.09)"/><path class="cls-14" d="M766.5,541.84l0,0,0,0" transform="translate(-755.46 -537.09)"/><path class="cls-14" d="M766.32,541.89l.06,0-.06,0" transform="translate(-755.46 -537.09)"/><path class="cls-14" d="M766.22,542l.06-.05-.06.05" transform="translate(-755.46 -537.09)"/><path class="cls-22" d="M767.18,542.1a.14.14,0,0,1,0-.06.14.14,0,0,0,0,.06" transform="translate(-755.46 -537.09)"/><path class="cls-24" d="M766.72,542.12l0,0,0,0" transform="translate(-755.46 -537.09)"/><path class="cls-22" d="M767.05,542v0l0,0h0" transform="translate(-755.46 -537.09)"/><path class="cls-22" d="M767.06,542l0,0,0,0" transform="translate(-755.46 -537.09)"/><path class="cls-14" d="M766.63,541.82l0,0,0,0" transform="translate(-755.46 -537.09)"/><path class="cls-14" d="M766.65,541.8h0" transform="translate(-755.46 -537.09)"/><path class="cls-19" d="M766.62,541.54h.62v0h-.62v0" transform="translate(-755.46 -537.09)"/><path class="cls-14" d="M767.23,541.71h-.08v0h.08v0" transform="translate(-755.46 -537.09)"/><path class="cls-22" d="M767.49,541.56s0,0,0,0l0,0h0a.08.08,0,0,1,0,0" transform="translate(-755.46 -537.09)"/><path class="cls-14" d="M767.48,541.75h.07v0l-.06,0h0" transform="translate(-755.46 -537.09)"/><path class="cls-22" d="M766.43,541.61l0,0h.05v0" transform="translate(-755.46 -537.09)"/><path class="cls-14" d="M767.37,541.73s0,0,0,0h0s0,0,0,0h0" transform="translate(-755.46 -537.09)"/><path class="cls-14" d="M766.7,541.71h0v0h0" transform="translate(-755.46 -537.09)"/><path class="cls-22" d="M766.52,541.57h0" transform="translate(-755.46 -537.09)"/><path class="cls-22" d="M767.39,541.56h0" transform="translate(-755.46 -537.09)"/><polyline class="cls-14" points="11.04 4.64 11.04 4.65 11.03 4.65 11.03 4.64 11.04 4.64"/><path class="cls-14" d="M766.41,541.75h0" transform="translate(-755.46 -537.09)"/><path class="cls-24" d="M767.33,541.39h0v0l0,0" transform="translate(-755.46 -537.09)"/><path class="cls-22" d="M766.88,544.84c0,.08,0,.15,0,.23h0v0h-.15a.64.64,0,0,0,0-.07l.13-.12" transform="translate(-755.46 -537.09)"/><path class="cls-13" d="M766.75,545l0,.07-.05,0h0V545l.08,0" transform="translate(-755.46 -537.09)"/><path class="cls-31" d="M766.58,543.19h.7v0h-.65l0,0" transform="translate(-755.46 -537.09)"/><path class="cls-12" d="M767.28,543.21v0l0,0,0,0-.05,0" transform="translate(-755.46 -537.09)"/><path class="cls-19" d="M766.61,542.91h0l0,0h0l.36,0h.28v0h-.69a.19.19,0,0,0,0-.08" transform="translate(-755.46 -537.09)"/><path class="cls-20" d="M766.69,543.12h.52v0h-.52v0" transform="translate(-755.46 -537.09)"/><path class="cls-5" d="M766.5,542.88l0-.09a.9.9,0,0,1,.05.09h-.08" transform="translate(-755.46 -537.09)"/><path class="cls-5" d="M767.42,543h0" transform="translate(-755.46 -537.09)"/><path class="cls-20" d="M766.79,542.9l0,0,0,0" transform="translate(-755.46 -537.09)"/><path class="cls-17" d="M767.21,545h-.06l.1-.1,0,.05-.07,0" transform="translate(-755.46 -537.09)"/><path class="cls-8" d="M766.65,542.93l0,0,0,0" transform="translate(-755.46 -537.09)"/><path class="cls-15" d="M768.41,542.73l-.1,0,.24-.13c0,.13-.08.1-.14.11" transform="translate(-755.46 -537.09)"/><path class="cls-15" d="M768.52,542.5a.14.14,0,0,0,0,.06h0Z" transform="translate(-755.46 -537.09)"/><path class="cls-15" d="M768.59,542.77v0h0v0" transform="translate(-755.46 -537.09)"/><path class="cls-15" d="M768.65,542.69h0v0" transform="translate(-755.46 -537.09)"/><path class="cls-15" d="M768.72,542.58l0,0h0l0,0Z" transform="translate(-755.46 -537.09)"/><path class="cls-15" d="M768.61,542.58h0" transform="translate(-755.46 -537.09)"/><polygon class="cls-15" points="12.92 5.56 12.92 5.55 12.93 5.55 12.92 5.56"/><path class="cls-15" d="M768.16,542.63h0" transform="translate(-755.46 -537.09)"/><path class="cls-22" d="M765.32,542.55h0l0,.09h0v-.09" transform="translate(-755.46 -537.09)"/><path class="cls-22" d="M765.9,542.7l0,0,0,0,.05.06h-.06" transform="translate(-755.46 -537.09)"/><path class="cls-22" d="M765.32,542.77l0,0h0v0" transform="translate(-755.46 -537.09)"/><path class="cls-22" d="M765.87,542.58l0,0v0l0,0" transform="translate(-755.46 -537.09)"/><path class="cls-15" d="M765.12,543.3l0,0v0l0,0h0" transform="translate(-755.46 -537.09)"/><path class="cls-22" d="M765.29,543.53v0h0" transform="translate(-755.46 -537.09)"/><path class="cls-4" d="M765.63,543.5h0" transform="translate(-755.46 -537.09)"/><path class="cls-21" d="M768.62,543.56l0-.08,0,.08" transform="translate(-755.46 -537.09)"/><path class="cls-21" d="M768.59,543.73h0a.14.14,0,0,1,0-.06v.05" transform="translate(-755.46 -537.09)"/><path class="cls-21" d="M768.77,543.61h0l0,0v0" transform="translate(-755.46 -537.09)"/><path class="cls-22" d="M764.51,542.93a.14.14,0,0,0,0-.06l0,0,0,0Z" transform="translate(-755.46 -537.09)"/><path class="cls-18" d="M767,547.34s0,.08,0,.12l-.06,0h0v-.16l0-.09H767v.06a.34.34,0,0,0,0,.1" transform="translate(-755.46 -537.09)"/><path class="cls-13" d="M767.23,547.44l.1,0-.07,0,0-.09" transform="translate(-755.46 -537.09)"/><path class="cls-13" d="M766.9,547.44c0,.09-.06,0-.1,0h0s0-.05,0-.07l.1.05Z" transform="translate(-755.46 -537.09)"/><path class="cls-28" d="M766.77,547.51l0,0h0l0,0" transform="translate(-755.46 -537.09)"/><path class="cls-30" d="M767,547.34a.34.34,0,0,1,0-.1h0v.1" transform="translate(-755.46 -537.09)"/><path class="cls-30" d="M767,547.74l.08.08-.07,0a.57.57,0,0,0,0-.13" transform="translate(-755.46 -537.09)"/><path class="cls-21" d="M767,548.26h0l0,.05h0v-.07h0l0,0" transform="translate(-755.46 -537.09)"/><path class="cls-24" d="M767,548.26l0,0,0-.1v.12" transform="translate(-755.46 -537.09)"/><path class="cls-21" d="M766.9,548.22v0l0,0v.07h0" transform="translate(-755.46 -537.09)"/><path class="cls-19" d="M766.9,548.22h0v0l-.06,0h0" transform="translate(-755.46 -537.09)"/><path class="cls-27" d="M766.9,547.86v.06h0v0Z" transform="translate(-755.46 -537.09)"/><path class="cls-23" d="M767,548.05h0v0" transform="translate(-755.46 -537.09)"/><path class="cls-28" d="M766.78,545.3l-.08,0s0-.13.08-.12v.08Z" transform="translate(-755.46 -537.09)"/><path class="cls-28" d="M766.85,545.37l-.07-.07h0l0,0h0s0,.08,0,.11" transform="translate(-755.46 -537.09)"/><path class="cls-31" d="M766.8,545.27l0,0v-.08l0,0" transform="translate(-755.46 -537.09)"/><path class="cls-19" d="M766.87,548.37l.07-.06s0,0,0,0l-.11,0" transform="translate(-755.46 -537.09)"/><path class="cls-15" d="M767,548.35s0,0,0,0h0v0" transform="translate(-755.46 -537.09)"/><path class="cls-22" d="M769,543.82l0,0s0,.11,0,.13h0a1.11,1.11,0,0,0,0-.17h0" transform="translate(-755.46 -537.09)"/><path class="cls-17" d="M765.77,547.24a.43.43,0,0,1,0-.11l.07,0v.06h-.05Z" transform="translate(-755.46 -537.09)"/><path class="cls-18" d="M766.94,548.31h0v0" transform="translate(-755.46 -537.09)"/><path class="cls-17" d="M767.57,547.4l0,0h0l0,0,0,0" transform="translate(-755.46 -537.09)"/><path class="cls-2" d="M767.73,542.91h0v-.07h0l0,.07" transform="translate(-755.46 -537.09)"/><path class="cls-17" d="M767.94,547.37h0" transform="translate(-755.46 -537.09)"/><path class="cls-17" d="M767.83,547.39l0,0,0,0v0" transform="translate(-755.46 -537.09)"/><path class="cls-28" d="M766.53,547.39l.07,0s.07.11,0,.1l0-.12" transform="translate(-755.46 -537.09)"/><path class="cls-13" d="M766.71,547.56h0l0,0a.36.36,0,0,1,0-.09h0l0,0s0,.06,0,.09" transform="translate(-755.46 -537.09)"/><path class="cls-31" d="M765.82,547.24v-.06h0l0,0" transform="translate(-755.46 -537.09)"/><path class="cls-28" d="M766.44,547.35h0l0,0h0l0,.1a.61.61,0,0,0,0-.14" transform="translate(-755.46 -537.09)"/><path class="cls-28" d="M767.55,547.42l0,0c0,.09-.07,0-.11,0v-.05h.09" transform="translate(-755.46 -537.09)"/><path class="cls-28" d="M766.9,547.87v0l-.1,0v-.08l.1.06" transform="translate(-755.46 -537.09)"/><path class="cls-30" d="M766.73,547.47l0,0,.08,0h0a.17.17,0,0,0,0,.07h-.07" transform="translate(-755.46 -537.09)"/><path class="cls-30" d="M767.18,545.07l0,0h0v0l-.06,0h0v0" transform="translate(-755.46 -537.09)"/><path class="cls-21" d="M767.2,545.12l.06,0h0v0l-.1,0v0l0,0" transform="translate(-755.46 -537.09)"/><path class="cls-12" d="M765.34,546.56s0,.08,0,.12-.09,0-.11,0-.1-.09,0-.15h.14Z" transform="translate(-755.46 -537.09)"/><path class="cls-19" d="M765.34,546.56h0" transform="translate(-755.46 -537.09)"/><path class="cls-19" d="M765.22,546.55h0" transform="translate(-755.46 -537.09)"/><path class="cls-30" d="M766.22,546.51l.21-.26,0,0a.35.35,0,0,1-.16.3s-.1,0-.08-.07" transform="translate(-755.46 -537.09)"/><path class="cls-30" d="M766.79,546.48l0-.18.08,0,0,.36h0c0-.07,0-.12-.09-.12h0" transform="translate(-755.46 -537.09)"/><path class="cls-27" d="M766.22,546.51c0,.08,0,.07.08.07l-.11.13c0-.05,0-.12-.06-.12h0l.1-.07" transform="translate(-755.46 -537.09)"/><path class="cls-30" d="M766.79,546.21V546c.05,0,.06.12.14,0l0,.13-.1-.08v.08h0" transform="translate(-755.46 -537.09)"/><path class="cls-27" d="M766.93,547.19l0,.09h0l-.08,0v.07h0v-.15h0l.1.07v-.1l0,0" transform="translate(-755.46 -537.09)"/><path class="cls-28" d="M766.81,546.67v-.06h.07l0,0a.14.14,0,0,0,0,.06l-.08-.05" transform="translate(-755.46 -537.09)"/><path class="cls-28" d="M766.8,546.93a.13.13,0,0,1,0-.06h0l0,0h0a.34.34,0,0,1,0,.09l-.09-.06" transform="translate(-755.46 -537.09)"/><path class="cls-27" d="M766,546.65a.27.27,0,0,0,.08-.07h0a.65.65,0,0,1,0,.13l0,.06h0l-.06-.13" transform="translate(-755.46 -537.09)"/><path class="cls-13" d="M766.8,546.81v-.07l.09,0,0,.08h0l-.05,0h0v0" transform="translate(-755.46 -537.09)"/><path class="cls-27" d="M766.8,546.93l.09.06a.34.34,0,0,0,0-.09V547l-.1,0h0v-.13" transform="translate(-755.46 -537.09)"/><path class="cls-28" d="M766.93,546.07c-.08.08-.09,0-.14,0v0h0l.1,0,0,0" transform="translate(-755.46 -537.09)"/><path class="cls-13" d="M766.17,546.72a.93.93,0,0,0,0-.13c.1,0,.06.07.06.12h0" transform="translate(-755.46 -537.09)"/><path class="cls-28" d="M766.46,546.28l0,0,.06-.1h0v0l0,.09" transform="translate(-755.46 -537.09)"/><path class="cls-17" d="M766.81,547.39h0l0,0h0s.09.06.08,0h0c0,.06,0,.11,0,.16l-.1-.05" transform="translate(-755.46 -537.09)"/><path class="cls-17" d="M766.9,546l-.1,0v-.08h0l.1.05v0" transform="translate(-755.46 -537.09)"/><path class="cls-17" d="M766.9,546.78l-.09,0v-.07l.08.05,0-.06h0a.17.17,0,0,1,0,.07.08.08,0,0,1,0,0Z" transform="translate(-755.46 -537.09)"/><path class="cls-27" d="M766.79,547.12a.13.13,0,0,1,0-.06h0l.1.06V547l0,0,0,.09h-.1v0" transform="translate(-755.46 -537.09)"/><path class="cls-17" d="M766.9,546.25l-.08,0,0-.09h.12v0" transform="translate(-755.46 -537.09)"/><path class="cls-23" d="M766.1,546.78h0l-.07.05v0h0" transform="translate(-755.46 -537.09)"/><path class="cls-23" d="M766,546.87v0h0l0,0" transform="translate(-755.46 -537.09)"/><path class="cls-27" d="M766.88,546.61h-.07v-.05h0l.07.06" transform="translate(-755.46 -537.09)"/><path class="cls-27" d="M766.79,546.48h0v.07h0v-.08" transform="translate(-755.46 -537.09)"/><path class="cls-30" d="M766.8,546.83l.05,0h0v0" transform="translate(-755.46 -537.09)"/><path class="cls-27" d="M766.8,547.19a.15.15,0,0,1,0-.07v.06Z" transform="translate(-755.46 -537.09)"/><path class="cls-27" d="M766.5,547.39l0,0,0,0" transform="translate(-755.46 -537.09)"/><path class="cls-27" d="M766.58,546.18l0,0,0,0" transform="translate(-755.46 -537.09)"/><path class="cls-27" d="M766.5,546.19v0l0,0h0" transform="translate(-755.46 -537.09)"/><path class="cls-27" d="M766.66,546.06v0" transform="translate(-755.46 -537.09)"/><path class="cls-30" d="M766.8,546.81v0" transform="translate(-755.46 -537.09)"/><path class="cls-13" d="M766.1,546.78h0a.16.16,0,0,1,0-.07h0v0h0a.05.05,0,0,0,0,0h0l.06.13" transform="translate(-755.46 -537.09)"/><path class="cls-23" d="M766,546.71l-.05,0,.05,0" transform="translate(-755.46 -537.09)"/><path class="cls-23" d="M766,546.69v0h0l0,0" transform="translate(-755.46 -537.09)"/><path class="cls-23" d="M766,546.65l0,0,0,0" transform="translate(-755.46 -537.09)"/><path class="cls-27" d="M766.63,545.83l0,0,0,0" transform="translate(-755.46 -537.09)"/><path class="cls-18" d="M766.9,546.25v0h0l0-.13,0,0v-.14h0c.07-.08,0-.13,0-.19l0,0a.06.06,0,0,1,0,0l.08-.08,0,.07,0,.07h0v.11h0a.19.19,0,0,0,0,.08v0h0l0,.11h0l0,.07v.15s0,0,0,0v.06h0l0,0,0,.07,0,.08h0v.11h0v0h0v.1h0l0,0a.17.17,0,0,0,0-.07v0l0-.36" transform="translate(-755.46 -537.09)"/><path class="cls-31" d="M767,545.67l0-.07.14,0-.06.12,0,0" transform="translate(-755.46 -537.09)"/><path class="cls-17" d="M767,545.67l0,0-.07,0,0-.07" transform="translate(-755.46 -537.09)"/><path class="cls-27" d="M767,546.78a.36.36,0,0,0,0-.1.34.34,0,0,0,0,.1h0" transform="translate(-755.46 -537.09)"/><path class="cls-27" d="M767,546.68v0h0l0,0" transform="translate(-755.46 -537.09)"/><path class="cls-27" d="M767,546.38v0" transform="translate(-755.46 -537.09)"/><path class="cls-27" d="M767,547.24h0a.13.13,0,0,1,0-.06h0v0l0,0" transform="translate(-755.46 -537.09)"/><path class="cls-30" d="M767,546.66v0" transform="translate(-755.46 -537.09)"/><path class="cls-17" d="M767,546v0h.07l-.07,0" transform="translate(-755.46 -537.09)"/><path class="cls-27" d="M767,545.93h0v-.08a.19.19,0,0,1,0,.08" transform="translate(-755.46 -537.09)"/><path class="cls-30" d="M767.06,546.16l-.06,0a.08.08,0,0,0,0,0h0v0" transform="translate(-755.46 -537.09)"/><path class="cls-17" d="M767,546.15a.08.08,0,0,1,0,0h0v0Z" transform="translate(-755.46 -537.09)"/><path class="cls-13" d="M767.05,546.14h0v-.07h0l.09,0a.17.17,0,0,1,0,.07l0,0" transform="translate(-755.46 -537.09)"/><path class="cls-29" d="M766.93,546.73l0,0,0,.05,0,.07,0,.05s0,.07,0,.11h-.05l0,0h0v-.12h0s0-.08,0-.12l0,0" transform="translate(-755.46 -537.09)"/><path class="cls-28" d="M767,547.18h0v-.06l.12-.06v.05l-.07.07" transform="translate(-755.46 -537.09)"/><path class="cls-7" d="M767,547.12v.06h-.05l0,0h0l0-.09H767v.06" transform="translate(-755.46 -537.09)"/><path class="cls-28" d="M767,546.9l0-.07.1,0v.05l-.12,0" transform="translate(-755.46 -537.09)"/><path class="cls-13" d="M767.44,546.27v-.09l.08,0s0,.07,0,.1h0" transform="translate(-755.46 -537.09)"/><path class="cls-13" d="M767.66,546.48l.06,0v.1l-.06,0v-.1" transform="translate(-755.46 -537.09)"/><path class="cls-13" d="M767.51,546.38v-.1l.06,0v.11h-.06" transform="translate(-755.46 -537.09)"/><path class="cls-21" d="M769.17,546.58a.36.36,0,0,0,0,.1h0l0,0H769l0-.14h.14l0,0Z" transform="translate(-755.46 -537.09)"/><path class="cls-23" d="M769.15,546.56h0" transform="translate(-755.46 -537.09)"/><path class="cls-23" d="M769.12,546.71l0,0,0,0" transform="translate(-755.46 -537.09)"/><path class="cls-23" d="M769.17,546.58l0,0,0,0" transform="translate(-755.46 -537.09)"/><path class="cls-7" d="M764.82,544s0-.08,0-.12h0a.78.78,0,0,1,0,.16l0,0" transform="translate(-755.46 -537.09)"/><path class="cls-27" d="M764.84,544s0-.1,0-.16l0,.08a.35.35,0,0,0,.05.08s-.07.06-.1,0" transform="translate(-755.46 -537.09)"/><path class="cls-13" d="M767.06,544.84c0,.06,0,.06-.12,0l.12,0Z" transform="translate(-755.46 -537.09)"/><path class="cls-13" d="M766.87,545.42v0s0,0,0,0l0-.06h0s0,.1,0,.09" transform="translate(-755.46 -537.09)"/><path class="cls-17" d="M766.88,545.07h0a.59.59,0,0,0,0,.13h0l0-.13" transform="translate(-755.46 -537.09)"/><path class="cls-17" d="M767.18,545.07v0h-.08l.08,0" transform="translate(-755.46 -537.09)"/><path class="cls-23" d="M766.92,545.33h0v0h0v0" transform="translate(-755.46 -537.09)"/><path class="cls-17" d="M766.88,545v0l-.08,0h.08" transform="translate(-755.46 -537.09)"/><path class="cls-28" d="M766.91,545.68v0l0,0-.06-.1.1,0v0" transform="translate(-755.46 -537.09)"/><path class="cls-13" d="M766.9,545.89h0V546l-.1-.06.1,0" transform="translate(-755.46 -537.09)"/><path class="cls-31" d="M766.9,545.63l-.1,0,.06,0,0,.06" transform="translate(-755.46 -537.09)"/><path class="cls-31" d="M767.11,545.12h.07v0l-.07,0" transform="translate(-755.46 -537.09)"/><path class="cls-31" d="M766.88,545h0" transform="translate(-755.46 -537.09)"/><path class="cls-17" d="M767.18,545.15v0h0l0,0" transform="translate(-755.46 -537.09)"/><path class="cls-28" d="M766.81,546.55v-.07c.08,0,.1,0,.09.12h0l-.07-.06" transform="translate(-755.46 -537.09)"/><path class="cls-27" d="M766.88,546.61h0v0h0l0,0" transform="translate(-755.46 -537.09)"/><path class="cls-13" d="M766.91,546.2h-.1v-.08a1.15,1.15,0,0,1,.1.08" transform="translate(-755.46 -537.09)"/><path class="cls-13" d="M766.9,547.29c0,.1,0,.08-.09,0a.13.13,0,0,0,0-.06l.08,0" transform="translate(-755.46 -537.09)"/><path class="cls-13" d="M766.9,547.15h0v.1l-.1-.07v0h.1" transform="translate(-755.46 -537.09)"/><path class="cls-27" d="M766.91,546.78s0,.08,0,.12l0,0,0-.08h0" transform="translate(-755.46 -537.09)"/><path class="cls-13" d="M766.9,547h0v.1l-.1-.06.1,0" transform="translate(-755.46 -537.09)"/><path class="cls-27" d="M767,546.08v.07h0l0-.07" transform="translate(-755.46 -537.09)"/></g></svg>