<svg id="Warstwa_1" data-name="Warstwa 1" xmlns="http://www.w3.org/2000/svg" viewBox="0 0 24.9 24.92"><defs><style>.cls-1{fill:#ffeaca;}.cls-2,.cls-4,.cls-5{fill:none;}.cls-3{fill:#00393f;}.cls-4{stroke:#da9d65;}.cls-5{stroke:#ffeaca;}</style></defs><title>Bez nazwy-1</title><path class="cls-1" d="M754.79,532.85l-1.34.75c-.38-1.39-.77-2.78-1.15-4.16l-.48-1.72-.49,1.72c-.39,1.38-.78,2.77-1.18,4.16l-1.35-.77-1.55-.87.86,1.55c.26.45.51.9.76,1.35L744.71,536l-1.71.48,1.71.48,4.17,1.18-.77,1.37-.86,1.55,1.55-.87,1.35-.77c.4,1.39.79,2.78,1.18,4.17l.49,1.71.48-1.72c.38-1.38.77-2.77,1.15-4.16l1.34.75,1.56.87-.88-1.55c-.25-.45-.5-.9-.76-1.35l4.17-1.18,1.71-.48-1.71-.48-4.16-1.16.75-1.33.88-1.55Z" transform="translate(-735.69 -527.72)"/><path class="cls-2" d="M754.79,532.85l-1.34.75c-.38-1.39-.77-2.78-1.15-4.16l-.48-1.72-.49,1.72c-.39,1.38-.78,2.77-1.18,4.16l-1.35-.77-1.55-.87.86,1.55c.26.45.51.9.76,1.35L744.71,536l-1.71.48,1.71.48,4.17,1.18-.77,1.37-.86,1.55,1.55-.87,1.35-.77c.4,1.39.79,2.78,1.18,4.17l.49,1.71.48-1.72c.38-1.38.77-2.77,1.15-4.16l1.34.75,1.56.87-.88-1.55c-.25-.45-.5-.9-.76-1.35l4.17-1.18,1.71-.48-1.71-.48-4.16-1.16.75-1.33.88-1.55Z" transform="translate(-735.69 -527.72)"/><rect class="cls-3" x="0.5" y="9.3" width="15.12" height="15.12"/><polyline class="cls-4" points="5.21 19.58 7.93 16.86 5.21 14.13"/><polyline class="cls-4" points="8.47 19.58 11.2 16.86 8.47 14.13"/><rect class="cls-5" x="0.5" y="9.3" width="15.12" height="15.12"/></svg>