<svg id="Warstwa_1" data-name="Warstwa 1" xmlns="http://www.w3.org/2000/svg" xmlns:xlink="http://www.w3.org/1999/xlink" viewBox="0 0 16.08 16.09"><defs><style>.cls-1,.cls-5{fill:none;}.cls-2{fill:#00393f;}.cls-3{clip-path:url(#clip-path);}.cls-4{fill:#96388d;}.cls-5{stroke:#ffeaca;}</style><clipPath id="clip-path" transform="translate(-1018.89 -507.54)"><path class="cls-1" d="M1019.39,515.58a7.55,7.55,0,1,0,7.54-7.54,7.54,7.54,0,0,0-7.54,7.54"/></clipPath></defs><title>event</title><path class="cls-2" d="M1026.94,523.12a7.54,7.54,0,1,0-7.55-7.54,7.54,7.54,0,0,0,7.55,7.54" transform="translate(-1018.89 -507.54)"/><g class="cls-3"><polygon class="cls-4" points="8.27 3.62 8 3.62 7.57 6.7 5.08 4.83 4.89 5.02 6.77 7.52 3.68 7.95 3.68 8.22 6.73 8.68 4.89 11.14 5.08 11.33 7.54 9.48 8 12.55 8.27 12.55 8.71 9.45 11.2 11.33 11.39 11.14 9.5 8.65 12.6 8.22 12.6 7.95 9.5 7.52 11.39 5.02 11.2 4.83 8.71 6.7 8.27 3.62"/></g><path class="cls-5" d="M1026.94,523.12a7.54,7.54,0,1,0-7.55-7.54A7.54,7.54,0,0,0,1026.94,523.12Z" transform="translate(-1018.89 -507.54)"/></svg>