<svg id="Warstwa_1" data-name="Warstwa 1" xmlns="http://www.w3.org/2000/svg" xmlns:xlink="http://www.w3.org/1999/xlink" viewBox="0 0 9.91 9.91"><defs><style>.cls-1{fill:none;}.cls-2{fill:#007260;}.cls-3{clip-path:url(#clip-path);}.cls-4{fill:#fff;fill-rule:evenodd;}</style><clipPath id="clip-path" transform="translate(-744.11 -534.3)"><rect class="cls-1" x="744.11" y="534.3" width="9.91" height="9.91"/></clipPath></defs><title>FACEBOOK</title><rect class="cls-2" width="9.91" height="9.91"/><g class="cls-3"><path class="cls-4" d="M749.9,537.49h.57v-.86l-.28,0a4.34,4.34,0,0,0-.51,0,1.22,1.22,0,0,0-.72.22,1.08,1.08,0,0,0-.44.72c0,.12,0,.25,0,.37v.66h-.83v1h.83V542h1v-2.42h.82c0-.32.08-.64.13-1h-1s0-.48,0-.69.18-.37.41-.38" transform="translate(-744.11 -534.3)"/></g></svg>