<svg id="Warstwa_1" data-name="Warstwa 1" xmlns="http://www.w3.org/2000/svg" xmlns:xlink="http://www.w3.org/1999/xlink" viewBox="0 0 124.1 166.22"><defs><style>.cls-1,.cls-2{fill:none;stroke:#007260;}.cls-1{stroke-width:1.64px;}.cls-2{stroke-width:1.64px;}.cls-3{fill:url(#Gradient_bez_nazwy_9);}</style><linearGradient id="Gradient_bez_nazwy_9" x1="62.05" y1="118.94" x2="62.05" y2="173.4" gradientUnits="userSpaceOnUse"><stop offset="0" stop-color="#007260"/><stop offset="0.1" stop-color="#067563"/><stop offset="0.22" stop-color="#157e6d"/><stop offset="0.36" stop-color="#2f8c7e"/><stop offset="0.51" stop-color="#54a094"/><stop offset="0.67" stop-color="#82bab1"/><stop offset="0.83" stop-color="#bbdad5"/><stop offset="1" stop-color="#fefefe"/><stop offset="1" stop-color="#fff"/></linearGradient></defs><title>LOGO</title><line class="cls-1" x1="62.05" y1="49.77" x2="62.05"/><line class="cls-1" x1="18.83" y1="93" y2="93"/><line class="cls-1" x1="31.49" y1="62.43" x2="6.6" y2="37.54"/><line class="cls-1" x1="22.26" y1="76.11" x2="0.49" y2="66.87"/><line class="cls-1" x1="45.16" y1="53.21" x2="27.3" y2="11.12"/><path class="cls-2" d="M1024,567.63V521.39s.83-9.11-8.07-9.11-8.91,15.59,2.9,15.59h11.8" transform="translate(-964.88 -432.47)"/><path class="cls-2" d="M1029.87,567.63V521.39s-.83-9.11,8.07-9.11,8.91,15.59-2.9,15.59h-11.8" transform="translate(-964.88 -432.47)"/><line class="cls-1" x1="105.28" y1="93" x2="124.1" y2="93"/><line class="cls-1" x1="92.62" y1="62.43" x2="117.5" y2="37.54"/><line class="cls-1" x1="101.84" y1="76.11" x2="123.61" y2="66.87"/><line class="cls-1" x1="78.94" y1="53.21" x2="96.81" y2="11.12"/><polygon class="cls-3" points="31.83 116.05 62.05 166.22 92.28 116.05 31.83 116.05"/></svg>