<?xml version="1.0" encoding="utf-8"?>
<!-- Generator: Adobe Illustrator 21.1.0, SVG Export Plug-In . SVG Version: 6.00 Build 0)  -->
<svg version="1.1" id="Warstwa_1" xmlns="http://www.w3.org/2000/svg" xmlns:xlink="http://www.w3.org/1999/xlink" x="0px" y="0px"
	 viewBox="0 0 24 24" style="enable-background:new 0 0 24 24;" xml:space="preserve">
<style type="text/css">
	.st0{clip-path:url(#SVGID_2_);}
	.st1{fill:#FFEACA;}
	.st2{clip-path:url(#SVGID_4_);}
	.st3{fill:#00393F;}
	.st4{fill:none;stroke:#00393F;stroke-width:0.5;}
	.st5{fill:none;stroke:#FFEACA;}
</style>
<title>MODE_CURRENT_MAP</title>
<g>
	<defs>
		<rect id="SVGID_1_" width="24" height="24"/>
	</defs>
	<clipPath id="SVGID_2_">
		<use xlink:href="#SVGID_1_"  style="overflow:visible;"/>
	</clipPath>
	<g class="st0">
		<path class="st1" d="M12,23.5c6.4,0,11.5-5.1,11.5-11.5c0-6.4-5.1-11.5-11.5-11.5C5.7,0.5,0.5,5.6,0.5,12c0,0,0,0,0,0
			C0.5,18.4,5.7,23.5,12,23.5"/>
	</g>
</g>
<g>
	<defs>
		<path id="SVGID_3_" d="M0.5,12c0,6.4,5.1,11.5,11.5,11.5c6.4,0,11.5-5.1,11.5-11.5c0-6.4-5.1-11.5-11.5-11.5c0,0,0,0,0,0
			C5.7,0.5,0.5,5.7,0.5,12"/>
	</defs>
	<clipPath id="SVGID_4_">
		<use xlink:href="#SVGID_3_"  style="overflow:visible;"/>
	</clipPath>
	<g class="st2">
		<polyline class="st3" points="5,15 7,17 9,15 		"/>
		<polyline class="st3" points="17,8 19,10 21,8 		"/>
		<polyline class="st3" points="8.2,5 10.2,7 12.2,5 		"/>
		<line class="st4" x1="8" y1="14" x2="10" y2="8"/>
		<line class="st4" x1="10.2" y1="15.2" x2="19" y2="11"/>
		<line class="st4" x1="8" y1="18" x2="19" y2="26"/>
	</g>
</g>
<circle class="st5" cx="12" cy="12" r="11.5"/>
</svg>
