<svg id="Warstwa_1" data-name="Warstwa 1" xmlns="http://www.w3.org/2000/svg" xmlns:xlink="http://www.w3.org/1999/xlink" viewBox="0 0 27.77 23.78"><defs><style>.cls-1,.cls-6,.cls-7{fill:none;}.cls-2{clip-path:url(#clip-path);}.cls-3{fill:#ffeaca;}.cls-4{clip-path:url(#clip-path-2);}.cls-5{fill:#00393f;}.cls-6{stroke:#00393f;}.cls-6,.cls-7{stroke-width:0.75px;}.cls-7{stroke:#ffeaca;}</style><clipPath id="clip-path" transform="translate(-976.47 -528.27)"><rect class="cls-1" x="976.47" y="528.27" width="23.78" height="23.78"/></clipPath><clipPath id="clip-path-2" transform="translate(-976.47 -528.27)"><path class="cls-1" d="M976.84,540.16a11.52,11.52,0,1,0,11.52-11.51,11.52,11.52,0,0,0-11.52,11.51"/></clipPath></defs><title>MODE_LIST</title><g class="cls-2"><path class="cls-3" d="M988.36,551.68a11.52,11.52,0,1,0-11.52-11.52,11.51,11.51,0,0,0,11.52,11.52" transform="translate(-976.47 -528.27)"/></g><g class="cls-4"><polyline class="cls-5" points="6.77 8.73 8.78 6.72 6.77 4.71"/><polyline class="cls-5" points="6.77 14.71 8.78 12.7 6.77 10.69"/><polyline class="cls-5" points="6.77 20.69 8.78 18.68 6.77 16.67"/><line class="cls-6" x1="9.92" y1="6.68" x2="27.77" y2="6.68"/><line class="cls-6" x1="3.32" y1="2.96" x2="3.32" y2="20.82"/><line class="cls-6" x1="9.92" y1="12.67" x2="27.77" y2="12.67"/><line class="cls-6" x1="9.92" y1="18.66" x2="27.77" y2="18.66"/></g><circle class="cls-7" cx="11.89" cy="11.89" r="11.52"/></svg>