<svg id="Warstwa_1" data-name="Warstwa 1" xmlns="http://www.w3.org/2000/svg" xmlns:xlink="http://www.w3.org/1999/xlink" viewBox="0 0 24.03 26.2"><defs><style>.cls-1,.cls-6,.cls-7{fill:none;}.cls-2{clip-path:url(#clip-path);}.cls-3{fill:#ffeaca;}.cls-4{clip-path:url(#clip-path-2);}.cls-5{fill:#00393f;}.cls-6{stroke:#00393f;stroke-width:0.5px;}.cls-7{stroke:#ffeaca;}</style><clipPath id="clip-path" transform="translate(-978.34 -527.06)"><rect class="cls-1" x="978.34" y="527.06" width="24.03" height="24.03"/></clipPath><clipPath id="clip-path-2" transform="translate(-978.34 -527.06)"><path class="cls-1" d="M978.84,539.07a11.52,11.52,0,1,0,11.51-11.51,11.52,11.52,0,0,0-11.51,11.51"/></clipPath></defs><title>MODE_CURRENT_MAP</title><g class="cls-2"><path class="cls-3" d="M990.35,550.59a11.52,11.52,0,1,0-11.51-11.52,11.52,11.52,0,0,0,11.51,11.52" transform="translate(-978.34 -527.06)"/></g><g class="cls-4"><polyline class="cls-5" points="5 15 7.01 17.01 9.02 15"/><polyline class="cls-5" points="17 8 19.01 10.01 21.02 8"/><polyline class="cls-5" points="8.2 4.99 10.21 7 12.21 4.99"/><line class="cls-6" x1="8" y1="14" x2="10.01" y2="8"/><line class="cls-6" x1="10.24" y1="15.23" x2="19" y2="11"/><line class="cls-6" x1="8" y1="18" x2="19.01" y2="26"/></g><circle class="cls-7" cx="12.02" cy="12.02" r="11.52"/></svg>