<svg id="Warstwa_1" data-name="Warstwa 1" xmlns="http://www.w3.org/2000/svg" xmlns:xlink="http://www.w3.org/1999/xlink" viewBox="0 0 24.03 27.02"><defs><style>.cls-1,.cls-5,.cls-6,.cls-7{fill:none;}.cls-2{clip-path:url(#clip-path);}.cls-3{fill:#ffeaca;}.cls-4{clip-path:url(#clip-path-2);}.cls-5,.cls-6{stroke:#00393f;}.cls-5{stroke-width:0.75px;}.cls-6{stroke-width:0.7px;}.cls-7{stroke:#ffeaca;}</style><clipPath id="clip-path" transform="translate(-978.34 -526.65)"><rect class="cls-1" x="978.34" y="526.65" width="24.03" height="24.03"/></clipPath><clipPath id="clip-path-2" transform="translate(-978.34 -526.65)"><path class="cls-1" d="M978.84,538.67a11.52,11.52,0,1,0,11.51-11.52,11.51,11.51,0,0,0-11.51,11.52"/></clipPath></defs><title>MODE_ID</title><g class="cls-2"><path class="cls-3" d="M990.35,550.18a11.52,11.52,0,1,0-11.51-11.51,11.51,11.51,0,0,0,11.51,11.51" transform="translate(-978.34 -526.65)"/></g><g class="cls-4"><line class="cls-5" x1="14" y1="27" x2="13.63" y2="18"/><polyline class="cls-6" points="11.82 16.6 13.68 17.93 17.4 15.14"/><polyline class="cls-6" points="13.68 17.93 11.82 19.79 9.72 17.68"/><polyline class="cls-6" points="13.93 17.93 15.54 19.79 19.26 17"/><path class="cls-6" d="M982.34,548.65l3.52-2.9,4.08-2.64-2.11-1.29-2-7.88s0-2,2.95-3,4.92,0,5.91,2a9.86,9.86,0,0,1,1,3.94s1,2,0,3,1,2.95,1,2.95l4.65,2.85a8.14,8.14,0,0,1-7,5A30.65,30.65,0,0,1,982.34,548.65Z" transform="translate(-978.34 -526.65)"/></g><circle class="cls-7" cx="12.02" cy="12.02" r="11.52"/></svg>