<svg id="Warstwa_1" data-name="Warstwa 1" xmlns="http://www.w3.org/2000/svg" xmlns:xlink="http://www.w3.org/1999/xlink" viewBox="0 0 16.08 16.08"><defs><style>.cls-1,.cls-5{fill:none;}.cls-2{fill:#00393f;}.cls-3{clip-path:url(#clip-path);}.cls-4{fill:#fff;}.cls-5{stroke:#ffeaca;}</style><clipPath id="clip-path" transform="translate(-963.73 -529.02)"><path class="cls-1" d="M964.23,537.06a7.55,7.55,0,1,0,7.54-7.54,7.55,7.55,0,0,0-7.54,7.54"/></clipPath></defs><title>person</title><path class="cls-2" d="M971.77,544.61a7.55,7.55,0,1,0-7.54-7.54,7.55,7.55,0,0,0,7.54,7.54" transform="translate(-963.73 -529.02)"/><g class="cls-3"><path class="cls-4" d="M967.84,543.6l1.28-1.28,1.93-1.29-.64-1.28-1.29-5.14s0-1.29,1.93-1.93,3.21,0,3.85,1.28a6.36,6.36,0,0,1,.65,2.57s.64,1.29,0,1.93.64,1.93.64,1.93l1.93,1.28-3.22,2.85-4.49.37Z" transform="translate(-963.73 -529.02)"/></g><path class="cls-5" d="M971.77,544.61a7.55,7.55,0,1,0-7.54-7.54A7.55,7.55,0,0,0,971.77,544.61Z" transform="translate(-963.73 -529.02)"/></svg>