<svg id="Warstwa_1" data-name="Warstwa 1" xmlns="http://www.w3.org/2000/svg" xmlns:xlink="http://www.w3.org/1999/xlink" viewBox="0 0 23 23"><defs><style>.cls-1,.cls-6{fill:none;}.cls-2{clip-path:url(#clip-path);}.cls-3{fill:#00393f;}.cls-4{clip-path:url(#clip-path-2);}.cls-5{fill:#ffeaca;}.cls-6{stroke:#ffeaca;}</style><clipPath id="clip-path" transform="translate(-749.7 -514.73)"><rect class="cls-1" x="749.7" y="514.73" width="23" height="23"/></clipPath><clipPath id="clip-path-2" transform="translate(-749.7 -514.73)"><path class="cls-1" d="M750.2,526.23a11,11,0,1,0,11-11,11,11,0,0,0-11,11"/></clipPath></defs><title>SCHOWEK_POSTAC</title><g class="cls-2"><path class="cls-3" d="M761.19,537.22a11,11,0,1,0-11-11,11,11,0,0,0,11,11" transform="translate(-749.7 -514.73)"/></g><g class="cls-4"><path class="cls-5" d="M755.42,535.69l1.93-1.93,2.88-1.92-1-1.93-1.92-7.69s0-1.93,2.88-2.89,4.81,0,5.77,1.93a9.48,9.48,0,0,1,1,3.84s1,1.93,0,2.89,1,2.89,1,2.89l2.88,1.92L766,537.06l-6.73.55Z" transform="translate(-749.7 -514.73)"/></g><circle class="cls-6" cx="11.5" cy="11.5" r="11"/></svg>