<svg id="Warstwa_1" data-name="Warstwa 1" xmlns="http://www.w3.org/2000/svg" xmlns:xlink="http://www.w3.org/1999/xlink" viewBox="0 0 23 23.1"><defs><style>.cls-1,.cls-6,.cls-7{fill:none;}.cls-2{clip-path:url(#clip-path);}.cls-3{fill:#00393f;}.cls-4{clip-path:url(#clip-path-2);}.cls-5{fill:#007260;}.cls-6{stroke:#00393f;stroke-width:1.04px;}.cls-7{stroke:#ffeaca;}</style><clipPath id="clip-path" transform="translate(-749.7 -514.67)"><rect class="cls-1" x="749.7" y="514.68" width="23" height="23"/></clipPath><clipPath id="clip-path-2" transform="translate(-749.7 -514.67)"><path class="cls-1" d="M750.2,526.17a11,11,0,1,0,11-11,11,11,0,0,0-11,11"/></clipPath></defs><title>SCHOWEK_TEKST</title><g class="cls-2"><path class="cls-3" d="M761.19,537.17a11,11,0,1,0-11-11,11,11,0,0,0,11,11" transform="translate(-749.7 -514.67)"/></g><g class="cls-4"><polygon class="cls-5" points="7.82 7.79 7.82 23.1 14.7 23.1 20.28 20.25 21.99 16.82 21.99 7.79 7.82 7.79"/><line class="cls-6" x1="10.93" y1="10.9" x2="16.95" y2="10.9"/><line class="cls-6" x1="10.93" y1="14.53" x2="23" y2="14.53"/><line class="cls-6" x1="10.93" y1="18.17" x2="21.48" y2="18.17"/></g><circle class="cls-7" cx="11.5" cy="11.5" r="11"/></svg>