<svg id="Warstwa_1" data-name="Warstwa 1" xmlns="http://www.w3.org/2000/svg" xmlns:xlink="http://www.w3.org/1999/xlink" viewBox="0 0 16.34 16.09"><defs><style>.cls-1,.cls-5,.cls-6{fill:none;}.cls-2{fill:#00393f;}.cls-3{clip-path:url(#clip-path);}.cls-4{fill:#007260;}.cls-5{stroke:#00393f;stroke-width:0.73px;}.cls-6{stroke:#ffeaca;}</style><clipPath id="clip-path" transform="translate(-963.6 -529.02)"><path class="cls-1" d="M964.1,537.07a7.55,7.55,0,1,0,7.54-7.55,7.55,7.55,0,0,0-7.54,7.55"/></clipPath></defs><title>text</title><path class="cls-2" d="M971.64,544.61a7.55,7.55,0,1,0-7.54-7.54,7.55,7.55,0,0,0,7.54,7.54" transform="translate(-963.6 -529.02)"/><g class="cls-3"><polygon class="cls-4" points="5.61 4.33 5.61 15.16 10.48 15.16 14.42 13.14 15.64 10.72 15.64 4.33 5.61 4.33"/><line class="cls-5" x1="7.82" y1="6.53" x2="12.07" y2="6.53"/><line class="cls-5" x1="7.82" y1="9.1" x2="16.34" y2="9.1"/><line class="cls-5" x1="7.82" y1="11.67" x2="15.28" y2="11.67"/></g><path class="cls-6" d="M971.64,544.61a7.55,7.55,0,1,0-7.54-7.54A7.55,7.55,0,0,0,971.64,544.61Z" transform="translate(-963.6 -529.02)"/></svg>