<svg id="Warstwa_1" data-name="Warstwa 1" xmlns="http://www.w3.org/2000/svg" xmlns:xlink="http://www.w3.org/1999/xlink" viewBox="0 0 9.91 9.91"><defs><style>.cls-1{fill:none;}.cls-2{fill:#007260;}.cls-3{clip-path:url(#clip-path);}.cls-4{fill:#fff;fill-rule:evenodd;}</style><clipPath id="clip-path" transform="translate(-760.3 -530.76)"><rect class="cls-1" x="760.3" y="530.76" width="9.91" height="9.91"/></clipPath></defs><title>TWITTER</title><rect class="cls-2" width="9.91" height="9.91"/><g class="cls-3"><path class="cls-4" d="M764.33,537a1.12,1.12,0,0,1-1-.78,1.11,1.11,0,0,0,.48,0h0a1.18,1.18,0,0,1-.73-.52,1.12,1.12,0,0,1-.16-.6,1.11,1.11,0,0,0,.5.14,1.1,1.1,0,0,1-.46-.69,1,1,0,0,1,.12-.81,3.23,3.23,0,0,0,2.32,1.18s0-.09,0-.13a1.14,1.14,0,0,1,.93-1.24,1.08,1.08,0,0,1,1,.31s0,0,.06,0a2.43,2.43,0,0,0,.65-.25h0a1.12,1.12,0,0,1-.48.61,2,2,0,0,0,.63-.17h0l-.13.17a2.54,2.54,0,0,1-.41.39s0,0,0,0a4.18,4.18,0,0,1,0,.5,3.5,3.5,0,0,1-.3,1,3.17,3.17,0,0,1-.6.89,3,3,0,0,1-1.55.86,3.4,3.4,0,0,1-.63.08,3.17,3.17,0,0,1-1.8-.48l0,0a2.29,2.29,0,0,0,1.13-.16,2.17,2.17,0,0,0,.53-.31" transform="translate(-760.3 -530.76)"/></g></svg>