<?xml version="1.0" encoding="utf-8"?>
<!-- Generator: Adobe Illustrator 21.1.0, SVG Export Plug-In . SVG Version: 6.00 Build 0)  -->
<svg version="1.1" id="Warstwa_1" xmlns="http://www.w3.org/2000/svg" xmlns:xlink="http://www.w3.org/1999/xlink" x="0px" y="0px"
	 viewBox="0 0 24.9 24.9" style="enable-background:new 0 0 24.9 24.9;" xml:space="preserve">
<style type="text/css">
	.st0{fill:#FFEACA;}
	.st1{fill:none;}
</style>
<path class="st0" d="M16.7,7.3l-1.9,1.1c-0.5-2-1.1-3.9-1.6-5.9L12.5,0l-0.7,2.4c-0.6,2-1.1,3.9-1.7,5.9L8.2,7.2L6,6l1.2,2.2
	C7.6,8.8,8,9.5,8.3,10.1l-5.9,1.6L0,12.4l2.4,0.7l5.9,1.7l-1.1,1.9L6,18.9l2.2-1.2l1.9-1.1c0.6,2,1.1,3.9,1.7,5.9l0.7,2.4l0.7-2.4
	c0.5-2,1.1-3.9,1.6-5.9l1.9,1.1l2.2,1.2l-1.2-2.2c-0.4-0.6-0.7-1.3-1.1-1.9l5.9-1.7l2.4-0.7l-2.4-0.7l-5.9-1.6l1.1-1.9L18.9,6
	L16.7,7.3z"/>
<path class="st1" d="M19.1,5.1l-1.3,0.8c-0.4-1.4-0.8-2.8-1.2-4.2L16.1,0l-0.5,1.7c-0.4,1.4-0.8,2.8-1.2,4.2l-1.3-0.8l-1.5-0.9
	l0.9,1.5c0.3,0.5,0.5,0.9,0.8,1.3L9,8.3L7.3,8.8L9,9.2l4.2,1.2l-0.8,1.4l-0.9,1.5l1.5-0.9l1.3-0.8c0.4,1.4,0.8,2.8,1.2,4.2l0.5,1.7
	l0.5-1.7c0.4-1.4,0.8-2.8,1.2-4.2l1.3,0.8l1.6,0.9l-0.9-1.5c-0.3-0.5-0.5-0.9-0.8-1.3l4.2-1.2l1.7-0.5l-1.7-0.5L19,7.1l0.8-1.3
	l0.9-1.5L19.1,5.1z"/>
</svg>
