<svg id="Warstwa_1" data-name="Warstwa 1" xmlns="http://www.w3.org/2000/svg" xmlns:xlink="http://www.w3.org/1999/xlink" viewBox="0 0 16.36 16.36"><defs><style>.cls-1,.cls-6{fill:none;}.cls-2{clip-path:url(#clip-path);}.cls-3{fill:#00393f;}.cls-4{clip-path:url(#clip-path-2);}.cls-5{fill:#96388d;}.cls-6{stroke:#96388d;stroke-width:1.02px;}</style><clipPath id="clip-path" transform="translate(-956.34 -527.43)"><rect class="cls-1" x="956.34" y="527.43" width="16.36" height="16.36"/></clipPath><clipPath id="clip-path-2" transform="translate(-956.34 -527.43)"><path class="cls-1" d="M956.84,535.61a7.68,7.68,0,1,0,7.68-7.67,7.68,7.68,0,0,0-7.68,7.67"/></clipPath></defs><g class="cls-2"><path class="cls-3" d="M964.52,543.28a7.67,7.67,0,1,0-7.68-7.67,7.67,7.67,0,0,0,7.68,7.67" transform="translate(-956.34 -527.43)"/></g><g class="cls-4"><polygon class="cls-5" points="8.41 3.68 8.13 3.68 7.7 6.82 5.17 4.91 4.98 5.1 6.89 7.65 3.75 8.09 3.75 8.36 6.85 8.83 4.98 11.33 5.17 11.52 7.67 9.65 8.13 12.77 8.41 12.77 8.86 9.61 11.39 11.52 11.59 11.33 9.66 8.8 12.82 8.36 12.82 8.09 9.66 7.65 11.59 5.1 11.39 4.91 8.86 6.82 8.41 3.68"/></g><g class="cls-2"><path class="cls-6" d="M964.52,543.28a7.67,7.67,0,1,0-7.68-7.67A7.67,7.67,0,0,0,964.52,543.28Z" transform="translate(-956.34 -527.43)"/></g></svg>