<svg id="Warstwa_1" data-name="Warstwa 1" xmlns="http://www.w3.org/2000/svg" xmlns:xlink="http://www.w3.org/1999/xlink" viewBox="0 0 16.21 23.29"><defs><style>.cls-1,.cls-5,.cls-6{fill:none;}.cls-2{clip-path:url(#clip-path);}.cls-3{fill:#00393f;}.cls-4{clip-path:url(#clip-path-2);}.cls-5{stroke:#fff;}.cls-5,.cls-6{stroke-width:1.01px;}.cls-6{stroke:#ffeacb;}.cls-7{fill:#ffeacb;}</style><clipPath id="clip-path" transform="translate(-973.44 -588.23)"><rect class="cls-1" x="973.44" y="588.23" width="16.21" height="23.29"/></clipPath><clipPath id="clip-path-2" transform="translate(-973.44 -588.23)"><path class="cls-1" d="M974,596.33a7.6,7.6,0,1,0,7.6-7.6,7.6,7.6,0,0,0-7.6,7.6"/></clipPath></defs><g class="cls-2"><path class="cls-3" d="M981.55,603.93a7.6,7.6,0,1,0-7.6-7.6,7.6,7.6,0,0,0,7.6,7.6" transform="translate(-973.44 -588.23)"/></g><g class="cls-4"><path class="cls-5" d="M981.55,597.21a3,3,0,1,0-3-3A3,3,0,0,0,981.55,597.21Z" transform="translate(-973.44 -588.23)"/><path class="cls-5" d="M988.14,600.15c0-2-1.79-3.27-4.3-3.93" transform="translate(-973.44 -588.23)"/><path class="cls-5" d="M979.22,596.23c-2.5.67-4.27,1.92-4.27,3.92" transform="translate(-973.44 -588.23)"/></g><g class="cls-2"><circle class="cls-6" cx="8.1" cy="8.1" r="7.6"/></g><polygon class="cls-7" points="7.75 17.7 7.8 22.2 5.94 20.41 5.79 20.41 5.64 20.94 8.03 23.29 8.19 23.29 10.57 20.94 10.43 20.41 10.27 20.41 8.41 22.21 8.44 17.67 7.83 17.63 7.75 17.7"/></svg>