<svg id="Warstwa_1" data-name="Warstwa 1" xmlns="http://www.w3.org/2000/svg" xmlns:xlink="http://www.w3.org/1999/xlink" viewBox="0 0 16.21 23.29"><defs><style>.cls-1,.cls-5,.cls-6{fill:none;}.cls-2{clip-path:url(#clip-path);}.cls-3{fill:#00393f;}.cls-4{clip-path:url(#clip-path-2);}.cls-5{stroke:#fff;}.cls-5,.cls-6{stroke-width:1.01px;}.cls-6{stroke:#ffeacb;}.cls-7{fill:#ffeacb;}</style><clipPath id="clip-path" transform="translate(-979.54 -573.03)"><rect class="cls-1" x="979.54" y="573.03" width="16.21" height="23.29"/></clipPath><clipPath id="clip-path-2" transform="translate(-979.54 -573.03)"><path class="cls-1" d="M980.05,588.22a7.6,7.6,0,1,0,7.6-7.6,7.6,7.6,0,0,0-7.6,7.6"/></clipPath></defs><g class="cls-2"><path class="cls-3" d="M987.65,595.82a7.6,7.6,0,1,0-7.6-7.6,7.61,7.61,0,0,0,7.6,7.6" transform="translate(-979.54 -573.03)"/></g><g class="cls-4"><path class="cls-5" d="M987.65,589.1a3,3,0,1,0-3-3A3,3,0,0,0,987.65,589.1Z" transform="translate(-979.54 -573.03)"/><path class="cls-5" d="M994.24,592c0-2-1.79-3.27-4.3-3.93" transform="translate(-979.54 -573.03)"/><path class="cls-5" d="M985.31,588.12c-2.49.67-4.26,1.92-4.26,3.92" transform="translate(-979.54 -573.03)"/></g><g class="cls-2"><circle class="cls-6" cx="8.1" cy="15.18" r="7.6"/></g><polygon class="cls-7" points="7.83 0 7.75 0.07 7.8 4.57 5.94 2.78 5.79 2.78 5.64 3.32 8.03 5.66 8.19 5.66 10.57 3.32 10.43 2.78 10.27 2.78 8.41 4.59 8.44 0.05 7.83 0"/></svg>