<svg id="Warstwa_1" data-name="Warstwa 1" xmlns="http://www.w3.org/2000/svg" xmlns:xlink="http://www.w3.org/1999/xlink" viewBox="0 0 258.5 22.54"><defs><style>.cls-1,.cls-4{fill:none;}.cls-2{clip-path:url(#clip-path);}.cls-3{fill:#fff;}.cls-4{stroke:#fff;}</style><clipPath id="clip-path" transform="translate(-382.32 -372.56)"><rect class="cls-1" x="382.32" y="372.56" width="258.49" height="22.53"/></clipPath></defs><g class="cls-2"><path class="cls-3" d="M421,387.74l.6-2H421l-2.65,8.88H419l1.87-6.32m7.21,0,1.88,6.32h.65l-2.65-8.88h-.63l.59,2m-21.73-2v8.88h9.06l.16-.55h-8.62v-8.33Zm-16.12,0v8.88h3.48a7,7,0,0,0,5.8-2.44,10.81,10.81,0,0,0,1.91-6.44h-.62a10.34,10.34,0,0,1-1.76,6,6.41,6.41,0,0,1-5.36,2.29h-2.85v-8.33Zm-6.18,8.88h.59v-8.88h-.59Z" transform="translate(-382.32 -372.56)"/><path class="cls-3" d="M636.67,385.73l3.52,8.88h.63l-3.53-8.88Zm-6.3,8.88h.6v-8.88h-.6Zm-13.59-8.88v8.88h9.06l.16-.55h-8.62v-8.33Zm-9.66,8.88h.6v-8.88h-.6Zm-14.4-8.88,4.5,8.88h.84v-8.88h-.6v8.14l-4.12-8.14Zm-5.54,8.88h.6v-8.88h-.6Zm-13.59-8.88v8.88h9.06l.16-.55h-8.63v-8.33Zm-16,0a13.79,13.79,0,0,0,1.56,6.82,5.17,5.17,0,0,0,4.68,2.55,4.72,4.72,0,0,0,3.85-1.71,9.09,9.09,0,0,0,1.71-5h-.57c-.45,4.1-2.11,6.16-5,6.16a4.63,4.63,0,0,1-4.23-2.43,13.45,13.45,0,0,1-1.4-6.37Z" transform="translate(-382.32 -372.56)"/><path class="cls-3" d="M506.91,387.74l.59-2h-.57l-2.65,8.88h.62l1.87-6.32M536,385.73v8.88h9.06l.17-.55h-8.63v-8.33Zm-16.65,0c.15,6.22,2.3,9.37,6.48,9.37a7.25,7.25,0,0,0,5.15-2v-7.33h-5v.59h4.4v6.55a6.78,6.78,0,0,1-4.59,1.66c-3.75,0-5.68-3-5.83-8.8ZM514,388.29l1.87,6.32h.65l-2.65-8.88h-.62l.59,2m-15.77,6.87h.6v-8.88h-.6Zm-9.66,0h.6v-8.88h-.6Zm-8.46-8.88,3.53,8.88h.62l-3.53-8.88Zm-6.29,8.88h.59v-8.88h-.59Zm-13.6-8.88v8.88h9.06l.17-.55h-8.63v-8.33Zm-6.18,8.88h.59v-8.88h-.59Zm-10.31,0h.59v-8.88h-.59Z" transform="translate(-382.32 -372.56)"/><path class="cls-3" d="M384.42,382.54v-9h-1.6V383h1.6Zm16.68,0a11.28,11.28,0,0,0-1.93-6.35,7,7,0,0,0-5.86-2.62H389V383h1.59v-8h2.68a5.42,5.42,0,0,1,4.65,2.08,9.79,9.79,0,0,1,1.57,5.41l0,.47h1.62Zm5.5-7.44H415v-1.53H405V383h1.59v-8Zm20.5,7.32-2.57-8.5-.11-.35H423l-.11.35-2.57,8.5-.2.64h1.62l.1-.36q.93-3.07,1.85-6.17.93,3.09,1.84,6.17l.11.36h1.66Z" transform="translate(-382.32 -372.56)"/><path class="cls-4" d="M384.42,382.54v-9h-1.6V383h1.6Zm16.68,0a11.28,11.28,0,0,0-1.93-6.35,7,7,0,0,0-5.86-2.62H389V383h1.59v-8h2.68a5.42,5.42,0,0,1,4.65,2.08,9.79,9.79,0,0,1,1.57,5.41l0,.47h1.62Zm5.5-7.44H415v-1.53H405V383h1.59v-8Zm20.5,7.32-2.57-8.5-.11-.35H423l-.11.35-2.57,8.5-.2.64h1.62l.1-.36q.93-3.07,1.85-6.17.93,3.09,1.84,6.17l.11.36h1.66Z" transform="translate(-382.32 -372.56)"/><path class="cls-3" d="M444.11,382.54v-9h-1.6V383h1.6Zm10.29,0v-9h-1.6V383h1.6Zm6.17-7.47H469v-1.53H459V383h1.59v-8Zm21.87,7.2a5.66,5.66,0,0,0,.88-3.16,5.33,5.33,0,0,0-1.6-4.14,6.46,6.46,0,0,0-4.48-1.43h-4.7V383h1.6v-8h3a4.92,4.92,0,0,1,3.41,1,3.81,3.81,0,0,1,1.13,3,3.88,3.88,0,0,1-1.15,3l-1,.88,1.27,0h.91l.14-.16A3.47,3.47,0,0,0,482.44,382.27Zm6.43.27v-9h-1.59V383h1.59Zm9.64-7.47h5.2v-1.53h-12v1.53h5.2v8h1.59v-8Zm14.62,7.33-2.59-8.51-.11-.35H509l-.1.35-2.59,8.51-.19.64h1.61l.11-.36,1.86-6.18c.61,2.06,1.23,4.12,1.84,6.18l.11.36h1.66Zm16.47-3.19.54-.11.48-.09-.08-.48a7.13,7.13,0,0,0-1.86-4,5.22,5.22,0,0,0-3.8-1.43,5.65,5.65,0,0,0-5.1,2.79,13.75,13.75,0,0,0-1.61,6.67l0,.52h1.62v-.48c.21-5.34,1.88-7.94,5.12-7.94a3.61,3.61,0,0,1,2.67,1A5.89,5.89,0,0,1,529,378.8l.09.5Zm6.77-4.14h8.42v-1.53h-10V383h1.6v-8Z" transform="translate(-382.32 -372.56)"/><path class="cls-4" d="M444.11,382.54v-9h-1.6V383h1.6Zm10.29,0v-9h-1.6V383h1.6Zm6.17-7.47H469v-1.53H459V383h1.59v-8Zm21.87,7.2a5.66,5.66,0,0,0,.88-3.16,5.33,5.33,0,0,0-1.6-4.14,6.46,6.46,0,0,0-4.48-1.43h-4.7V383h1.6v-8h3a4.92,4.92,0,0,1,3.41,1,3.81,3.81,0,0,1,1.13,3,3.88,3.88,0,0,1-1.15,3l-1,.88,1.27,0h.91l.14-.16A3.47,3.47,0,0,0,482.44,382.27Zm6.43.27v-9h-1.59V383h1.59Zm9.64-7.47h5.2v-1.53h-12v1.53h5.2v8h1.59v-8Zm14.62,7.33-2.59-8.51-.11-.35H509l-.1.35-2.59,8.51-.19.64h1.61l.11-.36,1.86-6.18c.61,2.06,1.23,4.12,1.84,6.18l.11.36h1.66Zm16.47-3.19.54-.11.48-.09-.08-.48a7.13,7.13,0,0,0-1.86-4,5.22,5.22,0,0,0-3.8-1.43,5.65,5.65,0,0,0-5.1,2.79,13.75,13.75,0,0,0-1.61,6.67l0,.52h1.62v-.48c.21-5.34,1.88-7.94,5.12-7.94a3.61,3.61,0,0,1,2.67,1A5.89,5.89,0,0,1,529,378.8l.09.5Zm6.77-4.14h8.42v-1.53h-10V383h1.6v-8Z" transform="translate(-382.32 -372.56)"/><path class="cls-3" d="M568.21,380.22l.54-.11.47-.09-.08-.48a9.22,9.22,0,0,0-2-4.78,5,5,0,0,0-3.91-1.7,5.62,5.62,0,0,0-5.06,2.77,13.91,13.91,0,0,0-1.62,6.69V383h1.61l0-.48a12.62,12.62,0,0,1,1.31-5.79,4.07,4.07,0,0,1,3.75-2.15c2.33,0,3.75,1.7,4.36,5.19l.08.5Zm5.89-5.15h8.42v-1.53h-10V383h1.59v-8Zm18.14,7.24-4.39-8.5-.14-.27h-1.64V383h1.59v-6.22l3.08,5.95.14.27h1.74Zm5.68.23v-9h-1.59V383h1.59Zm9.64-7.47h5.2v-1.53h-12v1.53H606v8h1.6v-8Zm9.63,0h8.42v-1.53h-10V383h1.59v-8Zm21.86,7.2a5.66,5.66,0,0,0,.88-3.16,5.33,5.33,0,0,0-1.6-4.14,6.46,6.46,0,0,0-4.48-1.43h-4.69V383h1.59v-8h3a5,5,0,0,1,3.42,1,4.56,4.56,0,0,1,0,6l-1,.88,1.27,0h.91l.15-.16A3.75,3.75,0,0,0,639.05,382.27Z" transform="translate(-382.32 -372.56)"/><path class="cls-4" d="M568.21,380.22l.54-.11.47-.09-.08-.48a9.22,9.22,0,0,0-2-4.78,5,5,0,0,0-3.91-1.7,5.62,5.62,0,0,0-5.06,2.77,13.91,13.91,0,0,0-1.62,6.69V383h1.61l0-.48a12.62,12.62,0,0,1,1.31-5.79,4.07,4.07,0,0,1,3.75-2.15c2.33,0,3.75,1.7,4.36,5.19l.08.5Zm5.89-5.15h8.42v-1.53h-10V383h1.59v-8Zm18.14,7.24-4.39-8.5-.14-.27h-1.64V383h1.59v-6.22l3.08,5.95.14.27h1.74Zm5.68.23v-9h-1.59V383h1.59Zm9.64-7.47h5.2v-1.53h-12v1.53H606v8h1.6v-8Zm9.63,0h8.42v-1.53h-10V383h1.59v-8Zm21.86,7.2a5.66,5.66,0,0,0,.88-3.16,5.33,5.33,0,0,0-1.6-4.14,6.46,6.46,0,0,0-4.48-1.43h-4.69V383h1.59v-8h3a5,5,0,0,1,3.42,1,4.56,4.56,0,0,1,0,6l-1,.88,1.27,0h.91l.15-.16A3.75,3.75,0,0,0,639.05,382.27Z" transform="translate(-382.32 -372.56)"/></g></svg>