<svg id="Warstwa_1" data-name="Warstwa 1" xmlns="http://www.w3.org/2000/svg" xmlns:xlink="http://www.w3.org/1999/xlink" viewBox="0 0 23.78 31.41"><defs><style>.cls-1,.cls-5,.cls-7{fill:none;}.cls-2{clip-path:url(#clip-path);}.cls-3{fill:#ffeaca;}.cls-4{clip-path:url(#clip-path-2);}.cls-5{stroke:#00393f;stroke-width:0.74px;}.cls-6{fill:#00393f;}.cls-7{stroke:#ffeaca;stroke-width:0.99px;}</style><clipPath id="clip-path" transform="translate(-952.63 -519.91)"><rect class="cls-1" x="952.63" y="523.72" width="23.78" height="23.78"/></clipPath><clipPath id="clip-path-2" transform="translate(-952.63 -519.91)"><path class="cls-1" d="M953.12,535.61a11.4,11.4,0,1,0,11.4-11.39,11.39,11.39,0,0,0-11.4,11.39"/></clipPath></defs><g class="cls-2"><path class="cls-3" d="M964.52,547a11.4,11.4,0,1,0-11.4-11.4,11.39,11.39,0,0,0,11.4,11.4" transform="translate(-952.63 -519.91)"/></g><g class="cls-4"><line class="cls-5" x1="11.9" y1="31.41" x2="11.9" y2="0.7"/><polyline class="cls-5" points="18.32 2.46 18.32 18.12 11.9 23.56"/><polyline class="cls-5" points="5.45 0 5.45 11.53 11.66 15.35"/><path class="cls-6" d="M970.94,539.56a1.52,1.52,0,1,0-1.52-1.52,1.52,1.52,0,0,0,1.52,1.52" transform="translate(-952.63 -519.91)"/><path class="cls-6" d="M964.52,536.76a1.52,1.52,0,1,0-1.52-1.52,1.52,1.52,0,0,0,1.52,1.52" transform="translate(-952.63 -519.91)"/><path class="cls-6" d="M964.52,545a1.52,1.52,0,1,0-1.52-1.52,1.52,1.52,0,0,0,1.52,1.52" transform="translate(-952.63 -519.91)"/><path class="cls-6" d="M958.11,533.33a1.52,1.52,0,1,0-1.53-1.52,1.52,1.52,0,0,0,1.53,1.52" transform="translate(-952.63 -519.91)"/></g><g class="cls-2"><circle class="cls-7" cx="11.89" cy="15.71" r="11.39"/></g></svg>