<svg id="Warstwa_1" data-name="Warstwa 1" xmlns="http://www.w3.org/2000/svg" xmlns:xlink="http://www.w3.org/1999/xlink" viewBox="0 0 23.78 23.78"><defs><style>.cls-1,.cls-5,.cls-7,.cls-8{fill:none;}.cls-2{clip-path:url(#clip-path);}.cls-3{fill:#ffeaca;}.cls-4{clip-path:url(#clip-path-2);}.cls-5,.cls-7{stroke:#00393f;}.cls-5{stroke-width:0.5px;}.cls-6{fill:#00393f;}.cls-7{stroke-width:0.98px;}.cls-8{stroke:#ffeaca;stroke-width:0.75px;}</style><clipPath id="clip-path" transform="translate(-978.46 -528.27)"><rect class="cls-1" x="978.46" y="528.27" width="23.78" height="23.78"/></clipPath><clipPath id="clip-path-2" transform="translate(-978.46 -528.27)"><path class="cls-1" d="M978.84,540.16a11.52,11.52,0,1,0,11.51-11.51,11.52,11.52,0,0,0-11.51,11.51"/></clipPath></defs><title>MODE_MAP</title><g class="cls-2"><path class="cls-3" d="M990.35,551.68a11.52,11.52,0,1,0-11.51-11.52,11.52,11.52,0,0,0,11.51,11.52" transform="translate(-978.46 -528.27)"/></g><g class="cls-4"><path class="cls-5" d="M990.22,529.16s-6.94,2-6.94,11.19c0,8.81,6.94,10.81,6.94,10.81" transform="translate(-978.46 -528.27)"/><path class="cls-5" d="M990.49,529.16s6.94,2,6.94,11.19c0,8.81-6.94,10.81-6.94,10.81" transform="translate(-978.46 -528.27)"/><line class="cls-5" x1="11.89" y1="0.65" x2="11.89" y2="23.13"/><line class="cls-5" x1="0.65" y1="11.89" x2="23.13" y2="11.89"/><path class="cls-5" d="M990.2,529.17s-10.66,2-10.66,11.18c0,8.81,10.66,10.81,10.66,10.81" transform="translate(-978.46 -528.27)"/><path class="cls-5" d="M990.51,529.17s10.66,2,10.66,11.18c0,8.81-10.66,10.81-10.66,10.81" transform="translate(-978.46 -528.27)"/><path class="cls-5" d="M990.22,529.16s-6.94,2-6.94,11.19c0,8.81,6.94,10.81,6.94,10.81" transform="translate(-978.46 -528.27)"/><path class="cls-5" d="M990.49,529.16s6.94,2,6.94,11.19c0,8.81-6.94,10.81-6.94,10.81" transform="translate(-978.46 -528.27)"/><path class="cls-5" d="M990.17,529.12s-2.5,2-2.5,11.23c0,8.85,2.5,10.86,2.5,10.86" transform="translate(-978.46 -528.27)"/><path class="cls-5" d="M990.54,529.12s2.5,2,2.5,11.23c0,8.85-2.5,10.86-2.5,10.86" transform="translate(-978.46 -528.27)"/><line class="cls-5" x1="11.89" y1="23.13" x2="11.89" y2="0.65"/><path class="cls-5" d="M979.36,540.31s2,10.67,11.18,10.67c8.81,0,10.81-10.67,10.81-10.67" transform="translate(-978.46 -528.27)"/><path class="cls-5" d="M979.36,540s2-10.67,11.18-10.67c8.81,0,10.81,10.67,10.81,10.67" transform="translate(-978.46 -528.27)"/><polygon class="cls-6" points="17.89 5.81 10 9.92 5.89 17.8 13.78 13.7 17.89 5.81"/><path class="cls-3" d="M990.35,540.88a.91.91,0,1,0-.91-.91.92.92,0,0,0,.91.91" transform="translate(-978.46 -528.27)"/><path class="cls-7" d="M990.35,550.91a10.75,10.75,0,1,0-10.75-10.75A10.75,10.75,0,0,0,990.35,550.91Z" transform="translate(-978.46 -528.27)"/></g><circle class="cls-8" cx="11.89" cy="11.89" r="11.52"/></svg>