<?xml version="1.0" encoding="utf-8"?>
<!-- Generator: Adobe Illustrator 21.1.0, SVG Export Plug-In . SVG Version: 6.00 Build 0)  -->
<svg version="1.1" id="Warstwa_1" xmlns="http://www.w3.org/2000/svg" xmlns:xlink="http://www.w3.org/1999/xlink" x="0px" y="0px"
	 viewBox="0 0 27.8 27.8" style="enable-background:new 0 0 27.8 27.8;" xml:space="preserve">
<style type="text/css">
	.st0{clip-path:url(#SVGID_2_);}
	.st1{fill:#FFEACA;}
	.st2{clip-path:url(#SVGID_4_);}
	.st3{fill:#00393F;}
	.st4{fill:none;stroke:#00393F;stroke-width:0.8756;}
	.st5{fill:none;stroke:#FFEACA;stroke-width:0.8756;}
</style>
<title>MODE_LIST</title>
<g>
	<defs>
		<rect id="SVGID_1_" x="0" y="0" width="27.8" height="27.8"/>
	</defs>
	<clipPath id="SVGID_2_">
		<use xlink:href="#SVGID_1_"  style="overflow:visible;"/>
	</clipPath>
	<g class="st0">
		<path class="st1" d="M13.9,27.3c7.4,0,13.4-6,13.4-13.4c0-7.4-6-13.4-13.4-13.4c-7.4,0-13.4,6-13.4,13.4
			C0.4,21.3,6.4,27.3,13.9,27.3C13.9,27.3,13.9,27.3,13.9,27.3"/>
	</g>
</g>
<g>
	<defs>
		<path id="SVGID_3_" d="M0.4,13.9c0,7.4,6,13.5,13.4,13.5c7.4,0,13.5-6,13.5-13.4c0-7.4-6-13.5-13.4-13.5c0,0,0,0,0,0
			C6.5,0.4,0.4,6.5,0.4,13.9"/>
	</defs>
	<clipPath id="SVGID_4_">
		<use xlink:href="#SVGID_3_"  style="overflow:visible;"/>
	</clipPath>
	<g class="st2">
		<polyline class="st3" points="7.9,10.2 10.3,7.8 7.9,5.5 		"/>
		<polyline class="st3" points="7.9,17.2 10.3,14.8 7.9,12.5 		"/>
		<polyline class="st3" points="7.9,24.2 10.3,21.8 7.9,19.5 		"/>
		<line class="st4" x1="11.6" y1="7.8" x2="32.4" y2="7.8"/>
		<line class="st4" x1="3.9" y1="3.5" x2="3.9" y2="24.3"/>
		<line class="st4" x1="11.6" y1="14.8" x2="32.4" y2="14.8"/>
		<line class="st4" x1="11.6" y1="21.8" x2="32.4" y2="21.8"/>
	</g>
</g>
<circle class="st5" cx="13.9" cy="13.9" r="13.4"/>
</svg>
