<svg id="Warstwa_1" data-name="Warstwa 1" xmlns="http://www.w3.org/2000/svg" xmlns:xlink="http://www.w3.org/1999/xlink" viewBox="0 0 25.11 23.78"><defs><style>.cls-1,.cls-5,.cls-6{fill:none;}.cls-2{clip-path:url(#clip-path);}.cls-3{fill:#ffeaca;}.cls-4{clip-path:url(#clip-path-2);}.cls-5{stroke:#00393f;}.cls-5,.cls-6{stroke-width:0.75px;}.cls-6{stroke:#ffeaca;}</style><clipPath id="clip-path" transform="translate(-977.8 -528.27)"><rect class="cls-1" x="979.13" y="528.27" width="23.78" height="23.78"/></clipPath><clipPath id="clip-path-2" transform="translate(-977.8 -528.27)"><path class="cls-1" d="M979.5,540.16A11.52,11.52,0,1,0,991,528.65a11.52,11.52,0,0,0-11.52,11.51"/></clipPath></defs><title>MODE_COMPARE</title><g class="cls-2"><path class="cls-3" d="M991,551.68a11.52,11.52,0,1,0-11.52-11.52A11.51,11.51,0,0,0,991,551.68" transform="translate(-977.8 -528.27)"/></g><g class="cls-4"><line class="cls-5" y1="5.87" x2="24.98" y2="5.87"/><line class="cls-5" y1="10.09" x2="24.98" y2="10.09"/><line class="cls-5" x1="8.72" y1="5.9" x2="8.72" y2="23.65"/><line class="cls-5" x1="17.72" y1="5.9" x2="17.72" y2="23.65"/><line class="cls-5" x1="10.72" y1="13" x2="15.72" y2="13"/><line class="cls-5" x1="1.33" y1="13" x2="6.33" y2="13"/><line class="cls-5" x1="20.11" y1="13" x2="25.11" y2="13"/><line class="cls-5" x1="10.72" y1="16.5" x2="15.72" y2="16.5"/><line class="cls-5" x1="1.33" y1="16.5" x2="6.33" y2="16.5"/><line class="cls-5" x1="20.11" y1="16.5" x2="25.11" y2="16.5"/><line class="cls-5" x1="10.72" y1="20" x2="15.72" y2="20"/></g><circle class="cls-6" cx="13.22" cy="11.89" r="11.52"/></svg>