<?xml version="1.0" encoding="utf-8"?>
<!-- Generator: Adobe Illustrator 21.1.0, SVG Export Plug-In . SVG Version: 6.00 Build 0)  -->
<svg version="1.1" id="Warstwa_1" xmlns="http://www.w3.org/2000/svg" xmlns:xlink="http://www.w3.org/1999/xlink" x="0px" y="0px"
	 viewBox="0 0 26 26" style="enable-background:new 0 0 26 26;" xml:space="preserve">
<style type="text/css">
	.st0{clip-path:url(#SVGID_2_);}
	.st1{fill:#FFEACA;}
	.st2{clip-path:url(#SVGID_4_);}
	.st3{fill:none;stroke:#00393F;stroke-width:0.82;}
	.st4{clip-path:url(#SVGID_6_);}
	.st5{fill:none;stroke:#FFEACA;stroke-width:1.0824;}
</style>
<g>
	<defs>
		<rect id="SVGID_1_" width="26" height="26"/>
	</defs>
	<clipPath id="SVGID_2_">
		<use xlink:href="#SVGID_1_"  style="overflow:visible;"/>
	</clipPath>
	<g class="st0">
		<path class="st1" d="M13,25.5c6.9,0,12.5-5.6,12.5-12.5c0-6.9-5.6-12.5-12.5-12.5C6.1,0.5,0.6,6.1,0.5,13c0,0,0,0,0,0
			C0.5,19.9,6.1,25.5,13,25.5L13,25.5"/>
	</g>
</g>
<g>
	<defs>
		<path id="SVGID_3_" d="M0.5,13c0,6.9,5.6,12.5,12.5,12.5S25.5,19.9,25.5,13S19.9,0.5,13,0.5c0,0,0,0,0,0C6.1,0.5,0.5,6.1,0.5,13
			C0.5,13,0.5,13,0.5,13"/>
	</defs>
	<clipPath id="SVGID_4_">
		<use xlink:href="#SVGID_3_"  style="overflow:visible;"/>
	</clipPath>
	<g class="st2">
		<line class="st3" x1="15.1" y1="29.2" x2="14.7" y2="19.5"/>
		<polyline class="st3" points="12.8,18 14.8,19.4 18.8,16.4 		"/>
		<polyline class="st3" points="14.8,19.4 12.8,21.4 10.5,19.1 		"/>
		<polyline class="st3" points="15.1,19.4 16.8,21.4 20.8,18.4 		"/>
		<path class="st3" d="M4.3,23.8l3.8-3.1l4.4-2.9l-2.3-1.4L8.1,7.9c0,0,0-2.2,3.2-3.2s5.3,0,6.4,2.1c0.7,1.3,1,2.8,1.1,4.3
			c0,0,1.1,2.2,0,3.2c-1.1,1,1.1,3.2,1.1,3.2l5,3.1c-1.3,3.1-4.2,5.3-7.6,5.5C12.9,26.1,8.5,25.4,4.3,23.8z"/>
		<line class="st3" x1="-1.6" y1="13" x2="9.3" y2="13"/>
		<line class="st3" x1="19.4" y1="13" x2="26.8" y2="13"/>
	</g>
</g>
<g>
	<defs>
		<rect id="SVGID_5_" width="26" height="26"/>
	</defs>
	<clipPath id="SVGID_6_">
		<use xlink:href="#SVGID_5_"  style="overflow:visible;"/>
	</clipPath>
	<g class="st4">
		<circle class="st5" cx="13" cy="13" r="12.5"/>
	</g>
</g>
</svg>
