<svg id="Warstwa_1" data-name="Warstwa 1" xmlns="http://www.w3.org/2000/svg" xmlns:xlink="http://www.w3.org/1999/xlink" viewBox="0 0 15.9 15.9"><defs><style>.cls-1,.cls-4{fill:none;}.cls-2{clip-path:url(#clip-path);}.cls-3{fill:#00393f;}.cls-4{stroke:#ffeacb;stroke-width:0.99px;}</style><clipPath id="clip-path" transform="translate(-989.37 -595.7)"><rect class="cls-1" x="989.37" y="595.7" width="15.9" height="15.9"/></clipPath></defs><g class="cls-2"><path class="cls-3" d="M997.32,611.1a7.46,7.46,0,1,0-7.45-7.45,7.46,7.46,0,0,0,7.45,7.45" transform="translate(-989.37 -595.7)"/><circle class="cls-4" cx="7.95" cy="7.95" r="7.45"/><path class="cls-3" d="M997.32,604.51a3,3,0,1,0-3-3,2.95,2.95,0,0,0,3,3" transform="translate(-989.37 -595.7)"/><circle class="cls-4" cx="7.95" cy="5.86" r="2.95"/><path class="cls-3" d="M1003.79,607.39c0-2-1.75-3.2-4.22-3.85" transform="translate(-989.37 -595.7)"/><path class="cls-4" d="M1003.79,607.39c0-2-1.75-3.2-4.22-3.85" transform="translate(-989.37 -595.7)"/><path class="cls-3" d="M995,603.55c-2.45.65-4.19,1.88-4.19,3.84" transform="translate(-989.37 -595.7)"/><path class="cls-4" d="M995,603.55c-2.45.65-4.19,1.88-4.19,3.84" transform="translate(-989.37 -595.7)"/></g></svg>