<svg id="Warstwa_1" data-name="Warstwa 1" xmlns="http://www.w3.org/2000/svg" xmlns:xlink="http://www.w3.org/1999/xlink" viewBox="0 0 16.09 16.08"><defs><style>.cls-1,.cls-4{fill:none;}.cls-2{clip-path:url(#clip-path);}.cls-3{fill:#00393f;}.cls-4{stroke:#ffeaca;stroke-width:0.76px;}.cls-5{fill:#fff;}</style><clipPath id="clip-path" transform="translate(-970.31 -539.47)"><rect class="cls-1" x="970.31" y="539.47" width="16.08" height="16.08"/></clipPath></defs><title>wiki</title><g class="cls-2"><path class="cls-3" d="M978.35,555.18a7.67,7.67,0,1,0-7.66-7.66,7.66,7.66,0,0,0,7.66,7.66" transform="translate(-970.31 -539.47)"/></g><g class="cls-2"><path class="cls-4" d="M978.35,555.18a7.67,7.67,0,1,0-7.66-7.66A7.66,7.66,0,0,0,978.35,555.18Z" transform="translate(-970.31 -539.47)"/></g><path id="Wikipedia" class="cls-5" d="M982.69,545h-1.86l-.13,0v.18s.06,0,.08,0,.06,0,.08,0H981a.4.4,0,0,1,.32.12c.08.08.09.2,0,.37l-1.65,4.3-.06,0-1-2.35,0-.05.86-1.76c.1-.19.19-.36.24-.43s.13-.17.38-.18c0,0,.07,0,.07-.08V545h-1.51v.18s0,0,0,0,0,0,0,0h.07a.41.41,0,0,1,.3.1c0,.06.07.13,0,.39l-.66,1.45-.59-1.34c-.2-.43-.25-.56,0-.59H978s0,0,0-.07V545H976.4v.2s0,.06.12.07c.28,0,.27.07.54.66l.16.36.63,1.34.18.44-.91,2h-.05s-1.4-3.25-1.8-4.34a.58.58,0,0,1-.06-.24q0-.16.27-.18h.27c.06,0,.15,0,.15-.07V545l-.08,0h-2.07l0,0v.19s0,0,.12.06a.71.71,0,0,1,.42.11,1.46,1.46,0,0,1,.24.47c.51,1.34,1.59,3.74,2.12,5.11.15.37.34.43.57,0s.72-1.56,1.07-2.36c.33.79.77,1.87,1,2.35s.37.43.57,0c.51-1.26,2-5.08,2-5.08a1.13,1.13,0,0,1,.27-.43.89.89,0,0,1,.54-.17s.07,0,.07-.08V545Z" transform="translate(-970.31 -539.47)"/></svg>